<svg xmlns="http://www.w3.org/2000/svg" style="display: none;">
  <symbol id="blog" viewBox="0 0 430.117 430.118">
    <path id="Blogger" d="M292.938,430.118c74.995,0,135.91-61.092,136.335-135.672l0.844-109.816l-1.269-5.974l-3.604-7.516 l-6.091-4.711c-7.915-6.21-48.015,0.42-58.81-9.388c-7.663-6.996-8.858-19.637-11.173-36.77 c-4.308-33.18-7.028-34.912-12.228-46.162C318.07,34.166,266.84,4.149,231.646,0h-95.332C61.316,0,0,61.181,0,135.908v158.538 c0,74.58,61.316,135.672,136.313,135.672H292.938z M138.05,111.032h75.581c14.431,0,26.117,11.714,26.117,25.951 c0,14.179-11.687,25.989-26.117,25.989H138.05c-14.433,0-26.096-11.815-26.096-25.989 C111.954,122.747,123.617,111.032,138.05,111.032z M111.954,292.439c0-14.234,11.663-25.86,26.096-25.86h153.577 c14.337,0,25.977,11.626,25.977,25.86c0,14.043-11.64,25.855-25.977,25.855H138.05 C123.617,318.294,111.954,306.482,111.954,292.439z"/>
  </symbol>
  <symbol id="linkedin" viewBox="0 0 430.117 430.117">
    <path id="LinkedIn" d="M430.117,261.543V420.56h-92.188V272.193c0-37.271-13.334-62.707-46.703-62.707 c-25.473,0-40.632,17.142-47.301,33.724c-2.432,5.928-3.058,14.179-3.058,22.477V420.56h-92.219c0,0,1.242-251.285,0-277.32h92.21 v39.309c-0.187,0.294-0.43,0.611-0.606,0.896h0.606v-0.896c12.251-18.869,34.13-45.824,83.102-45.824 C384.633,136.724,430.117,176.361,430.117,261.543z M52.183,9.558C20.635,9.558,0,30.251,0,57.463 c0,26.619,20.038,47.94,50.959,47.94h0.616c32.159,0,52.159-21.317,52.159-47.94C103.128,30.251,83.734,9.558,52.183,9.558z M5.477,420.56h92.184v-277.32H5.477V420.56z"/>
  </symbol>
  <symbol id="facebook" viewBox="0 0 96.124 96.123">
    <path d="M72.089,0.02L59.624,0C45.62,0,36.57,9.285,36.57,23.656v10.907H24.037c-1.083,0-1.96,0.878-1.96,1.961v15.803 c0,1.083,0.878,1.96,1.96,1.96h12.533v39.876c0,1.083,0.877,1.96,1.96,1.96h16.352c1.083,0,1.96-0.878,1.96-1.96V54.287h14.654 c1.083,0,1.96-0.877,1.96-1.96l0.006-15.803c0-0.52-0.207-1.018-0.574-1.386c-0.367-0.368-0.867-0.575-1.387-0.575H56.842v-9.246 c0-4.444,1.059-6.7,6.848-6.7l8.397-0.003c1.082,0,1.959-0.878,1.959-1.96V1.98C74.046,0.899,73.17,0.022,72.089,0.02z"/>
  </symbol>
  <symbol id="twitter" viewBox="0 0 612 612">
    <path d="M612,116.258c-22.525,9.981-46.694,16.75-72.088,19.772c25.929-15.527,45.777-40.155,55.184-69.411 c-24.322,14.379-51.169,24.82-79.775,30.48c-22.907-24.437-55.49-39.658-91.63-39.658c-69.334,0-125.551,56.217-125.551,125.513 c0,9.828,1.109,19.427,3.251,28.606C197.065,206.32,104.556,156.337,42.641,80.386c-10.823,18.51-16.98,40.078-16.98,63.101 c0,43.559,22.181,81.993,55.835,104.479c-20.575-0.688-39.926-6.348-56.867-15.756v1.568c0,60.806,43.291,111.554,100.693,123.104 c-10.517,2.83-21.607,4.398-33.08,4.398c-8.107,0-15.947-0.803-23.634-2.333c15.985,49.907,62.336,86.199,117.253,87.194 c-42.947,33.654-97.099,53.655-155.916,53.655c-10.134,0-20.116-0.612-29.944-1.721c55.567,35.681,121.536,56.485,192.438,56.485 c230.948,0,357.188-191.291,357.188-357.188l-0.421-16.253C573.872,163.526,595.211,141.422,612,116.258z"/>
  </symbol>
  <symbol id="user" viewBox="0 0 55 55">
    <title>user</title>
    <path d="M55,27.5C55,12.337,42.663,0,27.5,0S0,12.337,0,27.5c0,8.009,3.444,15.228,8.926,20.258l-0.026,0.023l0.892,0.752 c0.058,0.049,0.121,0.089,0.179,0.137c0.474,0.393,0.965,0.766,1.465,1.127c0.162,0.117,0.324,0.234,0.489,0.348 c0.534,0.368,1.082,0.717,1.642,1.048c0.122,0.072,0.245,0.142,0.368,0.212c0.613,0.349,1.239,0.678,1.88,0.98 c0.047,0.022,0.095,0.042,0.142,0.064c2.089,0.971,4.319,1.684,6.651,2.105c0.061,0.011,0.122,0.022,0.184,0.033 c0.724,0.125,1.456,0.225,2.197,0.292c0.09,0.008,0.18,0.013,0.271,0.021C25.998,54.961,26.744,55,27.5,55 c0.749,0,1.488-0.039,2.222-0.098c0.093-0.008,0.186-0.013,0.279-0.021c0.735-0.067,1.461-0.164,2.178-0.287 c0.062-0.011,0.125-0.022,0.187-0.034c2.297-0.412,4.495-1.109,6.557-2.055c0.076-0.035,0.153-0.068,0.229-0.104 c0.617-0.29,1.22-0.603,1.811-0.936c0.147-0.083,0.293-0.167,0.439-0.253c0.538-0.317,1.067-0.648,1.581-1 c0.185-0.126,0.366-0.259,0.549-0.391c0.439-0.316,0.87-0.642,1.289-0.983c0.093-0.075,0.193-0.14,0.284-0.217l0.915-0.764 l-0.027-0.023C51.523,42.802,55,35.55,55,27.5z M2,27.5C2,13.439,13.439,2,27.5,2S53,13.439,53,27.5 c0,7.577-3.325,14.389-8.589,19.063c-0.294-0.203-0.59-0.385-0.893-0.537l-8.467-4.233c-0.76-0.38-1.232-1.144-1.232-1.993v-2.957 c0.196-0.242,0.403-0.516,0.617-0.817c1.096-1.548,1.975-3.27,2.616-5.123c1.267-0.602,2.085-1.864,2.085-3.289v-3.545 c0-0.867-0.318-1.708-0.887-2.369v-4.667c0.052-0.519,0.236-3.448-1.883-5.864C34.524,9.065,31.541,8,27.5,8 s-7.024,1.065-8.867,3.168c-2.119,2.416-1.935,5.345-1.883,5.864v4.667c-0.568,0.661-0.887,1.502-0.887,2.369v3.545 c0,1.101,0.494,2.128,1.34,2.821c0.81,3.173,2.477,5.575,3.093,6.389v2.894c0,0.816-0.445,1.566-1.162,1.958l-7.907,4.313 c-0.252,0.137-0.502,0.297-0.752,0.476C5.276,41.792,2,35.022,2,27.5z M42.459,48.132c-0.35,0.254-0.706,0.5-1.067,0.735 c-0.166,0.108-0.331,0.216-0.5,0.321c-0.472,0.292-0.952,0.57-1.442,0.83c-0.108,0.057-0.217,0.111-0.326,0.167 c-1.126,0.577-2.291,1.073-3.488,1.476c-0.042,0.014-0.084,0.029-0.127,0.043c-0.627,0.208-1.262,0.393-1.904,0.552 c-0.002,0-0.004,0.001-0.006,0.001c-0.648,0.16-1.304,0.293-1.964,0.402c-0.018,0.003-0.036,0.007-0.054,0.01 c-0.621,0.101-1.247,0.174-1.875,0.229c-0.111,0.01-0.222,0.017-0.334,0.025C28.751,52.97,28.127,53,27.5,53 c-0.634,0-1.266-0.031-1.895-0.078c-0.109-0.008-0.218-0.015-0.326-0.025c-0.634-0.056-1.265-0.131-1.89-0.233 c-0.028-0.005-0.056-0.01-0.084-0.015c-1.322-0.221-2.623-0.546-3.89-0.971c-0.039-0.013-0.079-0.027-0.118-0.04 c-0.629-0.214-1.251-0.451-1.862-0.713c-0.004-0.002-0.009-0.004-0.013-0.006c-0.578-0.249-1.145-0.525-1.705-0.816 c-0.073-0.038-0.147-0.074-0.219-0.113c-0.511-0.273-1.011-0.568-1.504-0.876c-0.146-0.092-0.291-0.185-0.435-0.279 c-0.454-0.297-0.902-0.606-1.338-0.933c-0.045-0.034-0.088-0.07-0.133-0.104c0.032-0.018,0.064-0.036,0.096-0.054l7.907-4.313 c1.36-0.742,2.205-2.165,2.205-3.714l-0.001-3.602l-0.23-0.278c-0.022-0.025-2.184-2.655-3.001-6.216l-0.091-0.396l-0.341-0.221 c-0.481-0.311-0.769-0.831-0.769-1.392v-3.545c0-0.465,0.197-0.898,0.557-1.223l0.33-0.298v-5.57l-0.009-0.131 c-0.003-0.024-0.298-2.429,1.396-4.36C21.583,10.837,24.061,10,27.5,10c3.426,0,5.896,0.83,7.346,2.466 c1.692,1.911,1.415,4.361,1.413,4.381l-0.009,5.701l0.33,0.298c0.359,0.324,0.557,0.758,0.557,1.223v3.545 c0,0.713-0.485,1.36-1.181,1.575l-0.497,0.153l-0.16,0.495c-0.59,1.833-1.43,3.526-2.496,5.032c-0.262,0.37-0.517,0.698-0.736,0.949 l-0.248,0.283V39.8c0,1.612,0.896,3.062,2.338,3.782l8.467,4.233c0.054,0.027,0.107,0.055,0.16,0.083 C42.677,47.979,42.567,48.054,42.459,48.132z"/>
  </symbol>
  <symbol id="phone" viewBox="0 0 578.106 578.106">
    <path style="fill:#000000;" d="M577.83,456.128c1.225,9.385-1.635,17.545-8.568,24.48l-81.396,80.781 c-3.672,4.08-8.465,7.551-14.381,10.404c-5.916,2.857-11.729,4.693-17.439,5.508c-0.408,0-1.635,0.105-3.676,0.309 c-2.037,0.203-4.689,0.307-7.953,0.307c-7.754,0-20.301-1.326-37.641-3.979s-38.555-9.182-63.645-19.584 c-25.096-10.404-53.553-26.012-85.376-46.818c-31.823-20.805-65.688-49.367-101.592-85.68 c-28.56-28.152-52.224-55.08-70.992-80.783c-18.768-25.705-33.864-49.471-45.288-71.299 c-11.425-21.828-19.993-41.616-25.705-59.364S4.59,177.362,2.55,164.51s-2.856-22.95-2.448-30.294 c0.408-7.344,0.612-11.424,0.612-12.24c0.816-5.712,2.652-11.526,5.508-17.442s6.324-10.71,10.404-14.382L98.022,8.756 c5.712-5.712,12.24-8.568,19.584-8.568c5.304,0,9.996,1.53,14.076,4.59s7.548,6.834,10.404,11.322l65.484,124.236 c3.672,6.528,4.692,13.668,3.06,21.42c-1.632,7.752-5.1,14.28-10.404,19.584l-29.988,29.988c-0.816,0.816-1.53,2.142-2.142,3.978 s-0.918,3.366-0.918,4.59c1.632,8.568,5.304,18.36,11.016,29.376c4.896,9.792,12.444,21.726,22.644,35.802 s24.684,30.293,43.452,48.653c18.36,18.77,34.68,33.354,48.96,43.76c14.277,10.4,26.215,18.053,35.803,22.949 c9.588,4.896,16.932,7.854,22.031,8.871l7.648,1.531c0.816,0,2.145-0.307,3.979-0.918c1.836-0.613,3.162-1.326,3.979-2.143 l34.883-35.496c7.348-6.527,15.912-9.791,25.705-9.791c6.938,0,12.443,1.223,16.523,3.672h0.611l118.115,69.768 C571.098,441.238,576.197,447.968,577.83,456.128z"/>
  </symbol>
  <symbol id="mail" viewBox="0 0 14 14">
    <path style="fill:#000000;" d="M7,9L5.268,7.484l-4.952,4.245C0.496,11.896,0.739,12,1.007,12h11.986 c0.267,0,0.509-0.104,0.688-0.271L8.732,7.484L7,9z"/>
    <path style="fill:#000000;" d="M13.684,2.271C13.504,2.103,13.262,2,12.993,2H1.007C0.74,2,0.498,2.104,0.318,2.273L7,8 L13.684,2.271z"/>
    <polygon style="fill:#000000;" points="0,2.878 0,11.186 4.833,7.079 "/>
    <polygon style="fill:#000000;" points="9.167,7.079 14,11.186 14,2.875 "/>
  </symbol>
  <symbol id="facebook-footer" viewBox="0 0 291.319 291.319">
    <path style="fill:#3B5998;" d="M145.659,0c80.45,0,145.66,65.219,145.66,145.66c0,80.45-65.21,145.659-145.66,145.659 S0,226.109,0,145.66C0,65.219,65.21,0,145.659,0z"/>
    <path style="fill:#FFFFFF;" d="M163.394,100.277h18.772v-27.73h-22.067v0.1c-26.738,0.947-32.218,15.977-32.701,31.763h-0.055 v13.847h-18.207v27.156h18.207v72.793h27.439v-72.793h22.477l4.342-27.156h-26.81v-8.366 C154.791,104.556,158.341,100.277,163.394,100.277z"/>
  </symbol>
  <symbol id="twitter-footer" viewBox="0 0 112.197 112.197">
    <circle style="fill:#55ACEE;" cx="56.099" cy="56.098" r="56.098"/>
    <g>
      <path style="fill:#F1F2F2;" d="M90.461,40.316c-2.404,1.066-4.99,1.787-7.702,2.109c2.769-1.659,4.894-4.284,5.897-7.417 c-2.591,1.537-5.462,2.652-8.515,3.253c-2.446-2.605-5.931-4.233-9.79-4.233c-7.404,0-13.409,6.005-13.409,13.409 c0,1.051,0.119,2.074,0.349,3.056c-11.144-0.559-21.025-5.897-27.639-14.012c-1.154,1.98-1.816,4.285-1.816,6.742 c0,4.651,2.369,8.757,5.965,11.161c-2.197-0.069-4.266-0.672-6.073-1.679c-0.001,0.057-0.001,0.114-0.001,0.17 c0,6.497,4.624,11.916,10.757,13.147c-1.124,0.308-2.311,0.471-3.532,0.471c-0.866,0-1.705-0.083-2.523-0.239 c1.706,5.326,6.657,9.203,12.526,9.312c-4.59,3.597-10.371,5.74-16.655,5.74c-1.08,0-2.15-0.063-3.197-0.188 c5.931,3.806,12.981,6.025,20.553,6.025c24.664,0,38.152-20.432,38.152-38.153c0-0.581-0.013-1.16-0.039-1.734 C86.391,45.366,88.664,43.005,90.461,40.316L90.461,40.316z"/>
    </g>
  </symbol>
  <symbol id="linkedin-footer" viewBox="0 0 112.196 112.196">
    <circle style="fill:#007AB9;" cx="56.098" cy="56.097" r="56.098"/>
    <g>
      <path style="fill:#F1F2F2;" d="M89.616,60.611v23.128H76.207V62.161c0-5.418-1.936-9.118-6.791-9.118 c-3.705,0-5.906,2.491-6.878,4.903c-0.353,0.862-0.444,2.059-0.444,3.268v22.524H48.684c0,0,0.18-36.546,0-40.329h13.411v5.715 c-0.027,0.045-0.065,0.089-0.089,0.132h0.089v-0.132c1.782-2.742,4.96-6.662,12.085-6.662 C83.002,42.462,89.616,48.226,89.616,60.611L89.616,60.611z M34.656,23.969c-4.587,0-7.588,3.011-7.588,6.967 c0,3.872,2.914,6.97,7.412,6.97h0.087c4.677,0,7.585-3.098,7.585-6.97C42.063,26.98,39.244,23.969,34.656,23.969L34.656,23.969z M27.865,83.739H41.27V43.409H27.865V83.739z"/>
    </g>
  </symbol>
  <symbol id="blogger-footer" viewBox="0 0 291.319 291.319">
    <path style="fill:#FF6600;" d="M145.659,0c80.44,0,145.66,65.219,145.66,145.66S226.1,291.319,145.66,291.319S0,226.1,0,145.66 S65.21,0,145.659,0z"/>
    <path style="fill:#FFFFFF;" d="M218.089,133.324l-1.238-2.531l-2.048-1.602c-2.686-2.094-16.268,0.146-19.928-3.177 c-2.595-2.376-3.004-6.664-3.787-12.454c-1.457-11.252-2.385-11.835-4.142-15.631c-6.4-13.537-23.752-23.706-35.677-25.117h-32.3 c-25.408,0-46.174,20.729-46.174,46.047v53.694c0,25.263,20.766,45.956,46.174,45.956h53.066c25.418,0,46.056-20.684,46.192-45.956 l0.282-37.198C218.507,135.354,218.089,133.324,218.089,133.324z M118.576,109.299h26.874c5.116,0,9.286,4.088,9.286,9.067 c0,4.962-4.16,9.086-9.286,9.086h-26.874c-5.125,0-9.286-4.124-9.286-9.086C109.29,113.387,113.451,109.299,118.576,109.299z M172.907,182.065H118.54c-5.107,0-9.249-4.169-9.249-9.122c0-5.025,4.142-9.113,9.249-9.113h54.367 c5.08,0,9.195,4.088,9.195,9.113C182.102,177.896,177.987,182.065,172.907,182.065z"/>
  </symbol>
  <symbol id="phone-call" viewBox="0 0 512.076 512.076">
    <g>
      <g>
        <g>
          <path d="M499.639,396.039l-103.646-69.12c-13.153-8.701-30.784-5.838-40.508,6.579l-30.191,38.818 c-3.88,5.116-10.933,6.6-16.546,3.482l-5.743-3.166c-19.038-10.377-42.726-23.296-90.453-71.04s-60.672-71.45-71.049-90.453 l-3.149-5.743c-3.161-5.612-1.705-12.695,3.413-16.606l38.792-30.182c12.412-9.725,15.279-27.351,6.588-40.508l-69.12-103.646 C109.12,1.056,91.25-2.966,77.461,5.323L34.12,31.358C20.502,39.364,10.511,52.33,6.242,67.539 c-15.607,56.866-3.866,155.008,140.706,299.597c115.004,114.995,200.619,145.92,259.465,145.92 c13.543,0.058,27.033-1.704,40.107-5.239c15.212-4.264,28.18-14.256,36.181-27.878l26.061-43.315 C517.063,422.832,513.043,404.951,499.639,396.039z M494.058,427.868l-26.001,43.341c-5.745,9.832-15.072,17.061-26.027,20.173 c-52.497,14.413-144.213,2.475-283.008-136.32S8.29,124.559,22.703,72.054c3.116-10.968,10.354-20.307,20.198-26.061 l43.341-26.001c5.983-3.6,13.739-1.855,17.604,3.959l37.547,56.371l31.514,47.266c3.774,5.707,2.534,13.356-2.85,17.579 l-38.801,30.182c-11.808,9.029-15.18,25.366-7.91,38.332l3.081,5.598c10.906,20.002,24.465,44.885,73.967,94.379 c49.502,49.493,74.377,63.053,94.37,73.958l5.606,3.089c12.965,7.269,29.303,3.898,38.332-7.91l30.182-38.801 c4.224-5.381,11.87-6.62,17.579-2.85l103.637,69.12C495.918,414.126,497.663,421.886,494.058,427.868z"/>
          <path d="M291.161,86.39c80.081,0.089,144.977,64.986,145.067,145.067c0,4.713,3.82,8.533,8.533,8.533s8.533-3.82,8.533-8.533 c-0.099-89.503-72.63-162.035-162.133-162.133c-4.713,0-8.533,3.82-8.533,8.533S286.448,86.39,291.161,86.39z"/>
          <path d="M291.161,137.59c51.816,0.061,93.806,42.051,93.867,93.867c0,4.713,3.821,8.533,8.533,8.533 c4.713,0,8.533-3.82,8.533-8.533c-0.071-61.238-49.696-110.863-110.933-110.933c-4.713,0-8.533,3.82-8.533,8.533 S286.448,137.59,291.161,137.59z"/>
          <path d="M291.161,188.79c23.552,0.028,42.638,19.114,42.667,42.667c0,4.713,3.821,8.533,8.533,8.533s8.533-3.82,8.533-8.533 c-0.038-32.974-26.759-59.696-59.733-59.733c-4.713,0-8.533,3.82-8.533,8.533S286.448,188.79,291.161,188.79z"/>
        </g>
      </g>
    </g>
  </symbol>
  <symbol id="envelope" viewBox="0 0 31.012 31.012">
    <g>
      <path d="M25.109,21.51c-0.123,0-0.246-0.045-0.342-0.136l-5.754-5.398c-0.201-0.188-0.211-0.505-0.022-0.706 c0.189-0.203,0.504-0.212,0.707-0.022l5.754,5.398c0.201,0.188,0.211,0.505,0.022,0.706C25.375,21.457,25.243,21.51,25.109,21.51z "/>
      <path d="M5.902,21.51c-0.133,0-0.266-0.053-0.365-0.158c-0.189-0.201-0.179-0.518,0.022-0.706l5.756-5.398 c0.202-0.188,0.519-0.18,0.707,0.022c0.189,0.201,0.179,0.518-0.022,0.706l-5.756,5.398C6.148,21.465,6.025,21.51,5.902,21.51z"/>
    </g>
    <path d="M28.512,26.529H2.5c-1.378,0-2.5-1.121-2.5-2.5V6.982c0-1.379,1.122-2.5,2.5-2.5h26.012c1.378,0,2.5,1.121,2.5,2.5v17.047 C31.012,25.408,29.89,26.529,28.512,26.529z M2.5,5.482c-0.827,0-1.5,0.673-1.5,1.5v17.047c0,0.827,0.673,1.5,1.5,1.5h26.012 c0.827,0,1.5-0.673,1.5-1.5V6.982c0-0.827-0.673-1.5-1.5-1.5H2.5z"/>
    <path d="M15.506,18.018c-0.665,0-1.33-0.221-1.836-0.662L0.83,6.155C0.622,5.974,0.6,5.658,0.781,5.449 c0.183-0.208,0.498-0.227,0.706-0.048l12.84,11.2c0.639,0.557,1.719,0.557,2.357,0L29.508,5.419 c0.207-0.181,0.522-0.161,0.706,0.048c0.181,0.209,0.16,0.524-0.048,0.706L17.342,17.355 C16.835,17.797,16.171,18.018,15.506,18.018z"/>
  </symbol>
  <symbol id="calculator" viewBox="0 0 512 512">
    <g>
      <g>
        <path d="M449.393,0H62.607C45.894,0,32.298,13.597,32.298,30.309v451.381c0,16.713,13.597,30.309,30.309,30.309h386.786 c16.713,0,30.309-13.597,30.309-30.309V30.309C479.702,13.597,466.106,0,449.393,0z M56.545,30.309 c0-3.342,2.719-6.062,6.062-6.062h386.786c3.342,0,6.062,2.719,6.062,6.062v105.1H56.545V30.309z M173.35,487.751H62.607 c-3.342,0.001-6.062-2.719-6.062-6.061V335.796H173.35V487.751z M173.35,311.549H56.545V159.657H173.35V311.549z M314.402,487.753 H197.597V335.796h116.805V487.753z M314.402,311.549H197.597V159.657h116.805V311.549z M455.455,481.69 c0,3.342-2.721,6.063-6.062,6.063H338.649V159.657h116.806V481.69z"/>
      </g>
    </g>
    <g>
      <g>
        <path d="M144.921,223.48h-17.85v-17.85c0-6.696-5.428-12.124-12.124-12.124s-12.124,5.428-12.124,12.124v17.85h-17.85 c-6.696,0-12.124,5.429-12.124,12.124s5.428,12.124,12.124,12.124h17.85v17.851c0,6.696,5.428,12.124,12.124,12.124 s12.124-5.428,12.124-12.124v-17.851h17.85c6.696,0,12.124-5.429,12.124-12.124S151.617,223.48,144.921,223.48z"/>
      </g>
    </g>
    <g>
      <g>
        <path d="M286.573,223.48h-61.147c-6.696,0-12.124,5.429-12.124,12.124s5.428,12.124,12.124,12.124h61.147 c6.695,0,12.124-5.429,12.124-12.124S293.268,223.48,286.573,223.48z"/>
      </g>
    </g>
    <g>
      <g>
        <path d="M132.093,411.806l14.635-14.635c4.734-4.734,4.734-12.411,0-17.147c-4.734-4.733-12.411-4.733-17.147,0l-14.635,14.635 l-14.635-14.635c-4.734-4.733-12.411-4.733-17.147,0c-4.734,4.734-4.734,12.411,0,17.147L97.8,411.806l-14.635,14.635 c-4.734,4.734-4.734,12.411,0,17.145c2.368,2.367,5.47,3.551,8.573,3.551c3.102,0,6.206-1.184,8.573-3.551l14.635-14.635 l14.635,14.635c2.368,2.367,5.47,3.551,8.573,3.551s6.206-1.184,8.573-3.551c4.734-4.734,4.734-12.411,0-17.145L132.093,411.806z"/>
      </g>
    </g>
    <g>
      <g>
        <path d="M287.776,380.025c-4.736-4.733-12.41-4.733-17.147,0l-46.416,46.416c-4.733,4.734-4.733,12.411,0.001,17.147 c2.368,2.367,5.47,3.551,8.573,3.551s6.206-1.185,8.573-3.551l46.416-46.416C292.51,392.437,292.51,384.76,287.776,380.025z"/>
      </g>
    </g>
    <g>
      <g>
        <circle cx="232.787" cy="388.601" r="10.342"/>
      </g>
    </g>
    <g>
      <g>
        <circle cx="279.209" cy="435.011" r="10.34"/>
      </g>
    </g>
    <g>
      <g>
        <path d="M427.684,290.423h-61.971c-6.695,0-12.124,5.428-12.124,12.124c0,6.695,5.429,12.124,12.124,12.124h61.971 c6.695,0,12.124-5.429,12.124-12.124C439.808,295.851,434.38,290.423,427.684,290.423z"/>
      </g>
    </g>
    <g>
      <g>
        <path d="M427.684,332.739h-61.971c-6.695,0-12.124,5.429-12.124,12.124c0,6.695,5.429,12.124,12.124,12.124h61.971 c6.695,0,12.124-5.429,12.124-12.124C439.808,338.168,434.38,332.739,427.684,332.739z"/>
      </g>
    </g>
  </symbol>
  <symbol id="close" viewBox="0 0 64 64">
    <title>close</title>
    <path fill="#1D1D1B" d="M28.941,31.786L0.613,60.114c-0.787,0.787-0.787,2.062,0,2.849c0.393,0.394,0.909,0.59,1.424,0.59 c0.516,0,1.031-0.196,1.424-0.59l28.541-28.541l28.541,28.541c0.394,0.394,0.909,0.59,1.424,0.59c0.515,0,1.031-0.196,1.424-0.59 c0.787-0.787,0.787-2.062,0-2.849L35.064,31.786L63.41,3.438c0.787-0.787,0.787-2.062,0-2.849c-0.787-0.786-2.062-0.786-2.848,0 L32.003,29.15L3.441,0.59c-0.787-0.786-2.061-0.786-2.848,0c-0.787,0.787-0.787,2.062,0,2.849L28.941,31.786z"/>
  </symbol>
</svg>