<?xml version="1.0" standalone="no"?>
<!DOCTYPE svg PUBLIC "-//W3C//DTD SVG 1.1//EN" "http://www.w3.org/Graphics/SVG/1.1/DTD/svg11.dtd" >
<svg>
<metadata>
Created by FontForge 20090914 at Mon Feb  4 06:39:44 2019
 By www-data
&#194;&#169; 2005 Microsoft Corporation. All Rights Reserved.
</metadata>
<defs>
<font id="ConvectionMedium" horiz-adv-x="1047" >
  <font-face 
    font-family="Convection Medium"
    font-weight="400"
    font-stretch="normal"
    units-per-em="2048"
    panose-1="2 11 6 4 4 5 1 4 2 3"
    ascent="1638"
    descent="-410"
    x-height="1024"
    cap-height="1413"
    bbox="-430 -410.002 2513 1980"
    underline-thickness="102"
    underline-position="-103"
    unicode-range="U+000D-U+FB02"
  />
<missing-glyph horiz-adv-x="492" 
 />
    <glyph glyph-name=".notdef" horiz-adv-x="492" 
 />
    <glyph glyph-name=".null" horiz-adv-x="0" 
 />
    <glyph glyph-name=".null" horiz-adv-x="0" 
 />
    <glyph glyph-name="nonmarkingreturn" unicode="&#xd;" horiz-adv-x="492" 
 />
    <glyph glyph-name="space" unicode=" " horiz-adv-x="492" 
 />
    <glyph glyph-name="exclam" unicode="!" horiz-adv-x="604" 
d="M215 406l-35 1007h240l-35 -1007h-170zM424 240v-240h-240v240h240z" />
    <glyph glyph-name="quotedbl" unicode="&#x22;" horiz-adv-x="813" 
d="M143 918l-41 495h211l-41 -495h-129zM541 918l-41 495h211l-41 -495h-129z" />
    <glyph glyph-name="numbersign" unicode="#" horiz-adv-x="1149" 
d="M891 868l-68 -344h244v-141h-272l-82 -424h-142l84 424h-288l-84 -424h-140l82 424h-143v141h172l68 344h-240v142h266l88 444h142l-89 -444h289l88 444h140l-88 -444h149v-142h-176zM393 524h289l68 344h-289z" />
    <glyph glyph-name="dollar" unicode="$" horiz-adv-x="1024" 
d="M446 -84v185.999c-36 2 -72.833 6.5 -110.5 13.5s-73.834 16.667 -108.501 29s-67.167 27.333 -97.5 45s-56.5 38.5 -78.5 62.5v231c22.667 -28.667 49.167 -54.667 79.5 -78s62.833 -43.333 97.5 -60s70.667 -30 108 -40s74 -16.667 110 -20v364l-32 10
c-48 15.333 -92.833 32.166 -134.5 50.499s-78 40 -109 65s-55.5 53.667 -73.5 86s-27 69.833 -27 112.5v41c0 43.333 9 82.333 27 117s43.5 64.667 76.5 90s72.667 45.5 119 60.5s97.5 24.167 153.5 27.5v155h117v-153c52 -1.33301 99.833 -9.33301 143.5 -24
s82.667 -35.167 117 -61.5s63.333 -58.333 87 -96s41.167 -80.5 52.5 -128.5l-199 -36c-6.66699 34.667 -16.167 62.667 -28.5 84s-27 37.833 -44 49.5s-36.333 19.834 -58 24.501s-45.167 8 -70.5 10v-322l107 -33c43.333 -13.333 83.833 -29 121.5 -47
s70.334 -39 98.001 -63s49.5 -51.667 65.5 -83s24 -66.666 24 -105.999v-69c0 -42.667 -10.167 -82.5 -30.5 -119.5s-49 -69.333 -86 -97s-80.833 -49.5 -131.5 -65.5s-106.667 -24.667 -168 -26v-186h-117zM776 450.999c0 13.333 -2.5 26.501 -7.5 39.501
s-13.333 25.667 -25 38s-27.334 24 -47.001 35s-44.167 21.167 -73.5 30.5l-60 18v-329c72.667 1.33301 126.334 14.666 161.001 39.999s52 57 52 95v33zM270 995c0 -19.333 4.5 -36.332 13.5 -50.999s21.5 -27.834 37.5 -39.501s34.667 -22 56 -31s44.333 -17.5 69 -25.5
v285c-54 -3.33301 -96.833 -14.833 -128.5 -34.5s-47.5 -48.5 -47.5 -86.5v-17z" />
    <glyph glyph-name="percent" unicode="%" horiz-adv-x="1800" 
d="M72 1104c0 61.333 8.16699 113 24.5 155s39.166 76.167 68.499 102.5s64.833 45.333 106.5 57s87.834 17.5 138.501 17.5h6c50.667 0 96.834 -5.83301 138.501 -17.5s77.5 -30.667 107.5 -57s53.167 -60.5 69.5 -102.5s24.5 -93.667 24.5 -155v-160
c0 -60.667 -8.16699 -112.167 -24.5 -154.5s-39.5 -76.666 -69.5 -102.999s-65.833 -45.333 -107.5 -57s-87.834 -17.5 -138.501 -17.5h-6c-50.667 0 -96.834 5.83301 -138.501 17.5s-77.167 30.667 -106.5 57s-52.166 60.666 -68.499 102.999s-24.5 93.833 -24.5 154.5v160
zM260 961c0 -28 2 -53.5 6 -76.5s11.167 -42.5 21.5 -58.5s24.833 -28.333 43.5 -37s42.667 -13 72 -13h23c29.333 0 53.166 4.33301 71.499 13s32.666 21 42.999 37s17.333 35.5 21 58.5s5.5 48.5 5.5 76.5v126c0 28 -1.83301 53.5 -5.5 76.5s-10.667 42.5 -21 58.5
s-24.666 28.333 -42.999 37s-42.166 13 -71.499 13h-23c-29.333 0 -53.333 -4.33301 -72 -13s-33.167 -21 -43.5 -37s-17.5 -35.5 -21.5 -58.5s-6 -48.5 -6 -76.5v-126zM1350 1436l-707 -1436h-199l707 1436h199zM1044 492c0 60.667 8.16699 112 24.5 154
s39.333 76.167 69 102.5s65.167 45.333 106.5 57s87.333 17.5 138 17.5h7c50.667 0 96.834 -5.83301 138.501 -17.5s77.5 -30.667 107.5 -57s53.167 -60.5 69.5 -102.5s24.5 -93.333 24.5 -154v-160c0 -60.667 -8.16699 -112.167 -24.5 -154.5s-39.5 -76.666 -69.5 -102.999
s-65.833 -45.333 -107.5 -57s-87.834 -17.5 -138.501 -17.5h-7c-50.667 0 -96.667 5.83301 -138 17.5s-76.833 30.667 -106.5 57s-52.667 60.666 -69 102.999s-24.5 93.833 -24.5 154.5v160zM1233 348c0 -28 1.83301 -53.333 5.5 -76s10.834 -42 21.501 -58
s25.167 -28.333 43.5 -37s42.5 -13 72.5 -13h23c29.333 0 53.166 4.33301 71.499 13s32.666 21 42.999 37s17.333 35.333 21 58s5.5 48 5.5 76v127c0 28 -1.83301 53.333 -5.5 76s-10.667 42 -21 58s-24.666 28.333 -42.999 37s-42.166 13 -71.499 13h-23
c-30 0 -54.167 -4.33301 -72.5 -13s-32.833 -21 -43.5 -37s-17.834 -35.333 -21.501 -58s-5.5 -48 -5.5 -76v-127z" />
    <glyph glyph-name="ampersand" unicode="&#x26;" horiz-adv-x="1313" 
d="M461 -20c-62.667 0 -118.33 6.99609 -166.997 20.9961s-89.334 37 -122.001 69s-57.5 73.833 -74.5 125.5s-25.5 115.5 -25.5 191.5v47c0 54 4.66699 101.167 14 141.5s24.166 75.833 44.499 106.5s47 57.334 80 80.001s73.5 43.667 121.5 63
c-30 55.333 -51.833 105.333 -65.5 150s-20.5 90.334 -20.5 137.001v23c0 42.667 6 81.167 18 115.5s31.167 63.5 57.5 87.5s60.333 42.5 102 55.5s92.167 19.5 151.5 19.5h11c110 0 193.833 -23.167 251.5 -69.5s86.5 -115.166 86.5 -206.499v-15
c0 -58 -7.5 -106.167 -22.5 -144.5s-36.833 -71.5 -65.5 -99.5s-64 -52.833 -106 -74.5s-90 -44.5 -144 -68.5l143 -223l23.5 -35l27.5 -40l28 -38.5c9.33301 -12.333 18 -22.833 26 -31.5c32.667 40 60.167 79.5 82.5 118.5s40.166 78.833 53.499 119.5
s23 82.834 29 126.501s9 89.834 9 138.501h196c0 -56 -5.16699 -110.333 -15.5 -163s-26.5 -105 -48.5 -157s-49.833 -104.167 -83.5 -156.5s-73.834 -105.833 -120.501 -160.5c20.667 -22.667 42.167 -40.834 64.5 -54.501s49.833 -20.5 82.5 -20.5
c42 0 79.333 6.16699 112 18.5s61.667 25.833 87 40.5v-178c-21.333 -14.667 -48.166 -28.167 -80.499 -40.5s-71.833 -18.5 -118.5 -18.5c-34.667 0 -65.334 2.83301 -92.001 8.5s-51 13.834 -73 24.501s-42.5 24.167 -61.5 40.5s-38.167 34.833 -57.5 55.5
c-18 -17.333 -36.833 -33.833 -56.5 -49.5s-42.5 -29.334 -68.5 -41.001s-56.167 -21 -90.5 -28s-75.166 -10.5 -122.499 -10.5zM412.004 673.996l-18.999 -8.00098c-24.667 -11.333 -45 -24 -61 -38s-28.667 -30.667 -38 -50s-15.666 -42 -18.999 -68s-5 -56.667 -5 -92
v-10c0 -45.333 3.66699 -83.833 11 -115.5s18.666 -57.5 33.999 -77.5s35 -34.5 59 -43.5s53 -13.5 87 -13.5c59.333 0 107.833 8.16699 145.5 24.5s68.167 36.833 91.5 61.5c-8.66699 10.667 -18.334 23.334 -29.001 38.001l-33.5 47l-35.5 51.5l-35 51.5zM725.005 1137
c0 32.667 -9.49902 58.833 -28.499 78.5s-52.5 29.5 -100.5 29.5h-21c-44 0 -76.833 -9.16699 -98.5 -27.5s-32.5 -50.166 -32.5 -95.499v-35c0 -28 6 -59 18 -93s29.333 -69.667 52 -107c36 14 67.333 27.167 94 39.5s48.667 26.166 66 41.499s30.166 33 38.499 53
s12.5 44.333 12.5 73v43z" />
    <glyph glyph-name="quotesingle" unicode="'" horiz-adv-x="416" 
d="M143 918l-41 495h211l-41 -495h-129z" />
    <glyph glyph-name="parenleft" unicode="(" horiz-adv-x="535" 
d="M514 -266c-64 0 -122.5 15.6689 -175.5 47.002s-98.5 78 -136.5 140s-67.5 139.333 -88.5 232s-31.5 200.667 -31.5 324v213c0 123.333 10.5 231.5 31.5 324.5s50.5 170.5 88.5 232.5s83.5 108.667 136.5 140s111.5 47 175.5 47v-185
c-73.333 0 -129.5 -45.833 -168.5 -137.5s-58.5 -234.834 -58.5 -429.501v-197c0 -194.667 19.5 -337.834 58.5 -429.501s95.167 -137.5 168.5 -137.5v-184z" />
    <glyph glyph-name="parenright" unicode=")" horiz-adv-x="535" 
d="M20 -82c74 0 130.5 45.8311 169.5 137.498s58.5 234.834 58.5 429.501v197c0 194.667 -19.5 337.834 -58.5 429.501s-95.5 137.5 -169.5 137.5v185c64 0 122.5 -15.667 175.5 -47s98.667 -78 137 -140s68 -139.5 89 -232.5s31.5 -201.167 31.5 -324.5v-213
c0 -123.333 -10.5 -231.333 -31.5 -324s-50.667 -170 -89 -232s-84 -108.667 -137 -140s-111.5 -47 -175.5 -47v184z" />
    <glyph glyph-name="asterisk" unicode="*" horiz-adv-x="1024" 
d="M834 686l-265 219l47 -338h-210l47 336l-265 -217l-104 168l309 137l-311 137l104 168l265 -219l-45 336h210l-47 -336l267 221l106 -168l-313 -139l311 -137z" />
    <glyph glyph-name="plus" unicode="+" 
d="M606 1139v-359h359v-170h-359v-354h-168v354h-356v170h356v359h168z" />
    <glyph glyph-name="comma" unicode="," horiz-adv-x="444" 
d="M322 260v-211l-109 -264h-170l80 264v211h199z" />
    <glyph glyph-name="hyphen" unicode="-" horiz-adv-x="561" 
d="M520 621v-172h-479v172h479z" />
    <glyph glyph-name="period" unicode="." horiz-adv-x="446" 
d="M324 260v-260h-201v260h201z" />
    <glyph glyph-name="slash" unicode="/" horiz-adv-x="864" 
d="M844 1436l-625 -1456h-199l625 1456h199z" />
    <glyph glyph-name="zero" unicode="0" 
d="M543 1434c64 0 121.833 -10 173.5 -30s95.834 -47.667 132.501 -83s64.834 -77.166 84.501 -125.499s29.5 -100.833 29.5 -157.5v-663c0 -56 -9.83301 -108.167 -29.5 -156.5s-47.834 -90.166 -84.501 -125.499s-80.834 -63 -132.501 -83s-109.5 -30 -173.5 -30h-39
c-64 0 -121.833 10 -173.5 30s-95.834 47.667 -132.501 83s-64.834 77.166 -84.501 125.499s-29.5 100.5 -29.5 156.5v663c0 56.667 9.83301 109.167 29.5 157.5s47.834 90.166 84.501 125.499s80.834 63 132.501 83s109.5 30 173.5 30h39zM516 1253
c-74 0 -130.332 -20.5 -168.999 -61.5s-58 -106.5 -58 -196.5v-577c0 -89.333 19.333 -154.666 58 -195.999s95 -62 169 -62h19c74 0 129.667 20.667 167 62s56 106.666 56 195.999v577c0 90 -19.333 155.5 -58 196.5s-95.334 61.5 -170.001 61.5h-14z" />
    <glyph glyph-name="one" unicode="1" 
d="M528 0v1196l-348 -201v185l406 233h143v-1413h-201z" />
    <glyph glyph-name="two" unicode="2" 
d="M954 180l-0.00390625 -179.998h-858v193c0 70.667 8.66699 131.667 26 183s42.5 97 75.5 137s73.333 76 121 108s101.834 64 162.501 96c48 26 89 49.333 123 70s61.833 43.5 83.5 68.5s37.5 54.167 47.5 87.5s15 76 15 128c0 65.333 -16.333 112.333 -49 141
s-78.667 43 -138 43h-43c-25.333 0 -50 -2.16699 -74 -6.5s-46 -13 -66 -26s-37.333 -31.333 -52 -55s-25 -54.5 -31 -92.5l-199 37c23.333 110.667 69.833 192 139.5 244s161.834 78 276.501 78h49c126 0 222 -31.167 288 -93.5s99 -149.5 99 -261.5
c0 -76 -10.333 -140 -31 -192s-48 -96.333 -82 -133s-73.333 -68.334 -118 -95.001s-91 -53 -139 -79c-56.667 -30 -103.167 -58.5 -139.5 -85.5s-65.166 -55 -86.499 -84s-36.166 -60.333 -44.499 -94s-12.5 -72.834 -12.5 -117.501v-19h657z" />
    <glyph glyph-name="three" unicode="3" 
d="M537 160c36 0 67.0029 3.66699 93.0029 11s47.333 19.333 64 36s29 38.167 37 64.5s12 58.833 12 97.5v45c0 50.667 -7.83301 91.334 -23.5 122.001s-38.5 54.167 -68.5 70.5s-67 27.166 -111 32.499s-94.333 8 -151 8h-63v180h63c56.667 0 106 2.66699 148 8
s76.667 16.166 104 32.499s47.833 39.833 61.5 70.5s20.5 71 20.5 121v10c0 35.333 -4.16699 64.833 -12.5 88.5s-20.833 42.5 -37.5 56.5s-37.5 24 -62.5 30s-54.5 9 -88.5 9h-30c-26 0 -50.833 -3.66699 -74.5 -11s-45.334 -18.5 -65.001 -33.5
s-36.334 -33.5 -50.001 -55.5s-23.167 -48 -28.5 -78l-198 37c10 45.333 26.333 87.666 49 126.999s51.167 73.5 85.5 102.5s74.166 51.667 119.499 68s95 24.5 149 24.5h51c128.667 0 227.167 -28.667 295.5 -86s102.5 -140 102.5 -248v-56
c0 -27.333 -3.83301 -56.666 -11.5 -87.999s-20.834 -61.166 -39.501 -89.499s-43.667 -53.5 -75 -75.5s-70.666 -37.333 -117.999 -46c48.667 -9.33301 89.834 -23.666 123.501 -42.999s60.834 -42.5 81.501 -69.5s35.667 -57.333 45 -91s14 -69.5 14 -107.5v-67
c0 -62 -9.33301 -117 -28 -165s-45.834 -88.5 -81.501 -121.5s-78.834 -58 -129.501 -75s-108 -25.5 -172 -25.5h-97c-48.667 0 -93.167 4.66699 -133.5 14s-75.833 21 -106.5 35s-56.5 29.5 -77.5 46.5s-37.167 32.833 -48.5 47.5v217
c10.667 -15.333 27.667 -33.333 51 -54s51.166 -40.334 83.499 -59.001s68.333 -34.5 108 -47.5s80.834 -19.5 123.501 -19.5h97z" />
    <glyph glyph-name="four" unicode="4" 
d="M1016 535v-181h-144v-354h-200v354h-647v185l643 874h204v-878h144zM225 535h447v620z" />
    <glyph glyph-name="five" unicode="5" 
d="M344 879c19.333 3.33301 42.665 6.16797 69.998 8.50098s58.666 3.5 93.999 3.5c75.333 0 139.833 -7.66699 193.5 -23s97.834 -37.666 132.501 -66.999s60 -65.333 76 -108s24 -91.334 24 -146.001v-174c0 -63.333 -9.5 -119.5 -28.5 -168.5
s-46.167 -90.167 -81.5 -123.5s-78.5 -58.5 -129.5 -75.5s-108.5 -25.5 -172.5 -25.5h-55c-46.667 0 -88.667 3.66699 -126 11s-70.333 16.833 -99 28.5s-53.167 24.5 -73.5 38.5s-36.833 28 -49.5 42v217c12.667 -14 29.834 -30.167 51.501 -48.5
s47.334 -35.5 77.001 -51.5s63 -29.5 100 -40.5s76.833 -16.5 119.5 -16.5h47c30 0 58 4.16699 84 12.5s48.667 21.166 68 38.499s34.666 40 45.999 68s17 61.333 17 100v98c0 82 -18.5 141.5 -55.5 178.5s-94.833 55.5 -173.5 55.5
c-43.333 0 -86.166 -1.83301 -128.499 -5.5s-80.5 -7.83398 -114.5 -12.501c-40 -5.33301 -78 -11.666 -114 -18.999v739h740v-180h-539v-354z" />
    <glyph glyph-name="six" unicode="6" 
d="M965 354c0 -55.333 -9.33398 -105.833 -28.001 -151.5s-45.5 -85 -80.5 -118s-78 -58.667 -129 -77s-109.167 -27.5 -174.5 -27.5h-45c-64 0 -121.167 9.33301 -171.5 28s-92.833 44.667 -127.5 78s-61.167 72.833 -79.5 118.5s-27.5 95.5 -27.5 149.5v684
c0 56.667 9.5 109.167 28.5 157.5s46.167 90.166 81.5 125.499s78.5 63 129.5 83s108.5 30 172.5 30h37c54 0 103.667 -8.16699 149 -24.5s85.166 -39 119.499 -68s62.833 -63.167 85.5 -102.5s39 -81.666 49 -126.999l-198 -37c-5.33301 30 -14.5 56 -27.5 78
s-28.833 40.5 -47.5 55.5s-39.667 26.167 -63 33.5s-47.666 11 -72.999 11h-31c-30.667 0 -58.667 -5.33301 -84 -16s-47.166 -26.167 -65.499 -46.5s-32.5 -45.666 -42.5 -75.999s-15 -65.166 -15 -104.499v-176c15.333 5.33301 32.333 10.666 51 15.999s37.667 10 57 14
s38.333 7.16699 57 9.5s36 3.5 52 3.5h29c65.333 0 123.5 -9.33301 174.5 -28s94 -45.334 129 -80.001s61.833 -76.5 80.5 -125.5s28 -103.833 28 -164.5v-125zM546.999 160c32 0 61.001 3.83105 87.001 11.498s48.333 20 67 37s33.167 39.333 43.5 67s15.5 61.5 15.5 101.5
v74c0 78.667 -18 138.167 -54 178.5s-88.333 60.5 -157 60.5h-29c-34.667 0 -71 -4.16699 -109 -12.5s-72.667 -19.166 -104 -32.499v-272c0 -39.333 5 -72.666 15 -99.999s24.167 -49.333 42.5 -66s40.166 -28.667 65.499 -36s53.333 -11 84 -11h33z" />
    <glyph glyph-name="seven" unicode="7" 
d="M197 0l538 1229h-647v184h858v-145l-538 -1268h-211z" />
    <glyph glyph-name="eight" unicode="8" 
d="M481 -20c-64 0 -121.329 8.5 -171.996 25.5s-93.834 42 -129.501 75s-62.834 73.5 -81.501 121.5s-28 103 -28 165v67c0 38 4.5 73.833 13.5 107.5s23.5 64 43.5 91s46.333 50.167 79 69.5s72.667 33.666 120 42.999c-46 8.66699 -84.167 24 -114.5 46
s-54.5 47.167 -72.5 75.5s-30.667 58.166 -38 89.499s-11 60.666 -11 87.999v56c0 50.667 8.66699 96.667 26 138s42.833 76.5 76.5 105.5s75.167 51.333 124.5 67s106 23.5 170 23.5h68c64 0 120.667 -7.83301 170 -23.5s90.833 -38 124.5 -67s59.167 -64.167 76.5 -105.5
s26 -87.333 26 -138v-56c0 -27.333 -3.66699 -56.666 -11 -87.999s-19.833 -61.166 -37.5 -89.499s-41.667 -53.5 -72 -75.5s-68.5 -37.333 -114.5 -46c47.333 -9.33301 87.166 -23.666 119.499 -42.999s58.666 -42.5 78.999 -69.5s35 -57.333 44 -91
s13.5 -69.5 13.5 -107.5v-67c0 -62 -9.5 -117 -28.5 -165s-46.167 -88.5 -81.5 -121.5s-78.5 -58 -129.5 -75s-108.5 -25.5 -172.5 -25.5h-80zM551.004 160c30 0 58.333 4 85 12s49.667 20.667 69 38s34.666 39.5 45.999 66.5s17 59.833 17 98.5v41
c0 74.667 -21 131.167 -63 169.5s-103.667 57.5 -185 57.5s-142.666 -19.167 -183.999 -57.5s-62 -94.833 -62 -169.5v-41c0 -38.667 5.5 -71.5 16.5 -98.5s25.833 -49.167 44.5 -66.5s40.5 -30 65.5 -38s51.833 -12 80.5 -12h70zM748.004 1069c0 34 -4.66699 62.667 -14 86
s-22.833 42.166 -40.5 56.499s-38.834 24.833 -63.501 31.5s-52.334 10 -83.001 10h-45c-31.333 0 -59.666 -3.33301 -84.999 -10s-47 -17.167 -65 -31.5s-32 -33.166 -42 -56.499s-15 -52 -15 -86v-10c0 -79.333 19.833 -137.5 59.5 -174.5s94.834 -55.5 165.501 -55.5
c34.667 0 66 4.5 94 13.5s52 23 72 42s35.333 43 46 72s16 63.167 16 102.5v10z" />
    <glyph glyph-name="nine" unicode="9" 
d="M475 -20c-48.667 0 -93.168 4.66699 -133.501 14s-75.833 21 -106.5 35s-56.5 29.5 -77.5 46.5s-37.167 32.833 -48.5 47.5v217c10.667 -15.333 27.667 -33.333 51 -54s51.166 -40.334 83.499 -59.001s68.333 -34.5 108 -47.5s80.834 -19.5 123.501 -19.5h33
c32 0 62 5.66699 90 17s52.5 28 73.5 50s37.5 49 49.5 81s18 68.667 18 110v162c-13.333 -6 -29.333 -11.5 -48 -16.5s-38 -9.5 -58 -13.5s-39.667 -7.16699 -59 -9.5s-36.666 -3.5 -51.999 -3.5h-28c-64 0 -121.5 9.33301 -172.5 28s-94.167 45.167 -129.5 79.5
s-62.5 75.833 -81.5 124.5s-28.5 103 -28.5 163v123c0 57.333 9.5 109.333 28.5 156s46.167 86.5 81.5 119.5s78.5 58.5 129.5 76.5s108.5 27 172.5 27h38c64 0 121.5 -9 172.5 -27s94.167 -43.333 129.5 -76s62.5 -72.167 81.5 -118.5s28.5 -97.5 28.5 -153.5v-684
c0 -56 -10.5 -108.167 -31.5 -156.5s-50.5 -90.166 -88.5 -125.499s-83.5 -63 -136.5 -83s-111.5 -30 -175.5 -30h-37zM499.999 1253c-32 0 -60.999 -3.83301 -86.999 -11.5s-48.333 -19.834 -67 -36.501s-33.167 -38.5 -43.5 -65.5s-15.5 -60.167 -15.5 -99.5v-75
c0 -42 5 -78.167 15 -108.5s24.167 -55.5 42.5 -75.5s40.166 -34.667 65.499 -44s53.333 -14 84 -14h32c36 0 71.833 3.83301 107.5 11.5s70.834 18.834 105.501 33.501v264c0 77.333 -17.333 133.5 -52 168.5s-86.334 52.5 -155.001 52.5h-32z" />
    <glyph glyph-name="colon" unicode=":" horiz-adv-x="446" 
d="M324 260v-260h-201v260h201zM324 1055v-260h-201v260h201z" />
    <glyph glyph-name="semicolon" unicode=";" horiz-adv-x="446" 
d="M324 260v-211l-109 -264h-172l80 264v211h201zM324 1055v-260h-201v260h201z" />
    <glyph glyph-name="less" unicode="&#x3c;" 
d="M246 696l719 -280v-191l-883 371v201l883 370v-190z" />
    <glyph glyph-name="equal" unicode="=" 
d="M965 977v-170h-883v170h883zM965 584v-170h-883v170h883z" />
    <glyph glyph-name="greater" unicode="&#x3e;" 
d="M82 977v190l883 -370v-201l-883 -371v191l719 280z" />
    <glyph glyph-name="question" unicode="?" horiz-adv-x="1024" 
d="M598 240v-240h-240v240h240zM731 1071c0 36 -4.49805 65.8311 -13.498 89.498s-22.5 42.5 -40.5 56.5s-40.333 23.833 -67 29.5s-57.334 8.5 -92.001 8.5h-29c-29.333 0 -56.5 -2.66699 -81.5 -8s-47.333 -14.833 -67 -28.5s-36.5 -32.167 -50.5 -55.5
s-24.667 -52.666 -32 -87.999l-199 37c12 50 30 94.833 54 134.5s54 73.334 90 101.001s77.833 49 125.5 64s101.167 22.5 160.5 22.5h29c135.333 0 238.166 -31.167 308.499 -93.5s105.5 -149.5 105.5 -261.5c0 -42.667 -5.16699 -81 -15.5 -115s-24 -64.667 -41 -92
s-36.333 -52.5 -58 -75.5s-44 -45.333 -67 -67l-67 -65.5c-21.667 -22 -41 -45.667 -58 -71s-30.667 -53.166 -41 -83.499s-15.5 -64.833 -15.5 -103.5h-198c0 47.333 5.16699 89.166 15.5 125.499s24 69 41 98s36.167 55.167 57.5 78.5s43.333 45.333 66 66l66 61.5
c21.333 20.333 40.5 42 57.5 65s30.667 48.333 41 76s15.5 59.167 15.5 94.5z" />
    <glyph glyph-name="at" unicode="@" horiz-adv-x="1718" 
d="M1114 188c-20.667 -8.66699 -42.666 -16.8301 -65.999 -24.4971s-47.5 -14.334 -72.5 -20.001s-50.333 -10.167 -76 -13.5s-50.5 -5 -74.5 -5c-46.667 0 -91.5 5.33301 -134.5 16s-81 29 -114 55s-59.5 61.167 -79.5 105.5s-30 100.166 -30 167.499v252
c0 45.333 7.66699 88.833 23 130.5s39.333 78.5 72 110.5s74.167 57.5 124.5 76.5s110.833 28.5 181.5 28.5c30.667 0 60 -0.833008 88 -2.5s55.833 -4.16699 83.5 -7.5s56.167 -7.16602 85.5 -11.499s60.666 -9.5 93.999 -15.5v-713c11.333 -9.33301 25.333 -17 42 -23
s36.667 -9 60 -9c22.667 0 42.334 3.83301 59.001 11.5s30.5 21.334 41.5 41.001s19.167 46.5 24.5 80.5s8 77.667 8 131v293c0 66.667 -9.16699 126.167 -27.5 178.5s-47 96.666 -86 132.999s-89 64.166 -150 83.499s-134.167 29 -219.5 29h-115
c-92 0 -174 -10.667 -246 -32s-132.833 -54.666 -182.5 -99.999s-87.667 -103.333 -114 -174s-39.5 -155.667 -39.5 -255v-299c0 -84 9.5 -157 28.5 -219s49 -113.333 90 -154s93.333 -71 157 -91s139.834 -30 228.501 -30h213c44 0 86.333 3.83301 127 11.5
s78.167 17.667 112.5 30s65.166 26.166 92.499 41.499s49.333 30.666 66 45.999v-158c-14.667 -14 -35 -28 -61 -42s-55.833 -26.667 -89.5 -38s-70.667 -20.666 -111 -27.999s-82.5 -11 -126.5 -11h-229c-210 0 -370.667 51.833 -482 155.5s-167 260.834 -167 471.501v324
c0 112 16.5 211.333 49.5 298s80.667 159.667 143 219s138.166 104.333 227.499 135s190.333 46 303 46h133c96.667 0 183.667 -11.833 261 -35.5s143.166 -59 197.499 -106s96 -105.333 125 -175s43.5 -150.5 43.5 -242.5v-274c0 -88 -5.16699 -161.333 -15.5 -220
s-26.666 -105.334 -48.999 -140.001s-51.5 -59.167 -87.5 -73.5s-79.667 -21.5 -131 -21.5c-52 0 -95.5 6.66699 -130.5 20s-61.167 27.666 -78.5 42.999zM840.001 287.004c19.333 0 37.498 1 54.498 3s33.5 5 49.5 9s31.833 8.66699 47.5 14l48.5 17v547l-44 11
c-13.333 3.33301 -26.5 6.33301 -39.5 9s-26.667 4.66699 -41 6s-30.166 2 -47.499 2c-79.333 0 -136.333 -17.333 -171 -52s-52 -82 -52 -142v-224c0 -70.667 15.833 -121.667 47.5 -153s80.834 -47 147.501 -47z" />
    <glyph glyph-name="A" unicode="A" horiz-adv-x="1204" 
d="M815 578l-121 346l-34 102l-29.5 92.5l-28.5 89.5c-7.33301 -27.333 -16.5 -57.333 -27.5 -90l-30.5 -93l-34 -103l-121 -344h426zM866 410h-528l-133 -410h-205l494 1413h217l493 -1413h-205z" />
    <glyph glyph-name="B" unicode="B" horiz-adv-x="1200" 
d="M674 813c26.667 0 51.167 3.5 73.5 10.5s41.5 19 57.5 36s28.5 39.5 37.5 67.5s13.5 63 13.5 105c0 40 -4.33301 73.167 -13 99.5s-21.5 47.333 -38.5 63s-38 26.667 -63 33s-53.833 9.5 -86.5 9.5h-301v-424h320zM713 176c32 0 61 4.00195 87 12.002s48.167 21 66.5 39
s32.5 41.667 42.5 71s15 65.333 15 108c0 41.333 -5 76.666 -15 105.999s-24.167 53.166 -42.5 71.499s-40.5 31.833 -66.5 40.5s-55 13 -87 13h-359v-461h359zM852 741.002c30 -2.66699 61.002 -11.332 93.002 -25.999s61.167 -35.5 87.5 -62.5
s48.166 -60.833 65.499 -101.5s26 -89 26 -145c0 -68 -9.66699 -127.333 -29 -178s-46.666 -92.834 -81.999 -126.501s-77.833 -59 -127.5 -76s-105.167 -25.5 -166.5 -25.5h-565v1413h514c125.333 0 222.166 -30 290.499 -90s102.5 -153 102.5 -279
c0 -42.667 -5.33301 -80.667 -16 -114s-25.334 -62.5 -44.001 -87.5s-40.667 -45.833 -66 -62.5s-53 -29.667 -83 -39z" />
    <glyph glyph-name="C" unicode="C" horiz-adv-x="1133" 
d="M645 160c50.667 0 98.5 7.50098 143.5 22.501s85.333 33 121 54s66 42.333 91 64s42.5 39.5 52.5 53.5v-217c-12 -14.667 -30.333 -31.167 -55 -49.5s-54.834 -35.5 -90.501 -51.5s-75.834 -29.333 -120.501 -40s-92.667 -16 -144 -16h-84
c-66 0 -125.167 9.83301 -177.5 29.5s-96.5 47.167 -132.5 82.5s-63.667 78.166 -83 128.499s-29 105.833 -29 166.5v639c0 56 9.5 108.833 28.5 158.5s46.667 93 83 130s80.833 66.167 133.5 87.5s112.334 32 179.001 32h68c64 0 120 -8.5 168 -25.5
s89.167 -40.167 123.5 -69.5s62.166 -63.5 83.499 -102.5s37 -80.5 47 -124.5l-199 -37c-6 30 -16 56 -30 78s-31.167 40.5 -51.5 55.5s-43.166 26.167 -68.499 33.5s-51.666 11 -78.999 11h-54c-34 0 -64.833 -5 -92.5 -15s-51.5 -25.167 -71.5 -45.5
s-35.5 -45.833 -46.5 -76.5s-16.5 -66.667 -16.5 -108v-592c0 -42 5.33301 -79 16 -111s26 -58.667 46 -80s44 -37.5 72 -48.5s59 -16.5 93 -16.5h76z" />
    <glyph glyph-name="D" unicode="D" horiz-adv-x="1333" 
d="M1010 748c0 95.333 -8.83203 174.33 -26.499 236.997s-43.5 112.334 -77.5 149.001s-76.333 62.334 -127 77.001s-109 22 -175 22h-250v-1053h252c65.333 0 123.166 9 173.499 27s92.5 48.833 126.5 92.5s59.833 101.834 77.5 174.501s26.5 164 26.5 274zM1214 744.997
c0 -130 -13.834 -242 -41.501 -336s-67.667 -171.167 -120 -231.5s-116.166 -105 -191.499 -134s-161 -43.5 -257 -43.5h-450v1413h456c94 0 178.333 -11.5 253 -34.5s138 -60.667 190 -113s91.833 -121 119.5 -206s41.5 -189.833 41.5 -314.5z" />
    <glyph glyph-name="E" unicode="E" horiz-adv-x="1012" 
d="M909 0h-755v1413h755v-180h-555v-406h512v-180h-512v-467h555v-180z" />
    <glyph glyph-name="F" unicode="F" horiz-adv-x="971" 
d="M154 0v1413h776v-180h-576v-451h533v-180h-533v-602h-200z" />
    <glyph glyph-name="G" unicode="G" horiz-adv-x="1231" 
d="M700 160c50.667 0 95.8291 5.33301 135.496 16s71.834 23.667 96.501 39v322h-238v178h420v-613c-20.667 -15.333 -44 -30.333 -70 -45s-55.5 -27.667 -88.5 -39s-69.667 -20.5 -110 -27.5s-85.166 -10.5 -134.499 -10.5h-152c-66.667 0 -126.167 10.333 -178.5 31
s-96.5 49 -132.5 85s-63.5 78.5 -82.5 127.5s-28.5 101.5 -28.5 157.5v647c0 56 9.5 108.667 28.5 158s46.667 92.333 83 129s80.833 65.667 133.5 87s112.334 32 179.001 32h129c64 0 120 -8.5 168 -25.5s89.167 -40.167 123.5 -69.5s62.166 -63.5 83.499 -102.5
s37 -80.5 47 -124.5l-199 -37c-5.33301 30 -15.166 56 -29.499 78s-31.666 40.5 -51.999 55.5s-43 26.167 -68 33.5s-51.5 11 -79.5 11h-115c-34 0 -64.833 -4.83301 -92.5 -14.5s-51.5 -24.5 -71.5 -44.5s-35.5 -45.333 -46.5 -76s-16.5 -66.667 -16.5 -108v-600
c0 -43.333 5.33301 -80.833 16 -112.5s26 -57.667 46 -78s44 -35.333 72 -45s59 -14.5 93 -14.5h131z" />
    <glyph glyph-name="H" unicode="H" horiz-adv-x="1280" 
d="M926 635h-572v-635h-200v1413h200v-590h572v590h200v-1413h-200v635z" />
    <glyph glyph-name="I" unicode="I" horiz-adv-x="508" 
d="M154 0v1413h200v-1413h-200z" />
    <glyph glyph-name="J" unicode="J" horiz-adv-x="840" 
d="M326 -20c-62 0 -117.33 8.33496 -165.997 25.002s-86.334 37.667 -113.001 63v217c13.333 -12.667 30.166 -26.334 50.499 -41.001s42.666 -28.334 66.999 -41.001s50 -23 77 -31s53.833 -12 80.5 -12h8c25.333 0 48.333 3.5 69 10.5s38.167 18.5 52.5 34.5
s25.333 36.667 33 62s11.5 56.333 11.5 93v873h-220v180h420v-1038c0 -52.667 -5.83301 -102.834 -17.5 -150.501s-31.5 -89.667 -59.5 -126s-64.833 -65.166 -110.5 -86.499s-102.5 -32 -170.5 -32h-12z" />
    <glyph glyph-name="K" unicode="K" horiz-adv-x="1122" 
d="M154 0v1413h200v-659l527 659h235l-557 -670l574 -743h-240l-539 717v-717h-200z" />
    <glyph glyph-name="L" unicode="L" horiz-adv-x="983" 
d="M154 1413h200v-1233h578v-180h-778v1413z" />
    <glyph glyph-name="M" unicode="M" horiz-adv-x="1769" 
d="M1421 883c0 50 0.501953 102.166 1.50195 156.499s2.5 109.833 4.5 166.5l-26.5 -83.5l-34.5 -103.5l-34 -101.5c-10.667 -32.333 -19.667 -58.166 -27 -77.499l-318 -840h-211l-319 852c-8 20 -17 45.5 -27 76.5l-31 97.5l-31 99l-26 81c2 -60 3.5 -118.667 4.5 -176
s1.5 -105.666 1.5 -144.999v-885h-194v1413h280l352 -942c5.33301 -12.667 12.5 -32 21.5 -58l28 -84l28 -88c9 -28.667 16.167 -52.334 21.5 -71.001c3.33301 12 7.66602 26.833 12.999 44.5l17 55.5l19 59.5l19 58c6 18.333 11.667 34.833 17 49.5s9.66602 26 12.999 34
l352 942h281v-1413h-195v883z" />
    <glyph glyph-name="N" unicode="N" horiz-adv-x="1450" 
d="M1096 1413h199.999v-1413h-237l-717 1153l6 -113l4 -100.5c1.33301 -35 2 -66.167 2 -93.5v-846h-200v1413h241l713 -1153l-6 94c-1.33301 28 -2.66602 58.5 -3.99902 91.5s-2 65.5 -2 97.5v870z" />
    <glyph glyph-name="O" unicode="O" horiz-adv-x="1300" 
d="M752 1434c64 0 121.333 -10 172 -30s93.834 -47.667 129.501 -83s62.834 -77.166 81.501 -125.499s28 -100.833 28 -157.5v-663c0 -56 -9.33301 -108.167 -28 -156.5s-45.834 -90.166 -81.501 -125.499s-78.834 -63 -129.501 -83s-108 -30 -172 -30h-203
c-64 0 -121.5 10 -172.5 30s-94.167 47.667 -129.5 83s-62.5 77.166 -81.5 125.499s-28.5 100.5 -28.5 156.5v663c0 56.667 9.5 109.167 28.5 157.5s46.167 90.166 81.5 125.499s78.5 63 129.5 83s108.5 30 172.5 30h203zM569 1253c-74 0 -130.333 -19.333 -169 -58
s-58 -97.667 -58 -177v-623c0 -78.667 19.333 -137.5 58 -176.5s95 -58.5 169 -58.5h162c74.667 0 131.167 19.5 169.5 58.5s57.5 97.833 57.5 176.5v623c0 79.333 -19.167 138.333 -57.5 177s-94.833 58 -169.5 58h-162z" />
    <glyph glyph-name="P" unicode="P" horiz-adv-x="1126" 
d="M610 754c35.333 0 67.667 4.83203 97 14.499s54.5 24.834 75.5 45.501s37.167 47.334 48.5 80.001s17 72 17 118c0 43.333 -6 79.166 -18 107.499s-28.5 50.833 -49.5 67.5s-46 28.5 -75 35.5s-60.833 10.5 -95.5 10.5h-256v-479h256zM354.001 572.999
l-0.00292969 -573.003h-200v1413h458c70 0 132.333 -8.66699 187 -26s100.834 -42.666 138.501 -75.999s66.334 -74.833 86.001 -124.5s29.5 -107.167 29.5 -172.5c0 -66 -9.66699 -126.167 -29 -180.5s-47.666 -100.666 -84.999 -138.999s-83 -68.166 -137 -89.499
s-116 -32 -186 -32h-262z" />
    <glyph glyph-name="Q" unicode="Q" horiz-adv-x="1300" 
d="M549 -20c-64 0 -121.503 10.001 -172.503 30.001s-94.167 47.667 -129.5 83s-62.5 77.166 -81.5 125.499s-28.5 100.5 -28.5 156.5v663c0 56.667 9.5 109.167 28.5 157.5s46.167 90.166 81.5 125.499s78.5 63 129.5 83s108.5 30 172.5 30h203c64 0 121.333 -10 172 -30
s93.834 -47.667 129.501 -83s62.834 -77.166 81.501 -125.499s28 -100.833 28 -157.5v-663c0 -43.333 -5.66699 -84.333 -17 -123s-27.666 -74 -48.999 -106s-47.5 -59.833 -78.5 -83.5s-66.167 -42.5 -105.5 -56.5l258 -311h-237l-227 285h-158zM568.997 1253
c-74 0 -130.333 -19.333 -169 -58s-58 -97.667 -58 -177v-623c0 -78.667 19.333 -137.5 58 -176.5s95 -58.5 169 -58.5h162c74.667 0 131.167 19.5 169.5 58.5s57.5 97.833 57.5 176.5v623c0 79.333 -19.167 138.333 -57.5 177s-94.833 58 -169.5 58h-162z" />
    <glyph glyph-name="R" unicode="R" horiz-adv-x="1182" 
d="M610 754c30.667 0 61.332 4 91.999 12s58.167 21.5 82.5 40.5s44 44.667 59 77s22.5 72.5 22.5 120.5c0 46 -7.66699 83.833 -23 113.5s-35.166 53 -59.499 70s-51.833 28.833 -82.5 35.5s-61 10 -91 10h-256v-479h256zM871.998 0l-315 573.001h-203v-573h-200v1413h479
c68 0 129 -9.66699 183 -29s100 -46.5 138 -81.5s67 -77.333 87 -127s30 -104.834 30 -165.501c0 -56.667 -7.5 -108 -22.5 -154s-36.167 -86.167 -63.5 -120.5s-60 -63 -98 -86s-80.333 -40.167 -127 -51.5l332 -598h-220z" />
    <glyph glyph-name="S" unicode="S" horiz-adv-x="1104" 
d="M106 1079c0 51.333 9.33496 98.667 28.002 142s46 80.833 82 112.5s79.833 56.334 131.5 74.001s110.5 26.5 176.5 26.5h51c118 0 212 -26 282 -78s117.333 -133.333 142 -244l-198 -37c-6.66699 38 -17.5 68.833 -32.5 92.5s-32.667 42 -53 55s-43 21.667 -68 26
s-50.5 6.5 -76.5 6.5h-45c-30.667 0 -59.334 -3.5 -86.001 -10.5s-49.834 -18.167 -69.501 -33.5s-35.167 -34.833 -46.5 -58.5s-17 -52.167 -17 -85.5v-27c0 -33.333 5.83301 -61 17.5 -83s26.334 -40.333 44.001 -55s36.667 -26.167 57 -34.5s39.5 -15.5 57.5 -21.5
l230 -74c46 -14.667 87.667 -32.5 125 -53.5s69.166 -45.667 95.499 -74s46.666 -60.5 60.999 -96.5s21.5 -76.667 21.5 -122v-82c0 -51.333 -9.83301 -99.166 -29.5 -143.499s-48 -82.833 -85 -115.5s-82 -58.334 -135 -77.001s-112.5 -28 -178.5 -28h-62
c-42 0 -83.667 2.83301 -125 8.5s-81 14.667 -119 27s-73.5 27.833 -106.5 46.5s-62.167 41 -87.5 67v227c26 -32 55.833 -60.333 89.5 -85s69.667 -45.167 108 -61.5s78.333 -28.666 120 -36.999s83.834 -12.5 126.501 -12.5h41c74 0 132.5 16.167 175.5 48.5
s64.5 82.166 64.5 149.499v39c0 27.333 -3 51.166 -9 71.499s-15.333 38 -28 53s-28.667 28.167 -48 39.5s-42.333 21.666 -69 30.999l-215 67c-50 15.333 -95.667 33.833 -137 55.5s-77 47.334 -107 77.001s-53.167 64.167 -69.5 103.5s-24.5 84.333 -24.5 135v49z" />
    <glyph glyph-name="T" unicode="T" horiz-adv-x="1065" 
d="M432 1233h-407v180h1015v-180h-407v-1233h-201v1233z" />
    <glyph glyph-name="U" unicode="U" horiz-adv-x="1323" 
d="M1176 428c0 -61.333 -8.82715 -119.167 -26.4941 -173.5s-46.834 -101.833 -87.501 -142.5s-94 -72.834 -160 -96.501s-147 -35.5 -243 -35.5c-100.667 0 -184 11.667 -250 35s-118.333 55.333 -157 96s-65.834 88.167 -81.501 142.5s-23.5 112.5 -23.5 174.5v985h203
v-985c0 -41.333 5.16699 -78.166 15.5 -110.499s27.666 -59.5 51.999 -81.5s56.666 -38.833 96.999 -50.5s90.166 -17.5 149.499 -17.5c61.333 0 111.833 5.5 151.5 16.5s71.167 27.5 94.5 49.5s39.666 49.167 48.999 81.5s14 69.833 14 112.5v985h203v-985z" />
    <glyph glyph-name="V" unicode="V" horiz-adv-x="1106" 
d="M420 686l33.5 -109l37.5 -125.5l35.5 -122c11 -39 19.833 -71.833 26.5 -98.5c6.66699 26.667 15.5 59.5 26.5 98.5l34.5 121.5l36.5 124.5c12.333 41 23.5 76.5 33.5 106.5l231 731h211l-479 -1413h-188l-479 1413h210z" />
    <glyph glyph-name="W" unicode="W" horiz-adv-x="1806" 
d="M1231 604l92 -432l96 430l187 811h200l-360 -1413h-236l-221 862l-86 379l-88 -387l-219 -854h-236l-360 1413h201l184 -803l98 -438l92 430l207 811h242z" />
    <glyph glyph-name="X" unicode="X" horiz-adv-x="1163" 
d="M582 862l331 551h222l-433 -686l461 -727h-219l-362 594l-363 -594h-219l459 727l-430 686h221z" />
    <glyph glyph-name="Y" unicode="Y" horiz-adv-x="1069" 
d="M537 717l333 696h209l-444 -862v-551h-201v551l-444 862h209z" />
    <glyph glyph-name="Z" unicode="Z" horiz-adv-x="1061" 
d="M51 166l694 1067h-653v180h877v-164l-695 -1069h736v-180h-959v166z" />
    <glyph glyph-name="bracketleft" unicode="[" horiz-adv-x="608" 
d="M567 -117v-168h-434v1719h434v-168h-235v-1383h235z" />
    <glyph glyph-name="backslash" unicode="\" horiz-adv-x="864" 
d="M219 1436l625 -1456h-199l-625 1456h199z" />
    <glyph glyph-name="bracketright" unicode="]" horiz-adv-x="608" 
d="M276 -117v1383h-235v168h434v-1719h-434v168h235z" />
    <glyph glyph-name="asciicircum" unicode="^" horiz-adv-x="999" 
d="M500 1247l-281 -719l-190 2l370 881h201l371 -881l-191 -2z" />
    <glyph glyph-name="underscore" unicode="_" horiz-adv-x="1024" 
d="M1034 -143v-123h-1044v123h1044z" />
    <glyph glyph-name="grave" unicode="`" horiz-adv-x="494" 
d="M477 1149v-10h-158l-299 280v15h234z" />
    <glyph glyph-name="a" unicode="a" horiz-adv-x="1071" 
d="M285 311c0 -22.667 3.66699 -44.001 11 -64.001s19.5 -37.5 36.5 -52.5s39.5 -26.667 67.5 -35s62.667 -12.5 104 -12.5c19.333 0 40 0.666992 62 2s43.667 3 65 5s41.5 4.5 60.5 7.5s34.833 5.83301 47.5 8.5v311h-264c-34 0 -63.167 -4.16699 -87.5 -12.5
s-44 -19.666 -59 -33.999s-26 -31 -33 -50s-10.5 -39.167 -10.5 -60.5v-13zM532 884.999c-51.333 0 -95.1689 -9.00098 -131.502 -27.001s-66.166 -44.667 -89.499 -80l-149 96c30.667 53.333 77.167 96.5 139.5 129.5s140.833 49.5 235.5 49.5c64 0 120.833 -7 170.5 -21
s91.667 -35.833 126 -65.5s60.333 -67.5 78 -113.5s26.5 -101 26.5 -165v-657c-31.333 -7.33301 -64.833 -14.166 -100.5 -20.499s-72.167 -11.666 -109.5 -15.999s-75 -7.83301 -113 -10.5s-75 -4 -111 -4c-74.667 0 -138.5 8 -191.5 24s-96.167 38.333 -129.5 67
s-57.833 63 -73.5 103s-23.5 83.667 -23.5 131v25c0 48.667 8.33301 92.167 25 130.5s41.334 70.833 74.001 97.5s72.667 47.167 120 61.5s101.333 21.5 162 21.5h272v29c0 38 -3.5 70.667 -10.5 98s-18.333 49.666 -34 66.999s-36.167 30 -61.5 38s-56 12 -92 12h-9z" />
    <glyph glyph-name="b" unicode="b" horiz-adv-x="1110" 
d="M342 1413v-403.002c15.333 5.33301 32.833 10.5 52.5 15.5s40.167 9.5 61.5 13.5s43 7.33301 65 10s43 4 63 4c50 0 99.667 -5.33301 149 -16s93.5 -29 132.5 -55s70.667 -61.167 95 -105.5s36.5 -100.166 36.5 -167.499v-383c0 -50 -9 -96 -27 -138
s-44.667 -78.5 -80 -109.5s-79.666 -55.167 -132.999 -72.5s-115.333 -26 -186 -26c-32.667 0 -67 1.16699 -103 3.5s-72.333 5.83301 -109 10.5s-73.334 10.334 -110.001 17.001s-72 14 -106 22v1380h199zM584 884.998c-22 0 -44.167 -1.16797 -66.5 -3.50098
s-44 -5.5 -65 -9.5s-41 -8.33301 -60 -13s-35.833 -9.66699 -50.5 -15v-668c32 -8 66.667 -14.833 104 -20.5s73.666 -8.5 108.999 -8.5c84.667 0 146.5 16.667 185.5 50s58.5 83 58.5 149v336c0 38.667 -5.5 71 -16.5 97s-26.167 46.833 -45.5 62.5
s-42.166 26.834 -68.499 33.501s-54.5 10 -84.5 10z" />
    <glyph glyph-name="c" unicode="c" horiz-adv-x="975" 
d="M717 758c-10 16.667 -20.333 32.668 -31 48.001s-23 28.833 -37 40.5s-30 21 -48 28s-38.667 10.5 -62 10.5h-19c-34 0 -64 -4.5 -90 -13.5s-47.833 -23.667 -65.5 -44s-31 -47.166 -40 -80.499s-13.5 -74.666 -13.5 -123.999v-207c0 -88.667 17.833 -155.667 53.5 -201
s93.167 -68 172.5 -68c36.667 0 72.167 5.16699 106.5 15.5s66.833 23.333 97.5 39s58.834 33 84.501 52s48.167 37.5 67.5 55.5v-190c-18.667 -19.333 -40.334 -37.5 -65.001 -54.5s-51.667 -31.667 -81 -44s-61.333 -22.166 -96 -29.499s-72 -11 -112 -11
c-66 0 -125.167 8.16699 -177.5 24.5s-97 41.666 -134 75.999s-65.333 77.666 -85 129.999s-29.5 114.5 -29.5 186.5v242c0 73.333 9.83301 136.166 29.5 188.499s47.5 95.166 83.5 128.499s79.333 57.833 130 73.5s107.334 23.5 170.001 23.5h21
c47.333 0 89 -4.83301 125 -14.5s67.833 -23 95.5 -40s51.667 -37 72 -60s38.166 -47.833 53.499 -74.5z" />
    <glyph glyph-name="d" unicode="d" horiz-adv-x="1110" 
d="M768 1413l199.001 0.000976562v-1345l-76 -25c-31.333 -10 -66.5 -19.667 -105.5 -29s-80.667 -17.333 -125 -24s-89.166 -10 -134.499 -10c-50 0 -99.667 5.16699 -149 15.5s-93.5 28.5 -132.5 54.5s-70.667 61.167 -95 105.5s-36.5 100.5 -36.5 168.5v383
c0 49.333 9 95.166 27 137.499s44.667 79 80 110s79.666 55.167 132.999 72.5s115.333 26 186 26c23.333 0 44.833 -0.666992 64.5 -2s38.667 -3.33301 57 -6s36.166 -5.66699 53.499 -9l54 -10v387zM526.001 147.001c22 0 44.166 1.16699 66.499 3.5s44 5.5 65 9.5
s41 8.5 60 13.5s35.833 9.83301 50.5 14.5v668c-32 8 -66.667 14.833 -104 20.5s-73.666 8.5 -108.999 8.5c-84.667 0 -146.5 -16.667 -185.5 -50s-58.5 -83 -58.5 -149v-336c0 -38 5.5 -70 16.5 -96s26.333 -47 46 -63s42.5 -27.333 68.5 -34s54 -10 84 -10z" />
    <glyph glyph-name="e" unicode="e" horiz-adv-x="1069" 
d="M965 475l-653.993 0.000976562v-49c0 -50 5 -92.667 15 -128s25 -64.166 45 -86.499s44.5 -38.666 73.5 -48.999s62.5 -15.5 100.5 -15.5c40.667 0 79.667 4.66699 117 14s72.333 21 105 35s62.667 29.5 90 46.5s51 33.167 71 48.5v-191
c-20.667 -16.667 -44.334 -32.334 -71.001 -47.001s-56.167 -27.334 -88.5 -38.001s-67.333 -19.167 -105 -25.5s-77.834 -9.5 -120.501 -9.5c-64.667 0 -123.334 8 -176.001 24s-97.834 41.167 -135.501 75.5s-66.834 78.5 -87.501 132.5s-31 118.667 -31 194v206
c0 72 9.83301 135.333 29.5 190s47.5 100.667 83.5 138s79.667 65.5 131 84.5s108.333 28.5 171 28.5h23c58 0 112.167 -8.33301 162.5 -25s94.166 -42.334 131.499 -77.001s66.666 -78.5 87.999 -131.5s32 -115.833 32 -188.5v-156zM537.007 889.001
c-31.333 0 -60.5 -4.33301 -87.5 -13s-50.667 -23 -71 -43s-36.333 -46 -48 -78s-18.167 -71.333 -19.5 -118h455c0 88 -19 152 -57 192s-92.667 60 -164 60h-8v0z" />
    <glyph glyph-name="f" unicode="f" horiz-adv-x="651" 
d="M35 1024l130.998 0.000976562v61c0 54 5.16699 102 15.5 144s27.5 77.5 51.5 106.5s56 51.167 96 66.5s90 23 150 23c37.333 0 69.333 -1.33301 96 -4s51.334 -6 74.001 -10v-164c-20.667 4 -42 7.83301 -64 11.5s-46.333 5.5 -73 5.5c-24.667 0 -46.167 -2 -64.5 -6
s-33.666 -12.333 -45.999 -25s-21.5 -30.334 -27.5 -53.001s-9 -52.667 -9 -90v-66h272v-160h-272v-864h-199v864h-131v160z" />
    <glyph glyph-name="g" unicode="g" horiz-adv-x="1110" 
d="M967 0c0 -58 -7.16504 -111.831 -21.498 -161.498s-38.833 -93 -73.5 -130s-80.334 -66 -137.001 -87s-127.667 -31.5 -213 -31.5c-30.667 0 -62.5 1.83301 -95.5 5.5s-65.333 8.83398 -97 15.501s-61.334 14.834 -89.001 24.501s-51.834 20.5 -72.501 32.5v185
c20.667 -13.333 45.5 -25.833 74.5 -37.5s59.5 -21.834 91.5 -30.501s64.333 -15.334 97 -20.001s63 -7 91 -7c43.333 0 80.5 3.83301 111.5 11.5s56.5 20.667 76.5 39s34.667 43 44 74s14 70.167 14 117.5v39c-30 -9.33301 -65.167 -17.5 -105.5 -24.5
s-85.833 -10.5 -136.5 -10.5c-50 0 -99.667 5.33301 -149 16s-93.5 29 -132.5 55s-70.667 61.167 -95 105.5s-36.5 100.166 -36.5 167.499v359c0 49.333 8.83301 95.166 26.5 137.499s44.667 79 81 110s82.166 55.167 137.499 72.5s121 26 197 26
c64.667 0 132.834 -4 204.501 -12s140.834 -17.667 207.501 -29v-1012zM526.002 172.002c22 0 44.167 1.16699 66.5 3.5s44 5.5 65 9.5s41 8.5 60 13.5s35.833 9.83301 50.5 14.5v647c-28.667 6 -62.5 11.667 -101.5 17s-76.167 8 -111.5 8c-80.667 0 -141.5 -16 -182.5 -48
s-61.5 -82.333 -61.5 -151v-311c0 -72.667 19.167 -124.667 57.5 -156s90.833 -47 157.5 -47z" />
    <glyph glyph-name="h" unicode="h" horiz-adv-x="1120" 
d="M342 0l-198.999 -0.000976562v1413h199v-387c10 2.66699 24.5 5.5 43.5 8.5s39.5 5.83301 61.5 8.5s44.167 5 66.5 7s42.166 3 59.499 3c72 0 134 -8 186 -24s94.833 -38.167 128.5 -66.5s58.667 -62.166 75 -101.499s24.5 -82 24.5 -128v-733h-199v692
c0 28 -5 53.833 -15 77.5s-24.833 44 -44.5 61s-44.5 30.333 -74.5 40s-65 14.5 -105 14.5c-20.667 0 -41.167 -0.833008 -61.5 -2.5s-39.5 -3.66699 -57.5 -6s-34.667 -4.83301 -50 -7.5s-28 -5 -38 -7v-862z" />
    <glyph glyph-name="i" unicode="i" horiz-adv-x="485" 
d="M342 1024v-1024h-199v1024h199zM342 1413v-199h-199v199h199z" />
    <glyph glyph-name="j" unicode="j" horiz-adv-x="485" 
d="M342 1413v-199h-199v199h199zM342 -76c0 -50 -3.66504 -95.5 -10.998 -136.5s-20 -76.167 -38 -105.5s-42.333 -52 -73 -68s-69.334 -24 -116.001 -24c-32 0 -60.833 1.33301 -86.5 4s-45.834 5.66699 -60.501 9v174c14.667 -4 30 -7.16699 46 -9.5s32.667 -3.5 50 -3.5
c20.667 0 37 3.5 49 10.5s21 17.667 27 32s9.83301 32.833 11.5 55.5s2.5 49.667 2.5 81v1081h199v-1100z" />
    <glyph glyph-name="k" unicode="k" horiz-adv-x="954" 
d="M715 1024h231l-397 -457l405 -567h-227l-385 555v-555h-199v1413h199v-844z" />
    <glyph glyph-name="l" unicode="l" horiz-adv-x="580" 
d="M133 1413l198.998 0.000976562v-1118c0 -52.667 8.83301 -90 26.5 -112s46.834 -33 87.501 -33c23.333 0 45.833 1.16699 67.5 3.5s43.834 5.16602 66.501 8.49902v-168c-24 -4 -50.5 -7.33301 -79.5 -10s-62.167 -4 -99.5 -4c-48.667 0 -90.167 6.33301 -124.5 19
s-62 31.667 -83 57s-36.333 57 -46 95s-14.5 82 -14.5 132v1130z" />
    <glyph glyph-name="m" unicode="m" horiz-adv-x="1724" 
d="M342 0l-199.001 0.000976562v1012c24.667 5.33301 53.334 10.5 86.001 15.5s66.834 9.33301 102.501 13s71 6.66699 106 9s67.5 3.5 97.5 3.5c26.667 0 53.167 -1.16699 79.5 -3.5s51.5 -5.66602 75.5 -9.99902s46.333 -9.83301 67 -16.5s38.667 -14 54 -22
c19.333 6 42.333 12 69 18s55.5 11.5 86.5 16.5s63 9.16699 96 12.5s65.167 5 96.5 5c69.333 0 130.833 -8.5 184.5 -25.5s98.834 -40.167 135.501 -69.5s64.5 -64 83.5 -104s28.5 -83 28.5 -129v-725h-198v694c0 60.667 -20.333 107.667 -61 141s-98.334 50 -173.001 50
c-32.667 0 -66.5 -2.33301 -101.5 -7s-65.167 -10.667 -90.5 -18v-860h-199v834c-10.667 7.33301 -24.5 14.166 -41.5 20.499s-35.833 11.833 -56.5 16.5s-42.5 8.16699 -65.5 10.5s-46.167 3.5 -69.5 3.5c-16.667 0 -33.834 -0.666992 -51.501 -2s-35 -3.33301 -52 -6
s-33.167 -5.33398 -48.5 -8.00098s-29 -5.66699 -41 -9v-860z" />
    <glyph glyph-name="n" unicode="n" horiz-adv-x="1120" 
d="M342 0l-198.998 0.000976562v1012c27.333 5.33301 57.666 10.5 90.999 15.5s68 9.33301 104 13s72.167 6.66699 108.5 9s71.166 3.5 104.499 3.5c76.667 0 142.5 -7.66699 197.5 -23s100.167 -37 135.5 -65s61.333 -61.667 78 -101s25 -83 25 -131v-733h-199v692
c0 60.667 -21 108 -63 142s-100 51 -174 51c-18.667 0 -38.167 -0.666992 -58.5 -2s-40 -3.33301 -59 -6s-36.5 -5.33398 -52.5 -8.00098s-29 -5.66699 -39 -9v-860z" />
    <glyph glyph-name="o" unicode="o" horiz-adv-x="1085" 
d="M311 408c0 -40 2.83301 -76.167 8.5 -108.5s15.667 -59.666 30 -81.999s33.5 -39.666 57.5 -51.999s54.333 -18.5 91 -18.5h90c36 0 66 6.16699 90 18.5s43.167 29.666 57.5 51.999s24.333 49.666 30 81.999s8.5 68.5 8.5 108.5v217c0 40 -2.83301 76 -8.5 108
s-15.667 59.167 -30 81.5s-33.5 39.666 -57.5 51.999s-54 18.5 -90 18.5h-90c-36.667 0 -67 -6.16699 -91 -18.5s-43.167 -29.666 -57.5 -51.999s-24.333 -49.5 -30 -81.5s-8.5 -68 -8.5 -108v-217zM973 399c0 -76 -8.83301 -140.5 -26.5 -193.5s-43.5 -96.167 -77.5 -129.5
s-75.5 -57.666 -124.5 -72.999s-104.5 -23 -166.5 -23h-74c-62.667 0 -118.167 7.66699 -166.5 23s-89.166 39.666 -122.499 72.999s-58.666 76.5 -75.999 129.5s-26 117.5 -26 193.5v234c0 76 8.66699 140.5 26 193.5s42.666 96.333 75.999 130s74.166 58.167 122.499 73.5
s103.833 23 166.5 23h74c62 0 117.5 -7.66699 166.5 -23s90.5 -39.833 124.5 -73.5s59.833 -77 77.5 -130s26.5 -117.5 26.5 -193.5v-234z" />
    <glyph glyph-name="p" unicode="p" horiz-adv-x="1110" 
d="M342 -410l-199.001 0.000976562v1422c28 6 59.5 11.5 94.5 16.5s71.667 9.33301 110 13s77.666 6.5 117.999 8.5s79.833 3 118.5 3c50 0 99.667 -5.33301 149 -16s93.5 -29 132.5 -55s70.667 -61.167 95 -105.5s36.5 -100.166 36.5 -167.499v-383c0 -50 -9 -96 -27 -138
s-44.667 -78.5 -80 -109.5s-79.666 -55.167 -132.999 -72.5s-115.333 -26 -186 -26c-22.667 0 -44 0.666992 -64 2s-39.167 3.16602 -57.5 5.49902s-36.166 5.16602 -53.499 8.49902l-54 10v-416zM583.999 885.001c-44 0 -87.333 -2.66797 -130 -8.00098s-80 -11 -112 -17
v-684c32 -8 66.667 -14.833 104 -20.5s73.666 -8.5 108.999 -8.5c84.667 0 146.5 16.667 185.5 50s58.5 83 58.5 149v336c0 38.667 -5.5 71 -16.5 97s-26.167 46.833 -45.5 62.5s-42.166 26.834 -68.499 33.501s-54.5 10 -84.5 10z" />
    <glyph glyph-name="q" unicode="q" horiz-adv-x="1110" 
d="M768 -410l0.000976562 433.001c-15.333 -5.33301 -32.833 -10.5 -52.5 -15.5s-40.167 -9.5 -61.5 -13.5s-43 -7.33301 -65 -10s-43 -4 -63 -4c-50 0 -99.667 5.16699 -149 15.5s-93.5 28.5 -132.5 54.5s-70.667 61.167 -95 105.5s-36.5 100.5 -36.5 168.5v383
c0 49.333 9 95.166 27 137.499s44.667 79 80 110s79.666 55.167 132.999 72.5s115.333 26 186 26c32.667 0 67.334 -1.16699 104.001 -3.5s73.667 -5.33301 111 -9s74.166 -8 110.499 -13s70.5 -10.167 102.5 -15.5v-1422h-199zM526.001 147.001
c22 0 44.167 1.16699 66.5 3.5s44 5.5 65 9.5s41 8.5 60 13.5s35.833 9.83301 50.5 14.5v680c-7.33301 1.33301 -19.166 3 -35.499 5s-34.833 3.83301 -55.5 5.5s-41.834 3.16699 -63.501 4.5s-41.167 2 -58.5 2c-84.667 0 -146.5 -16.667 -185.5 -50s-58.5 -83 -58.5 -149
v-336c0 -38 5.5 -70 16.5 -96s26.333 -47 46 -63s42.5 -27.333 68.5 -34s54 -10 84 -10z" />
    <glyph glyph-name="r" unicode="r" horiz-adv-x="750" 
d="M514 883c-30.667 0 -60.8311 -2.33301 -90.498 -7s-56.834 -10 -81.501 -16v-860h-199v1012c22 5.33301 47.833 10.333 77.5 15s61 9 94 13s66.667 7.16699 101 9.5s67.166 3.5 98.499 3.5c30.667 0 62.667 -2.16699 96 -6.5s63.333 -11.166 90 -20.499v-188
c-24.667 11.333 -53.5 21.666 -86.5 30.999s-66.167 14 -99.5 14z" />
    <glyph glyph-name="s" unicode="s" horiz-adv-x="924" 
d="M846 283c0 -50 -7.3291 -93.832 -21.9961 -131.499s-38.334 -69.167 -71.001 -94.5s-75.334 -44.5 -128.001 -57.5s-117 -19.5 -193 -19.5c-78.667 0 -148.167 8.66699 -208.5 26s-110.166 44 -149.499 80v195c19.333 -18.667 41.833 -36 67.5 -52
s53.834 -29.833 84.501 -41.5s63.5 -20.834 98.5 -27.501s71.5 -10 109.5 -10c40 0 73.667 2.5 101 7.5s49.166 13 65.499 24s28.166 24.833 35.499 41.5s11 36.667 11 60c0 28.667 -8 51.834 -24 69.501s-37 32.5 -63 44.5s-55.667 22.5 -89 31.5l-102.5 29
c-35 10.333 -69.167 22.833 -102.5 37.5s-63 33.834 -89 57.501s-47 53.167 -63 88.5s-24 79 -24 131c0 50 8.16699 92.667 24.5 128s39.333 64.333 69 87s65.5 39.334 107.5 50.001s89 16 141 16h55c44 0 83.667 -4.33301 119 -13s67.166 -20.834 95.499 -36.501
s53.333 -34.5 75 -56.5s40.834 -46.333 57.501 -73l-154 -114c-10 16 -21.333 31.333 -34 46s-26.834 27.667 -42.501 39s-33.334 20.5 -53.001 27.5s-41.5 10.5 -65.5 10.5h-51c-96.667 0 -145 -37 -145 -111c0 -29.333 8 -53 24 -71s37 -33 63 -45
s55.667 -22.167 89 -30.5s67.5 -17.5 102.5 -27.5s69.167 -22.167 102.5 -36.5s63 -33.333 89 -57s47 -53.334 63 -89.001s24 -79.834 24 -132.501z" />
    <glyph glyph-name="t" unicode="t" horiz-adv-x="668" 
d="M33 1024l131.001 -0.00195312v260l198 14v-274h254v-160h-254v-551c0 -55.333 11 -96.833 33 -124.5s58.333 -41.5 109 -41.5c26.667 0 51.334 2 74.001 6s45.667 9 69 15v-164c-12.667 -3.33301 -27.334 -6.33301 -44.001 -9s-34.334 -5.16699 -53.001 -7.5
s-37.667 -4.16602 -57 -5.49902s-38.333 -2 -57 -2c-56 0 -101.667 8.33301 -137 25s-63 39.334 -83 68.001s-33.667 61.667 -41 99s-11 76.333 -11 117v575h-131v160z" />
    <glyph glyph-name="u" unicode="u" horiz-adv-x="1120" 
d="M778 1024l198.999 0.00195312v-1004c-27.333 -5.33301 -58 -10.5 -92 -15.5s-69.333 -9.33301 -106 -13s-73 -6.5 -109 -8.5s-69.667 -3 -101 -3c-76 0 -141.5 7.66699 -196.5 23s-100.333 37 -136 65s-61.834 61.667 -78.501 101s-25 82.666 -25 129.999v725h199v-684
c0 -30 5.5 -57 16.5 -81s26.833 -44.333 47.5 -61s45.834 -29.334 75.501 -38.001s62.834 -13 99.501 -13c19.333 0 39 0.666992 59 2s39.167 3.33301 57.5 6s35.5 5.5 51.5 8.5s29 5.83301 39 8.5v852z" />
    <glyph glyph-name="v" unicode="v" horiz-adv-x="942" 
d="M379 473l19.499 -61.001l26 -85.5l26.5 -89.5c8.66699 -29.333 15.334 -53.666 20.001 -72.999c5.33301 19.333 12.5 43.833 21.5 73.5l27.5 90.5l26.5 86l18.5 59l187 551h211l-381 -1024h-222l-380 1024h210z" />
    <glyph glyph-name="w" unicode="w" horiz-adv-x="1509" 
d="M1028 492c7.33301 -24 14.502 -50.166 21.502 -78.499l20.5 -84.5c6.66699 -28 12.5 -54.667 17.5 -80l12.5 -65c3.33301 18.667 7.66602 41.167 12.999 67.5l16.5 82.5c5.66699 28.667 11.5 56.667 17.5 84l16 71l135 535h211l-297 -1024h-208l-173 580l-19.5 69l-21 77
l-20 75.5l-16.5 64.5c-4 -18.667 -9.33301 -40.834 -16 -66.501l-21 -79l-22 -78.5l-19 -67l-170 -575h-209l-297 1024h211l135 -532c5.33301 -20 11 -43.833 17 -71.5l18 -85c6 -29 11.5 -57 16.5 -84l12.5 -67.5l12.5 65c5 25.333 10.667 52 17 80
s13.166 56.167 20.499 84.5l21 78.5l160 532h227z" />
    <glyph glyph-name="x" unicode="x" horiz-adv-x="926" 
d="M23 1024h225l215 -340l215 340h225l-342 -489l371 -535h-223l-246 387l-246 -387h-223l371 535z" />
    <glyph glyph-name="y" unicode="y" horiz-adv-x="963" 
d="M489 240l273 784h211l-561 -1434h-213l194 435l-403 999h211z" />
    <glyph glyph-name="z" unicode="z" horiz-adv-x="887" 
d="M61 131l512 725h-471v168h695v-131l-512 -725h553v-168h-777v131z" />
    <glyph glyph-name="braceleft" unicode="{" horiz-adv-x="707" 
d="M451 68c0 -30 2.66602 -55.833 7.99902 -77.5s14 -39.334 26 -53.001s27.833 -23.667 47.5 -30s44.167 -9.5 73.5 -9.5h60v-183h-58c-60.667 0 -113.334 5.66699 -158.001 17s-81.667 29.5 -111 54.5s-51.166 57.167 -65.499 96.5s-21.5 87.333 -21.5 144v258
c0 42 -5.33301 76 -16 102s-26 46.333 -46 61s-44.333 24.5 -73 29.5s-61 7.5 -97 7.5v181c36.667 0 69.334 2.5 98.001 7.5s53 14.833 73 29.5s35.167 35 45.5 61s15.5 60 15.5 102v256c0 56.667 7.16699 104.667 21.5 144s36.166 71.5 65.499 96.5s66.333 43.167 111 54.5
s97.334 17 158.001 17h58v-183h-60c-29.333 0 -53.833 -3 -73.5 -9s-35.5 -15.667 -47.5 -29s-20.667 -30.833 -26 -52.5s-8 -48.167 -8 -79.5v-252c0 -34 -5 -65.167 -15 -93.5s-24 -53.166 -42 -74.499s-39.333 -39 -64 -53s-51.334 -24 -80.001 -30v-7
c28.667 -6.66699 55.334 -17.167 80.001 -31.5s46 -32 64 -53s32 -45.333 42 -73s15 -58.167 15 -91.5v-254z" />
    <glyph glyph-name="bar" unicode="|" horiz-adv-x="492" 
d="M330 -410h-168v2048h168v-2048z" />
    <glyph glyph-name="braceright" unicode="}" horiz-adv-x="707" 
d="M256 322c0 33.333 5 63.833 15 91.5s24 52 42 73s39.333 38.667 64 53s51.334 24.833 80.001 31.5v7c-28.667 6 -55.334 16 -80.001 30s-46 31.667 -64 53s-32 46.166 -42 74.499s-15 59.5 -15 93.5v252c0 31.333 -2.66699 57.833 -8 79.5s-14 39.167 -26 52.5
s-28 23 -48 29s-44.667 9 -74 9h-59v183h57c61.333 0 114.333 -5.66699 159 -17s81.667 -29.5 111 -54.5s51.166 -57.167 65.499 -96.5s21.5 -87.333 21.5 -144v-256c0 -42 5.16699 -76 15.5 -102s25.5 -46.333 45.5 -61s44.333 -24.5 73 -29.5s61 -7.5 97 -7.5v-181
c-36 0 -68.167 -2.5 -96.5 -7.5s-52.5 -14.833 -72.5 -29.5s-35.333 -35 -46 -61s-16 -60 -16 -102v-258c0 -56.667 -7.16699 -104.667 -21.5 -144s-36.166 -71.5 -65.499 -96.5s-66.333 -43.167 -111 -54.5s-97.667 -17 -159 -17h-57v183h59c29.333 0 54 3.16699 74 9.5
s36 16.333 48 30s20.667 31.334 26 53.001s8 47.5 8 77.5v254z" />
    <glyph glyph-name="asciitilde" unicode="~" 
d="M965 633c-18.667 -14.667 -36.666 -27.167 -53.999 -37.5s-35 -18.666 -53 -24.999s-36.833 -10.833 -56.5 -13.5s-41.167 -4 -64.5 -4c-18 0 -37.333 2 -58 6s-41.667 9.33301 -63 16s-42.833 14.167 -64.5 22.5l-64.5 25.5c-72.667 30 -136 45 -190 45
c-44 0 -82.333 -7.66699 -115 -23s-66 -37 -100 -65v180c28 25.333 61.333 45.666 100 60.999s81.667 23 129 23s93 -7.66699 137 -23s87.333 -31.666 130 -48.999l41 -15c14.667 -5.33301 29.667 -10.333 45 -15s30.666 -8.33398 45.999 -11.001s30 -4 44 -4
c38 0 75.167 8.33301 111.5 25s69.5 39 99.5 67v-186v0z" />
    <glyph glyph-name="uni00A0" unicode="&#xa0;" horiz-adv-x="492" 
 />
    <glyph glyph-name="exclamdown" unicode="&#xa1;" horiz-adv-x="604" 
d="M389 598l35 -1008h-240l35 1008h170zM180 764v240h240v-240h-240z" />
    <glyph glyph-name="cent" unicode="&#xa2;" 
d="M727 948c-16.667 28 -34.834 53.167 -54.501 75.5s-45.167 37.5 -76.5 45.5v-721c32 4 62.667 11.667 92 23s57 24.5 83 39.5s50.167 31 72.5 48s42.166 33.5 59.499 49.5v-191c-34.667 -34.667 -77.5 -64.834 -128.5 -90.501s-110.5 -41.167 -178.5 -46.5v-160h-123v160
c-122.667 11.333 -211.667 50.833 -267 118.5s-83 166.834 -83 297.501v233c0 66.667 8.16699 124.667 24.5 174s39.666 90.833 69.999 124.5s67 59.5 110 77.5s91.5 29.333 145.5 34v154h123v-152c40.667 -2.66699 76.834 -9.16699 108.501 -19.5
s59.834 -23.833 84.501 -40.5s46.334 -35.667 65.001 -57s35 -44.333 49 -69zM322 614c0 -72.667 11.8359 -131.001 35.5029 -175.001s62.167 -72.333 115.5 -85v715c-24.667 -4.66699 -46.334 -12.834 -65.001 -24.501s-34.334 -27.667 -47.001 -48
s-22.334 -45.666 -29.001 -75.999s-10 -66.166 -10 -107.499v-199v0z" />
    <glyph glyph-name="sterling" unicode="&#xa3;" 
d="M72 0l0.00195312 180.002c28 16.667 49.833 35.667 65.5 57s27.167 44.833 34.5 70.5s11.833 52.834 13.5 81.501s2.5 58.667 2.5 90v125h-137v174h137v260c0 56.667 8.16699 109.167 24.5 157.5s40.666 90.166 72.999 125.499s73 63 122 83s106.5 30 172.5 30h14
c54.667 0 103.5 -7.16699 146.5 -21.5s80.5 -35 112.5 -62s58.5 -59.5 79.5 -97.5s36.5 -81 46.5 -129l-199 -37c-10 59.333 -31.5 101.833 -64.5 127.5s-73.5 38.5 -121.5 38.5h-12c-64.667 0 -112.334 -19.833 -143.001 -59.5s-46 -100.834 -46 -183.501v-232h389v-174
h-389v-129c0 -30 -2 -59 -6 -87s-11 -54.667 -21 -80s-23.833 -48.833 -41.5 -70.5s-40.5 -40.834 -68.5 -57.501h743v-180h-927z" />
    <glyph glyph-name="currency" unicode="&#xa4;" horiz-adv-x="2030" 
d="M1898 471c-25.333 -98 -65.835 -188.333 -121.502 -271s-122.334 -154.167 -200.001 -214.5s-164.5 -107.5 -260.5 -141.5s-197.333 -51 -304 -51c-106 0 -206.667 17 -302 51s-181.666 81.167 -258.999 141.5s-143.666 131.833 -198.999 214.5s-95.666 173 -120.999 271
h74c33.333 0 64.5 6.16699 93.5 18.5s54.333 29.166 76 50.499s38.667 46.5 51 75.5s18.5 60.167 18.5 93.5s-6.16699 64.5 -18.5 93.5s-29.333 54.333 -51 76s-47 38.667 -76 51s-60.167 18.5 -93.5 18.5h-72c26 98 66.667 188 122 270s121.5 152.667 198.5 212
s163 105.5 258 138.5s195.167 49.5 300.5 49.5s205.666 -16.833 300.999 -50.5s181.5 -80.167 258.5 -139.5s143.333 -130 199 -212s96.834 -171.333 123.501 -268h-819c-33.333 0 -64.5 -6.16699 -93.5 -18.5s-54.333 -29.333 -76 -51s-38.667 -47 -51 -76
s-18.5 -60.167 -18.5 -93.5s6.16699 -64.5 18.5 -93.5s29.333 -54.167 51 -75.5s47 -38.166 76 -50.499s60.167 -18.5 93.5 -18.5h823z" />
    <glyph glyph-name="yen" unicode="&#xa5;" 
d="M111 436h311v123h-311v174h258l-371 680h209l317 -612l314 612h209l-373 -680h278v-174h-329v-123h329v-174h-329v-262h-201v262h-311v174z" />
    <glyph glyph-name="brokenbar" unicode="&#xa6;" horiz-adv-x="492" 
d="M330 379v-789h-168v789h168zM330 1638v-788h-168v788h168z" />
    <glyph glyph-name="section" unicode="&#xa7;" horiz-adv-x="905" 
d="M854 86c0 -54 -8.33301 -101.671 -25 -143.004s-42.5 -76 -77.5 -104s-80 -49.167 -135 -63.5s-120.5 -21.5 -196.5 -21.5c-38.667 0 -76.667 2.16699 -114 6.5s-72.333 11 -105 20s-62.667 20.167 -90 33.5s-50.666 29 -69.999 47v194c19.333 -18 42.833 -35 70.5 -51
s58.167 -30 91.5 -42s68.5 -21.333 105.5 -28s74.833 -10 113.5 -10c80.667 0 139.667 11.667 177 35s56 60.333 56 111c0 34 -8 62.5 -24 85.5s-37 42.833 -63 59.5s-55.667 31.334 -89 44.001l-102.5 38c-35 12.667 -69.167 26.834 -102.5 42.501s-63 34.667 -89 57
s-47 49.5 -63 81.5s-24 70.667 -24 116c0 65.333 14.167 119.5 42.5 162.5s63.5 76.167 105.5 99.5c-19.333 12 -38 25.5 -56 40.5s-33.833 32.667 -47.5 53s-24.5 43.333 -32.5 69s-12 54.834 -12 87.501c0 54 8.16699 100.5 24.5 139.5s39.333 70.833 69 95.5
s65.5 42.834 107.5 54.501s89 17.5 141 17.5h56c43.333 0 82.666 -4.33301 117.999 -13s67.166 -20.834 95.499 -36.501s53.333 -34.334 75 -56.001s40.834 -45.834 57.501 -72.501l-154 -115c-10 16 -21.333 31.333 -34 46s-26.834 27.834 -42.501 39.501
s-33.167 20.834 -52.5 27.501s-41 10 -65 10h-52c-96.667 0 -145 -40.333 -145 -121c0 -34 8 -62.167 24 -84.5s37 -41 63 -56s55.667 -27.833 89 -38.5l102.5 -33c35 -11.333 69.167 -24.333 102.5 -39s63 -33.834 89 -57.501s47 -52.667 63 -87s24 -77.166 24 -128.499
c0 -64 -12.167 -116.667 -36.5 -158s-59.166 -73.333 -104.499 -96c18 -12 35.5 -25.667 52.5 -41s32 -33.166 45 -53.499s23.5 -43.833 31.5 -70.5s12 -57.667 12 -93zM655 581.996c0 18.667 -2.16699 36.6689 -6.5 54.002s-13 33.5 -26 48.5s-30.833 28.667 -53.5 41
s-52.667 23.166 -90 32.499h-37c-24.667 0 -46 -4 -64 -12s-33 -18.667 -45 -32s-21 -29 -27 -47s-9 -37 -9 -57c0 -26 5.16699 -48 15.5 -66s24.333 -33.5 42 -46.5s38.5 -24.167 62.5 -33.5s49.667 -18 77 -26c51.333 0 91 12.667 119 38s42 60.666 42 105.999z" />
    <glyph glyph-name="dieresis" unicode="&#xa8;" horiz-adv-x="543" 
d="M186 1358v-199h-198v199h198zM555 1358v-199h-199v199h199z" />
    <glyph glyph-name="copyright" unicode="&#xa9;" horiz-adv-x="1538" 
d="M41 707c0 67.333 8.66699 132 26 194s41.666 120 72.999 174s69.166 103.167 113.499 147.5s93.333 82.333 147 114s111.5 56.167 173.5 73.5s126.667 26 194 26s132 -8.66699 194 -26s120 -41.833 174 -73.5s103.167 -69.667 147.5 -114s82.333 -93.5 114 -147.5
s56.167 -112 73.5 -174s26 -126.667 26 -194s-8.66699 -132 -26 -194s-41.833 -120 -73.5 -174s-69.667 -103 -114 -147s-93.5 -81.667 -147.5 -113s-112 -55.666 -174 -72.999s-126.667 -26 -194 -26s-132 8.66699 -194 26s-119.833 41.666 -173.5 72.999
s-102.667 69 -147 113s-82.166 93 -113.499 147s-55.666 112 -72.999 174s-26 126.667 -26 194zM160 707c0 -84.667 15.832 -164 47.499 -238s75 -138.5 130 -193.5s119.333 -98.333 193 -130s152.834 -47.5 237.501 -47.5s164.167 15.833 238.5 47.5
s139.166 75 194.499 130s99 119.5 131 193.5s48 153.333 48 238c0 56 -7.33301 110 -22 162s-35.167 100.667 -61.5 146s-58.166 86.666 -95.499 123.999s-78.666 69.333 -123.999 96s-94 47.334 -146 62.001s-106.333 22 -163 22c-84.667 0 -163.834 -16 -237.501 -48
s-138 -75.833 -193 -131.5s-98.333 -120.667 -130 -195s-47.5 -153.5 -47.5 -237.5zM802.999 356c30 0 59.501 4.99902 88.501 14.999s55.667 22.167 80 36.5s45.333 29.333 63 45s30.5 28.834 38.5 39.501v-154c-8 -10 -20.5 -21.333 -37.5 -34s-37.333 -24.5 -61 -35.5
s-50.167 -20.333 -79.5 -28s-60 -11.5 -92 -11.5h-64c-44.667 0 -85.5 7 -122.5 21s-68.5 33.333 -94.5 58s-46.167 54 -60.5 88s-21.5 70.667 -21.5 110v401c0 39.333 7 76 21 110s34.333 63.333 61 88s59.167 44 97.5 58s81.833 21 130.5 21h41
c42 0 78.667 -5.33301 110 -16s58.166 -26 80.499 -46s40.833 -43.833 55.5 -71.5s26 -58.5 34 -92.5l-139 -26c-9.33301 42 -25 73.333 -47 94s-53.333 31 -94 31h-41c-52 0 -90.667 -13.667 -116 -41s-38 -72.333 -38 -135v-349c0 -57.333 13.5 -101 40.5 -131
s64.833 -45 113.5 -45h53z" />
    <glyph glyph-name="ordfeminine" unicode="&#xaa;" horiz-adv-x="690" 
d="M193 979c0 -24.667 9.83203 -43.832 29.499 -57.499s54.834 -20.5 105.501 -20.5c11.333 0 23.5 0.5 36.5 1.5s26 2.5 39 4.5s25 4.16699 36 6.5s20.167 4.5 27.5 6.5v133h-164c-38 0 -65.833 -5.33301 -83.5 -16s-26.5 -27.334 -26.5 -50.001v-8zM335.999 1300
c-10.667 0 -21.8301 -0.667969 -33.4971 -2.00098s-23.334 -4.16602 -35.001 -8.49902s-22.834 -10.333 -33.501 -18s-20.334 -17.834 -29.001 -30.501l-119 68c22.667 34.667 55.167 61.667 97.5 81s97.833 29 166.5 29c88.667 0 155.5 -17.167 200.5 -51.5
s67.5 -90.166 67.5 -167.499v-381c-16.667 -4.66699 -37.167 -9.33398 -61.5 -14.001s-49.833 -8.83398 -76.5 -12.501s-53.334 -6.66699 -80.001 -9s-50.667 -3.5 -72 -3.5c-101.333 0 -174.5 17.333 -219.5 52s-67.5 82.334 -67.5 143.001v16
c0 31.333 6.66699 58.333 20 81s31.833 41.334 55.5 56.001s51.834 25.5 84.501 32.5s68 10.5 106 10.5h160v25c0 40 -8.5 67.333 -25.5 82s-43.5 22 -79.5 22h-26z" />
    <glyph glyph-name="guillemotleft" unicode="&#xab;" horiz-adv-x="893" 
d="M416 944h10v-188l-188 -242l188 -244v-190h-10l-334 350v166zM801 944h10v-188l-188 -242l188 -244v-190h-10l-334 350v166z" />
    <glyph glyph-name="logicalnot" unicode="&#xac;" 
d="M965 780v-524h-168v354h-715v170h883z" />
    <glyph glyph-name="uni00AD" unicode="&#xad;" horiz-adv-x="561" 
d="M520 621v-172h-479v172h479z" />
    <glyph glyph-name="registered" unicode="&#xae;" horiz-adv-x="1538" 
d="M41 707c0 67.333 8.66699 132 26 194s41.666 120 72.999 174s69.166 103.167 113.499 147.5s93.333 82.333 147 114s111.5 56.167 173.5 73.5s126.667 26 194 26s132 -8.66699 194 -26s120 -41.833 174 -73.5s103.167 -69.667 147.5 -114s82.333 -93.5 114 -147.5
s56.167 -112 73.5 -174s26 -126.667 26 -194s-8.66699 -132 -26 -194s-41.833 -120 -73.5 -174s-69.667 -103 -114 -147s-93.5 -81.667 -147.5 -113s-112 -55.666 -174 -72.999s-126.667 -26 -194 -26s-132 8.66699 -194 26s-119.833 41.666 -173.5 72.999
s-102.667 69 -147 113s-82.166 93 -113.499 147s-55.666 112 -72.999 174s-26 126.667 -26 194zM160 707c0 -84.667 15.832 -164 47.499 -238s75 -138.5 130 -193.5s119.333 -98.333 193 -130s152.834 -47.5 237.501 -47.5s164.167 15.833 238.5 47.5
s139.166 75 194.499 130s99 119.5 131 193.5s48 153.333 48 238c0 56 -7.33301 110 -22 162s-35.167 100.667 -61.5 146s-58.166 86.666 -95.499 123.999s-78.666 69.333 -123.999 96s-94 47.334 -146 62.001s-106.333 22 -163 22c-84.667 0 -163.834 -16 -237.501 -48
s-138 -75.833 -193 -131.5s-98.333 -120.667 -130 -195s-47.5 -153.5 -47.5 -237.5zM785.999 778c21.333 0 42.168 1.66699 62.501 5s38.333 10.5 54 21.5s28.167 26.5 37.5 46.5s14 47 14 81c0 32 -4.83301 57.5 -14.5 76.5s-22.334 33.167 -38.001 42.5
s-33.5 15.333 -53.5 18s-40.667 4 -62 4h-157v-295h157zM958.001 274l-206.001 374.999h-123v-375h-152v926h332c45.333 0 86.333 -5.33301 123 -16s68.334 -27 95.001 -49s47.167 -49.5 61.5 -82.5s21.5 -71.833 21.5 -116.5c0 -42 -5.66699 -78.5 -17 -109.5
s-26.833 -57.333 -46.5 -79s-42.5 -38.667 -68.5 -51s-53.667 -21.166 -83 -26.499l227 -396h-164z" />
    <glyph glyph-name="overscore" unicode="&#xaf;" horiz-adv-x="1024" 
d="M1034 1638v-122h-1044v122h1044z" />
    <glyph glyph-name="degree" unicode="&#xb0;" horiz-adv-x="754" 
d="M377 1434c40.667 0 78.834 -7.83203 114.501 -23.499s66.834 -36.834 93.501 -63.501s47.834 -58 63.501 -94s23.5 -74 23.5 -114c0 -40.667 -7.83301 -78.834 -23.5 -114.501s-36.834 -66.834 -63.501 -93.501s-57.834 -47.834 -93.501 -63.501
s-73.834 -23.5 -114.501 -23.5s-78.834 7.83301 -114.501 23.5s-66.834 36.834 -93.501 63.501s-47.834 57.834 -63.501 93.501s-23.5 73.834 -23.5 114.501c0 44 7.83301 84.167 23.5 120.5s36.834 67.333 63.501 93s57.834 45.667 93.501 60s73.834 21.5 114.501 21.5z
M377 1282c-20 0 -38.667 -3.33105 -56 -9.99805s-32.5 -16.334 -45.5 -29.001s-23.333 -27.834 -31 -45.501s-11.5 -37.167 -11.5 -58.5c0 -20 3.83301 -38.667 11.5 -56s18 -32.5 31 -45.5s28.167 -23.333 45.5 -31s36 -11.5 56 -11.5s38.667 3.83301 56 11.5
s32.5 18 45.5 31s23.167 28.167 30.5 45.5s11 36 11 56s-3.66699 38.667 -11 56s-17.5 32.5 -30.5 45.5s-28.167 23.167 -45.5 30.5s-36 11 -56 11z" />
    <glyph glyph-name="plusminus" unicode="&#xb1;" 
d="M606 1077v-297h359v-170h-359v-293h-168v293h-356v170h356v297h168zM965 260v-170h-883v170h883z" />
    <glyph glyph-name="uni00B2" unicode="&#xb2;" horiz-adv-x="825" 
d="M741 731l0.00488281 -157.997h-653v132c0 41.333 4.66699 78.666 14 111.999s25 63.333 47 90s50.833 50.167 86.5 70.5s79.5 38.5 131.5 54.5c42 12.667 75.167 24.667 99.5 36s42.833 23 55.5 35s20.667 24.833 24 38.5s5 29.167 5 46.5c0 28 -9.83301 49.667 -29.5 65
s-53.5 23 -101.5 23h-4c-20.667 0 -38.834 -1.33301 -54.501 -4s-29.5 -7.83398 -41.5 -15.501s-22.5 -18.5 -31.5 -32.5s-16.5 -32.333 -22.5 -55l-176 25c11.333 40 25.5 75 42.5 105s38.333 55 64 75s56.5 35 92.5 45s78.333 15 127 15h4
c55.333 0 102.666 -5.66699 141.999 -17s71.666 -27.333 96.999 -48s44 -45.834 56 -75.501s18 -62.834 18 -99.501c0 -44 -5.83301 -80.667 -17.5 -110s-29.5 -54.666 -53.5 -75.999s-54.5 -39.833 -91.5 -55.5s-80.5 -32.167 -130.5 -49.5
c-42 -14 -74.333 -28.333 -97 -43s-39.334 -29.334 -50.001 -44.001s-16.834 -29.167 -18.501 -43.5s-2.5 -28.166 -2.5 -41.499h469z" />
    <glyph glyph-name="uni00B3" unicode="&#xb3;" horiz-adv-x="825" 
d="M397 719c36 0 65.502 2.33496 88.502 7.00195s41 11.334 54 20.001s21.833 19.167 26.5 31.5s7 26.166 7 41.499v15c0 20 -3.33301 36.167 -10 48.5s-18.167 21.833 -34.5 28.5s-38 11.167 -65 13.5s-60.833 3.5 -101.5 3.5v159c42 0 75.833 1.66699 101.5 5
s45.334 8.5 59.001 15.5s22.834 16.167 27.501 27.5s7 25 7 41v24c0 9.33301 -1.66699 18.5 -5 27.5s-9.5 17.167 -18.5 24.5s-21.5 13.166 -37.5 17.499s-36.667 6.5 -62 6.5h-10c-41.333 0 -74.833 -6.5 -100.5 -19.5s-42.834 -36.5 -51.501 -70.5l-178 20
c10 35.333 23.833 67.166 41.5 95.499s39.667 52.333 66 72s57.5 34.667 93.5 45s77 15.5 123 15.5h20c102 0 177.333 -18 226 -54s73 -91.333 73 -166v-28c0 -16.667 -2.66699 -34 -8 -52s-14.333 -35 -27 -51s-29.167 -30.5 -49.5 -43.5s-45.166 -22.833 -74.499 -29.5
c36 -6.66699 65.333 -15.667 88 -27s40.5 -24.5 53.5 -39.5s22 -31.667 27 -50s7.5 -38.166 7.5 -59.499v-27c0 -36.667 -6.83301 -70.167 -20.5 -100.5s-34.834 -56.333 -63.501 -78s-65 -38.334 -109 -50.001s-96.667 -17.5 -158 -17.5c-40 0 -76.833 2.83301 -110.5 8.5
s-63.834 12.834 -90.501 21.501s-49.334 18 -68.001 28s-32.667 19.333 -42 28v180c8.66699 -8.66699 23.167 -19.334 43.5 -32.001s44.166 -24.5 71.499 -35.5s57.333 -20.5 90 -28.5s66 -12 100 -12z" />
    <glyph glyph-name="acute" unicode="&#xb4;" horiz-adv-x="494" 
d="M242 1434h233v-15l-299 -280h-158v10z" />
    <glyph glyph-name="uni00B5" unicode="&#xb5;" horiz-adv-x="1120" 
d="M778 1024l199 -0.000976562v-991c-26 -6 -55.833 -12.167 -89.5 -18.5s-68.5 -12 -104.5 -17s-72 -9.16699 -108 -12.5s-69.333 -5 -100 -5c-46 0 -88.833 3 -128.5 9s-74.5 15.667 -104.5 29v-428h-199v1434h199v-684c0 -60.667 20.333 -108 61 -142s98 -51 172 -51
c19.333 0 38.833 0.833008 58.5 2.5s38.5 3.83398 56.5 6.50098s34.667 5.66699 50 9s28 6.33301 38 9v850z" />
    <glyph glyph-name="paragraph" unicode="&#xb6;" horiz-adv-x="1081" 
d="M911 1266v-1465h-166v1465h-157v-1465h-166v897c-54 0 -103.167 7.5 -147.5 22.5s-82.5 37.167 -114.5 66.5s-56.833 66.333 -74.5 111s-26.5 96.334 -26.5 155.001c0 56 8.33301 106.167 25 150.5s41 82 73 113s71 54.833 117 71.5s98 25 156 25h610v-147h-129z" />
    <glyph glyph-name="periodcentered" unicode="&#xb7;" horiz-adv-x="446" 
d="M324 854v-240h-201v240h201z" />
    <glyph glyph-name="cedilla" unicode="&#xb8;" horiz-adv-x="584" 
d="M143 -274c16.667 -2.66699 32.1689 -4.5 46.502 -5.5s27.5 -1.5 39.5 -1.5c31.333 0 56 3.33301 74 10s27 20.667 27 42c0 12 -2.33301 21.833 -7 29.5s-12.834 13.5 -24.501 17.5s-27 6.66699 -46 8s-42.5 2 -70.5 2l70 172h137l-33 -70c17.333 -2 34 -6.5 50 -13.5
s30 -16.833 42 -29.5s21.5 -28.5 28.5 -47.5s10.5 -41.833 10.5 -68.5c0 -56.667 -22.333 -101 -67 -133s-110.334 -48 -197.001 -48c-12 0 -24.667 0.333008 -38 1s-27.333 1.66699 -42 3v132z" />
    <glyph glyph-name="uni00B9" unicode="&#xb9;" horiz-adv-x="778" 
d="M520 565h-178v670l-236 -113v158l285 133h129v-848z" />
    <glyph glyph-name="ordmasculine" unicode="&#xba;" horiz-adv-x="750" 
d="M78 1167c0 46 7.16699 85 21.5 117s33.666 58 57.999 78s53 34.5 86 43.5s68.5 13.5 106.5 13.5h49c37.333 0 72.666 -4.5 105.999 -13.5s62.333 -23.5 87 -43.5s44.167 -46 58.5 -78s21.5 -71 21.5 -117v-135c0 -45.333 -7.16699 -84 -21.5 -116s-33.833 -58 -58.5 -78
s-53.667 -34.667 -87 -44s-68.666 -14 -105.999 -14h-49c-38 0 -73.5 4.66699 -106.5 14s-61.667 24 -86 44s-43.666 46 -57.999 78s-21.5 70.667 -21.5 116v135zM229 1042c0 -43.333 9.66797 -76.333 29.001 -99s48.666 -34 87.999 -34h60c76 0 114 44.333 114 133v115
c0 46 -9.33301 79.667 -28 101s-47.334 32 -86.001 32h-60c-39.333 0 -68.666 -11.333 -87.999 -34s-29 -55.667 -29 -99v-115z" />
    <glyph glyph-name="guillemotright" unicode="&#xbb;" horiz-adv-x="893" 
d="M811 596v-166l-334 -350h-10v190l188 244l-188 242v188h10zM426 596v-166l-334 -350h-10v190l188 244l-188 242v188h10z" />
    <glyph glyph-name="onequarter" unicode="&#xbc;" horiz-adv-x="1700" 
d="M1567 349v-157h-105v-191h-178v191h-446v147l423 510h201v-500h105zM1034 349h250v310zM1379 1436l-1028 -1456h-199l1028 1456h199zM520 565h-178v670l-236 -113v158l285 133h129v-848z" />
    <glyph glyph-name="onehalf" unicode="&#xbd;" horiz-adv-x="1700" 
d="M520 565h-178v670l-236 -113v158l285 133h129v-848zM1379 1436l-1028 -1456h-199l1028 1456h199zM1609 159l0.00488281 -157.997h-653v132c0 41.333 4.66699 78.666 14 111.999s25 63.333 47 90s50.833 50.167 86.5 70.5s79.5 38.5 131.5 54.5
c42 12.667 75.167 24.667 99.5 36s42.833 23 55.5 35s20.667 24.833 24 38.5s5 29.167 5 46.5c0 28 -9.83301 49.667 -29.5 65s-53.5 23 -101.5 23h-4c-20.667 0 -38.834 -1.33301 -54.501 -4s-29.5 -7.83398 -41.5 -15.501s-22.5 -18.5 -31.5 -32.5
s-16.5 -32.333 -22.5 -55l-176 25c11.333 40 25.5 75 42.5 105s38.333 55 64 75s56.5 35 92.5 45s78.333 15 127 15h4c55.333 0 102.666 -5.66699 141.999 -17s71.666 -27.333 96.999 -48s44 -45.834 56 -75.501s18 -62.834 18 -99.501c0 -44 -5.83301 -80.667 -17.5 -110
s-29.5 -54.666 -53.5 -75.999s-54.5 -39.833 -91.5 -55.5s-80.5 -32.167 -130.5 -49.5c-42 -14 -74.333 -28.333 -97 -43s-39.334 -29.334 -50.001 -44.001s-16.834 -29.167 -18.501 -43.5s-2.5 -28.166 -2.5 -41.499h469z" />
    <glyph glyph-name="threequarters" unicode="&#xbe;" horiz-adv-x="1843" 
d="M1542 1436l-1028 -1456h-199l1028 1456h199zM1731 349v-157h-105v-191h-178v191h-446v147l423 510h201v-500h105zM1198 349h250v310zM371 719c36 0 65.502 2.33496 88.502 7.00195s41 11.334 54 20.001s21.833 19.167 26.5 31.5s7 26.166 7 41.499v15
c0 20 -3.33301 36.167 -10 48.5s-18.167 21.833 -34.5 28.5s-38 11.167 -65 13.5s-60.833 3.5 -101.5 3.5v159c42 0 75.833 1.66699 101.5 5s45.334 8.5 59.001 15.5s22.834 16.167 27.501 27.5s7 25 7 41v24c0 9.33301 -1.66699 18.5 -5 27.5s-9.5 17.167 -18.5 24.5
s-21.5 13.166 -37.5 17.499s-36.667 6.5 -62 6.5h-10c-41.333 0 -74.833 -6.5 -100.5 -19.5s-42.834 -36.5 -51.501 -70.5l-178 20c10 35.333 23.833 67.166 41.5 95.499s39.667 52.333 66 72s57.5 34.667 93.5 45s77 15.5 123 15.5h20c102 0 177.333 -18 226 -54
s73 -91.333 73 -166v-28c0 -16.667 -2.66699 -34 -8 -52s-14.333 -35 -27 -51s-29.167 -30.5 -49.5 -43.5s-45.166 -22.833 -74.499 -29.5c36 -6.66699 65.333 -15.667 88 -27s40.5 -24.5 53.5 -39.5s22 -31.667 27 -50s7.5 -38.166 7.5 -59.499v-27
c0 -36.667 -6.83301 -70.167 -20.5 -100.5s-34.834 -56.333 -63.501 -78s-65 -38.334 -109 -50.001s-96.667 -17.5 -158 -17.5c-40 0 -76.833 2.83301 -110.5 8.5s-63.834 12.834 -90.501 21.501s-49.334 18 -68.001 28s-32.667 19.333 -42 28v180
c8.66699 -8.66699 23.167 -19.334 43.5 -32.001s44.166 -24.5 71.499 -35.5s57.333 -20.5 90 -28.5s66 -12 100 -12z" />
    <glyph glyph-name="questiondown" unicode="&#xbf;" horiz-adv-x="1024" 
d="M414 784v240h239v-240h-239zM281 -47c0 -36 4.49707 -65.8311 13.4971 -89.498s22.5 -42.5 40.5 -56.5s40.333 -23.833 67 -29.5s57.334 -8.5 92.001 -8.5h28c30 0 57.5 2.66699 82.5 8s47.333 14.833 67 28.5s36.5 32.167 50.5 55.5s24.667 52.666 32 87.999l198 -37
c-12 -50 -29.833 -94.833 -53.5 -134.5s-53.5 -73.334 -89.5 -101.001s-78 -49 -126 -64s-101.667 -22.5 -161 -22.5h-28c-135.333 0 -238.166 31.167 -308.499 93.5s-105.5 149.5 -105.5 261.5c0 43.333 5.16699 81.833 15.5 115.5s24 64.167 41 91.5s36.333 52.5 58 75.5
s43.834 45.333 66.501 67l66.5 65.5c21.667 22 41 45.667 58 71s30.667 53.166 41 83.499s15.5 64.833 15.5 103.5h199c0 -47.333 -5.16699 -89.166 -15.5 -125.499s-24 -69 -41 -98s-36.167 -55.167 -57.5 -78.5s-43.333 -45.333 -66 -66l-66 -61.5
c-21.333 -20.333 -40.5 -42 -57.5 -65s-30.667 -48.333 -41 -76s-15.5 -59.167 -15.5 -94.5z" />
    <glyph glyph-name="Agrave" unicode="&#xc0;" horiz-adv-x="1204" 
d="M815 578l-121 346l-34 102l-29.5 92.5l-28.5 89.5c-7.33301 -27.333 -16.5 -57.333 -27.5 -90l-30.5 -93l-34 -103l-121 -344h426zM866 410h-528l-133 -410h-205l494 1413h217l493 -1413h-205zM774 1534v-10h-158l-299 280v15h234z" />
    <glyph glyph-name="Aacute" unicode="&#xc1;" horiz-adv-x="1204" 
d="M815 578l-121 346l-34 102l-29.5 92.5l-28.5 89.5c-7.33301 -27.333 -16.5 -57.333 -27.5 -90l-30.5 -93l-34 -103l-121 -344h426zM866 410h-528l-133 -410h-205l494 1413h217l493 -1413h-205zM672 1819h233v-15l-299 -280h-158v10z" />
    <glyph glyph-name="Acircumflex" unicode="&#xc2;" horiz-adv-x="1204" 
d="M815 578l-121 346l-34 102l-29.5 92.5l-28.5 89.5c-7.33301 -27.333 -16.5 -57.333 -27.5 -90l-30.5 -93l-34 -103l-121 -344h426zM866 410h-528l-133 -410h-205l494 1413h217l493 -1413h-205zM467 1819h272l203 -285v-10h-158l-182 168l-180 -168h-158v10z" />
    <glyph glyph-name="Atilde" unicode="&#xc3;" horiz-adv-x="1204" 
d="M815 578l-121 346l-34 102l-29.5 92.5l-28.5 89.5c-7.33301 -27.333 -16.5 -57.333 -27.5 -90l-30.5 -93l-34 -103l-121 -344h426zM866 410h-528l-133 -410h-205l494 1413h217l493 -1413h-205zM909 1604c-25.333 -30 -49.999 -50.834 -73.999 -62.501
s-52 -17.5 -84 -17.5c-20.667 0 -43.834 4.66699 -69.501 14s-51.834 19.5 -78.501 30.5s-53.5 21 -80.5 30s-52.5 13.5 -76.5 13.5c-30.667 0 -57.334 -7.66699 -80.001 -23s-46 -37 -70 -65v180c19.333 25.333 42.666 45.666 69.999 60.999s57.333 23 90 23
c28 0 54.833 -4.66699 80.5 -14s50.834 -19.666 75.501 -30.999s49.334 -21.666 74.001 -30.999s50.334 -14 77.001 -14c26 0 51.667 8.33301 77 25s48.333 39 69 67v-186v0z" />
    <glyph glyph-name="Adieresis" unicode="&#xc4;" horiz-adv-x="1204" 
d="M815 578l-121 346l-34 102l-29.5 92.5l-28.5 89.5c-7.33301 -27.333 -16.5 -57.333 -27.5 -90l-30.5 -93l-34 -103l-121 -344h426zM866 410h-528l-133 -410h-205l494 1413h217l493 -1413h-205zM518 1722v-198h-198v198h198zM887 1722v-198h-199v198h199z" />
    <glyph glyph-name="Aring" unicode="&#xc5;" horiz-adv-x="1163" 
d="M354 1516c0 31.333 5.99805 60.666 17.998 87.999s28.333 51.333 49 72s44.834 37 72.501 49s57.167 18 88.5 18c32 0 61.667 -6 89 -18s51.333 -28.333 72 -49s36.834 -44.667 48.501 -72s17.5 -56.666 17.5 -87.999c0 -38 -8 -73.167 -24 -105.5s-38 -58.833 -66 -79.5
l465 -1331h-205l-133 410h-529l-133 -410h-204l464 1331c-28 21.333 -50 48 -66 80s-24 67 -24 105zM794.998 578l-121 346.001l-34 102l-30 92.5c-10.667 32.333 -20 62.166 -28 89.499c-7.33301 -27.333 -16.5 -57.333 -27.5 -90l-30.5 -93l-35 -103l-120 -344h426z
M478.998 1516c0 -29.333 9.83301 -53.833 29.5 -73.5s44.167 -29.5 73.5 -29.5c28.667 0 52.834 9.83301 72.501 29.5s29.5 44.167 29.5 73.5c0 28.667 -9.83301 52.834 -29.5 72.501s-43.834 29.5 -72.501 29.5c-29.333 0 -53.833 -9.83301 -73.5 -29.5
s-29.5 -43.834 -29.5 -72.501z" />
    <glyph glyph-name="AE" unicode="&#xc6;" horiz-adv-x="1741" 
d="M1659 0h-756v428h-481l-232 -428h-225l791 1413h903v-180h-555v-406h512v-180h-512v-467h555v-180zM518 608h385v625h-53l-44 -89l-47 -91l-52 -99z" />
    <glyph glyph-name="Ccedilla" unicode="&#xc7;" horiz-adv-x="1133" 
d="M436 -274c16.667 -2.66699 32.166 -4.50195 46.499 -5.50195s27.5 -1.5 39.5 -1.5c31.333 0 56 3.33301 74 10s27 20.667 27 42c0 12 -2.33301 21.833 -7 29.5s-12.834 13.5 -24.501 17.5s-27 6.66699 -46 8s-42.5 2 -70.5 2l62 152
c-62.667 2.66699 -118.834 14.167 -168.501 34.5s-91.667 48.333 -126 84s-60.5 77.834 -78.5 126.501s-27 102.667 -27 162v639c0 56 9.5 108.833 28.5 158.5s46.667 93 83 130s80.833 66.167 133.5 87.5s112.334 32 179.001 32h68c64 0 120 -8.5 168 -25.5
s89.167 -40.167 123.5 -69.5s62.166 -63.5 83.499 -102.5s37 -80.5 47 -124.5l-199 -37c-6 30 -16 56 -30 78s-31.167 40.5 -51.5 55.5s-43.166 26.167 -68.499 33.5s-51.666 11 -78.999 11h-54c-34 0 -64.833 -5 -92.5 -15s-51.5 -25.167 -71.5 -45.5
s-35.5 -45.833 -46.5 -76.5s-16.5 -66.667 -16.5 -108v-592c0 -86.667 20.667 -151 62 -193s96.333 -63 165 -63h76c50.667 0 98.5 7.5 143.5 22.5s85.333 33 121 54s66 42.333 91 64s42.5 39.5 52.5 53.5v-217c-11.333 -14 -28.666 -29.667 -51.999 -47
s-51.5 -33.666 -84.5 -48.999s-70.167 -28.5 -111.5 -39.5s-85.666 -17.5 -132.999 -19.5l-23 -52c17.333 -2 34 -6.5 50 -13.5s30 -16.833 42 -29.5s21.5 -28.5 28.5 -47.5s10.5 -41.833 10.5 -68.5c0 -56.667 -22.333 -101 -67 -133s-110.334 -48 -197.001 -48
c-12 0 -24.667 0.333008 -38 1s-27.333 1.66699 -42 3v132z" />
    <glyph glyph-name="Egrave" unicode="&#xc8;" horiz-adv-x="1012" 
d="M909 0h-755v1413h755v-180h-555v-406h512v-180h-512v-467h555v-180zM723 1534v-10h-158l-299 280v15h234z" />
    <glyph glyph-name="Eacute" unicode="&#xc9;" horiz-adv-x="1012" 
d="M909 0h-755v1413h755v-180h-555v-406h512v-180h-512v-467h555v-180zM574 1819h233v-15l-299 -280h-158v10z" />
    <glyph glyph-name="Ecircumflex" unicode="&#xca;" horiz-adv-x="1012" 
d="M909 0h-755v1413h755v-180h-555v-406h512v-180h-512v-467h555v-180zM398 1819h272l203 -285v-10h-158l-182 168l-180 -168h-158v10z" />
    <glyph glyph-name="Edieresis" unicode="&#xcb;" horiz-adv-x="1012" 
d="M909 0h-755v1413h755v-180h-555v-406h512v-180h-512v-467h555v-180zM442 1722v-198h-198v198h198zM811 1722v-198h-199v198h199z" />
    <glyph glyph-name="Igrave" unicode="&#xcc;" horiz-adv-x="508" 
d="M154 0v1413h200v-1413h-200zM386 1534v-10h-158l-299 280v15h234z" />
    <glyph glyph-name="Iacute" unicode="&#xcd;" horiz-adv-x="508" 
d="M154 0v1413h200v-1413h-200zM312 1821h233v-15l-299 -280h-158v10z" />
    <glyph glyph-name="Icircumflex" unicode="&#xce;" horiz-adv-x="508" 
d="M154 0v1413h200v-1413h-200zM118 1819h272l203 -285v-10h-158l-182 168l-180 -168h-158v10z" />
    <glyph glyph-name="Idieresis" unicode="&#xcf;" horiz-adv-x="508" 
d="M154 0v1413h200v-1413h-200zM169 1722v-198h-198v198h198zM538 1722v-198h-199v198h199z" />
    <glyph glyph-name="Eth" unicode="&#xd0;" horiz-adv-x="1333" 
d="M1214 745c0 -130 -13.834 -242 -41.501 -336s-67.667 -171.167 -120 -231.5s-116.166 -105 -191.499 -134s-161 -43.5 -257 -43.5h-450v637h-113v180h113v596h456c94 0 178.333 -11.5 253 -34.5s138 -60.667 190 -113s91.833 -121 119.5 -206s41.5 -189.833 41.5 -314.5z
M1010 748c0 95.333 -8.83203 174.33 -26.499 236.997s-43.5 112.334 -77.5 149.001s-76.333 62.334 -127 77.001s-109 22 -175 22h-250v-416h258v-180h-258v-457h252c65.333 0 123.166 9 173.499 27s92.5 48.833 126.5 92.5s59.833 101.834 77.5 174.501s26.5 164 26.5 274z
" />
    <glyph glyph-name="Ntilde" unicode="&#xd1;" horiz-adv-x="1450" 
d="M1096 1413h199.999v-1413h-237l-717 1153l6 -113l4 -100.5c1.33301 -35 2 -66.167 2 -93.5v-846h-200v1413h241l713 -1153l-6 94c-1.33301 28 -2.66602 58.5 -3.99902 91.5s-2 65.5 -2 97.5v870zM1039 1604c-25.333 -30 -49.999 -50.834 -73.999 -62.501
s-52 -17.5 -84 -17.5c-20.667 0 -43.834 4.66699 -69.501 14s-51.834 19.5 -78.501 30.5s-53.5 21 -80.5 30s-52.5 13.5 -76.5 13.5c-30.667 0 -57.334 -7.66699 -80.001 -23s-46 -37 -70 -65v180c19.333 25.333 42.666 45.666 69.999 60.999s57.333 23 90 23
c28 0 54.833 -4.66699 80.5 -14s50.834 -19.666 75.501 -30.999s49.334 -21.666 74.001 -30.999s50.334 -14 77.001 -14c26 0 51.667 8.33301 77 25s48.333 39 69 67v-186v0z" />
    <glyph glyph-name="Ograve" unicode="&#xd2;" horiz-adv-x="1300" 
d="M752 1434c64 0 121.333 -10 172 -30s93.834 -47.667 129.501 -83s62.834 -77.166 81.501 -125.499s28 -100.833 28 -157.5v-663c0 -56 -9.33301 -108.167 -28 -156.5s-45.834 -90.166 -81.501 -125.499s-78.834 -63 -129.501 -83s-108 -30 -172 -30h-203
c-64 0 -121.5 10 -172.5 30s-94.167 47.667 -129.5 83s-62.5 77.166 -81.5 125.499s-28.5 100.5 -28.5 156.5v663c0 56.667 9.5 109.167 28.5 157.5s46.167 90.166 81.5 125.499s78.5 63 129.5 83s108.5 30 172.5 30h203zM569 1253c-74 0 -130.333 -19.333 -169 -58
s-58 -97.667 -58 -177v-623c0 -78.667 19.333 -137.5 58 -176.5s95 -58.5 169 -58.5h162c74.667 0 131.167 19.5 169.5 58.5s57.5 97.833 57.5 176.5v623c0 79.333 -19.167 138.333 -57.5 177s-94.833 58 -169.5 58h-162zM835 1534v-10h-158l-299 280v15h234z" />
    <glyph glyph-name="Oacute" unicode="&#xd3;" horiz-adv-x="1300" 
d="M752 1434c64 0 121.333 -10 172 -30s93.834 -47.667 129.501 -83s62.834 -77.166 81.501 -125.499s28 -100.833 28 -157.5v-663c0 -56 -9.33301 -108.167 -28 -156.5s-45.834 -90.166 -81.501 -125.499s-78.834 -63 -129.501 -83s-108 -30 -172 -30h-203
c-64 0 -121.5 10 -172.5 30s-94.167 47.667 -129.5 83s-62.5 77.166 -81.5 125.499s-28.5 100.5 -28.5 156.5v663c0 56.667 9.5 109.167 28.5 157.5s46.167 90.166 81.5 125.499s78.5 63 129.5 83s108.5 30 172.5 30h203zM569 1253c-74 0 -130.333 -19.333 -169 -58
s-58 -97.667 -58 -177v-623c0 -78.667 19.333 -137.5 58 -176.5s95 -58.5 169 -58.5h162c74.667 0 131.167 19.5 169.5 58.5s57.5 97.833 57.5 176.5v623c0 79.333 -19.167 138.333 -57.5 177s-94.833 58 -169.5 58h-162zM697 1819h233v-15l-299 -280h-158v10z" />
    <glyph glyph-name="Ocircumflex" unicode="&#xd4;" horiz-adv-x="1300" 
d="M752 1434c64 0 121.333 -10 172 -30s93.834 -47.667 129.501 -83s62.834 -77.166 81.501 -125.499s28 -100.833 28 -157.5v-663c0 -56 -9.33301 -108.167 -28 -156.5s-45.834 -90.166 -81.501 -125.499s-78.834 -63 -129.501 -83s-108 -30 -172 -30h-203
c-64 0 -121.5 10 -172.5 30s-94.167 47.667 -129.5 83s-62.5 77.166 -81.5 125.499s-28.5 100.5 -28.5 156.5v663c0 56.667 9.5 109.167 28.5 157.5s46.167 90.166 81.5 125.499s78.5 63 129.5 83s108.5 30 172.5 30h203zM569 1253c-74 0 -130.333 -19.333 -169 -58
s-58 -97.667 -58 -177v-623c0 -78.667 19.333 -137.5 58 -176.5s95 -58.5 169 -58.5h162c74.667 0 131.167 19.5 169.5 58.5s57.5 97.833 57.5 176.5v623c0 79.333 -19.167 138.333 -57.5 177s-94.833 58 -169.5 58h-162zM516 1819h272l203 -285v-10h-158l-182 168
l-180 -168h-158v10z" />
    <glyph glyph-name="Otilde" unicode="&#xd5;" horiz-adv-x="1300" 
d="M752 1434c64 0 121.333 -10 172 -30s93.834 -47.667 129.501 -83s62.834 -77.166 81.501 -125.499s28 -100.833 28 -157.5v-663c0 -56 -9.33301 -108.167 -28 -156.5s-45.834 -90.166 -81.501 -125.499s-78.834 -63 -129.501 -83s-108 -30 -172 -30h-203
c-64 0 -121.5 10 -172.5 30s-94.167 47.667 -129.5 83s-62.5 77.166 -81.5 125.499s-28.5 100.5 -28.5 156.5v663c0 56.667 9.5 109.167 28.5 157.5s46.167 90.166 81.5 125.499s78.5 63 129.5 83s108.5 30 172.5 30h203zM569 1253c-74 0 -130.333 -19.333 -169 -58
s-58 -97.667 -58 -177v-623c0 -78.667 19.333 -137.5 58 -176.5s95 -58.5 169 -58.5h162c74.667 0 131.167 19.5 169.5 58.5s57.5 97.833 57.5 176.5v623c0 79.333 -19.167 138.333 -57.5 177s-94.833 58 -169.5 58h-162zM955 1604
c-25.333 -30 -49.999 -50.834 -73.999 -62.501s-52 -17.5 -84 -17.5c-20.667 0 -43.834 4.66699 -69.501 14s-51.834 19.5 -78.501 30.5s-53.5 21 -80.5 30s-52.5 13.5 -76.5 13.5c-30.667 0 -57.334 -7.66699 -80.001 -23s-46 -37 -70 -65v180
c19.333 25.333 42.666 45.666 69.999 60.999s57.333 23 90 23c28 0 54.833 -4.66699 80.5 -14s50.834 -19.666 75.501 -30.999s49.334 -21.666 74.001 -30.999s50.334 -14 77.001 -14c26 0 51.667 8.33301 77 25s48.333 39 69 67v-186v0z" />
    <glyph glyph-name="Odieresis" unicode="&#xd6;" horiz-adv-x="1300" 
d="M752 1434c64 0 121.333 -10 172 -30s93.834 -47.667 129.501 -83s62.834 -77.166 81.501 -125.499s28 -100.833 28 -157.5v-663c0 -56 -9.33301 -108.167 -28 -156.5s-45.834 -90.166 -81.501 -125.499s-78.834 -63 -129.501 -83s-108 -30 -172 -30h-203
c-64 0 -121.5 10 -172.5 30s-94.167 47.667 -129.5 83s-62.5 77.166 -81.5 125.499s-28.5 100.5 -28.5 156.5v663c0 56.667 9.5 109.167 28.5 157.5s46.167 90.166 81.5 125.499s78.5 63 129.5 83s108.5 30 172.5 30h203zM569 1253c-74 0 -130.333 -19.333 -169 -58
s-58 -97.667 -58 -177v-623c0 -78.667 19.333 -137.5 58 -176.5s95 -58.5 169 -58.5h162c74.667 0 131.167 19.5 169.5 58.5s57.5 97.833 57.5 176.5v623c0 79.333 -19.167 138.333 -57.5 177s-94.833 58 -169.5 58h-162zM544 1722v-198h-198v198h198zM913 1722v-198h-199
v198h199z" />
    <glyph glyph-name="multiply" unicode="&#xd7;" 
d="M938 991l-295 -295l297 -297l-121 -120l-297 296l-295 -294l-118 118l294 295l-297 297l121 121l297 -297l295 295z" />
    <glyph glyph-name="Oslash" unicode="&#xd8;" horiz-adv-x="1260" 
d="M752 1434c32.667 0 63.835 -2.99902 93.502 -8.99902s57.167 -14 82.5 -24l18 33h178l-63 -121c32.667 -35.333 57.834 -76.333 75.501 -123s26.5 -97.334 26.5 -152.001v-663c0 -56 -9.33301 -108.167 -28 -156.5s-45.834 -90.166 -81.501 -125.499
s-78.834 -63 -129.501 -83s-108 -30 -172 -30h-203c-35.333 0 -67.833 2.83301 -97.5 8.5s-57.834 13.5 -84.501 23.5l-19 -32h-178l66 122c-32 35.333 -56.5 76 -73.5 122s-25.5 96.333 -25.5 151v663c0 56.667 9.5 109.167 28.5 157.5s46.167 90.166 81.5 125.499
s78.5 63 129.5 83s108.5 30 172.5 30h203zM731.001 160.001c74.667 0 131.167 19.5 169.5 58.5s57.5 97.833 57.5 176.5v623c0 16.667 -0.833008 32 -2.5 46s-4.16699 27.333 -7.5 40l-493 -924c30.667 -13.333 68.667 -20 114 -20h162zM569.001 1253
c-74 0 -130.333 -19.333 -169 -58s-58 -97.667 -58 -177v-623c0 -14 0.5 -27.667 1.5 -41s3.16699 -26.333 6.5 -39l490 920c-30.667 12 -67 18 -109 18h-162z" />
    <glyph glyph-name="Ugrave" unicode="&#xd9;" horiz-adv-x="1323" 
d="M1176 428c0 -61.333 -8.82715 -119.167 -26.4941 -173.5s-46.834 -101.833 -87.501 -142.5s-94 -72.834 -160 -96.501s-147 -35.5 -243 -35.5c-100.667 0 -184 11.667 -250 35s-118.333 55.333 -157 96s-65.834 88.167 -81.501 142.5s-23.5 112.5 -23.5 174.5v985h203
v-985c0 -41.333 5.16699 -78.166 15.5 -110.499s27.666 -59.5 51.999 -81.5s56.666 -38.833 96.999 -50.5s90.166 -17.5 149.499 -17.5c61.333 0 111.833 5.5 151.5 16.5s71.167 27.5 94.5 49.5s39.666 49.167 48.999 81.5s14 69.833 14 112.5v985h203v-985zM866.006 1534
v-10h-158l-299 280v15h234z" />
    <glyph glyph-name="Uacute" unicode="&#xda;" horiz-adv-x="1323" 
d="M1176 428c0 -61.333 -8.82715 -119.167 -26.4941 -173.5s-46.834 -101.833 -87.501 -142.5s-94 -72.834 -160 -96.501s-147 -35.5 -243 -35.5c-100.667 0 -184 11.667 -250 35s-118.333 55.333 -157 96s-65.834 88.167 -81.501 142.5s-23.5 112.5 -23.5 174.5v985h203
v-985c0 -41.333 5.16699 -78.166 15.5 -110.499s27.666 -59.5 51.999 -81.5s56.666 -38.833 96.999 -50.5s90.166 -17.5 149.499 -17.5c61.333 0 111.833 5.5 151.5 16.5s71.167 27.5 94.5 49.5s39.666 49.167 48.999 81.5s14 69.833 14 112.5v985h203v-985zM734.006 1819
h233v-15l-299 -280h-158v10z" />
    <glyph glyph-name="Ucircumflex" unicode="&#xdb;" horiz-adv-x="1323" 
d="M1176 428c0 -61.333 -8.82715 -119.167 -26.4941 -173.5s-46.834 -101.833 -87.501 -142.5s-94 -72.834 -160 -96.501s-147 -35.5 -243 -35.5c-100.667 0 -184 11.667 -250 35s-118.333 55.333 -157 96s-65.834 88.167 -81.501 142.5s-23.5 112.5 -23.5 174.5v985h203
v-985c0 -41.333 5.16699 -78.166 15.5 -110.499s27.666 -59.5 51.999 -81.5s56.666 -38.833 96.999 -50.5s90.166 -17.5 149.499 -17.5c61.333 0 111.833 5.5 151.5 16.5s71.167 27.5 94.5 49.5s39.666 49.167 48.999 81.5s14 69.833 14 112.5v985h203v-985zM531.006 1819
h272l203 -285v-10h-158l-182 168l-180 -168h-158v10z" />
    <glyph glyph-name="Udieresis" unicode="&#xdc;" horiz-adv-x="1323" 
d="M1176 428c0 -61.333 -8.82715 -119.167 -26.4941 -173.5s-46.834 -101.833 -87.501 -142.5s-94 -72.834 -160 -96.501s-147 -35.5 -243 -35.5c-100.667 0 -184 11.667 -250 35s-118.333 55.333 -157 96s-65.834 88.167 -81.501 142.5s-23.5 112.5 -23.5 174.5v985h203
v-985c0 -41.333 5.16699 -78.166 15.5 -110.499s27.666 -59.5 51.999 -81.5s56.666 -38.833 96.999 -50.5s90.166 -17.5 149.499 -17.5c61.333 0 111.833 5.5 151.5 16.5s71.167 27.5 94.5 49.5s39.666 49.167 48.999 81.5s14 69.833 14 112.5v985h203v-985zM575.006 1722
v-198h-198v198h198zM944.006 1722v-198h-199v198h199z" />
    <glyph glyph-name="Yacute" unicode="&#xdd;" horiz-adv-x="1069" 
d="M537 717l333 696h209l-444 -862v-551h-201v551l-444 862h209zM580 1819h233v-15l-299 -280h-158v10z" />
    <glyph glyph-name="Thorn" unicode="&#xde;" horiz-adv-x="1126" 
d="M610 485c35.333 0 67.667 4.83203 97 14.499s54.5 24.834 75.5 45.501s37.167 47.334 48.5 80.001s17 72 17 118c0 43.333 -6 79.166 -18 107.499s-28.5 51 -49.5 68s-46 29 -75 36s-60.833 10.5 -95.5 10.5h-256v-480h256zM354.001 304.999l-0.00292969 -304.999h-200
v1413h200v-268h258c70 0 132.333 -8.66699 187 -26s100.834 -42.833 138.501 -76.5s66.334 -75.334 86.001 -125.001s29.5 -107.167 29.5 -172.5c0 -66 -9.66699 -126 -29 -180s-47.666 -100.333 -84.999 -139s-83 -68.5 -137 -89.5s-116 -31.5 -186 -31.5h-262z" />
    <glyph glyph-name="germandbls" unicode="&#xdf;" horiz-adv-x="1153" 
d="M938 1120c0 -38 -6.33008 -70.3271 -18.9971 -96.9941s-28.5 -50 -47.5 -70s-39.5 -37.667 -61.5 -53s-42.5 -30.333 -61.5 -45s-34.833 -30 -47.5 -46s-19 -35 -19 -57c0 -23.333 5.66699 -43 17 -59s26.166 -30.167 44.499 -42.5s39.333 -23.833 63 -34.5
s47.667 -22.334 72 -35.001s48.333 -27 72 -43s44.667 -35.5 63 -58.5s33.166 -50.5 44.499 -82.5s17 -70 17 -114c0 -44.667 -7.66699 -85.667 -23 -123s-38.333 -69.333 -69 -96s-69.167 -47.334 -115.5 -62.001s-100.5 -22 -162.5 -22c-26.667 0 -53 1.83301 -79 5.5
s-50.5 8.66699 -73.5 15s-43.667 14.166 -62 23.499s-33.166 19.666 -44.499 30.999v203c11.333 -12.667 26.166 -25.167 44.499 -37.5s38.5 -23.5 60.5 -33.5s45.667 -18 71 -24s50.666 -9 75.999 -9c34 0 62.5 3.5 85.5 10.5s41.333 16.333 55 28s23.5 25.334 29.5 41.001
s9 32.167 9 49.5c0 27.333 -5.66699 50.333 -17 69s-26.166 35.167 -44.499 49.5s-39.333 27.333 -63 39l-72.5 36c-24.667 12.333 -48.834 25.833 -72.501 40.5s-44.667 32.5 -63 53.5s-33.166 46 -44.499 75s-17 63.833 -17 104.5c0 35.333 6.5 65.666 19.5 90.999
s29 47.666 48 66.999s39.833 36.833 62.5 52.5s43.5 31.167 62.5 46.5s35 31.666 48 48.999s19.5 37.333 19.5 60v6c0 26.667 -4.66699 49.167 -14 67.5s-22.666 33 -39.999 44s-38 18.833 -62 23.5s-50.667 7 -80 7c-30.667 0 -58.667 -3.33301 -84 -10
s-47 -17.667 -65 -33s-31.833 -35.5 -41.5 -60.5s-14.5 -55.5 -14.5 -91.5v-1069h-199v1075c0 110.667 34.333 196.667 103 258s169 92 301 92c61.333 0 116.166 -5.83301 164.499 -17.5s89.166 -29.167 122.499 -52.5s59 -52.333 77 -87s27 -75 27 -121v-27z" />
    <glyph glyph-name="agrave" unicode="&#xe0;" horiz-adv-x="1071" 
d="M285 311c0 -22.667 3.66699 -44.001 11 -64.001s19.5 -37.5 36.5 -52.5s39.5 -26.667 67.5 -35s62.667 -12.5 104 -12.5c19.333 0 40 0.666992 62 2s43.667 3 65 5s41.5 4.5 60.5 7.5s34.833 5.83301 47.5 8.5v311h-264c-34 0 -63.167 -4.16699 -87.5 -12.5
s-44 -19.666 -59 -33.999s-26 -31 -33 -50s-10.5 -39.167 -10.5 -60.5v-13zM532 884.999c-51.333 0 -95.1689 -9.00098 -131.502 -27.001s-66.166 -44.667 -89.499 -80l-149 96c30.667 53.333 77.167 96.5 139.5 129.5s140.833 49.5 235.5 49.5c64 0 120.833 -7 170.5 -21
s91.667 -35.833 126 -65.5s60.333 -67.5 78 -113.5s26.5 -101 26.5 -165v-657c-31.333 -7.33301 -64.833 -14.166 -100.5 -20.499s-72.167 -11.666 -109.5 -15.999s-75 -7.83301 -113 -10.5s-75 -4 -111 -4c-74.667 0 -138.5 8 -191.5 24s-96.167 38.333 -129.5 67
s-57.833 63 -73.5 103s-23.5 83.667 -23.5 131v25c0 48.667 8.33301 92.167 25 130.5s41.334 70.833 74.001 97.5s72.667 47.167 120 61.5s101.333 21.5 162 21.5h272v29c0 38 -3.5 70.667 -10.5 98s-18.333 49.666 -34 66.999s-36.167 30 -61.5 38s-56 12 -92 12h-9z
M728.997 1149v-10h-158l-299 280v15h234z" />
    <glyph glyph-name="aacute" unicode="&#xe1;" horiz-adv-x="1071" 
d="M285 311c0 -22.667 3.66699 -44.001 11 -64.001s19.5 -37.5 36.5 -52.5s39.5 -26.667 67.5 -35s62.667 -12.5 104 -12.5c19.333 0 40 0.666992 62 2s43.667 3 65 5s41.5 4.5 60.5 7.5s34.833 5.83301 47.5 8.5v311h-264c-34 0 -63.167 -4.16699 -87.5 -12.5
s-44 -19.666 -59 -33.999s-26 -31 -33 -50s-10.5 -39.167 -10.5 -60.5v-13zM532 884.999c-51.333 0 -95.1689 -9.00098 -131.502 -27.001s-66.166 -44.667 -89.499 -80l-149 96c30.667 53.333 77.167 96.5 139.5 129.5s140.833 49.5 235.5 49.5c64 0 120.833 -7 170.5 -21
s91.667 -35.833 126 -65.5s60.333 -67.5 78 -113.5s26.5 -101 26.5 -165v-657c-31.333 -7.33301 -64.833 -14.166 -100.5 -20.499s-72.167 -11.666 -109.5 -15.999s-75 -7.83301 -113 -10.5s-75 -4 -111 -4c-74.667 0 -138.5 8 -191.5 24s-96.167 38.333 -129.5 67
s-57.833 63 -73.5 103s-23.5 83.667 -23.5 131v25c0 48.667 8.33301 92.167 25 130.5s41.334 70.833 74.001 97.5s72.667 47.167 120 61.5s101.333 21.5 162 21.5h272v29c0 38 -3.5 70.667 -10.5 98s-18.333 49.666 -34 66.999s-36.167 30 -61.5 38s-56 12 -92 12h-9z
M591.997 1434h233v-15l-299 -280h-158v10z" />
    <glyph glyph-name="acircumflex" unicode="&#xe2;" horiz-adv-x="1071" 
d="M285 311c0 -22.667 3.66699 -44.001 11 -64.001s19.5 -37.5 36.5 -52.5s39.5 -26.667 67.5 -35s62.667 -12.5 104 -12.5c19.333 0 40 0.666992 62 2s43.667 3 65 5s41.5 4.5 60.5 7.5s34.833 5.83301 47.5 8.5v311h-264c-34 0 -63.167 -4.16699 -87.5 -12.5
s-44 -19.666 -59 -33.999s-26 -31 -33 -50s-10.5 -39.167 -10.5 -60.5v-13zM532 884.999c-51.333 0 -95.1689 -9.00098 -131.502 -27.001s-66.166 -44.667 -89.499 -80l-149 96c30.667 53.333 77.167 96.5 139.5 129.5s140.833 49.5 235.5 49.5c64 0 120.833 -7 170.5 -21
s91.667 -35.833 126 -65.5s60.333 -67.5 78 -113.5s26.5 -101 26.5 -165v-657c-31.333 -7.33301 -64.833 -14.166 -100.5 -20.499s-72.167 -11.666 -109.5 -15.999s-75 -7.83301 -113 -10.5s-75 -4 -111 -4c-74.667 0 -138.5 8 -191.5 24s-96.167 38.333 -129.5 67
s-57.833 63 -73.5 103s-23.5 83.667 -23.5 131v25c0 48.667 8.33301 92.167 25 130.5s41.334 70.833 74.001 97.5s72.667 47.167 120 61.5s101.333 21.5 162 21.5h272v29c0 38 -3.5 70.667 -10.5 98s-18.333 49.666 -34 66.999s-36.167 30 -61.5 38s-56 12 -92 12h-9z
M415.997 1434h272l203 -285v-10h-158l-182 168l-180 -168h-158v10z" />
    <glyph glyph-name="atilde" unicode="&#xe3;" horiz-adv-x="1071" 
d="M285 311c0 -22.667 3.66699 -44.001 11 -64.001s19.5 -37.5 36.5 -52.5s39.5 -26.667 67.5 -35s62.667 -12.5 104 -12.5c19.333 0 40 0.666992 62 2s43.667 3 65 5s41.5 4.5 60.5 7.5s34.833 5.83301 47.5 8.5v311h-264c-34 0 -63.167 -4.16699 -87.5 -12.5
s-44 -19.666 -59 -33.999s-26 -31 -33 -50s-10.5 -39.167 -10.5 -60.5v-13zM532 884.999c-51.333 0 -95.1689 -9.00098 -131.502 -27.001s-66.166 -44.667 -89.499 -80l-149 96c30.667 53.333 77.167 96.5 139.5 129.5s140.833 49.5 235.5 49.5c64 0 120.833 -7 170.5 -21
s91.667 -35.833 126 -65.5s60.333 -67.5 78 -113.5s26.5 -101 26.5 -165v-657c-31.333 -7.33301 -64.833 -14.166 -100.5 -20.499s-72.167 -11.666 -109.5 -15.999s-75 -7.83301 -113 -10.5s-75 -4 -111 -4c-74.667 0 -138.5 8 -191.5 24s-96.167 38.333 -129.5 67
s-57.833 63 -73.5 103s-23.5 83.667 -23.5 131v25c0 48.667 8.33301 92.167 25 130.5s41.334 70.833 74.001 97.5s72.667 47.167 120 61.5s101.333 21.5 162 21.5h272v29c0 38 -3.5 70.667 -10.5 98s-18.333 49.666 -34 66.999s-36.167 30 -61.5 38s-56 12 -92 12h-9z
M847.997 1231c-25.333 -30 -49.999 -50.834 -73.999 -62.501s-52 -17.5 -84 -17.5c-20.667 0 -43.834 4.66699 -69.501 14s-51.834 19.5 -78.501 30.5s-53.5 21 -80.5 30s-52.5 13.5 -76.5 13.5c-30.667 0 -57.334 -7.66699 -80.001 -23s-46 -37 -70 -65v180
c19.333 25.333 42.666 45.666 69.999 60.999s57.333 23 90 23c28 0 54.833 -4.66699 80.5 -14s50.834 -19.666 75.501 -30.999s49.334 -21.666 74.001 -30.999s50.334 -14 77.001 -14c26 0 51.667 8.33301 77 25s48.333 39 69 67v-186v0z" />
    <glyph glyph-name="adieresis" unicode="&#xe4;" horiz-adv-x="1071" 
d="M285 311c0 -22.667 3.66699 -44.001 11 -64.001s19.5 -37.5 36.5 -52.5s39.5 -26.667 67.5 -35s62.667 -12.5 104 -12.5c19.333 0 40 0.666992 62 2s43.667 3 65 5s41.5 4.5 60.5 7.5s34.833 5.83301 47.5 8.5v311h-264c-34 0 -63.167 -4.16699 -87.5 -12.5
s-44 -19.666 -59 -33.999s-26 -31 -33 -50s-10.5 -39.167 -10.5 -60.5v-13zM532 884.999c-51.333 0 -95.1689 -9.00098 -131.502 -27.001s-66.166 -44.667 -89.499 -80l-149 96c30.667 53.333 77.167 96.5 139.5 129.5s140.833 49.5 235.5 49.5c64 0 120.833 -7 170.5 -21
s91.667 -35.833 126 -65.5s60.333 -67.5 78 -113.5s26.5 -101 26.5 -165v-657c-31.333 -7.33301 -64.833 -14.166 -100.5 -20.499s-72.167 -11.666 -109.5 -15.999s-75 -7.83301 -113 -10.5s-75 -4 -111 -4c-74.667 0 -138.5 8 -191.5 24s-96.167 38.333 -129.5 67
s-57.833 63 -73.5 103s-23.5 83.667 -23.5 131v25c0 48.667 8.33301 92.167 25 130.5s41.334 70.833 74.001 97.5s72.667 47.167 120 61.5s101.333 21.5 162 21.5h272v29c0 38 -3.5 70.667 -10.5 98s-18.333 49.666 -34 66.999s-36.167 30 -61.5 38s-56 12 -92 12h-9z
M455.997 1358v-199h-198v199h198zM824.997 1358v-199h-199v199h199z" />
    <glyph glyph-name="aring" unicode="&#xe5;" horiz-adv-x="1071" 
d="M285 311c0 -22.667 3.66699 -44.001 11 -64.001s19.5 -37.5 36.5 -52.5s39.5 -26.667 67.5 -35s62.667 -12.5 104 -12.5c19.333 0 40 0.666992 62 2s43.667 3 65 5s41.5 4.5 60.5 7.5s34.833 5.83301 47.5 8.5v311h-264c-34 0 -63.167 -4.16699 -87.5 -12.5
s-44 -19.666 -59 -33.999s-26 -31 -33 -50s-10.5 -39.167 -10.5 -60.5v-13zM532 884.999c-51.333 0 -95.1689 -9.00098 -131.502 -27.001s-66.166 -44.667 -89.499 -80l-149 96c30.667 53.333 77.167 96.5 139.5 129.5s140.833 49.5 235.5 49.5c64 0 120.833 -7 170.5 -21
s91.667 -35.833 126 -65.5s60.333 -67.5 78 -113.5s26.5 -101 26.5 -165v-657c-31.333 -7.33301 -64.833 -14.166 -100.5 -20.499s-72.167 -11.666 -109.5 -15.999s-75 -7.83301 -113 -10.5s-75 -4 -111 -4c-74.667 0 -138.5 8 -191.5 24s-96.167 38.333 -129.5 67
s-57.833 63 -73.5 103s-23.5 83.667 -23.5 131v25c0 48.667 8.33301 92.167 25 130.5s41.334 70.833 74.001 97.5s72.667 47.167 120 61.5s101.333 21.5 162 21.5h272v29c0 38 -3.5 70.667 -10.5 98s-18.333 49.666 -34 66.999s-36.167 30 -61.5 38s-56 12 -92 12h-9z
M313.997 1350c0 31.333 6 60.833 18 88.5s28.167 51.667 48.5 72s44.333 36.5 72 48.5s57.167 18 88.5 18c32 0 61.667 -6 89 -18s51.333 -28.167 72 -48.5s36.834 -44.333 48.501 -72s17.5 -57.167 17.5 -88.5c0 -32 -5.83301 -61.833 -17.5 -89.5s-27.834 -52 -48.501 -73
s-44.667 -37.5 -72 -49.5s-57 -18 -89 -18c-31.333 0 -60.833 6 -88.5 18s-51.667 28.5 -72 49.5s-36.5 45.333 -48.5 73s-18 57.5 -18 89.5zM437.997 1350c0 -14.667 2.66699 -28.1699 8 -40.5029s12.666 -23.166 21.999 -32.499s20.333 -16.666 33 -21.999s26 -8 40 -8
c28.667 0 52.834 9.83301 72.501 29.5s29.5 44.167 29.5 73.5c0 28.667 -9.83301 52.834 -29.5 72.501s-43.834 29.5 -72.501 29.5c-14 0 -27.333 -2.66699 -40 -8s-23.667 -12.5 -33 -21.5s-16.666 -19.833 -21.999 -32.5s-8 -26 -8 -40z" />
    <glyph glyph-name="ae" unicode="&#xe6;" horiz-adv-x="1696" 
d="M1591 475l-653 0.00292969v-63c0 -48 5.16699 -88.667 15.5 -122s25.5 -60.666 45.5 -81.999s44.5 -36.833 73.5 -46.5s61.833 -14.5 98.5 -14.5c40.667 0 79.667 4.66699 117 14s72.5 21 105.5 35s63 29.5 90 46.5s50.5 33.167 70.5 48.5v-191
c-20 -16.667 -43.333 -32.334 -70 -47.001s-56.334 -27.334 -89.001 -38.001s-67.834 -19.167 -105.501 -25.5s-77.834 -9.5 -120.501 -9.5c-48 0 -95.167 4.16699 -141.5 12.5s-86.5 21.166 -120.5 38.499c-28 -7.33301 -58.333 -14.166 -91 -20.499
s-66.5 -11.666 -101.5 -15.999s-70.333 -7.83301 -106 -10.5s-70.5 -4 -104.5 -4c-76 0 -140.667 8 -194 24s-96.5 38.333 -129.5 67s-57 63 -72 103s-22.5 83.667 -22.5 131v25c0 48.667 8.33301 92.167 25 130.5s41.334 70.833 74.001 97.5s72.667 47.167 120 61.5
s101.333 21.5 162 21.5h272v29c0 38 -3.5 70.667 -10.5 98s-18.333 49.666 -34 66.999s-36.167 30 -61.5 38s-56 12 -92 12h-9c-51.333 0 -95.166 -9 -131.499 -27s-66.166 -44.667 -89.499 -80l-149 96c30.667 53.333 77.167 96.5 139.5 129.5s140.833 49.5 235.5 49.5
c72 0 134.667 -10.167 188 -30.5s97 -49.166 131 -86.499c37.333 36 80.833 64.5 130.5 85.5s105.834 31.5 168.501 31.5h23c58 0 112 -8.83301 162 -26.5s93.667 -44.334 131 -80.001s66.666 -80.334 87.999 -134.001s32 -116.834 32 -189.501v-148zM285 311.003
c0 -22.667 3.66797 -44.0029 11.001 -64.0029s19.5 -37.5 36.5 -52.5s39.5 -26.667 67.5 -35s62.667 -12.5 104 -12.5c25.333 0 51.5 1 78.5 3s53.167 4.33301 78.5 7s48.666 5.83398 69.999 9.50098s38.333 6.83398 51 9.50098c-9.33301 17.333 -18.833 42.833 -28.5 76.5
s-14.5 74.5 -14.5 122.5v106h-264c-34 0 -63.167 -4.16699 -87.5 -12.5s-44 -19.666 -59 -33.999s-26 -31 -33 -50s-10.5 -39.167 -10.5 -60.5v-13zM1163 889c-31.333 0 -60.499 -4.33203 -87.499 -12.999s-50.5 -23 -70.5 -43s-35.833 -46 -47.5 -78
s-18.167 -71.333 -19.5 -118h455c0 83.333 -18.833 146.166 -56.5 188.499s-92.834 63.5 -165.501 63.5h-8v0z" />
    <glyph glyph-name="ccedilla" unicode="&#xe7;" horiz-adv-x="975" 
d="M356 -274c16.667 -2.66699 32.168 -4.50098 46.501 -5.50098s27.5 -1.5 39.5 -1.5c31.333 0 56 3.33301 74 10s27 20.667 27 42c0 12 -2.33301 21.833 -7 29.5s-12.834 13.5 -24.501 17.5s-27 6.66699 -46 8s-42.5 2 -70.5 2l62 156
c-120.667 11.333 -208.167 50.5 -262.5 117.5s-81.5 165.5 -81.5 295.5v242c0 73.333 9.83301 136.166 29.5 188.499s47.5 95.166 83.5 128.499s79.333 57.833 130 73.5s107.334 23.5 170.001 23.5h21c47.333 0 89 -4.83301 125 -14.5s67.833 -23 95.5 -40
s51.667 -37 72 -60s38.166 -47.833 53.499 -74.5l-176 -106c-10 16.667 -20.333 32.667 -31 48s-23 28.833 -37 40.5s-30 21 -48 28s-38.667 10.5 -62 10.5h-19c-34 0 -64 -4.5 -90 -13.5s-47.833 -23.667 -65.5 -44s-31 -47.166 -40 -80.499s-13.5 -74.666 -13.5 -123.999
v-207c0 -88.667 17.833 -155.667 53.5 -201s93.167 -68 172.5 -68c36.667 0 72.167 5.16699 106.5 15.5s66.833 23.333 97.5 39s58.834 33 84.501 52s48.167 37.5 67.5 55.5v-190c-34 -35.333 -75.833 -65.166 -125.5 -89.499s-107.5 -39.5 -173.5 -45.5l-25 -54
c17.333 -2 34 -6.5 50 -13.5s30 -16.833 42 -29.5s21.5 -28.5 28.5 -47.5s10.5 -41.833 10.5 -68.5c0 -56.667 -22.333 -101 -67 -133s-110.334 -48 -197.001 -48c-12 0 -24.667 0.333008 -38 1s-27.333 1.66699 -42 3v132z" />
    <glyph glyph-name="egrave" unicode="&#xe8;" horiz-adv-x="1069" 
d="M965 475l-653.993 0.000976562v-49c0 -50 5 -92.667 15 -128s25 -64.166 45 -86.499s44.5 -38.666 73.5 -48.999s62.5 -15.5 100.5 -15.5c40.667 0 79.667 4.66699 117 14s72.333 21 105 35s62.667 29.5 90 46.5s51 33.167 71 48.5v-191
c-20.667 -16.667 -44.334 -32.334 -71.001 -47.001s-56.167 -27.334 -88.5 -38.001s-67.333 -19.167 -105 -25.5s-77.834 -9.5 -120.501 -9.5c-64.667 0 -123.334 8 -176.001 24s-97.834 41.167 -135.501 75.5s-66.834 78.5 -87.501 132.5s-31 118.667 -31 194v206
c0 72 9.83301 135.333 29.5 190s47.5 100.667 83.5 138s79.667 65.5 131 84.5s108.333 28.5 171 28.5h23c58 0 112.167 -8.33301 162.5 -25s94.166 -42.334 131.499 -77.001s66.666 -78.5 87.999 -131.5s32 -115.833 32 -188.5v-156zM537.007 889.001
c-31.333 0 -60.5 -4.33301 -87.5 -13s-50.667 -23 -71 -43s-36.333 -46 -48 -78s-18.167 -71.333 -19.5 -118h455c0 88 -19 152 -57 192s-92.667 60 -164 60h-8v0zM764.007 1149v-10h-158l-299 280v15h234z" />
    <glyph glyph-name="eacute" unicode="&#xe9;" horiz-adv-x="1069" 
d="M965 475l-653.993 0.000976562v-49c0 -50 5 -92.667 15 -128s25 -64.166 45 -86.499s44.5 -38.666 73.5 -48.999s62.5 -15.5 100.5 -15.5c40.667 0 79.667 4.66699 117 14s72.333 21 105 35s62.667 29.5 90 46.5s51 33.167 71 48.5v-191
c-20.667 -16.667 -44.334 -32.334 -71.001 -47.001s-56.167 -27.334 -88.5 -38.001s-67.333 -19.167 -105 -25.5s-77.834 -9.5 -120.501 -9.5c-64.667 0 -123.334 8 -176.001 24s-97.834 41.167 -135.501 75.5s-66.834 78.5 -87.501 132.5s-31 118.667 -31 194v206
c0 72 9.83301 135.333 29.5 190s47.5 100.667 83.5 138s79.667 65.5 131 84.5s108.333 28.5 171 28.5h23c58 0 112.167 -8.33301 162.5 -25s94.166 -42.334 131.499 -77.001s66.666 -78.5 87.999 -131.5s32 -115.833 32 -188.5v-156zM537.007 889.001
c-31.333 0 -60.5 -4.33301 -87.5 -13s-50.667 -23 -71 -43s-36.333 -46 -48 -78s-18.167 -71.333 -19.5 -118h455c0 88 -19 152 -57 192s-92.667 60 -164 60h-8v0zM629.863 1434.02h243.452v-14.8955l-312.413 -278.052h-165.088v9.92969z" />
    <glyph glyph-name="ecircumflex" unicode="&#xea;" horiz-adv-x="1069" 
d="M965 475l-653.993 0.000976562v-49c0 -50 5 -92.667 15 -128s25 -64.166 45 -86.499s44.5 -38.666 73.5 -48.999s62.5 -15.5 100.5 -15.5c40.667 0 79.667 4.66699 117 14s72.333 21 105 35s62.667 29.5 90 46.5s51 33.167 71 48.5v-191
c-20.667 -16.667 -44.334 -32.334 -71.001 -47.001s-56.167 -27.334 -88.5 -38.001s-67.333 -19.167 -105 -25.5s-77.834 -9.5 -120.501 -9.5c-64.667 0 -123.334 8 -176.001 24s-97.834 41.167 -135.501 75.5s-66.834 78.5 -87.501 132.5s-31 118.667 -31 194v206
c0 72 9.83301 135.333 29.5 190s47.5 100.667 83.5 138s79.667 65.5 131 84.5s108.333 28.5 171 28.5h23c58 0 112.167 -8.33301 162.5 -25s94.166 -42.334 131.499 -77.001s66.666 -78.5 87.999 -131.5s32 -115.833 32 -188.5v-156zM537.007 889.001
c-31.333 0 -60.5 -4.33301 -87.5 -13s-50.667 -23 -71 -43s-36.333 -46 -48 -78s-18.167 -71.333 -19.5 -118h455c0 88 -19 152 -57 192s-92.667 60 -164 60h-8v0zM416.007 1434h272l203 -285v-10h-158l-182 168l-180 -168h-158v10z" />
    <glyph glyph-name="edieresis" unicode="&#xeb;" horiz-adv-x="1069" 
d="M965 475l-653.993 0.000976562v-49c0 -50 5 -92.667 15 -128s25 -64.166 45 -86.499s44.5 -38.666 73.5 -48.999s62.5 -15.5 100.5 -15.5c40.667 0 79.667 4.66699 117 14s72.333 21 105 35s62.667 29.5 90 46.5s51 33.167 71 48.5v-191
c-20.667 -16.667 -44.334 -32.334 -71.001 -47.001s-56.167 -27.334 -88.5 -38.001s-67.333 -19.167 -105 -25.5s-77.834 -9.5 -120.501 -9.5c-64.667 0 -123.334 8 -176.001 24s-97.834 41.167 -135.501 75.5s-66.834 78.5 -87.501 132.5s-31 118.667 -31 194v206
c0 72 9.83301 135.333 29.5 190s47.5 100.667 83.5 138s79.667 65.5 131 84.5s108.333 28.5 171 28.5h23c58 0 112.167 -8.33301 162.5 -25s94.166 -42.334 131.499 -77.001s66.666 -78.5 87.999 -131.5s32 -115.833 32 -188.5v-156zM537.007 889.001
c-31.333 0 -60.5 -4.33301 -87.5 -13s-50.667 -23 -71 -43s-36.333 -46 -48 -78s-18.167 -71.333 -19.5 -118h455c0 88 -19 152 -57 192s-92.667 60 -164 60h-8v0zM452.007 1358v-199h-198v199h198zM821.007 1358v-199h-199v199h199z" />
    <glyph glyph-name="igrave" unicode="&#xec;" horiz-adv-x="485" 
d="M342 1024v-1024h-199v1024h199zM394 1149v-10h-158l-299 280v15h234z" />
    <glyph glyph-name="iacute" unicode="&#xed;" horiz-adv-x="485" 
d="M342 1024v-1024h-199v1024h199zM318 1434h233v-15l-299 -280h-158v10z" />
    <glyph glyph-name="icircumflex" unicode="&#xee;" horiz-adv-x="485" 
d="M342 1024v-1024h-199v1024h199zM112 1434h272l203 -285v-10h-158l-182 168l-180 -168h-158v10z" />
    <glyph glyph-name="idieresis" unicode="&#xef;" horiz-adv-x="485" 
d="M342 1024v-1024h-199v1024h199zM160 1358v-199h-198v199h198zM529 1358v-199h-199v199h199z" />
    <glyph glyph-name="eth" unicode="&#xf0;" horiz-adv-x="1106" 
d="M973 399c0 -76 -9.83496 -140.498 -29.502 -193.498s-47.5 -96.167 -83.5 -129.5s-79.5 -57.666 -130.5 -72.999s-107.833 -23 -170.5 -23h-55c-62.667 0 -118.167 7.66699 -166.5 23s-89.166 39.666 -122.499 72.999s-58.666 76.5 -75.999 129.5s-26 117.5 -26 193.5
v131c0 76 8.66699 140.667 26 194s42.666 96.666 75.999 129.999s74.166 57.666 122.499 72.999s103.833 23 166.5 23h55c35.333 0 68.166 -2.33301 98.499 -7s59.5 -11.667 87.5 -21c-6.66699 23.333 -14.334 46.333 -23.001 69s-18.167 44.167 -28.5 64.5
s-21.333 39.166 -33 56.499s-23.5 32.333 -35.5 45l-275 -121v160l162 74c-25.333 23.333 -53.666 47.833 -84.999 73.5s-64.333 48.834 -99 69.501h231c21.333 -12 40.833 -23.833 58.5 -35.5s35.167 -25.167 52.5 -40.5l243 105v-158l-129 -57
c35.333 -40.667 64.833 -84 88.5 -130s42.834 -96.833 57.501 -152.5s25.334 -117.5 32.001 -185.5s10.334 -144.333 11.001 -229v-131zM310.998 408.002c0 -40 2.83301 -76.167 8.5 -108.5s15.667 -59.666 30 -81.999s33.5 -39.666 57.5 -51.999s54.333 -18.5 91 -18.5h71
c36.667 0 68 6.16699 94 18.5s47.167 29.666 63.5 51.999s28.333 49.666 36 81.999s11.5 68.5 11.5 108.5v114c0 40 -3.83301 76 -11.5 108s-19.667 59.333 -36 82s-37.5 40 -63.5 52s-57.333 18 -94 18h-71c-36.667 0 -67 -6 -91 -18s-43.167 -29.333 -57.5 -52
s-24.333 -50 -30 -82s-8.5 -68 -8.5 -108v-114z" />
    <glyph glyph-name="ntilde" unicode="&#xf1;" horiz-adv-x="1120" 
d="M342 0l-198.998 0.000976562v1012c27.333 5.33301 57.666 10.5 90.999 15.5s68 9.33301 104 13s72.167 6.66699 108.5 9s71.166 3.5 104.499 3.5c76.667 0 142.5 -7.66699 197.5 -23s100.167 -37 135.5 -65s61.333 -61.667 78 -101s25 -83 25 -131v-733h-199v692
c0 60.667 -21 108 -63 142s-100 51 -174 51c-18.667 0 -38.167 -0.666992 -58.5 -2s-40 -3.33301 -59 -6s-36.5 -5.33398 -52.5 -8.00098s-29 -5.66699 -39 -9v-860zM869.002 1231c-25.333 -30 -49.999 -50.834 -73.999 -62.501s-52 -17.5 -84 -17.5
c-20.667 0 -43.834 4.66699 -69.501 14s-51.834 19.5 -78.501 30.5s-53.5 21 -80.5 30s-52.5 13.5 -76.5 13.5c-30.667 0 -57.334 -7.66699 -80.001 -23s-46 -37 -70 -65v180c19.333 25.333 42.666 45.666 69.999 60.999s57.333 23 90 23c28 0 54.833 -4.66699 80.5 -14
s50.834 -19.666 75.501 -30.999s49.334 -21.666 74.001 -30.999s50.334 -14 77.001 -14c26 0 51.667 8.33301 77 25s48.333 39 69 67v-186v0z" />
    <glyph glyph-name="ograve" unicode="&#xf2;" horiz-adv-x="1085" 
d="M311 408c0 -40 2.83301 -76.167 8.5 -108.5s15.667 -59.666 30 -81.999s33.5 -39.666 57.5 -51.999s54.333 -18.5 91 -18.5h90c36 0 66 6.16699 90 18.5s43.167 29.666 57.5 51.999s24.333 49.666 30 81.999s8.5 68.5 8.5 108.5v217c0 40 -2.83301 76 -8.5 108
s-15.667 59.167 -30 81.5s-33.5 39.666 -57.5 51.999s-54 18.5 -90 18.5h-90c-36.667 0 -67 -6.16699 -91 -18.5s-43.167 -29.666 -57.5 -51.999s-24.333 -49.5 -30 -81.5s-8.5 -68 -8.5 -108v-217zM973 399c0 -76 -8.83301 -140.5 -26.5 -193.5s-43.5 -96.167 -77.5 -129.5
s-75.5 -57.666 -124.5 -72.999s-104.5 -23 -166.5 -23h-74c-62.667 0 -118.167 7.66699 -166.5 23s-89.166 39.666 -122.499 72.999s-58.666 76.5 -75.999 129.5s-26 117.5 -26 193.5v234c0 76 8.66699 140.5 26 193.5s42.666 96.333 75.999 130s74.166 58.167 122.499 73.5
s103.833 23 166.5 23h74c62 0 117.5 -7.66699 166.5 -23s90.5 -39.833 124.5 -73.5s59.833 -77 77.5 -130s26.5 -117.5 26.5 -193.5v-234zM735 1149v-10h-158l-299 280v15h234z" />
    <glyph glyph-name="oacute" unicode="&#xf3;" horiz-adv-x="1085" 
d="M311 408c0 -40 2.83301 -76.167 8.5 -108.5s15.667 -59.666 30 -81.999s33.5 -39.666 57.5 -51.999s54.333 -18.5 91 -18.5h90c36 0 66 6.16699 90 18.5s43.167 29.666 57.5 51.999s24.333 49.666 30 81.999s8.5 68.5 8.5 108.5v217c0 40 -2.83301 76 -8.5 108
s-15.667 59.167 -30 81.5s-33.5 39.666 -57.5 51.999s-54 18.5 -90 18.5h-90c-36.667 0 -67 -6.16699 -91 -18.5s-43.167 -29.666 -57.5 -51.999s-24.333 -49.5 -30 -81.5s-8.5 -68 -8.5 -108v-217zM973 399c0 -76 -8.83301 -140.5 -26.5 -193.5s-43.5 -96.167 -77.5 -129.5
s-75.5 -57.666 -124.5 -72.999s-104.5 -23 -166.5 -23h-74c-62.667 0 -118.167 7.66699 -166.5 23s-89.166 39.666 -122.499 72.999s-58.666 76.5 -75.999 129.5s-26 117.5 -26 193.5v234c0 76 8.66699 140.5 26 193.5s42.666 96.333 75.999 130s74.166 58.167 122.499 73.5
s103.833 23 166.5 23h74c62 0 117.5 -7.66699 166.5 -23s90.5 -39.833 124.5 -73.5s59.833 -77 77.5 -130s26.5 -117.5 26.5 -193.5v-234zM576 1434h233v-15l-299 -280h-158v10z" />
    <glyph glyph-name="ocircumflex" unicode="&#xf4;" horiz-adv-x="1085" 
d="M311 408c0 -40 2.83301 -76.167 8.5 -108.5s15.667 -59.666 30 -81.999s33.5 -39.666 57.5 -51.999s54.333 -18.5 91 -18.5h90c36 0 66 6.16699 90 18.5s43.167 29.666 57.5 51.999s24.333 49.666 30 81.999s8.5 68.5 8.5 108.5v217c0 40 -2.83301 76 -8.5 108
s-15.667 59.167 -30 81.5s-33.5 39.666 -57.5 51.999s-54 18.5 -90 18.5h-90c-36.667 0 -67 -6.16699 -91 -18.5s-43.167 -29.666 -57.5 -51.999s-24.333 -49.5 -30 -81.5s-8.5 -68 -8.5 -108v-217zM973 399c0 -76 -8.83301 -140.5 -26.5 -193.5s-43.5 -96.167 -77.5 -129.5
s-75.5 -57.666 -124.5 -72.999s-104.5 -23 -166.5 -23h-74c-62.667 0 -118.167 7.66699 -166.5 23s-89.166 39.666 -122.499 72.999s-58.666 76.5 -75.999 129.5s-26 117.5 -26 193.5v234c0 76 8.66699 140.5 26 193.5s42.666 96.333 75.999 130s74.166 58.167 122.499 73.5
s103.833 23 166.5 23h74c62 0 117.5 -7.66699 166.5 -23s90.5 -39.833 124.5 -73.5s59.833 -77 77.5 -130s26.5 -117.5 26.5 -193.5v-234zM408 1434h272l203 -285v-10h-158l-182 168l-180 -168h-158v10z" />
    <glyph glyph-name="otilde" unicode="&#xf5;" horiz-adv-x="1085" 
d="M311 408c0 -40 2.83301 -76.167 8.5 -108.5s15.667 -59.666 30 -81.999s33.5 -39.666 57.5 -51.999s54.333 -18.5 91 -18.5h90c36 0 66 6.16699 90 18.5s43.167 29.666 57.5 51.999s24.333 49.666 30 81.999s8.5 68.5 8.5 108.5v217c0 40 -2.83301 76 -8.5 108
s-15.667 59.167 -30 81.5s-33.5 39.666 -57.5 51.999s-54 18.5 -90 18.5h-90c-36.667 0 -67 -6.16699 -91 -18.5s-43.167 -29.666 -57.5 -51.999s-24.333 -49.5 -30 -81.5s-8.5 -68 -8.5 -108v-217zM973 399c0 -76 -8.83301 -140.5 -26.5 -193.5s-43.5 -96.167 -77.5 -129.5
s-75.5 -57.666 -124.5 -72.999s-104.5 -23 -166.5 -23h-74c-62.667 0 -118.167 7.66699 -166.5 23s-89.166 39.666 -122.499 72.999s-58.666 76.5 -75.999 129.5s-26 117.5 -26 193.5v234c0 76 8.66699 140.5 26 193.5s42.666 96.333 75.999 130s74.166 58.167 122.499 73.5
s103.833 23 166.5 23h74c62 0 117.5 -7.66699 166.5 -23s90.5 -39.833 124.5 -73.5s59.833 -77 77.5 -130s26.5 -117.5 26.5 -193.5v-234zM844 1231c-25.333 -30 -49.999 -50.834 -73.999 -62.501s-52 -17.5 -84 -17.5c-20.667 0 -43.834 4.66699 -69.501 14
s-51.834 19.5 -78.501 30.5s-53.5 21 -80.5 30s-52.5 13.5 -76.5 13.5c-30.667 0 -57.334 -7.66699 -80.001 -23s-46 -37 -70 -65v180c19.333 25.333 42.666 45.666 69.999 60.999s57.333 23 90 23c28 0 54.833 -4.66699 80.5 -14s50.834 -19.666 75.501 -30.999
s49.334 -21.666 74.001 -30.999s50.334 -14 77.001 -14c26 0 51.667 8.33301 77 25s48.333 39 69 67v-186v0z" />
    <glyph glyph-name="odieresis" unicode="&#xf6;" horiz-adv-x="1085" 
d="M311 408c0 -40 2.83301 -76.167 8.5 -108.5s15.667 -59.666 30 -81.999s33.5 -39.666 57.5 -51.999s54.333 -18.5 91 -18.5h90c36 0 66 6.16699 90 18.5s43.167 29.666 57.5 51.999s24.333 49.666 30 81.999s8.5 68.5 8.5 108.5v217c0 40 -2.83301 76 -8.5 108
s-15.667 59.167 -30 81.5s-33.5 39.666 -57.5 51.999s-54 18.5 -90 18.5h-90c-36.667 0 -67 -6.16699 -91 -18.5s-43.167 -29.666 -57.5 -51.999s-24.333 -49.5 -30 -81.5s-8.5 -68 -8.5 -108v-217zM973 399c0 -76 -8.83301 -140.5 -26.5 -193.5s-43.5 -96.167 -77.5 -129.5
s-75.5 -57.666 -124.5 -72.999s-104.5 -23 -166.5 -23h-74c-62.667 0 -118.167 7.66699 -166.5 23s-89.166 39.666 -122.499 72.999s-58.666 76.5 -75.999 129.5s-26 117.5 -26 193.5v234c0 76 8.66699 140.5 26 193.5s42.666 96.333 75.999 130s74.166 58.167 122.499 73.5
s103.833 23 166.5 23h74c62 0 117.5 -7.66699 166.5 -23s90.5 -39.833 124.5 -73.5s59.833 -77 77.5 -130s26.5 -117.5 26.5 -193.5v-234zM456 1358v-199h-198v199h198zM825 1358v-199h-199v199h199z" />
    <glyph glyph-name="divide" unicode="&#xf7;" 
d="M965 780v-170h-883v170h883zM616 475v-219h-188v219h188zM616 1139v-219h-188v219h188z" />
    <glyph glyph-name="oslash" unicode="&#xf8;" horiz-adv-x="1085" 
d="M973 399c0 -76 -8.83203 -140.499 -26.499 -193.499s-43.5 -96.167 -77.5 -129.5s-75.5 -57.666 -124.5 -72.999s-104.5 -23 -166.5 -23h-74c-57.333 0 -108.666 6 -153.999 18l-14 -29h-178l57 105c-34 34 -59.5 77.5 -76.5 130.5s-25.5 117.833 -25.5 194.5v234
c0 76 8.66699 140.5 26 193.5s42.666 96.333 75.999 130s74.166 58.167 122.499 73.5s103.833 23 166.5 23h55c32 0 63.333 -1.33301 94 -4s58.667 -8.33398 84 -17.001l17 31h178l-60 -109c33.333 -34 58.5 -77.833 75.5 -131.5s25.5 -116.834 25.5 -189.501v-234z
M311.001 408.001c0 -26 0.832031 -49.833 2.49902 -71.5s5.16699 -41.834 10.5 -60.501l329 601c-12 4 -25.167 6.33301 -39.5 7s-29.166 1 -44.499 1h-71c-36.667 0 -67 -6.16699 -91 -18.5s-43.167 -29.666 -57.5 -51.999s-24.333 -49.5 -30 -81.5s-8.5 -68 -8.5 -108
v-217zM774 625.001c0 22.667 -0.668945 44.835 -2.00195 66.502s-4.66602 41.167 -9.99902 58.5l-326 -596c9.33301 -2 18.833 -3.66699 28.5 -5s20.834 -2 33.501 -2h90c36 0 66 6.16699 90 18.5s43.167 29.666 57.5 51.999s24.333 49.666 30 81.999s8.5 68.5 8.5 108.5
v217v0z" />
    <glyph glyph-name="ugrave" unicode="&#xf9;" horiz-adv-x="1120" 
d="M778 1024l198.999 0.00195312v-1004c-27.333 -5.33301 -58 -10.5 -92 -15.5s-69.333 -9.33301 -106 -13s-73 -6.5 -109 -8.5s-69.667 -3 -101 -3c-76 0 -141.5 7.66699 -196.5 23s-100.333 37 -136 65s-61.834 61.667 -78.501 101s-25 82.666 -25 129.999v725h199v-684
c0 -30 5.5 -57 16.5 -81s26.833 -44.333 47.5 -61s45.834 -29.334 75.501 -38.001s62.834 -13 99.501 -13c19.333 0 39 0.666992 59 2s39.167 3.33301 57.5 6s35.5 5.5 51.5 8.5s29 5.83301 39 8.5v852zM746.999 1149v-10h-158l-299 280v15h234z" />
    <glyph glyph-name="uacute" unicode="&#xfa;" horiz-adv-x="1120" 
d="M778 1024l198.999 0.00195312v-1004c-27.333 -5.33301 -58 -10.5 -92 -15.5s-69.333 -9.33301 -106 -13s-73 -6.5 -109 -8.5s-69.667 -3 -101 -3c-76 0 -141.5 7.66699 -196.5 23s-100.333 37 -136 65s-61.834 61.667 -78.501 101s-25 82.666 -25 129.999v725h199v-684
c0 -30 5.5 -57 16.5 -81s26.833 -44.333 47.5 -61s45.834 -29.334 75.501 -38.001s62.834 -13 99.501 -13c19.333 0 39 0.666992 59 2s39.167 3.33301 57.5 6s35.5 5.5 51.5 8.5s29 5.83301 39 8.5v852zM579.999 1434h233v-15l-299 -280h-158v10z" />
    <glyph glyph-name="ucircumflex" unicode="&#xfb;" horiz-adv-x="1120" 
d="M778 1024l198.999 0.00195312v-1004c-27.333 -5.33301 -58 -10.5 -92 -15.5s-69.333 -9.33301 -106 -13s-73 -6.5 -109 -8.5s-69.667 -3 -101 -3c-76 0 -141.5 7.66699 -196.5 23s-100.333 37 -136 65s-61.834 61.667 -78.501 101s-25 82.666 -25 129.999v725h199v-684
c0 -30 5.5 -57 16.5 -81s26.833 -44.333 47.5 -61s45.834 -29.334 75.501 -38.001s62.834 -13 99.501 -13c19.333 0 39 0.666992 59 2s39.167 3.33301 57.5 6s35.5 5.5 51.5 8.5s29 5.83301 39 8.5v852zM423.999 1434h272l203 -285v-10h-158l-182 168l-180 -168h-158v10z
" />
    <glyph glyph-name="udieresis" unicode="&#xfc;" horiz-adv-x="1120" 
d="M778 1024l198.999 0.00195312v-1004c-27.333 -5.33301 -58 -10.5 -92 -15.5s-69.333 -9.33301 -106 -13s-73 -6.5 -109 -8.5s-69.667 -3 -101 -3c-76 0 -141.5 7.66699 -196.5 23s-100.333 37 -136 65s-61.834 61.667 -78.501 101s-25 82.666 -25 129.999v725h199v-684
c0 -30 5.5 -57 16.5 -81s26.833 -44.333 47.5 -61s45.834 -29.334 75.501 -38.001s62.834 -13 99.501 -13c19.333 0 39 0.666992 59 2s39.167 3.33301 57.5 6s35.5 5.5 51.5 8.5s29 5.83301 39 8.5v852zM470.999 1358v-199h-198v199h198zM839.999 1358v-199h-199v199h199z
" />
    <glyph glyph-name="yacute" unicode="&#xfd;" horiz-adv-x="963" 
d="M489 240l273 784h211l-561 -1434h-213l194 435l-403 999h211zM525 1434h233v-15l-299 -280h-158v10z" />
    <glyph glyph-name="thorn" unicode="&#xfe;" horiz-adv-x="1110" 
d="M342 1413l-0.000976562 -403c15.333 5.33301 32.833 10.5 52.5 15.5s40.167 9.5 61.5 13.5s43 7.33301 65 10s43 4 63 4c50 0 99.667 -5.33301 149 -16s93.5 -29 132.5 -55s70.667 -61.167 95 -105.5s36.5 -100.166 36.5 -167.499v-383c0 -50 -9 -96 -27 -138
s-44.667 -78.5 -80 -109.5s-79.666 -55.167 -132.999 -72.5s-115.333 -26 -186 -26c-36 0 -74.167 2.16699 -114.5 6.5s-78.5 10.166 -114.5 17.499v-414h-199v1823h199zM583.999 885c-22 0 -44.167 -1.16797 -66.5 -3.50098s-44 -5.5 -65 -9.5s-41 -8.33301 -60 -13
s-35.833 -9.66699 -50.5 -15v-668c32 -8 66.667 -14.833 104 -20.5s73.666 -8.5 108.999 -8.5c84.667 0 146.5 16.667 185.5 50s58.5 83 58.5 149v336c0 38.667 -5.5 71 -16.5 97s-26.167 46.833 -45.5 62.5s-42.166 26.834 -68.499 33.501s-54.5 10 -84.5 10z" />
    <glyph glyph-name="ydieresis" unicode="&#xff;" horiz-adv-x="963" 
d="M489 240l273 784h211l-561 -1434h-213l194 435l-403 999h211zM403 1358v-199h-198v199h198zM772 1358v-199h-199v199h199z" />
    <glyph glyph-name="dotlessi" unicode="&#x131;" horiz-adv-x="485" 
d="M342 1024v-1024h-199v1024h199z" />
    <glyph glyph-name="Lslash" unicode="&#x141;" horiz-adv-x="983" 
d="M154 1413h200v-606l242 117v-176l-242 -117v-451h578v-180h-778v535l-121 -58v176l121 58v702z" />
    <glyph glyph-name="lslash" unicode="&#x142;" horiz-adv-x="580" 
d="M133 1413l198.998 0.000976562v-618l153 73v-176l-153 -74v-323c0 -52.667 8.83301 -90 26.5 -112s46.834 -33 87.501 -33c23.333 0 45.833 1.16699 67.5 3.5s43.834 5.16602 66.501 8.49902v-168c-24 -4 -50.5 -7.33301 -79.5 -10s-62.167 -4 -99.5 -4
c-48.667 0 -90.167 6.33301 -124.5 19s-62 31.667 -83 57s-36.333 57 -46 95s-14.5 82 -14.5 132v241l-123 -57v176l123 57v713z" />
    <glyph glyph-name="OE" unicode="&#x152;" horiz-adv-x="1712" 
d="M1610 0l-729 0.00195312c-17.333 -6 -36.833 -10.833 -58.5 -14.5s-45.167 -5.5 -70.5 -5.5h-203c-64 0 -121.5 10 -172.5 30s-94.167 47.667 -129.5 83s-62.5 77.166 -81.5 125.499s-28.5 100.5 -28.5 156.5v663c0 56.667 9.5 109.167 28.5 157.5
s46.167 90.166 81.5 125.499s78.5 63 129.5 83s108.5 30 172.5 30h203c25.333 0 48.833 -2 70.5 -6s41.167 -9 58.5 -15h729v-180h-555v-406h512v-180h-512v-467h555v-180zM569 1253c-74 0 -130.333 -19.333 -169 -58s-58 -97.667 -58 -177v-623
c0 -78.667 19.333 -137.5 58 -176.5s95 -58.5 169 -58.5h162c47.333 0 88.333 8 123 24v1043c-34 17.333 -75 26 -123 26h-162z" />
    <glyph glyph-name="oe" unicode="&#x153;" horiz-adv-x="1731" 
d="M1626 475l-652.996 0.00292969v-63c1.33301 -48 7.16602 -88.667 17.499 -122s25.333 -60.666 45 -81.999s43.834 -36.833 72.501 -46.5s61.334 -14.5 98.001 -14.5c40.667 0 79.667 4.66699 117 14s72.333 21 105 35s62.667 29.5 90 46.5s51 33.167 71 48.5v-191
c-20.667 -16.667 -44.334 -32.334 -71.001 -47.001s-56.167 -27.334 -88.5 -38.001s-67.333 -19.167 -105 -25.5s-77.834 -9.5 -120.501 -9.5c-70 0 -133 8.5 -189 25.5s-103 45.167 -141 84.5c-36 -39.333 -80.833 -67.5 -134.5 -84.5s-113.834 -25.5 -180.501 -25.5h-55
c-62.667 0 -118.167 7.66699 -166.5 23s-89.166 39.666 -122.499 72.999s-58.666 76.5 -75.999 129.5s-26 117.5 -26 193.5v234c0 76 8.66699 140.5 26 193.5s42.666 96.333 75.999 130s74.166 58.167 122.499 73.5s103.833 23 166.5 23h55
c68.667 0 130.5 -10.833 185.5 -32.5s100.5 -53.167 136.5 -94.5c36.667 39.333 79.667 70.333 129 93s109.333 34 180 34h22c58 0 112.167 -8.33301 162.5 -25s94.166 -42.334 131.499 -77.001s66.666 -78.5 87.999 -131.5s32 -115.833 32 -188.5v-156zM311.004 408.003
c0 -40 2.83398 -76.168 8.50098 -108.501s15.667 -59.666 30 -81.999s33.5 -39.666 57.5 -51.999s54.333 -18.5 91 -18.5h71c36.667 0 68 6.16699 94 18.5s47.167 29.666 63.5 51.999s28.333 49.666 36 81.999s11.5 68.5 11.5 108.5v225c-0.666992 38.667 -5 73.5 -13 104.5
s-20.333 57.5 -37 79.5s-37.834 38.833 -63.501 50.5s-56.167 17.5 -91.5 17.5h-71c-36.667 0 -67 -6.16699 -91 -18.5s-43.167 -29.666 -57.5 -51.999s-24.333 -49.5 -30 -81.5s-8.5 -68 -8.5 -108v-217zM1198 889.002c-31.333 0 -60.5 -4.33398 -87.5 -13.001
s-50.5 -23 -70.5 -43s-35.833 -46 -47.5 -78s-18.167 -71.333 -19.5 -118h454c0 86.667 -18.667 150.334 -56 191.001s-92.333 61 -165 61h-8v0z" />
    <glyph glyph-name="Scaron" unicode="&#x160;" horiz-adv-x="1104" 
d="M106 1079c0 51.333 9.33496 98.667 28.002 142s46 80.833 82 112.5s79.833 56.334 131.5 74.001s110.5 26.5 176.5 26.5h51c118 0 212 -26 282 -78s117.333 -133.333 142 -244l-198 -37c-6.66699 38 -17.5 68.833 -32.5 92.5s-32.667 42 -53 55s-43 21.667 -68 26
s-50.5 6.5 -76.5 6.5h-45c-30.667 0 -59.334 -3.5 -86.001 -10.5s-49.834 -18.167 -69.501 -33.5s-35.167 -34.833 -46.5 -58.5s-17 -52.167 -17 -85.5v-27c0 -33.333 5.83301 -61 17.5 -83s26.334 -40.333 44.001 -55s36.667 -26.167 57 -34.5s39.5 -15.5 57.5 -21.5
l230 -74c46 -14.667 87.667 -32.5 125 -53.5s69.166 -45.667 95.499 -74s46.666 -60.5 60.999 -96.5s21.5 -76.667 21.5 -122v-82c0 -51.333 -9.83301 -99.166 -29.5 -143.499s-48 -82.833 -85 -115.5s-82 -58.334 -135 -77.001s-112.5 -28 -178.5 -28h-62
c-42 0 -83.667 2.83301 -125 8.5s-81 14.667 -119 27s-73.5 27.833 -106.5 46.5s-62.167 41 -87.5 67v227c26 -32 55.833 -60.333 89.5 -85s69.667 -45.167 108 -61.5s78.333 -28.666 120 -36.999s83.834 -12.5 126.501 -12.5h41c74 0 132.5 16.167 175.5 48.5
s64.5 82.166 64.5 149.499v39c0 27.333 -3 51.166 -9 71.499s-15.333 38 -28 53s-28.667 28.167 -48 39.5s-42.333 21.666 -69 30.999l-215 67c-50 15.333 -95.667 33.833 -137 55.5s-77 47.334 -107 77.001s-53.167 64.167 -69.5 103.5s-24.5 84.333 -24.5 135v49z
M209.002 1808v11h158l180 -168l182 168h158v-11l-203 -284h-272z" />
    <glyph glyph-name="scaron" unicode="&#x161;" horiz-adv-x="924" 
d="M846 283c0 -50 -7.3291 -93.832 -21.9961 -131.499s-38.334 -69.167 -71.001 -94.5s-75.334 -44.5 -128.001 -57.5s-117 -19.5 -193 -19.5c-78.667 0 -148.167 8.66699 -208.5 26s-110.166 44 -149.499 80v195c19.333 -18.667 41.833 -36 67.5 -52
s53.834 -29.833 84.501 -41.5s63.5 -20.834 98.5 -27.501s71.5 -10 109.5 -10c40 0 73.667 2.5 101 7.5s49.166 13 65.499 24s28.166 24.833 35.499 41.5s11 36.667 11 60c0 28.667 -8 51.834 -24 69.501s-37 32.5 -63 44.5s-55.667 22.5 -89 31.5l-102.5 29
c-35 10.333 -69.167 22.833 -102.5 37.5s-63 33.834 -89 57.501s-47 53.167 -63 88.5s-24 79 -24 131c0 50 8.16699 92.667 24.5 128s39.333 64.333 69 87s65.5 39.334 107.5 50.001s89 16 141 16h55c44 0 83.667 -4.33301 119 -13s67.166 -20.834 95.499 -36.501
s53.333 -34.5 75 -56.5s40.834 -46.333 57.501 -73l-154 -114c-10 16 -21.333 31.333 -34 46s-26.834 27.667 -42.501 39s-33.334 20.5 -53.001 27.5s-41.5 10.5 -65.5 10.5h-51c-96.667 0 -145 -37 -145 -111c0 -29.333 8 -53 24 -71s37 -33 63 -45
s55.667 -22.167 89 -30.5s67.5 -17.5 102.5 -27.5s69.167 -22.167 102.5 -36.5s63 -33.333 89 -57s47 -53.334 63 -89.001s24 -79.834 24 -132.501zM135.004 1423v11h158l180 -168l182 168h158v-11l-203 -284h-272z" />
    <glyph glyph-name="Ydieresis" unicode="&#x178;" horiz-adv-x="1069" 
d="M537 717l333 696h209l-444 -862v-551h-201v551l-444 862h209zM452 1722v-198h-198v198h198zM821 1722v-198h-199v198h199z" />
    <glyph glyph-name="Zcaron" unicode="&#x17d;" horiz-adv-x="1061" 
d="M51 166l694 1067h-653v180h877v-164l-695 -1069h736v-180h-959v166zM203 1808v11h158l180 -168l182 168h158v-11l-203 -284h-272z" />
    <glyph glyph-name="zcaron" unicode="&#x17e;" horiz-adv-x="887" 
d="M61 131l512 725h-471v168h695v-131l-512 -725h553v-168h-777v131zM113 1423v11h158l180 -168l182 168h158v-11l-203 -284h-272z" />
    <glyph glyph-name="florin" unicode="&#x192;" horiz-adv-x="651" 
d="M35 1024l130.998 0.000976562v61c0 54 5.16699 102 15.5 144s27.5 77.5 51.5 106.5s56 51.167 96 66.5s90 23 150 23c37.333 0 69.333 -1.33301 96 -4s51.334 -6 74.001 -10v-164c-20.667 4 -42 7.83301 -64 11.5s-46.333 5.5 -73 5.5c-24.667 0 -46.167 -2 -64.5 -6
s-33.666 -12.333 -45.999 -25s-21.5 -30.334 -27.5 -53.001s-9 -52.667 -9 -90v-66h272v-160h-272v-1274h-199v1274h-131v160z" />
    <glyph glyph-name="circumflex" unicode="&#x2c6;" horiz-adv-x="678" 
d="M203 1434h272l203 -285v-10h-158l-182 168l-180 -168h-158v10z" />
    <glyph glyph-name="caron" unicode="&#x2c7;" horiz-adv-x="678" 
d="M0 1423v11h158l180 -168l182 168h158v-11l-203 -284h-272z" />
    <glyph glyph-name="macron" unicode="&#x2c9;" horiz-adv-x="606" 
d="M586 1139h-566v168h566v-168z" />
    <glyph glyph-name="breve" unicode="&#x2d8;" horiz-adv-x="623" 
d="M311 1139c-58 0 -106.665 9.16602 -145.998 27.499s-71 42.166 -95 71.499s-41.333 63 -52 101s-16.667 76.333 -18 115h139c1.33301 -26.667 6.16602 -49 14.499 -67s19.666 -32.5 33.999 -43.5s31.833 -18.833 52.5 -23.5s44.334 -7 71.001 -7
c53.333 0 94.666 10.333 123.999 31s45.333 57.334 48 110.001h140c-2 -38.667 -8.5 -77 -19.5 -115s-28.667 -71.667 -53 -101s-56 -53.166 -95 -71.499s-87.167 -27.5 -144.5 -27.5z" />
    <glyph glyph-name="dotaccent" unicode="&#x2d9;" horiz-adv-x="215" 
d="M207 1337v-198h-199v198h199z" />
    <glyph glyph-name="ring" unicode="&#x2da;" horiz-adv-x="584" 
d="M66 1350c0 31.333 6 60.833 18 88.5s28.167 51.667 48.5 72s44.333 36.5 72 48.5s57.167 18 88.5 18c32 0 61.667 -6 89 -18s51.333 -28.167 72 -48.5s36.834 -44.333 48.501 -72s17.5 -57.167 17.5 -88.5c0 -32 -5.83301 -61.833 -17.5 -89.5s-27.834 -52 -48.501 -73
s-44.667 -37.5 -72 -49.5s-57 -18 -89 -18c-31.333 0 -60.833 6 -88.5 18s-51.667 28.5 -72 49.5s-36.5 45.333 -48.5 73s-18 57.5 -18 89.5zM190 1350c0 -14.667 2.66699 -28.1699 8 -40.5029s12.666 -23.166 21.999 -32.499s20.333 -16.666 33 -21.999s26 -8 40 -8
c28.667 0 52.834 9.83301 72.501 29.5s29.5 44.167 29.5 73.5c0 28.667 -9.83301 52.834 -29.5 72.501s-43.834 29.5 -72.501 29.5c-14 0 -27.333 -2.66699 -40 -8s-23.667 -12.5 -33 -21.5s-16.666 -19.833 -21.999 -32.5s-8 -26 -8 -40z" />
    <glyph glyph-name="ogonek" unicode="&#x2db;" horiz-adv-x="508" 
d="M399 20c-23.333 -11.333 -45 -24.1641 -65 -38.4971s-37.167 -29.833 -51.5 -46.5s-25.666 -34.334 -33.999 -53.001s-12.5 -37.334 -12.5 -56.001c0 -28.667 9 -51.5 27 -68.5s45.667 -25.5 83 -25.5c8 0 17.667 0.333008 29 1s21.666 1.66699 30.999 3v-111
c-10.667 -2 -21.5 -3.5 -32.5 -4.5s-24.167 -1.5 -39.5 -1.5c-41.333 0 -76 5.16699 -104 15.5s-50.5 24.166 -67.5 41.499s-29.167 37.333 -36.5 60s-11 46.334 -11 71.001c0 50 13.167 92.667 39.5 128s59.5 63.666 99.5 84.999h145z" />
    <glyph glyph-name="tilde" unicode="&#x2dc;" horiz-adv-x="653" 
d="M633 1231c-25.333 -30 -49.999 -50.834 -73.999 -62.501s-52 -17.5 -84 -17.5c-20.667 0 -43.834 4.66699 -69.501 14s-51.834 19.5 -78.501 30.5s-53.5 21 -80.5 30s-52.5 13.5 -76.5 13.5c-30.667 0 -57.334 -7.66699 -80.001 -23s-46 -37 -70 -65v180
c19.333 25.333 42.666 45.666 69.999 60.999s57.333 23 90 23c28 0 54.833 -4.66699 80.5 -14s50.834 -19.666 75.501 -30.999s49.334 -21.666 74.001 -30.999s50.334 -14 77.001 -14c26 0 51.667 8.33301 77 25s48.333 39 69 67v-186v0z" />
    <glyph glyph-name="hungarumlaut" unicode="&#x2dd;" horiz-adv-x="793" 
d="M203 1434h233v-15l-258 -280h-158v10zM539 1434h233v-15l-258 -280h-158v10z" />
    <glyph glyph-name="tonos" unicode="&#x384;" horiz-adv-x="416" 
d="M162 1434h233v-15l-217 -280h-158v10z" />
    <glyph glyph-name="dieresistonos" unicode="&#x385;" horiz-adv-x="686" 
d="M367 1556h233v-14l-217 -280h-158v10zM186 1358v-199h-198v199h198zM698 1358v-199h-198v199h198z" />
    <glyph glyph-name="Alphatonos" unicode="&#x386;" horiz-adv-x="1204" 
d="M815 578l-121 346l-34 102l-29.5 92.5l-28.5 89.5c-7.33301 -27.333 -16.5 -57.333 -27.5 -90l-30.5 -93l-34 -103l-121 -344h426zM866 410h-528l-133 -410h-205l494 1413h217l493 -1413h-205zM143 1415h233v-15l-217 -280h-158v10z" />
    <glyph glyph-name="Epsilontonos" unicode="&#x388;" horiz-adv-x="1206" 
d="M77 1415h233v-15l-217 -280h-158v10zM1104 0h-755v1413h755v-180h-555v-406h512v-180h-512v-467h555v-180z" />
    <glyph glyph-name="Etatonos" unicode="&#x389;" horiz-adv-x="1516" 
d="M1121 635h-572v-635h-200v1413h200v-590h572v590h200v-1413h-200v635zM77 1415h233v-15l-217 -280h-158v10z" />
    <glyph glyph-name="Iotatonos" unicode="&#x38a;" horiz-adv-x="702" 
d="M77 1415h233v-15l-217 -280h-158v10zM349 0v1413h200v-1413h-200z" />
    <glyph glyph-name="Omicrontonos" unicode="&#x38c;" horiz-adv-x="1444" 
d="M895 1434c64 0 121.333 -10 172 -30s93.834 -47.667 129.501 -83s62.834 -77.166 81.501 -125.499s28 -100.833 28 -157.5v-663c0 -56 -9.33301 -108.167 -28 -156.5s-45.834 -90.166 -81.501 -125.499s-78.834 -63 -129.501 -83s-108 -30 -172 -30h-203
c-64 0 -121.5 10 -172.5 30s-94.167 47.667 -129.5 83s-62.5 77.166 -81.5 125.499s-28.5 100.5 -28.5 156.5v663c0 56.667 9.5 109.167 28.5 157.5s46.167 90.166 81.5 125.499s78.5 63 129.5 83s108.5 30 172.5 30h203zM712 1253c-74 0 -130.333 -19.333 -169 -58
s-58 -97.667 -58 -177v-623c0 -78.667 19.333 -137.5 58 -176.5s95 -58.5 169 -58.5h162c74.667 0 131.167 19.5 169.5 58.5s57.5 97.833 57.5 176.5v623c0 79.333 -19.167 138.333 -57.5 177s-94.833 58 -169.5 58h-162zM77 1434h233v-15l-217 -280h-158v10z" />
    <glyph glyph-name="Upsilontonos" unicode="&#x38e;" horiz-adv-x="1403" 
d="M871 717l333 696h209l-444 -862v-551h-201v551l-444 862h209zM77 1415h233v-15l-217 -280h-158v10z" />
    <glyph glyph-name="Omegatonos" unicode="&#x38f;" horiz-adv-x="1438" 
d="M1266 584c0 -114 -22.001 -204.334 -66.001 -271.001s-114.667 -113.667 -212 -141v-8c12 1.33301 26 3 42 5s32.333 3.83301 49 5.5s32.5 3 47.5 4s27.5 1.5 37.5 1.5h137v-180h-447v256c37.333 11.333 69.166 26.166 95.499 44.499s47.833 40.833 64.5 67.5
s28.667 57.834 36 93.501s11 76.5 11 122.5v434c0 79.333 -19.333 138.333 -58 177s-95 58 -169 58h-162c-74 0 -130.333 -19.333 -169 -58s-58 -97.667 -58 -177v-434c0 -91.333 15.833 -163.166 47.5 -215.499s84.834 -89.833 159.501 -112.5v-256h-447v180h137
c10 0 22.5 -0.5 37.5 -1.5s30.833 -2.33301 47.5 -4s33 -3.5 49 -5.5s30.333 -3.66699 43 -5v8c-97.333 27.333 -168.166 74.333 -212.499 141s-66.5 157 -66.5 271v454c0 56.667 9.5 109.167 28.5 157.5s46.167 90.166 81.5 125.499s78.5 63 129.5 83s108.5 30 172.5 30
h202c64 0 121.5 -10 172.5 -30s94.167 -47.667 129.5 -83s62.5 -77.166 81.5 -125.499s28.5 -100.833 28.5 -157.5v-454zM68.999 1434h233v-15l-217 -280h-158v10z" />
    <glyph glyph-name="iotadieresistonos" unicode="&#x390;" horiz-adv-x="580" 
d="M133 1024l198.998 0.000976562v-729c0 -52.667 8.83301 -90 26.5 -112s46.834 -33 87.501 -33c23.333 0 45.833 1.16699 67.5 3.5s43.834 5.16602 66.501 8.49902v-168c-24 -4 -50.5 -7.33301 -79.5 -10s-62.167 -4 -99.5 -4c-48.667 0 -90.167 6.33301 -124.5 19
s-62 31.667 -83 57s-36.333 57 -46 95s-14.5 82 -14.5 132v741zM287.998 1556h233v-14l-217 -280h-158v10zM106.998 1358v-199h-198v199h198zM618.998 1358v-199h-198v199h198z" />
    <glyph glyph-name="Alpha" unicode="&#x391;" horiz-adv-x="1204" 
d="M815 578l-121 346l-34 102l-29.5 92.5l-28.5 89.5c-7.33301 -27.333 -16.5 -57.333 -27.5 -90l-30.5 -93l-34 -103l-121 -344h426zM866 410h-528l-133 -410h-205l494 1413h217l493 -1413h-205z" />
    <glyph glyph-name="Beta" unicode="&#x392;" horiz-adv-x="1200" 
d="M674 813c26.667 0 51.167 3.5 73.5 10.5s41.5 19 57.5 36s28.5 39.5 37.5 67.5s13.5 63 13.5 105c0 40 -4.33301 73.167 -13 99.5s-21.5 47.333 -38.5 63s-38 26.667 -63 33s-53.833 9.5 -86.5 9.5h-301v-424h320zM713 176c32 0 61 4.00195 87 12.002s48.167 21 66.5 39
s32.5 41.667 42.5 71s15 65.333 15 108c0 41.333 -5 76.666 -15 105.999s-24.167 53.166 -42.5 71.499s-40.5 31.833 -66.5 40.5s-55 13 -87 13h-359v-461h359zM852 741.002c30 -2.66699 61.002 -11.332 93.002 -25.999s61.167 -35.5 87.5 -62.5
s48.166 -60.833 65.499 -101.5s26 -89 26 -145c0 -68 -9.66699 -127.333 -29 -178s-46.666 -92.834 -81.999 -126.501s-77.833 -59 -127.5 -76s-105.167 -25.5 -166.5 -25.5h-565v1413h514c125.333 0 222.166 -30 290.499 -90s102.5 -153 102.5 -279
c0 -42.667 -5.33301 -80.667 -16 -114s-25.334 -62.5 -44.001 -87.5s-40.667 -45.833 -66 -62.5s-53 -29.667 -83 -39z" />
    <glyph glyph-name="Gamma" unicode="&#x393;" horiz-adv-x="983" 
d="M154 1413h778v-180h-578v-1233h-200v1413z" />
    <glyph glyph-name="Delta" unicode="&#x394;" horiz-adv-x="1204" 
d="M944 180l-250 744l-34 102l-29.5 92.5l-28.5 89.5c-7.33301 -27.333 -16.5 -57.333 -27.5 -90l-30.5 -93l-34 -103l-250 -742h684zM494 1413h217l438 -1253v-160h-1094v160z" />
    <glyph glyph-name="Epsilon" unicode="&#x395;" horiz-adv-x="1012" 
d="M909 0h-755v1413h755v-180h-555v-406h512v-180h-512v-467h555v-180z" />
    <glyph glyph-name="Zeta" unicode="&#x396;" horiz-adv-x="1061" 
d="M51 166l694 1067h-653v180h877v-164l-695 -1069h736v-180h-959v166z" />
    <glyph glyph-name="Eta" unicode="&#x397;" horiz-adv-x="1280" 
d="M926 635h-572v-635h-200v1413h200v-590h572v590h200v-1413h-200v635z" />
    <glyph glyph-name="Theta" unicode="&#x398;" horiz-adv-x="1300" 
d="M752 1434c64 0 121.333 -10 172 -30s93.834 -47.667 129.501 -83s62.834 -77.166 81.501 -125.499s28 -100.833 28 -157.5v-663c0 -56 -9.33301 -108.167 -28 -156.5s-45.834 -90.166 -81.501 -125.499s-78.834 -63 -129.501 -83s-108 -30 -172 -30h-203
c-64 0 -121.5 10 -172.5 30s-94.167 47.667 -129.5 83s-62.5 77.166 -81.5 125.499s-28.5 100.5 -28.5 156.5v663c0 56.667 9.5 109.167 28.5 157.5s46.167 90.166 81.5 125.499s78.5 63 129.5 83s108.5 30 172.5 30h203zM569 1253c-74 0 -130.333 -19.333 -169 -58
s-58 -97.667 -58 -177v-623c0 -78.667 19.333 -137.5 58 -176.5s95 -58.5 169 -58.5h162c74.667 0 131.167 19.5 169.5 58.5s57.5 97.833 57.5 176.5v623c0 79.333 -19.167 138.333 -57.5 177s-94.833 58 -169.5 58h-162zM852 635h-408v188h408v-188z" />
    <glyph glyph-name="Iota" unicode="&#x399;" horiz-adv-x="508" 
d="M154 0v1413h200v-1413h-200z" />
    <glyph glyph-name="Kappa" unicode="&#x39a;" horiz-adv-x="1122" 
d="M154 0v1413h200v-659l527 659h235l-557 -670l574 -743h-240l-539 717v-717h-200z" />
    <glyph glyph-name="Lambda" unicode="&#x39b;" horiz-adv-x="1106" 
d="M686 727l-33.5 109l-37.5 125.5l-35.5 122c-11 39 -19.833 71.833 -26.5 98.5c-6.66699 -26.667 -15.5 -59.5 -26.5 -98.5l-34.5 -121.5l-36.5 -124.5c-12.333 -41 -23.5 -76.5 -33.5 -106.5l-232 -731h-210l479 1413h188l479 -1413h-211z" />
    <glyph glyph-name="Mu" unicode="&#x39c;" horiz-adv-x="1769" 
d="M1421 883c0 50 0.501953 102.166 1.50195 156.499s2.5 109.833 4.5 166.5l-26.5 -83.5l-34.5 -103.5l-34 -101.5c-10.667 -32.333 -19.667 -58.166 -27 -77.499l-318 -840h-211l-319 852c-8 20 -17 45.5 -27 76.5l-31 97.5l-31 99l-26 81c2 -60 3.5 -118.667 4.5 -176
s1.5 -105.666 1.5 -144.999v-885h-194v1413h280l352 -942c5.33301 -12.667 12.5 -32 21.5 -58l28 -84l28 -88c9 -28.667 16.167 -52.334 21.5 -71.001c3.33301 12 7.66602 26.833 12.999 44.5l17 55.5l19 59.5l19 58c6 18.333 11.667 34.833 17 49.5s9.66602 26 12.999 34
l352 942h281v-1413h-195v883z" />
    <glyph glyph-name="Nu" unicode="&#x39d;" horiz-adv-x="1450" 
d="M1096 1413h199.999v-1413h-237l-717 1153l6 -113l4 -100.5c1.33301 -35 2 -66.167 2 -93.5v-846h-200v1413h241l713 -1153l-6 94c-1.33301 28 -2.66602 58.5 -3.99902 91.5s-2 65.5 -2 97.5v870z" />
    <glyph glyph-name="Xi" unicode="&#x39e;" horiz-adv-x="1024" 
d="M131 827h766v-180h-766v180zM983 180v-180h-942v180h942zM942 1413v-180h-860v180h860z" />
    <glyph glyph-name="Omicron" unicode="&#x39f;" horiz-adv-x="1300" 
d="M752 1434c64 0 121.333 -10 172 -30s93.834 -47.667 129.501 -83s62.834 -77.166 81.501 -125.499s28 -100.833 28 -157.5v-663c0 -56 -9.33301 -108.167 -28 -156.5s-45.834 -90.166 -81.501 -125.499s-78.834 -63 -129.501 -83s-108 -30 -172 -30h-203
c-64 0 -121.5 10 -172.5 30s-94.167 47.667 -129.5 83s-62.5 77.166 -81.5 125.499s-28.5 100.5 -28.5 156.5v663c0 56.667 9.5 109.167 28.5 157.5s46.167 90.166 81.5 125.499s78.5 63 129.5 83s108.5 30 172.5 30h203zM569 1253c-74 0 -130.333 -19.333 -169 -58
s-58 -97.667 -58 -177v-623c0 -78.667 19.333 -137.5 58 -176.5s95 -58.5 169 -58.5h162c74.667 0 131.167 19.5 169.5 58.5s57.5 97.833 57.5 176.5v623c0 79.333 -19.167 138.333 -57.5 177s-94.833 58 -169.5 58h-162z" />
    <glyph glyph-name="Pi" unicode="&#x3a0;" horiz-adv-x="1321" 
d="M967 1225h-613v-1225h-200v1413h1013v-1413h-200v1225z" />
    <glyph glyph-name="Rho" unicode="&#x3a1;" horiz-adv-x="1126" 
d="M610 754c35.333 0 67.667 4.83203 97 14.499s54.5 24.834 75.5 45.501s37.167 47.334 48.5 80.001s17 72 17 118c0 43.333 -6 79.166 -18 107.499s-28.5 50.833 -49.5 67.5s-46 28.5 -75 35.5s-60.833 10.5 -95.5 10.5h-256v-479h256zM354.001 572.999
l-0.00292969 -573.003h-200v1413h458c70 0 132.333 -8.66699 187 -26s100.834 -42.666 138.501 -75.999s66.334 -74.833 86.001 -124.5s29.5 -107.167 29.5 -172.5c0 -66 -9.66699 -126.167 -29 -180.5s-47.666 -100.666 -84.999 -138.999s-83 -68.166 -137 -89.499
s-116 -32 -186 -32h-262z" />
    <glyph glyph-name="Sigma" unicode="&#x3a3;" horiz-adv-x="987" 
d="M930 0h-858v168l438 565l-410 514v166h779v-180h-543l364 -455v-78l-407 -520h637v-180z" />
    <glyph glyph-name="Tau" unicode="&#x3a4;" horiz-adv-x="1065" 
d="M432 1233h-407v180h1015v-180h-407v-1233h-201v1233z" />
    <glyph glyph-name="Upsilon" unicode="&#x3a5;" horiz-adv-x="1069" 
d="M537 717l333 696h209l-444 -862v-551h-201v551l-444 862h209z" />
    <glyph glyph-name="Phi" unicode="&#x3a6;" horiz-adv-x="1538" 
d="M1001 362c35.333 0 67.667 6.16699 97 18.5s54.5 33 75.5 62s37.167 67.167 48.5 114.5s17 106 17 176c0 65.333 -6 120.5 -18 165.5s-28.5 81.5 -49.5 109.5s-46 48.167 -75 60.5s-60.833 18.5 -95.5 18.5h-133v-725h133zM670.001 362l0.000976562 725h-133
c-34.667 0 -66.5 -6.16699 -95.5 -18.5s-54 -32.5 -75 -60.5s-37.5 -64.5 -49.5 -109.5s-18 -100.167 -18 -165.5c0 -70 5.66699 -128.667 17 -176s27.5 -85.5 48.5 -114.5s46.167 -49.667 75.5 -62s61.666 -18.5 96.999 -18.5h133zM670.002 182h-140.006
c-69.333 0 -131.166 12.5 -185.499 37.5s-100 61.167 -137 108.5s-65.167 105 -84.5 173s-29 144.667 -29 230c0 84 9.83301 159.167 29.5 225.5s48.334 122.666 86.001 168.999s83.834 81.666 138.501 105.999s117 36.5 187 36.5h135v155h198v-155h136
c69.333 0 131.333 -12.167 186 -36.5s100.834 -59.666 138.501 -105.999s66.334 -102.666 86.001 -168.999s29.5 -141.5 29.5 -225.5c0 -85.333 -9.66699 -162 -29 -230s-47.5 -125.667 -84.5 -173s-82.667 -83.5 -137 -108.5s-116.166 -37.5 -185.499 -37.5h-140v-192h-198
v192z" />
    <glyph glyph-name="Chi" unicode="&#x3a7;" horiz-adv-x="1163" 
d="M582 862l331 551h222l-433 -686l461 -727h-219l-362 594l-363 -594h-219l459 727l-430 686h221z" />
    <glyph glyph-name="Psi" unicode="&#x3a8;" horiz-adv-x="1538" 
d="M868 483v-483h-198v483h-140c-69.333 0 -131.166 12.5 -185.499 37.5s-100 61.167 -137 108.5s-65.167 105 -84.5 173s-29 144.667 -29 230v381h205v-379c0 -70 5.66699 -128.667 17 -176s27.5 -85.333 48.5 -114s46.167 -49.167 75.5 -61.5s61.666 -18.5 96.999 -18.5
h133v749h198v-749h133c35.333 0 67.666 6.16699 96.999 18.5s54.5 32.833 75.5 61.5s37.167 66.667 48.5 114s17 106 17 176v379h205v-381c0 -85.333 -9.66699 -162 -29 -230s-47.5 -125.667 -84.5 -173s-82.667 -83.5 -137 -108.5s-116.166 -37.5 -185.499 -37.5h-140z" />
    <glyph glyph-name="Omega" unicode="&#x3a9;" horiz-adv-x="1370" 
d="M1198 584c0 -114 -22.001 -204.334 -66.001 -271.001s-114.667 -113.667 -212 -141v-8c12 1.33301 26 3 42 5s32.333 3.83301 49 5.5s32.5 3 47.5 4s27.5 1.5 37.5 1.5h137v-180h-447v256c37.333 11.333 69.166 26.166 95.499 44.499s47.833 40.833 64.5 67.5
s28.667 57.834 36 93.501s11 76.5 11 122.5v434c0 79.333 -19.333 138.333 -58 177s-95 58 -169 58h-162c-74 0 -130.333 -19.333 -169 -58s-58 -97.667 -58 -177v-434c0 -91.333 15.833 -163.166 47.5 -215.499s84.834 -89.833 159.501 -112.5v-256h-447v180h137
c10 0 22.5 -0.5 37.5 -1.5s30.833 -2.33301 47.5 -4s33 -3.5 49 -5.5s30.333 -3.66699 43 -5v8c-97.333 27.333 -168.166 74.333 -212.499 141s-66.5 157 -66.5 271v454c0 56.667 9.5 109.167 28.5 157.5s46.167 90.166 81.5 125.499s78.5 63 129.5 83s108.5 30 172.5 30
h202c64 0 121.5 -10 172.5 -30s94.167 -47.667 129.5 -83s62.5 -77.166 81.5 -125.499s28.5 -100.833 28.5 -157.5v-454z" />
    <glyph glyph-name="Iotadieresis" unicode="&#x3aa;" horiz-adv-x="508" 
d="M154 0v1413h200v-1413h-200zM171 1722v-198h-198v198h198zM540 1722v-198h-199v198h199z" />
    <glyph glyph-name="Upsilondieresis" unicode="&#x3ab;" horiz-adv-x="1069" 
d="M537 717l333 696h209l-444 -862v-551h-201v551l-444 862h209zM452 1722v-198h-198v198h198zM821 1722v-198h-199v198h199z" />
    <glyph glyph-name="alphatonos" unicode="&#x3ac;" horiz-adv-x="1210" 
d="M1020 -20c-113.333 0 -183.671 81.002 -211.004 243.002c-14 -34 -30.667 -65.833 -50 -95.5s-43.166 -55.5 -71.499 -77.5s-61.666 -39.167 -99.999 -51.5s-83.166 -18.5 -134.499 -18.5c-52 0 -98.833 7 -140.5 21s-77.334 37.667 -107.001 71s-52.5 77.5 -68.5 132.5
s-24 123.5 -24 205.5v223c0 142 32.833 247.5 98.5 316.5s166.5 103.5 302.5 103.5c54 0 100.333 -7.16699 139 -21.5s71.167 -34.333 97.5 -60s47.833 -56.334 64.5 -92.001s30.334 -74.834 41.001 -117.501l80 262h199l-209 -563l9.5 -47.5
c3 -15 5.83301 -28.167 8.5 -39.5c2.66699 -13.333 5.33398 -26 8.00098 -38c6 -26 12.167 -49.333 18.5 -70s14 -38.167 23 -52.5s19.833 -25.5 32.5 -33.5s28.334 -12 47.001 -12c11.333 0 23.166 0.833008 35.499 2.5s23.833 3.5 34.5 5.5v-182
c-20.667 -5.33301 -41.167 -9 -61.5 -11s-40.833 -3 -61.5 -3zM511.995 885.002c-38.667 0 -70.833 -5.83203 -96.5 -17.499s-46.167 -29.667 -61.5 -54s-26.333 -55.333 -33 -93s-10 -82.5 -10 -134.5v-158c0 -58.667 3.66699 -106.334 11 -143.001
s18.5 -65.167 33.5 -85.5s33.667 -34.166 56 -41.499s48.166 -11 77.499 -11c40 0 74.5 8.66699 103.5 26s53.5 38.833 73.5 64.5s36.167 53.167 48.5 82.5s21.833 55.666 28.5 78.999l27 84l-14 103c-6 40.667 -14.667 79 -26 115s-26.666 67.667 -45.999 95s-43 49 -71 65
s-61.667 24 -101 24zM575.996 1434h233v-15l-217 -280h-158v10z" />
    <glyph glyph-name="epsilontonos" unicode="&#x3ad;" horiz-adv-x="991" 
d="M113 317c0 37.333 5.83496 68.3379 17.502 93.0049s26.5 44.667 44.5 60s37.667 27.333 59 36s41.666 16 60.999 22c-18.667 6 -37.167 14.667 -55.5 26s-34.666 26.166 -48.999 44.499s-25.833 41.166 -34.5 68.499s-13 60.333 -13 99c0 49.333 8.83301 91.5 26.5 126.5
s42.5 63.833 74.5 86.5s70.167 39.167 114.5 49.5s92.833 15.5 145.5 15.5h43c47.333 0 89 -3.83301 125 -11.5s67.833 -18.834 95.5 -33.501s51.667 -32.5 72 -53.5s38.166 -44.833 53.499 -71.5l-170 -100c-19.333 34 -43 59.667 -71 77s-65.667 26 -113 26h-41
c-26 0 -48.667 -2 -68 -6s-35.5 -11.167 -48.5 -21.5s-22.833 -24.333 -29.5 -42s-10 -39.834 -10 -66.501s4 -48.834 12 -66.501s18.167 -31.834 30.5 -42.501s25.833 -18 40.5 -22s28.667 -6 42 -6h215v-162h-225c-17.333 0 -34.666 -1.5 -51.999 -4.5s-33 -9 -47 -18
s-25.333 -22 -34 -39s-13 -39.5 -13 -67.5c0 -54 18.167 -95.167 54.5 -123.5s92.833 -42.5 169.5 -42.5c40 0 78.167 3.83301 114.5 11.5s69.666 17.167 99.999 28.5s57.5 23.666 81.5 36.999s44 26 60 38v-186c-14.667 -11.333 -33.334 -22.666 -56.001 -33.999
s-49 -21.666 -79 -30.999s-64.167 -16.833 -102.5 -22.5s-80.833 -8.5 -127.5 -8.5c-58 0 -112.167 5.33301 -162.5 16s-94 27.834 -131 51.501s-66.167 54.667 -87.5 93s-32 85.166 -32 140.499v36zM553.002 1434h233v-15l-217 -280h-158v10z" />
    <glyph glyph-name="etatonos" unicode="&#x3ae;" horiz-adv-x="1120" 
d="M342 0l-199.003 -0.000976562v991c26 6 55.833 12.167 89.5 18.5s68.5 12 104.5 17s72 9.16699 108 12.5s69.333 5 100 5c70.667 0 133.334 -7.66699 188.001 -23s100.834 -37 138.501 -65s66.334 -61.667 86.001 -101s29.5 -82.666 29.5 -129.999v-1135h-199v1094
c0 30 -5.83301 57 -17.5 81s-28 44.333 -49 61s-46.5 29.334 -76.5 38.001s-63.333 13 -100 13c-18.667 0 -38 -0.833008 -58 -2.5s-39 -3.83398 -57 -6.50098s-34.667 -5.5 -50 -8.5s-28 -6.16699 -38 -9.5v-850zM564.997 1434h233v-15l-217 -280h-158v10z" />
    <glyph glyph-name="iotatonos" unicode="&#x3af;" horiz-adv-x="580" 
d="M133 1024l198.998 0.000976562v-729c0 -52.667 8.83301 -90 26.5 -112s46.834 -33 87.501 -33c23.333 0 45.833 1.16699 67.5 3.5s43.834 5.16602 66.501 8.49902v-168c-24 -4 -50.5 -7.33301 -79.5 -10s-62.167 -4 -99.5 -4c-48.667 0 -90.167 6.33301 -124.5 19
s-62 31.667 -83 57s-36.333 57 -46 95s-14.5 82 -14.5 132v741zM280.998 1434h233v-15l-217 -280h-158v10z" />
    <glyph glyph-name="upsilondieresistonos" unicode="&#x3b0;" horiz-adv-x="1143" 
d="M575 147c91.333 0 156.834 22.167 196.501 66.5s59.5 110.5 59.5 198.5v223c0 30.667 -1.5 63.167 -4.5 97.5s-7.16699 68.666 -12.5 102.999s-11.666 67.666 -18.999 99.999s-15.666 61.833 -24.999 88.5h203c8 -20.667 15.5 -46.5 22.5 -77.5s13 -64.167 18 -99.5
s9 -71.666 12 -108.999s4.5 -72.333 4.5 -105v-234c0 -76 -11 -140.5 -33 -193.5s-53 -96.167 -93 -129.5s-87.833 -57.666 -143.5 -72.999s-117.5 -23 -185.5 -23c-70.667 0 -133.334 7.33301 -188.001 22s-100.834 37.167 -138.501 67.5s-66.334 68.666 -86.001 114.999
s-29.5 100.833 -29.5 163.5v676h199v-662c0 -30.667 4.16699 -59.167 12.5 -85.5s22 -49.166 41 -68.499s44 -34.333 75 -45s69.167 -16 114.5 -16zM600.001 1556h233v-14l-217 -280h-158v10zM419.001 1358v-199h-198v199h198zM931.001 1358v-199h-198v199h198z" />
    <glyph glyph-name="alpha" unicode="&#x3b1;" horiz-adv-x="1210" 
d="M1020 -20c-113.333 0 -183.671 81.002 -211.004 243.002c-14 -34 -30.667 -65.833 -50 -95.5s-43.166 -55.5 -71.499 -77.5s-61.666 -39.167 -99.999 -51.5s-83.166 -18.5 -134.499 -18.5c-52 0 -98.833 7 -140.5 21s-77.334 37.667 -107.001 71s-52.5 77.5 -68.5 132.5
s-24 123.5 -24 205.5v223c0 142 32.833 247.5 98.5 316.5s166.5 103.5 302.5 103.5c54 0 100.333 -7.16699 139 -21.5s71.167 -34.333 97.5 -60s47.833 -56.334 64.5 -92.001s30.334 -74.834 41.001 -117.501l80 262h199l-209 -563l9.5 -47.5
c3 -15 5.83301 -28.167 8.5 -39.5c2.66699 -13.333 5.33398 -26 8.00098 -38c6 -26 12.167 -49.333 18.5 -70s14 -38.167 23 -52.5s19.833 -25.5 32.5 -33.5s28.334 -12 47.001 -12c11.333 0 23.166 0.833008 35.499 2.5s23.833 3.5 34.5 5.5v-182
c-20.667 -5.33301 -41.167 -9 -61.5 -11s-40.833 -3 -61.5 -3zM511.995 885.002c-38.667 0 -70.833 -5.83203 -96.5 -17.499s-46.167 -29.667 -61.5 -54s-26.333 -55.333 -33 -93s-10 -82.5 -10 -134.5v-158c0 -58.667 3.66699 -106.334 11 -143.001
s18.5 -65.167 33.5 -85.5s33.667 -34.166 56 -41.499s48.166 -11 77.499 -11c40 0 74.5 8.66699 103.5 26s53.5 38.833 73.5 64.5s36.167 53.167 48.5 82.5s21.833 55.666 28.5 78.999l27 84l-14 103c-6 40.667 -14.667 79 -26 115s-26.666 67.667 -45.999 95s-43 49 -71 65
s-61.667 24 -101 24z" />
    <glyph glyph-name="beta" unicode="&#x3b2;" horiz-adv-x="1110" 
d="M481 672v149h62c36 0 65.167 5 87.5 15s40 25 53 45s21.833 45.167 26.5 75.5s7 65.833 7 106.5c0 38.667 -4.16699 71 -12.5 97s-20.5 46.833 -36.5 62.5s-35.833 26.834 -59.5 33.501s-50.5 10 -80.5 10c-27.333 0 -52.5 -3.16699 -75.5 -9.5
s-42.667 -15.666 -59 -27.999s-29 -28 -38 -47s-13.5 -41.5 -13.5 -67.5v-938c32 -8 66.667 -14.833 104 -20.5s73.666 -8.5 108.999 -8.5c84.667 0 146.5 16.667 185.5 50s58.5 83 58.5 149v107c0 36 -4.16699 67.667 -12.5 95s-22 50.166 -41 68.499
s-43.667 32.166 -74 41.499s-67.166 14 -110.499 14h-80zM741 754c85.333 -16.667 149.333 -47.499 192 -92.499s64 -108.5 64 -190.5v-145c0 -50 -9 -96 -27 -138s-44.667 -78.5 -80 -109.5s-79.666 -55.167 -132.999 -72.5s-115.333 -26 -186 -26
c-22.667 0 -44 0.666992 -64 2s-39.167 3.16602 -57.5 5.49902s-36.166 5.16602 -53.499 8.49902l-54 10v-416h-199v1555c0 54 10.833 99.333 32.5 136s50.5 66.334 86.5 89.001s77.167 39 123.5 49s93.833 15 142.5 15c50 0 98.333 -5.33301 145 -16s88 -29 124 -55
s64.667 -61.167 86 -105.5s32 -100.166 32 -167.499v-46c0 -43.333 -3.83301 -80.833 -11.5 -112.5s-18.834 -58.834 -33.501 -81.501s-32.834 -41.667 -54.501 -57s-46.5 -28.333 -74.5 -39z" />
    <glyph glyph-name="gamma" unicode="&#x3b3;" horiz-adv-x="983" 
d="M516 205c30 38.667 60.002 84.998 90.002 138.998s57.167 115.167 81.5 183.5s44.166 144 59.499 227s23 172.833 23 269.5h203c0 -109.333 -12.833 -215.166 -38.5 -317.499s-58.334 -198.166 -98.001 -287.499s-83 -171 -130 -245s-92.167 -137.333 -135.5 -190v-394
h-227c0 24 1.33301 53.5 4 88.5s6.16699 72.167 10.5 111.5s9.83301 78.833 16.5 118.5s14 75.5 22 107.5l-397 1008h219z" />
    <glyph glyph-name="delta" unicode="&#x3b4;" horiz-adv-x="1085" 
d="M113 461c0 63.333 6.83301 118.166 20.5 164.499s33 85.833 58 118.5s55.167 58.667 90.5 78s75 33.333 119 42c-25.333 14 -50.5 30 -75.5 48s-47.333 38.833 -67 62.5s-35.5 50.334 -47.5 80.001s-18 63.167 -18 100.5c0 50 8.16699 92.667 24.5 128
s39.333 64.333 69 87s65.5 39.334 107.5 50.001s89 16 141 16h96c43.333 0 82.666 -4.33301 117.999 -13s67 -20.834 95 -36.501s52.667 -34.5 74 -56.5s40.333 -46.333 57 -73l-154 -114c-10 16 -21.167 31.333 -33.5 46s-26.333 27.667 -42 39s-33 20.5 -52 27.5
s-40.5 10.5 -64.5 10.5h-92c-97.333 0 -146 -37 -146 -111c0 -16.667 3.16699 -32 9.5 -46s15.833 -27 28.5 -39s28 -23.667 46 -35s38.667 -23.333 62 -36l215 -114c34 -18 64.5 -37.833 91.5 -59.5s50.167 -46.5 69.5 -74.5s34.166 -59.5 44.499 -94.5
s15.5 -74.833 15.5 -119.5v-138c0 -76 -9.83301 -140.5 -29.5 -193.5s-47.5 -96.167 -83.5 -129.5s-79.5 -57.666 -130.5 -72.999s-107.833 -23 -170.5 -23h-55c-62.667 0 -118.167 7.66699 -166.5 23s-89.166 39.666 -122.499 72.999s-58.666 76.5 -75.999 129.5
s-26 117.5 -26 193.5v62v0zM580 768c-48 -1.33301 -89 -7.66992 -123 -19.0029s-61.833 -29.333 -83.5 -54s-37.5 -56.667 -47.5 -96s-15 -88 -15 -146v-45c0 -40 2.83301 -76.167 8.5 -108.5s15.667 -59.666 30 -81.999s33.5 -39.666 57.5 -51.999s54.333 -18.5 91 -18.5
h71c36.667 0 68 5.83301 94 17.5s47.167 28.834 63.5 51.501s28.333 50.167 36 82.5s11.5 68.833 11.5 109.5v108c0 31.333 -4.16699 59.333 -12.5 84s-20.833 47 -37.5 67s-37 38.167 -61 54.5s-51.667 31.833 -83 46.5z" />
    <glyph glyph-name="epsilon" unicode="&#x3b5;" horiz-adv-x="991" 
d="M113 317c0 37.333 5.83496 68.3379 17.502 93.0049s26.5 44.667 44.5 60s37.667 27.333 59 36s41.666 16 60.999 22c-18.667 6 -37.167 14.667 -55.5 26s-34.666 26.166 -48.999 44.499s-25.833 41.166 -34.5 68.499s-13 60.333 -13 99c0 49.333 8.83301 91.5 26.5 126.5
s42.5 63.833 74.5 86.5s70.167 39.167 114.5 49.5s92.833 15.5 145.5 15.5h43c47.333 0 89 -3.83301 125 -11.5s67.833 -18.834 95.5 -33.501s51.667 -32.5 72 -53.5s38.166 -44.833 53.499 -71.5l-170 -100c-19.333 34 -43 59.667 -71 77s-65.667 26 -113 26h-41
c-26 0 -48.667 -2 -68 -6s-35.5 -11.167 -48.5 -21.5s-22.833 -24.333 -29.5 -42s-10 -39.834 -10 -66.501s4 -48.834 12 -66.501s18.167 -31.834 30.5 -42.501s25.833 -18 40.5 -22s28.667 -6 42 -6h215v-162h-225c-17.333 0 -34.666 -1.5 -51.999 -4.5s-33 -9 -47 -18
s-25.333 -22 -34 -39s-13 -39.5 -13 -67.5c0 -54 18.167 -95.167 54.5 -123.5s92.833 -42.5 169.5 -42.5c40 0 78.167 3.83301 114.5 11.5s69.666 17.167 99.999 28.5s57.5 23.666 81.5 36.999s44 26 60 38v-186c-14.667 -11.333 -33.334 -22.666 -56.001 -33.999
s-49 -21.666 -79 -30.999s-64.167 -16.833 -102.5 -22.5s-80.833 -8.5 -127.5 -8.5c-58 0 -112.167 5.33301 -162.5 16s-94 27.834 -131 51.501s-66.167 54.667 -87.5 93s-32 85.166 -32 140.499v36z" />
    <glyph glyph-name="zeta" unicode="&#x3b6;" horiz-adv-x="891" 
d="M872 1229c-14 -4 -26.8291 -8.00586 -38.4961 -12.0059s-23 -8.16699 -34 -12.5s-22.167 -9 -33.5 -14l-37 -16.5c-58.667 -39.333 -114.167 -81.333 -166.5 -126s-98 -93.667 -137 -147s-69.833 -112.5 -92.5 -177.5s-34 -137.5 -34 -217.5v-119
c0 -67.333 20.5 -119.666 61.5 -156.999s108.5 -56 202.5 -56c50 0 95 -4.5 135 -13.5s74 -24 102 -45s49.5 -48.333 64.5 -82s22.5 -74.834 22.5 -123.501c0 -37.333 -1.33301 -70.5 -4 -99.5s-6.33398 -55.167 -11.001 -78.5h-167
c3.33301 22.667 6.16602 44.834 8.49902 66.501s3.5 43.834 3.5 66.501c0 86 -58.667 129 -176 129c-78 0 -144.833 7 -200.5 21s-101.334 36.333 -137.001 67s-61.834 69.834 -78.501 117.501s-25 105.5 -25 173.5v121c0 74 8 142.167 24 204.5s40.167 120.333 72.5 174
s72.833 103.834 121.5 150.501s105.667 91.334 171 134.001c-48 2 -101.167 8.83301 -159.5 20.5s-116.166 30.834 -173.499 57.501l-2 205c59.333 -36 121.166 -62.5 185.499 -79.5s134.166 -25.5 209.499 -25.5c23.333 0 48.666 1.16699 75.999 3.5
s55.333 5.83301 84 10.5s56.834 10.667 84.501 18s53.834 16 78.501 26v-164v0z" />
    <glyph glyph-name="eta" unicode="&#x3b7;" horiz-adv-x="1120" 
d="M342 0l-199.003 -0.000976562v991c26 6 55.833 12.167 89.5 18.5s68.5 12 104.5 17s72 9.16699 108 12.5s69.333 5 100 5c70.667 0 133.334 -7.66699 188.001 -23s100.834 -37 138.501 -65s66.334 -61.667 86.001 -101s29.5 -82.666 29.5 -129.999v-1135h-199v1094
c0 30 -5.83301 57 -17.5 81s-28 44.333 -49 61s-46.5 29.334 -76.5 38.001s-63.333 13 -100 13c-18.667 0 -38 -0.833008 -58 -2.5s-39 -3.83398 -57 -6.50098s-34.667 -5.5 -50 -8.5s-28 -6.16699 -38 -9.5v-850z" />
    <glyph glyph-name="theta" unicode="&#x3b8;" horiz-adv-x="1085" 
d="M973 399c0 -76 -9.83301 -140.5 -29.5 -193.5s-47.5 -96.167 -83.5 -129.5s-79.5 -57.666 -130.5 -72.999s-107.833 -23 -170.5 -23h-55c-62.667 0 -118.167 7.66699 -166.5 23s-89.166 39.666 -122.499 72.999s-58.666 76.5 -75.999 129.5s-26 117.5 -26 193.5v615
c0 76 8.66699 140.5 26 193.5s42.666 96.333 75.999 130s74.166 58.167 122.499 73.5s103.833 23 166.5 23h55c62.667 0 119.5 -7.66699 170.5 -23s94.5 -39.833 130.5 -73.5s63.833 -77 83.5 -130s29.5 -117.5 29.5 -193.5v-615zM569 147c36.667 0 68 6.16699 94 18.5
s47.167 29.666 63.5 51.999s28.333 49.666 36 81.999s11.5 68.5 11.5 108.5v243h-463v-243c0 -40 2.83301 -76.167 8.5 -108.5s15.667 -59.666 30 -81.999s33.5 -39.666 57.5 -51.999s54.333 -18.5 91 -18.5h71v0zM311 813h463v193c0 40 -3.83301 76 -11.5 108
s-19.667 59.167 -36 81.5s-37.5 39.666 -63.5 51.999s-57.333 18.5 -94 18.5h-71c-36.667 0 -67 -6.16699 -91 -18.5s-43.167 -29.666 -57.5 -51.999s-24.333 -49.5 -30 -81.5s-8.5 -68 -8.5 -108v-193z" />
    <glyph glyph-name="iota" unicode="&#x3b9;" horiz-adv-x="580" 
d="M133 1024l198.998 0.000976562v-729c0 -52.667 8.83301 -90 26.5 -112s46.834 -33 87.501 -33c23.333 0 45.833 1.16699 67.5 3.5s43.834 5.16602 66.501 8.49902v-168c-24 -4 -50.5 -7.33301 -79.5 -10s-62.167 -4 -99.5 -4c-48.667 0 -90.167 6.33301 -124.5 19
s-62 31.667 -83 57s-36.333 57 -46 95s-14.5 82 -14.5 132v741z" />
    <glyph glyph-name="kappa" unicode="&#x3ba;" horiz-adv-x="1030" 
d="M342 0h-199v1024h199v-498l418 498h225l-385 -428l430 -596h-225l-326 461l-137 -137v-324z" />
    <glyph glyph-name="lambda" unicode="&#x3bb;" horiz-adv-x="1053" 
d="M379 1133c-15.333 43.333 -35.502 76 -60.502 98s-56.167 33 -93.5 33c-14 0 -30.5 -1 -49.5 -3s-35.167 -4.66699 -48.5 -8v164c16.667 4 37.167 7.83301 61.5 11.5s48.833 5.5 73.5 5.5c39.333 0 73.833 -5.5 103.5 -16.5s56.334 -27.667 80.001 -50
s45 -50.833 64 -85.5s36.833 -75.667 53.5 -123l311 -870c8.66699 -24.667 17.334 -45.5 26.001 -62.5s17.667 -30.667 27 -41s19.333 -17.833 30 -22.5s22.667 -7 36 -7c9.33301 0 18.333 0.333008 27 1s16 1.66699 22 3v-164c-12 -3.33301 -24.5 -5.83301 -37.5 -7.5
s-29.167 -2.5 -48.5 -2.5c-34 0 -64.167 5.33301 -90.5 16s-50 27.167 -71 49.5s-40 50.833 -57 85.5s-33.5 75.667 -49.5 123l-162 479l-295 -739h-211l420 958z" />
    <glyph glyph-name="mu" unicode="&#x3bc;" horiz-adv-x="1120" 
d="M778 1024l199 -0.000976562v-991c-26 -6 -55.833 -12.167 -89.5 -18.5s-68.5 -12 -104.5 -17s-72 -9.16699 -108 -12.5s-69.333 -5 -100 -5c-46 0 -88.833 3 -128.5 9s-74.5 15.667 -104.5 29v-428h-199v1434h199v-684c0 -60.667 20.333 -108 61 -142s98 -51 172 -51
c19.333 0 38.833 0.833008 58.5 2.5s38.5 3.83398 56.5 6.50098s34.667 5.66699 50 9s28 6.33301 38 9v850z" />
    <glyph glyph-name="nu" unicode="&#x3bd;" horiz-adv-x="1032" 
d="M10 1024l211 -0.000976562l207 -567c6 -15.333 12.667 -33.833 20 -55.5l22.5 -67l22 -67.5c7 -22 12.833 -41.333 17.5 -58c30 49.333 59.333 101.333 88 156s54.5 114.667 77.5 180s41.5 137.333 55.5 216s21 166.334 21 263.001h202c0 -109.333 -12.5 -212 -37.5 -308
s-56.333 -186.167 -94 -270.5s-79 -163.333 -124 -237l-127.5 -208.5h-161z" />
    <glyph glyph-name="xi" unicode="&#x3be;" horiz-adv-x="899" 
d="M733 848l-0.00292969 -171.999c-61.333 0 -118.333 -2.83301 -171 -8.5s-98.334 -18 -137.001 -37s-69 -46.167 -91 -81.5s-33 -83 -33 -143v-29c0 -67.333 19.5 -118 58.5 -152s103.5 -51 193.5 -51c50 0 95 -4.5 135 -13.5s74 -24 102 -45s49.5 -48.333 64.5 -82
s22.5 -74.834 22.5 -123.501c0 -37.333 -1.5 -70.5 -4.5 -99.5s-6.5 -55.167 -10.5 -78.5h-168c3.33301 22.667 6.33301 44.834 9 66.501s4 43.834 4 66.501c0 86 -59 129 -177 129c-75.333 0 -140 6.5 -194 19.5s-98.333 34 -133 63s-60.167 67 -76.5 114
s-24.5 104.167 -24.5 171.5v44c0 46.667 8 89.667 24 129s38.333 74.5 67 105.5s63 57.167 103 78.5s84 37 132 47c-29.333 10 -57.333 21.167 -84 33.5s-50.167 27.666 -70.5 45.999s-36.5 40.333 -48.5 66s-18 56.5 -18 92.5c0 49.333 13 91.5 39 126.5
s66.333 66.5 121 94.5c-15.333 -0.666992 -32.666 -1.16699 -51.999 -1.5s-39 -0.166016 -59 0.500977s-39.833 2 -59.5 4s-37.5 4.33301 -53.5 7v205c70.667 -27.333 141.834 -48.166 213.501 -62.499s143.834 -21.5 216.501 -21.5c19.333 5.33301 39.333 10.166 60 14.499
s41.5 8.16602 62.5 11.499s41.167 6.33301 60.5 9s37 4.66699 53 6v-174c-27.333 0 -56.5 -0.333008 -87.5 -1s-61.667 -2.66699 -92 -6s-59.333 -9 -87 -17s-52 -19.167 -73 -33.5s-37.667 -32.833 -50 -55.5s-18.5 -50.667 -18.5 -84c0 -34 5.33301 -62.5 16 -85.5
s27.334 -41.333 50.001 -55s51.667 -23.334 87 -29.001s77.333 -8.5 126 -8.5h53z" />
    <glyph glyph-name="omicron" unicode="&#x3bf;" horiz-adv-x="1085" 
d="M311 408c0 -40 2.83301 -76.167 8.5 -108.5s15.667 -59.666 30 -81.999s33.5 -39.666 57.5 -51.999s54.333 -18.5 91 -18.5h90c36 0 66 6.16699 90 18.5s43.167 29.666 57.5 51.999s24.333 49.666 30 81.999s8.5 68.5 8.5 108.5v217c0 40 -2.83301 76 -8.5 108
s-15.667 59.167 -30 81.5s-33.5 39.666 -57.5 51.999s-54 18.5 -90 18.5h-90c-36.667 0 -67 -6.16699 -91 -18.5s-43.167 -29.666 -57.5 -51.999s-24.333 -49.5 -30 -81.5s-8.5 -68 -8.5 -108v-217zM973 399c0 -76 -8.83301 -140.5 -26.5 -193.5s-43.5 -96.167 -77.5 -129.5
s-75.5 -57.666 -124.5 -72.999s-104.5 -23 -166.5 -23h-74c-62.667 0 -118.167 7.66699 -166.5 23s-89.166 39.666 -122.499 72.999s-58.666 76.5 -75.999 129.5s-26 117.5 -26 193.5v234c0 76 8.66699 140.5 26 193.5s42.666 96.333 75.999 130s74.166 58.167 122.499 73.5
s103.833 23 166.5 23h74c62 0 117.5 -7.66699 166.5 -23s90.5 -39.833 124.5 -73.5s59.833 -77 77.5 -130s26.5 -117.5 26.5 -193.5v-234z" />
    <glyph glyph-name="pi" unicode="&#x3c0;" horiz-adv-x="1229" 
d="M31 1024l1132 0.000976562v-160h-202v-585c0 -25.333 2.16699 -46.333 6.5 -63s10.333 -29.834 18 -39.501s17 -16.5 28 -20.5s22.833 -6 35.5 -6c13.333 0 25.666 0.5 36.999 1.5s24.666 3.16699 39.999 6.5v-164c-15.333 -4 -32.666 -7.33301 -51.999 -10
s-41.333 -4 -66 -4c-46 0 -84.833 6.16699 -116.5 18.5s-57 31 -76 56s-32.667 56.5 -41 94.5s-12.5 82.667 -12.5 134v581h-328v-864h-198v864h-205v160z" />
    <glyph glyph-name="rho" unicode="&#x3c1;" horiz-adv-x="1100" 
d="M332 -410l-199.001 -0.000976562v1067c0 53.333 9.16699 104 27.5 152s45.833 90 82.5 126s82.5 64.667 137.5 86s119.167 32 192.5 32c50 0 99.833 -5.33301 149.5 -16s94 -29 133 -55s70.667 -61.167 95 -105.5s36.5 -100.166 36.5 -167.499v-383
c0 -50 -7.83301 -96 -23.5 -138s-40 -78.5 -73 -109.5s-75 -55.167 -126 -72.5s-111.833 -26 -182.5 -26c-46.667 0 -90.667 4 -132 12s-80.666 18.333 -117.999 31v-433zM572.999 884.999c-30 0 -59.502 -4.66895 -88.502 -14.002s-54.667 -24 -77 -44
s-40.5 -45.667 -54.5 -77s-21 -69 -21 -113v-444c18.667 -6 38.334 -11.667 59.001 -17s41.5 -10.166 62.5 -14.499s41.5 -7.83301 61.5 -10.5s38.667 -4 56 -4c75.333 0 130.333 16.667 165 50s52 83 52 149v336c0 38.667 -5.5 71 -16.5 97s-26.167 46.833 -45.5 62.5
s-42.166 26.834 -68.499 33.501s-54.5 10 -84.5 10z" />
    <glyph glyph-name="sigma1" unicode="&#x3c2;" horiz-adv-x="963" 
d="M311 438c0 -34 4.67188 -66.8311 14.0049 -98.498s24.166 -59.667 44.499 -84s46.5 -44 78.5 -59s70.333 -22.5 115 -22.5c50 0 95 -4.5 135 -13.5s74 -24 102 -45s49.5 -48.333 64.5 -82s22.5 -74.834 22.5 -123.501c0 -37.333 -1.33301 -70.5 -4 -99.5
s-6.33398 -55.167 -11.001 -78.5h-167c3.33301 22.667 6.16602 44.834 8.49902 66.501s3.5 43.834 3.5 66.501c0 86 -58.667 129 -176 129c-75.333 0 -140 9.66699 -194 29s-98.333 47.5 -133 84.5s-60.167 82.167 -76.5 135.5s-24.5 113.666 -24.5 180.999v158
c0 71.333 6 132.5 18 183.5s28.333 94 49 129s44.667 62.833 72 83.5s56.333 36.667 87 48s62 18.666 94 21.999s63 5 93 5h31c47.333 0 89 -4.83301 125 -14.5s67.833 -23 95.5 -40s51.667 -37 72 -60s38.166 -47.833 53.499 -74.5l-176 -106
c-10 16.667 -20.333 32.667 -31 48s-23 28.833 -37 40.5s-30 21 -48 28s-38.667 10.5 -62 10.5h-29c-24.667 0 -49.334 -4.16699 -74.001 -12.5s-47 -24.5 -67 -48.5s-36.333 -57.333 -49 -100s-19 -98.334 -19 -167.001v-119z" />
    <glyph glyph-name="sigma" unicode="&#x3c3;" horiz-adv-x="1176" 
d="M983 399c0 -76 -10.335 -140.5 -31.002 -193.5s-49.667 -96.167 -87 -129.5s-82 -57.666 -134 -72.999s-109.333 -23 -172 -23h-37c-62.667 0 -119.167 7.66699 -169.5 23s-93.166 39.666 -128.499 72.999s-62.666 76.5 -81.999 129.5s-29 117.5 -29 193.5v158
c0 156.667 35.5 273.667 106.5 351s184.167 116 339.5 116h600v-164h-285c41.333 -38 69.833 -81.667 85.5 -131s23.5 -101.333 23.5 -156v-174zM310.998 408c0 -40 3.83105 -76.166 11.498 -108.499s19.834 -59.666 36.501 -81.999s38 -39.666 64 -51.999
s57 -18.5 93 -18.5h53c36.667 0 68.5 6.16699 95.5 18.5s49.333 29.666 67 51.999s30.834 49.666 39.501 81.999s13 68.5 13 108.5v161c0 24.667 -1.5 50 -4.5 76s-8.5 51.5 -16.5 76.5s-18.5 49.333 -31.5 73s-29.5 45.5 -49.5 65.5h-107
c-56 0 -101.333 -6.83301 -136 -20.5s-61.5 -33.834 -80.5 -60.501s-31.667 -59.667 -38 -99s-9.5 -84.333 -9.5 -135v-137z" />
    <glyph glyph-name="tau" unicode="&#x3c4;" horiz-adv-x="872" 
d="M313 864l-278.003 0.000976562v160h803v-160h-326v-569c0 -52.667 8.83301 -90 26.5 -112s47.167 -33 88.5 -33c22.667 0 44.834 1.16699 66.501 3.5s43.834 5.16602 66.501 8.49902v-168c-23.333 -4 -49.666 -7.33301 -78.999 -10s-62.333 -4 -99 -4
c-49.333 0 -91 6.33301 -125 19s-61.667 31.667 -83 57s-36.833 57 -46.5 95s-14.5 82 -14.5 132v581z" />
    <glyph glyph-name="upsilon" unicode="&#x3c5;" horiz-adv-x="1143" 
d="M575 147c91.333 0 156.834 22.167 196.501 66.5s59.5 110.5 59.5 198.5v223c0 30.667 -1.5 63.167 -4.5 97.5s-7.16699 68.666 -12.5 102.999s-11.666 67.666 -18.999 99.999s-15.666 61.833 -24.999 88.5h203c8 -20.667 15.5 -46.5 22.5 -77.5s13 -64.167 18 -99.5
s9 -71.666 12 -108.999s4.5 -72.333 4.5 -105v-234c0 -76 -11 -140.5 -33 -193.5s-53 -96.167 -93 -129.5s-87.833 -57.666 -143.5 -72.999s-117.5 -23 -185.5 -23c-70.667 0 -133.334 7.33301 -188.001 22s-100.834 37.167 -138.501 67.5s-66.334 68.666 -86.001 114.999
s-29.5 100.833 -29.5 163.5v676h199v-662c0 -30.667 4.16699 -59.167 12.5 -85.5s22 -49.166 41 -68.499s44 -34.333 75 -45s69.167 -16 114.5 -16z" />
    <glyph glyph-name="phi" unicode="&#x3c6;" horiz-adv-x="1507" 
d="M113 633c0 76 7 140.499 21 193.499s36.5 96.333 67.5 130s71.333 58.167 121 73.5s110.167 23 181.5 23v-168c-44.667 0 -79.834 -6.16699 -105.501 -18.5s-45 -29.666 -58 -51.999s-21.167 -49.5 -24.5 -81.5s-5 -68 -5 -108v-217c0 -80 23.833 -143.5 71.5 -190.5
s117.5 -70.5 209.5 -70.5h65v881c52 8 101.167 14.167 147.5 18.5s91.5 6.5 135.5 6.5c72.667 0 137.334 -7.66699 194.001 -23s104.334 -39.833 143.001 -73.5s68 -77 88 -130s30 -117.5 30 -193.5v-234c0 -76 -12 -140.5 -36 -193.5s-56.667 -96.167 -98 -129.5
s-89.5 -57.666 -144.5 -72.999s-113.833 -23 -176.5 -23h-84v-390h-199v390h-59c-72 0 -137.833 7.66699 -197.5 23s-110.834 39.666 -153.501 72.999s-75.667 76.5 -99 129.5s-35 117.5 -35 193.5v234zM950 146.999c36.667 0 70.002 6.16992 100.002 18.5029
s55.833 29.666 77.5 51.999s38.5 49.666 50.5 81.999s18 68.5 18 108.5v217c0 40 -4 76 -12 108s-21.5 59.167 -40.5 81.5s-44.333 39.666 -76 51.999s-70.834 18.5 -117.501 18.5c-6.66699 0 -14.5 -0.166992 -23.5 -0.5s-18 -1 -27 -2s-17.333 -2.16699 -25 -3.5
s-13.834 -3 -18.501 -5v-727h94z" />
    <glyph glyph-name="chi" unicode="&#x3c7;" horiz-adv-x="1065" 
d="M913 -156c6 -11.333 12.502 -22.001 19.502 -32.001s15 -18.833 24 -26.5s19.333 -13.834 31 -18.501s25.167 -7 40.5 -7s28.666 1 39.999 3s24.666 4.66699 39.999 8v-166c-15.333 -4 -31.833 -7.5 -49.5 -10.5s-38.834 -4.5 -63.501 -4.5c-28 0 -53.5 2.33301 -76.5 7
s-44 12.834 -63 24.501s-36.667 27 -53 46s-31.833 42.5 -46.5 70.5l-219 446l-314 -594h-211l424 787l-207 414c-12 25.333 -26.5 45.5 -43.5 60.5s-37.167 22.5 -60.5 22.5c-15.333 0 -30.333 -1.16699 -45 -3.5s-29.667 -5.16602 -45 -8.49902v168
c15.333 4 33.833 7.33301 55.5 10s44.834 4 69.501 4c28 0 53.167 -2.33301 75.5 -7s42.5 -12.5 60.5 -23.5s34.5 -26 49.5 -45s29.5 -42.833 43.5 -71.5l176 -365l260 492h211l-372 -680z" />
    <glyph glyph-name="psi" unicode="&#x3c8;" horiz-adv-x="1501" 
d="M1389 399c0 -76 -13.167 -140.502 -39.5 -193.502s-62 -96.167 -107 -129.5s-97.667 -57.666 -158 -72.999s-124.166 -23 -191.499 -23h-43v-390h-199v390h-59c-67.333 0 -130.166 7.66699 -188.499 23s-109 39.666 -152 72.999s-76.833 76.5 -101.5 129.5
s-37 117.5 -37 193.5v244c0 34 0.5 68.333 1.5 103s3.33301 68.334 7 101.001s9 64 16 94s16.5 57.667 28.5 83h203c-26 -64 -42.167 -128.833 -48.5 -194.5s-9.5 -130.5 -9.5 -194.5v-227c0 -40 6.5 -76.167 19.5 -108.5s31.5 -59.666 55.5 -81.999s53 -39.666 87 -51.999
s71.667 -18.5 113 -18.5h65v1067h199v-1067h53c41.333 0 79.666 6.33301 114.999 19s65.666 30.5 90.999 53.5s45.166 50.833 59.499 83.5s21.5 69 21.5 109v223c0 64 -3.16699 128.833 -9.5 194.5s-22.166 130.5 -47.499 194.5h202c12 -25.333 21.5 -53 28.5 -83
s12.333 -61.333 16 -94s6.16699 -66.334 7.5 -101.001s2 -69 2 -103v-244z" />
    <glyph glyph-name="omega" unicode="&#x3c9;" horiz-adv-x="1487" 
d="M842 606l0.00390625 -252c0 -39.333 3.66699 -72.166 11 -98.499s17.833 -47.5 31.5 -63.5s30.334 -27.5 50.001 -34.5s41.834 -10.5 66.501 -10.5c33.333 0 61.333 6.5 84 19.5s40.667 31 54 54s22.833 50.5 28.5 82.5s8.5 67 8.5 105v208c0 40 -4.33301 76.5 -13 109.5
s-22.5 61.333 -41.5 85s-43.333 42 -73 55s-65.167 19.5 -106.5 19.5v168c67.333 0 127.833 -8.16699 181.5 -24.5s99 -41.666 136 -75.999s65.333 -78.5 85 -132.5s29.5 -119 29.5 -195v-226c0 -76 -8.16699 -140.5 -24.5 -193.5s-39 -96.167 -68 -129.5
s-63.5 -57.666 -103.5 -72.999s-83.667 -23 -131 -23c-42 0 -78.5 3.5 -109.5 10.5s-58.333 16.833 -82 29.5s-44.5 28 -62.5 46s-34.667 38.333 -50 61c-15.333 -22.667 -31.833 -43 -49.5 -61s-38.334 -33.333 -62.001 -46s-51 -22.5 -82 -29.5s-67.5 -10.5 -109.5 -10.5
c-52.667 0 -99.334 7.66699 -140.001 23s-74.834 39.666 -102.501 72.999s-48.667 76.5 -63 129.5s-21.5 117.5 -21.5 193.5v226c0 76 9.83301 141 29.5 195s48.167 98.167 85.5 132.5s82.666 59.666 135.999 75.999s113.666 24.5 180.999 24.5v-168
c-41.333 0 -76.833 -6.5 -106.5 -19.5s-54 -31.333 -73 -55s-32.833 -52 -41.5 -85s-13 -69.5 -13 -109.5v-208c0 -38 1.83301 -73 5.5 -105s11.667 -59.5 24 -82.5s30 -41 53 -54s53.5 -19.5 91.5 -19.5c19.333 0 38.666 3.5 57.999 10.5s36.5 18.5 51.5 34.5
s27.167 37.167 36.5 63.5s14 59.166 14 98.499v252h197z" />
    <glyph glyph-name="iotadieresis" unicode="&#x3ca;" horiz-adv-x="580" 
d="M133 1024l198.998 0.000976562v-729c0 -52.667 8.83301 -90 26.5 -112s46.834 -33 87.501 -33c23.333 0 45.833 1.16699 67.5 3.5s43.834 5.16602 66.501 8.49902v-168c-24 -4 -50.5 -7.33301 -79.5 -10s-62.167 -4 -99.5 -4c-48.667 0 -90.167 6.33301 -124.5 19
s-62 31.667 -83 57s-36.333 57 -46 95s-14.5 82 -14.5 132v741zM187.998 1358v-199h-198v199h198zM556.998 1358v-199h-199v199h199z" />
    <glyph glyph-name="upsilondieresis" unicode="&#x3cb;" horiz-adv-x="1143" 
d="M575 147c91.333 0 156.834 22.167 196.501 66.5s59.5 110.5 59.5 198.5v223c0 30.667 -1.5 63.167 -4.5 97.5s-7.16699 68.666 -12.5 102.999s-11.666 67.666 -18.999 99.999s-15.666 61.833 -24.999 88.5h203c8 -20.667 15.5 -46.5 22.5 -77.5s13 -64.167 18 -99.5
s9 -71.666 12 -108.999s4.5 -72.333 4.5 -105v-234c0 -76 -11 -140.5 -33 -193.5s-53 -96.167 -93 -129.5s-87.833 -57.666 -143.5 -72.999s-117.5 -23 -185.5 -23c-70.667 0 -133.334 7.33301 -188.001 22s-100.834 37.167 -138.501 67.5s-66.334 68.666 -86.001 114.999
s-29.5 100.833 -29.5 163.5v676h199v-662c0 -30.667 4.16699 -59.167 12.5 -85.5s22 -49.166 41 -68.499s44 -34.333 75 -45s69.167 -16 114.5 -16zM493.001 1358v-199h-198v199h198zM862.001 1358v-199h-199v199h199z" />
    <glyph glyph-name="omicrontonos" unicode="&#x3cc;" horiz-adv-x="1085" 
d="M311 408c0 -40 2.83301 -76.167 8.5 -108.5s15.667 -59.666 30 -81.999s33.5 -39.666 57.5 -51.999s54.333 -18.5 91 -18.5h90c36 0 66 6.16699 90 18.5s43.167 29.666 57.5 51.999s24.333 49.666 30 81.999s8.5 68.5 8.5 108.5v217c0 40 -2.83301 76 -8.5 108
s-15.667 59.167 -30 81.5s-33.5 39.666 -57.5 51.999s-54 18.5 -90 18.5h-90c-36.667 0 -67 -6.16699 -91 -18.5s-43.167 -29.666 -57.5 -51.999s-24.333 -49.5 -30 -81.5s-8.5 -68 -8.5 -108v-217zM973 399c0 -76 -8.83301 -140.5 -26.5 -193.5s-43.5 -96.167 -77.5 -129.5
s-75.5 -57.666 -124.5 -72.999s-104.5 -23 -166.5 -23h-74c-62.667 0 -118.167 7.66699 -166.5 23s-89.166 39.666 -122.499 72.999s-58.666 76.5 -75.999 129.5s-26 117.5 -26 193.5v234c0 76 8.66699 140.5 26 193.5s42.666 96.333 75.999 130s74.166 58.167 122.499 73.5
s103.833 23 166.5 23h74c62 0 117.5 -7.66699 166.5 -23s90.5 -39.833 124.5 -73.5s59.833 -77 77.5 -130s26.5 -117.5 26.5 -193.5v-234zM572 1434h233v-15l-217 -280h-158v10z" />
    <glyph glyph-name="upsilontonos" unicode="&#x3cd;" horiz-adv-x="1143" 
d="M575 147c91.333 0 156.834 22.167 196.501 66.5s59.5 110.5 59.5 198.5v223c0 30.667 -1.5 63.167 -4.5 97.5s-7.16699 68.666 -12.5 102.999s-11.666 67.666 -18.999 99.999s-15.666 61.833 -24.999 88.5h203c8 -20.667 15.5 -46.5 22.5 -77.5s13 -64.167 18 -99.5
s9 -71.666 12 -108.999s4.5 -72.333 4.5 -105v-234c0 -76 -11 -140.5 -33 -193.5s-53 -96.167 -93 -129.5s-87.833 -57.666 -143.5 -72.999s-117.5 -23 -185.5 -23c-70.667 0 -133.334 7.33301 -188.001 22s-100.834 37.167 -138.501 67.5s-66.334 68.666 -86.001 114.999
s-29.5 100.833 -29.5 163.5v676h199v-662c0 -30.667 4.16699 -59.167 12.5 -85.5s22 -49.166 41 -68.499s44 -34.333 75 -45s69.167 -16 114.5 -16zM574.001 1434h233v-15l-217 -280h-158v10z" />
    <glyph glyph-name="omegatonos" unicode="&#x3ce;" horiz-adv-x="1487" 
d="M842 606l0.00390625 -252c0 -39.333 3.66699 -72.166 11 -98.499s17.833 -47.5 31.5 -63.5s30.334 -27.5 50.001 -34.5s41.834 -10.5 66.501 -10.5c33.333 0 61.333 6.5 84 19.5s40.667 31 54 54s22.833 50.5 28.5 82.5s8.5 67 8.5 105v208c0 40 -4.33301 76.5 -13 109.5
s-22.5 61.333 -41.5 85s-43.333 42 -73 55s-65.167 19.5 -106.5 19.5v168c67.333 0 127.833 -8.16699 181.5 -24.5s99 -41.666 136 -75.999s65.333 -78.5 85 -132.5s29.5 -119 29.5 -195v-226c0 -76 -8.16699 -140.5 -24.5 -193.5s-39 -96.167 -68 -129.5
s-63.5 -57.666 -103.5 -72.999s-83.667 -23 -131 -23c-42 0 -78.5 3.5 -109.5 10.5s-58.333 16.833 -82 29.5s-44.5 28 -62.5 46s-34.667 38.333 -50 61c-15.333 -22.667 -31.833 -43 -49.5 -61s-38.334 -33.333 -62.001 -46s-51 -22.5 -82 -29.5s-67.5 -10.5 -109.5 -10.5
c-52.667 0 -99.334 7.66699 -140.001 23s-74.834 39.666 -102.501 72.999s-48.667 76.5 -63 129.5s-21.5 117.5 -21.5 193.5v226c0 76 9.83301 141 29.5 195s48.167 98.167 85.5 132.5s82.666 59.666 135.999 75.999s113.666 24.5 180.999 24.5v-168
c-41.333 0 -76.833 -6.5 -106.5 -19.5s-54 -31.333 -73 -55s-32.833 -52 -41.5 -85s-13 -69.5 -13 -109.5v-208c0 -38 1.83301 -73 5.5 -105s11.667 -59.5 24 -82.5s30 -41 53 -54s53.5 -19.5 91.5 -19.5c19.333 0 38.666 3.5 57.999 10.5s36.5 18.5 51.5 34.5
s27.167 37.167 36.5 63.5s14 59.166 14 98.499v252h197zM785.004 1434h233v-15l-217 -280h-158v10z" />
    <glyph glyph-name="endash" unicode="&#x2013;" horiz-adv-x="1024" 
d="M1034 621v-172h-1044v172h1044z" />
    <glyph glyph-name="emdash" unicode="&#x2014;" horiz-adv-x="2048" 
d="M2058 621v-172h-2068v172h2068z" />
    <glyph glyph-name="afii00208" unicode="&#x2015;" horiz-adv-x="2048" 
d="M2058 621v-172h-2068v172h2068z" />
    <glyph glyph-name="quoteleft" unicode="&#x2018;" horiz-adv-x="399" 
d="M82 958v191l106 264h170l-79 -264v-191h-197z" />
    <glyph glyph-name="quoteright" unicode="&#x2019;" horiz-adv-x="399" 
d="M317 1413v-190l-106 -265h-170l80 265v190h196z" />
    <glyph glyph-name="quotesinglbase" unicode="&#x201a;" horiz-adv-x="444" 
d="M322 240v-191l-109 -264h-170l80 264v191h199z" />
    <glyph glyph-name="quotedblleft" unicode="&#x201c;" horiz-adv-x="723" 
d="M403 958v191l107 264h170l-80 -264v-191h-197zM82 958v191l106 264h170l-79 -264v-191h-197z" />
    <glyph glyph-name="quotedblright" unicode="&#x201d;" horiz-adv-x="723" 
d="M319 1413v-190l-106 -265h-170l80 265v190h196zM641 1413v-190l-106 -265h-170l79 265v190h197z" />
    <glyph glyph-name="quotedblbase" unicode="&#x201e;" horiz-adv-x="723" 
d="M317 256v-190l-106 -265h-170l80 265v190h196zM639 256v-190l-107 -265h-170l80 265v190h197z" />
    <glyph glyph-name="dagger" unicode="&#x2020;" horiz-adv-x="893" 
d="M371 -207l-25 1030l-305 -30v231l303 -35l-14 424h231l-14 -424l305 35v-231l-309 30l-23 -1030h-149z" />
    <glyph glyph-name="daggerdbl" unicode="&#x2021;" horiz-adv-x="893" 
d="M530 381l322 33v-232l-313 35l28 -424h-241l26 424l-311 -35v232l319 -33l15 221l-15 223l-319 -32v231l311 -35l-26 424h241l-28 -424l313 35v-231l-322 32l-14 -223z" />
    <glyph glyph-name="bullet" unicode="&#x2022;" horiz-adv-x="758" 
d="M379 991c35.333 0 68.666 -7.00098 99.999 -21.001s58.833 -32.833 82.5 -56.5s42.5 -51.167 56.5 -82.5s21 -64.666 21 -99.999s-7 -68.666 -21 -99.999s-32.833 -58.833 -56.5 -82.5s-51.167 -42.5 -82.5 -56.5s-64.666 -21 -99.999 -21s-68.666 7 -99.999 21
s-58.833 32.833 -82.5 56.5s-42.5 51.167 -56.5 82.5s-21 64.666 -21 99.999c0 39.333 7 74.833 21 106.5s32.833 59 56.5 82s51.167 40.667 82.5 53s64.666 18.5 99.999 18.5z" />
    <glyph glyph-name="ellipsis" unicode="&#x2026;" horiz-adv-x="1339" 
d="M324 260v-260h-201v260h201zM770 260v-260h-201v260h201zM1217 260v-260h-201v260h201z" />
    <glyph glyph-name="perthousand" unicode="&#x2030;" horiz-adv-x="2585" 
d="M72 1104c0 61.333 8.16699 113 24.5 155s39.166 76.167 68.499 102.5s64.833 45.333 106.5 57s87.834 17.5 138.501 17.5h6c50.667 0 96.834 -5.83301 138.501 -17.5s77.5 -30.667 107.5 -57s53.167 -60.5 69.5 -102.5s24.5 -93.667 24.5 -155v-160
c0 -60.667 -8.16699 -112.167 -24.5 -154.5s-39.5 -76.666 -69.5 -102.999s-65.833 -45.333 -107.5 -57s-87.834 -17.5 -138.501 -17.5h-6c-50.667 0 -96.834 5.83301 -138.501 17.5s-77.167 30.667 -106.5 57s-52.166 60.666 -68.499 102.999s-24.5 93.833 -24.5 154.5v160
zM260 961c0 -28 2 -53.5 6 -76.5s11.167 -42.5 21.5 -58.5s24.833 -28.333 43.5 -37s42.667 -13 72 -13h23c29.333 0 53.166 4.33301 71.499 13s32.666 21 42.999 37s17.333 35.5 21 58.5s5.5 48.5 5.5 76.5v126c0 28 -1.83301 53.5 -5.5 76.5s-10.667 42.5 -21 58.5
s-24.666 28.333 -42.999 37s-42.166 13 -71.499 13h-23c-29.333 0 -53.333 -4.33301 -72 -13s-33.167 -21 -43.5 -37s-17.5 -35.5 -21.5 -58.5s-6 -48.5 -6 -76.5v-126zM1350 1436l-707 -1436h-199l707 1436h199zM1044 492c0 60.667 8.16699 112 24.5 154
s39.333 76.167 69 102.5s65.167 45.333 106.5 57s87.333 17.5 138 17.5h7c50.667 0 96.834 -5.83301 138.501 -17.5s77.5 -30.667 107.5 -57s53.167 -60.5 69.5 -102.5s24.5 -93.333 24.5 -154v-160c0 -60.667 -8.16699 -112.167 -24.5 -154.5s-39.5 -76.666 -69.5 -102.999
s-65.833 -45.333 -107.5 -57s-87.834 -17.5 -138.501 -17.5h-7c-50.667 0 -96.667 5.83301 -138 17.5s-76.833 30.667 -106.5 57s-52.667 60.666 -69 102.999s-24.5 93.833 -24.5 154.5v160zM1233 348c0 -28 1.83301 -53.333 5.5 -76s10.834 -42 21.501 -58
s25.167 -28.333 43.5 -37s42.5 -13 72.5 -13h23c29.333 0 53.166 4.33301 71.499 13s32.666 21 42.999 37s17.333 35.333 21 58s5.5 48 5.5 76v127c0 28 -1.83301 53.333 -5.5 76s-10.667 42 -21 58s-24.666 28.333 -42.999 37s-42.166 13 -71.499 13h-23
c-30 0 -54.167 -4.33301 -72.5 -13s-32.833 -21 -43.5 -37s-17.834 -35.333 -21.501 -58s-5.5 -48 -5.5 -76v-127zM1829 492c0 60.667 8.16797 112 24.501 154s39.166 76.167 68.499 102.5s64.833 45.333 106.5 57s87.834 17.5 138.5 17.5h6
c50.667 0 96.834 -5.83301 138.5 -17.5c41.667 -11.667 77.5 -30.667 107.5 -57s53.167 -60.5 69.5 -102.5s24.5 -93.333 24.5 -154v-160c0 -60.667 -8.16699 -112.167 -24.5 -154.5s-39.5 -76.666 -69.5 -102.999s-65.833 -45.333 -107.5 -57s-87.834 -17.5 -138.5 -17.5
h-6c-50.667 0 -96.834 5.83301 -138.501 17.5s-77.167 30.667 -106.5 57s-52.166 60.666 -68.499 102.999s-24.5 93.833 -24.5 154.5v160zM2017 348c0 -28 1.99902 -53.333 5.99902 -76s11.167 -42 21.5 -58s24.833 -28.333 43.5 -37s43 -13 73 -13h22
c29.333 0 53.166 4.33301 71.5 13c18.333 8.66699 32.666 21 43 37c10.333 16 17.333 35.333 21 58s5.5 48 5.5 76v127c0 28 -1.83301 53.333 -5.5 76s-10.667 42 -21 58s-24.666 28.333 -43 37c-18.333 8.66699 -42.166 13 -71.499 13h-22c-30 0 -54.333 -4.33301 -73 -13
s-33.167 -21 -43.5 -37s-17.5 -35.333 -21.5 -58s-6 -48 -6 -76v-127z" />
    <glyph glyph-name="guilsinglleft" unicode="&#x2039;" horiz-adv-x="508" 
d="M416 944h10v-188l-188 -242l188 -244v-190h-10l-334 350v166z" />
    <glyph glyph-name="guilsinglright" unicode="&#x203a;" horiz-adv-x="508" 
d="M426 596v-166l-334 -350h-10v190l188 244l-188 242v188h10z" />
    <glyph glyph-name="fraction" unicode="&#x2044;" horiz-adv-x="367" 
d="M797 1436l-1028 -1456h-199l1028 1456h199z" />
    <glyph glyph-name="Won" unicode="&#x20a9;" horiz-adv-x="1806" 
d="M49 932h141l-108 481h201l94 -481h299l106 481h242l106 -481h300l94 481h200l-110 -481h143v-133h-172l-47 -205h219v-133h-248l-104 -461h-236l-102 461h-328l-102 -461h-236l-104 461h-248v133h217l-47 205h-170v133zM768 594h268l-45 205h-176zM604 602l43 197h-244
l37 -189l2 -16h160zM1364 602l39 197h-244l43 -195l2 -10h158zM842 932h121l-60 309zM524 172l54 289h-109zM1282 172l55 289h-108z" />
    <glyph glyph-name="Euro" unicode="&#x20ac;" 
d="M797 932v-174.002h-410v-123h410v-174h-410v-68c0 -35.333 4.66699 -67.333 14 -96s23.333 -53.167 42 -73.5s42 -36 70 -47s60.333 -16.5 97 -16.5h25c38 0 75.167 7.5 111.5 22.5s69.666 33 99.999 54s56.666 42.833 78.999 65.5s38.833 41.334 49.5 56.001v-221
c-10 -14.667 -25.333 -31.167 -46 -49.5s-45.667 -35.5 -75 -51.5s-63.166 -29.333 -101.499 -40s-80.166 -16 -125.499 -16h-23c-136.667 0 -241.167 33.833 -313.5 101.5s-108.5 167.5 -108.5 299.5v80h-116v174h116v123h-116v174h116v106
c0 62.667 8.66699 118.5 26 167.5s42.5 90.5 75.5 124.5s73.167 59.833 120.5 77.5s101 26.5 161 26.5h33c50.667 0 97.167 -7.33301 139.5 -22s79.5 -35 111.5 -61s58.5 -56.5 79.5 -91.5s35.833 -73.167 44.5 -114.5l-195 -43c-4 25.333 -12 47.333 -24 66
s-26.667 34.334 -44 47.001s-36.5 22.167 -57.5 28.5s-42.5 9.5 -64.5 9.5h-13c-28.667 0 -54.5 -4.5 -77.5 -13.5s-42.667 -23.333 -59 -43s-29 -44.5 -38 -74.5s-13.5 -66 -13.5 -108v-82h410z" />
    <glyph glyph-name="trademark" unicode="&#x2122;" horiz-adv-x="1442" 
d="M1020 899l-86.001 -0.000976562l-139 229c-2 2 -4.83301 6.5 -8.5 13.5l-12.5 23c-4.66699 8.33301 -9 16.666 -13 24.999s-7 15.166 -9 20.499c1.33301 -14 2.33301 -28.167 3 -42.5s1 -28.833 1 -43.5v-442h-123v731h125l186 -307c4 -6 9.5 -16.167 16.5 -30.5
s12.5 -26.833 16.5 -37.5c4 10.667 9.33301 23.167 16 37.5s12.334 24.5 17.001 30.5l186 307h129v-731h-127v444c0 14.667 0.333008 28.834 1 42.501s1.66699 27.5 3 41.5c-2 -5.33301 -5 -12.166 -9 -20.499s-8.33301 -16.666 -13 -24.999l-13 -23
c-4 -7 -6.66699 -11.5 -8 -13.5zM245.999 1292h-195v121h529v-121h-193v-610h-141v610z" />
    <glyph glyph-name="minus" unicode="&#x2212;" 
d="M965 780v-170h-883v170h883z" />
    <glyph glyph-name="notequal" unicode="&#x2260;" 
d="M535 977l81 217h183l-82 -217h248v-170h-310l-84 -223h394v-170h-455l-80 -217h-182l80 217h-246v170h307l84 223h-391v170h453z" />
    <glyph glyph-name="lessequal" unicode="&#x2264;" 
d="M246 778l719 -280v-191l-883 371v201l883 370v-190zM965 260v-170h-883v170h883z" />
    <glyph glyph-name="greaterequal" unicode="&#x2265;" 
d="M82 1059v190l883 -370v-201l-883 -371v191l719 280zM965 260v-170h-883v170h883z" />
    <glyph glyph-name="uniFB01" unicode="&#xfb01;" horiz-adv-x="1137" 
d="M35 1024l130.998 0.000976562v61c0 54 5.16699 102 15.5 144s27.5 77.5 51.5 106.5s56 51.167 96 66.5s90 23 150 23c37.333 0 69.333 -1.33301 96 -4s51.334 -6 74.001 -10v-164c-20.667 4 -42 7.83301 -64 11.5s-46.333 5.5 -73 5.5c-24.667 0 -46.167 -2 -64.5 -6
s-33.666 -12.333 -45.999 -25s-21.5 -30.334 -27.5 -53.001s-9 -52.667 -9 -90v-66h272v-160h-272v-864h-199v864h-131v160zM992.998 1024v-1024h-199v1024h199zM992.998 1413v-199h-199v199h199z" />
    <glyph glyph-name="uniFB02" unicode="&#xfb02;" horiz-adv-x="1231" 
d="M35 1024l130.998 0.000976562v61c0 54 5.16699 102 15.5 144s27.5 77.5 51.5 106.5s56 51.167 96 66.5s90 23 150 23c37.333 0 69.333 -1.33301 96 -4s51.334 -6 74.001 -10v-164c-20.667 4 -42 7.83301 -64 11.5s-46.333 5.5 -73 5.5c-24.667 0 -46.167 -2 -64.5 -6
s-33.666 -12.333 -45.999 -25s-21.5 -30.334 -27.5 -53.001s-9 -52.667 -9 -90v-66h272v-160h-272v-864h-199v864h-131v160zM783.998 1413l198.998 0.000976562v-1118c0 -52.667 8.83301 -90 26.5 -112s46.834 -33 87.501 -33c23.333 0 45.833 1.16699 67.5 3.5
s43.834 5.16602 66.501 8.49902v-168c-24 -4 -50.5 -7.33301 -79.5 -10s-62.167 -4 -99.5 -4c-48.667 0 -90.167 6.33301 -124.5 19s-62 31.667 -83 57s-36.333 57 -46 95s-14.5 82 -14.5 132v1130z" />
    <glyph glyph-name="acute.uc" horiz-adv-x="494" 
d="M242 1819h233v-15l-299 -280h-158v10z" />
    <glyph glyph-name="grave.uc" horiz-adv-x="494" 
d="M477 1534v-10h-158l-299 280v15h234z" />
    <glyph glyph-name="dieresis.uc" horiz-adv-x="543" 
d="M186 1722v-198h-198v198h198zM555 1722v-198h-199v198h199z" />
    <glyph glyph-name="circumflex.uc" horiz-adv-x="678" 
d="M203 1819h272l203 -285v-10h-158l-182 168l-180 -168h-158v10z" />
    <glyph glyph-name="tilde.uc" horiz-adv-x="653" 
d="M633 1604c-25.333 -30 -49.999 -50.834 -73.999 -62.501s-52 -17.5 -84 -17.5c-20.667 0 -43.834 4.66699 -69.501 14s-51.834 19.5 -78.501 30.5s-53.5 21 -80.5 30s-52.5 13.5 -76.5 13.5c-30.667 0 -57.334 -7.66699 -80.001 -23s-46 -37 -70 -65v180
c19.333 25.333 42.666 45.666 69.999 60.999s57.333 23 90 23c28 0 54.833 -4.66699 80.5 -14s50.834 -19.666 75.501 -30.999s49.334 -21.666 74.001 -30.999s50.334 -14 77.001 -14c26 0 51.667 8.33301 77 25s48.333 39 69 67v-186v0z" />
    <glyph glyph-name="breve.uc" horiz-adv-x="584" 
d="M291 1524c-50 0 -92.999 8.33301 -128.999 25s-65.833 38.834 -89.5 66.501s-41.334 59.167 -53.001 94.5s-18.167 71.666 -19.5 108.999h119c6 -108 63.333 -162 172 -162c53.333 0 94.5 13.5 123.5 40.5s45.167 67.5 48.5 121.5h119
c-2 -37.333 -8.83301 -73.666 -20.5 -108.999s-29.167 -66.833 -52.5 -94.5s-53 -49.834 -89 -66.501s-79 -25 -129 -25z" />
    <glyph glyph-name="macron.uc" horiz-adv-x="606" 
d="M586 1524h-566v127h566v-127z" />
    <glyph glyph-name="dotaccent.uc" horiz-adv-x="174" 
d="M166 1722v-198h-158v198h158z" />
    <glyph glyph-name="ring.uc" horiz-adv-x="584" 
d="M66 1753c0 31.333 6 60.833 18 88.5s28.167 51.667 48.5 72s44.333 36.5 72 48.5s57.167 18 88.5 18c32 0 61.667 -6 89 -18s51.333 -28.167 72 -48.5s36.834 -44.333 48.501 -72s17.5 -57.167 17.5 -88.5c0 -32 -5.83301 -61.833 -17.5 -89.5
s-27.834 -51.834 -48.501 -72.501s-44.667 -37 -72 -49s-57 -18 -89 -18c-31.333 0 -60.833 6 -88.5 18s-51.667 28.333 -72 49s-36.5 44.834 -48.5 72.501s-18 57.5 -18 89.5zM190 1753c0 -14 2.66699 -27.335 8 -40.002s12.666 -23.5 21.999 -32.5
s20.333 -16.167 33 -21.5s26 -8 40 -8c28.667 0 52.834 9.83301 72.501 29.5s29.5 43.834 29.5 72.501s-9.83301 52.834 -29.5 72.501s-43.834 29.5 -72.501 29.5c-14 0 -27.333 -2.66699 -40 -8s-23.667 -12.5 -33 -21.5s-16.666 -19.833 -21.999 -32.5s-8 -26 -8 -40z" />
    <glyph glyph-name="caron.uc" horiz-adv-x="584" 
d="M-49 1808v11h158l180 -168l182 168h158v-11l-203 -284h-272z" />
    <glyph glyph-name="hungarumlaut.uc" horiz-adv-x="793" 
d="M203 1819h233v-15l-258 -280h-158v10zM539 1819h233v-15l-258 -280h-158v10z" />
    <glyph glyph-name="foursuperior" horiz-adv-x="778" 
d="M752 913v-157h-105v-191h-178v191h-446v147l423 510h201v-500h105zM219 913h250v310z" />
    </font>
</defs>
</svg>
