<?xml version="1.0" standalone="no"?>
<!DOCTYPE svg PUBLIC "-//W3C//DTD SVG 1.1//EN" "http://www.w3.org/Graphics/SVG/1.1/DTD/svg11.dtd" >
<svg>
<metadata>
Created by FontForge 20090914 at Mon Feb  4 06:39:33 2019
 By www-data
&#194;&#169; 2005 Microsoft Corporation. All Rights Reserved.
</metadata>
<defs>
<font id="Convection" horiz-adv-x="1047" >
  <font-face 
    font-family="Convection"
    font-weight="400"
    font-stretch="normal"
    units-per-em="2048"
    panose-1="2 11 6 4 4 5 1 4 2 3"
    ascent="1638"
    descent="-410"
    x-height="1024"
    cap-height="1413"
    bbox="-410 -410.002 2423 1980"
    underline-thickness="102"
    underline-position="-103"
    unicode-range="U+000D-U+FB02"
  />
<missing-glyph horiz-adv-x="492" 
 />
    <glyph glyph-name=".notdef" horiz-adv-x="492" 
 />
    <glyph glyph-name=".null" horiz-adv-x="0" 
 />
    <glyph glyph-name=".null" horiz-adv-x="0" 
 />
    <glyph glyph-name="nonmarkingreturn" unicode="&#xd;" horiz-adv-x="492" 
 />
    <glyph glyph-name="space" unicode=" " horiz-adv-x="492" 
 />
    <glyph glyph-name="exclam" unicode="!" horiz-adv-x="559" 
d="M215 406l-35 1007h199l-35 -1007h-129zM383 240v-240h-199v240h199z" />
    <glyph glyph-name="quotedbl" unicode="&#x22;" horiz-adv-x="793" 
d="M143 918l-41 495h191l-41 -495h-109zM541 918l-41 495h190l-41 -495h-108z" />
    <glyph glyph-name="numbersign" unicode="#" horiz-adv-x="1149" 
d="M870 868l-67 -344h264v-141h-293l-82 -424h-121l84 424h-288l-84 -424h-119l82 424h-164v141h192l68 344h-260v142h287l88 444h121l-89 -444h289l88 444h119l-88 -444h170v-142h-197zM393 524h289l68 344h-289z" />
    <glyph glyph-name="dollar" unicode="$" horiz-adv-x="1024" 
d="M442 -84v185.998c-36 2 -71.667 6.5 -107 13.5s-69.166 16.667 -101.499 29s-62.5 27.333 -90.5 45s-53 38.5 -75 62.5v194c45.333 -58 100.833 -104 166.5 -138s134.834 -54 207.501 -60v416l-32 10c-48 14.667 -91.833 31 -131.5 49s-73.667 38.667 -102 62
s-50.5 50.333 -66.5 81s-24 66.334 -24 107.001v41c0 40.667 8 78.167 24 112.5s39.167 64.5 69.5 90.5s67.666 47 111.999 63s94.5 25.667 150.5 29v155h117v-153c104 -3.33301 187.5 -28.5 250.5 -75.5s105.833 -118.167 128.5 -213.5l-158 -37
c-6.66699 34.667 -17.167 63.5 -31.5 86.5s-31.333 41.5 -51 55.5s-41.334 24.167 -65.001 30.5s-48.167 10.166 -73.5 11.499v-378l107 -33c43.333 -14 82.833 -29.667 118.5 -47s66 -37.166 91 -59.499s44.333 -47.666 58 -75.999s20.5 -60.5 20.5 -96.5v-69
c0 -42.667 -9.16699 -82.5 -27.5 -119.5s-44.5 -69.333 -78.5 -97s-75.333 -49.5 -124 -65.5s-103.667 -24.667 -165 -26v-186h-117zM793 450.998c0 22 -3.49902 40.834 -10.499 56.501s-17.833 29.334 -32.5 41.001s-32.834 22.167 -54.501 31.5s-47.5 18.666 -77.5 27.999
l-59 19v-381c72 3.33301 129 19.166 171 47.499s63 69.833 63 124.5v33zM246.001 982.999c0 -22.667 6.66602 -42.332 19.999 -58.999s29.833 -31 49.5 -43s40.834 -22.167 63.501 -30.5s43.667 -15.5 63 -21.5v338c-28.667 -2.66699 -55 -7.83398 -79 -15.501
s-44.667 -18.167 -62 -31.5s-30.833 -29.333 -40.5 -48s-14.5 -40.667 -14.5 -66v-23z" />
    <glyph glyph-name="percent" unicode="%" horiz-adv-x="1759" 
d="M92 1104c0 61.333 7 113 21 155s34.5 76.167 61.5 102.5s60.333 45.333 100 57s84.834 17.5 135.501 17.5h6c50.667 0 95.667 -5.83301 135 -17.5s72.666 -30.667 99.999 -57s48.166 -60.5 62.499 -102.5s21.5 -93.667 21.5 -155v-160
c0 -60.667 -7.16699 -112.167 -21.5 -154.5s-35.166 -76.666 -62.499 -102.999s-60.666 -45.333 -99.999 -57s-84.333 -17.5 -135 -17.5h-6c-50.667 0 -95.834 5.83301 -135.501 17.5s-73 30.667 -100 57s-47.5 60.666 -61.5 102.999s-21 93.833 -21 154.5v160zM240 961
c0 -77.333 12.333 -133.666 37 -168.999s66.667 -53 126 -53h23c58.667 0 100.334 17.667 125.001 53s37 91.666 37 168.999v126c0 77.333 -12.333 133.666 -37 168.999s-66.334 53 -125.001 53h-23c-59.333 0 -101.333 -17.667 -126 -53s-37 -91.666 -37 -168.999v-126z
M1329 1436l-747 -1436h-158l747 1436h158zM1024 492c0 60.667 7 112 21 154s34.5 76.167 61.5 102.5s60.167 45.333 99.5 57s84.333 17.5 135 17.5h7c50.667 0 95.667 -5.83301 135 -17.5s72.666 -30.667 99.999 -57s48.166 -60.5 62.499 -102.5s21.5 -93.333 21.5 -154
v-160c0 -60.667 -7.16699 -112.167 -21.5 -154.5s-35.166 -76.666 -62.499 -102.999s-60.666 -45.333 -99.999 -57s-84.333 -17.5 -135 -17.5h-7c-50.667 0 -95.667 5.83301 -135 17.5s-72.5 30.667 -99.5 57s-47.5 60.666 -61.5 102.999s-21 93.833 -21 154.5v160z
M1171 348c0 -76.667 12.5 -132.667 37.5 -168s67.167 -53 126.5 -53h23c58.667 0 100.334 17.667 125.001 53s37 91.333 37 168v127c0 77.333 -12.333 133.5 -37 168.5s-66.334 52.5 -125.001 52.5h-23c-59.333 0 -101.5 -17.5 -126.5 -52.5s-37.5 -91.167 -37.5 -168.5
v-127z" />
    <glyph glyph-name="ampersand" unicode="&#x26;" horiz-adv-x="1282" 
d="M467 -16c-70 0 -129.002 7.16895 -177.002 21.502s-86.667 37.166 -116 68.499s-50.333 71.833 -63 121.5s-19 110.167 -19 181.5v57c0 52 4.33301 97.333 13 136s23.334 73 44.001 103s47.834 56.5 81.501 79.5s75.5 44.5 125.5 64.5c-30 58 -52.5 110 -67.5 156
s-22.5 89 -22.5 129v45c0 45.333 5.66699 84.666 17 117.999s29.5 61 54.5 83s57 38.333 96 49s86.167 16 141.5 16h11c55.333 0 101.833 -5.16699 139.5 -15.5s68.167 -26.5 91.5 -48.5s40.166 -50 50.499 -84s15.5 -74.667 15.5 -122v-21
c0 -54.667 -6.16699 -100.5 -18.5 -137.5s-31.333 -69 -57 -96s-58.5 -50.833 -98.5 -71.5s-88 -42.334 -144 -65.001l146 -256l22.5 -40.5l26 -46l26.5 -45.5c8.66699 -14.667 17 -27.334 25 -38.001c32.667 38.667 62.334 78.834 89.001 120.501s49.5 85.167 68.5 130.5
s33.667 92.333 44 141s15.5 99.334 15.5 152.001h156c0 -112 -24.833 -221.833 -74.5 -329.5s-121.167 -216.167 -214.5 -325.5c28.667 -34 56.5 -58.167 83.5 -72.5s56.5 -21.5 88.5 -21.5c17.333 0 35.333 2 54 6s36.834 8.83301 54.501 14.5s34 12 49 19
s27.5 13.5 37.5 19.5v-145c-19.333 -12.667 -46.166 -25 -80.499 -37s-72.5 -18 -114.5 -18c-34 0 -64.333 3 -91 9s-50.834 14.333 -72.501 25s-41.5 23.5 -59.5 38.5s-35 31.5 -51 49.5c-18.667 -17.333 -39 -33.166 -61 -47.499s-46.167 -26.833 -72.5 -37.5
s-55.333 -18.834 -87 -24.501s-66.834 -8.5 -105.501 -8.5zM421.998 696.002l-23 -8.00195c-34 -13.333 -60.833 -27.833 -80.5 -43.5s-34.5 -34.167 -44.5 -55.5s-16.5 -45.833 -19.5 -73.5s-4.5 -60.167 -4.5 -97.5v-29c0 -52 3.66699 -95.333 11 -130
s19.833 -62.167 37.5 -82.5s41 -34.666 70 -42.999s65.167 -12.5 108.5 -12.5c47.333 0 90.5 8.33301 129.5 25s73.167 38.334 102.5 65.001c-19.333 28 -39 58.667 -59 92l-64 109zM724.998 1145c0 39.333 -9.50098 70.333 -28.501 93s-52.5 34 -100.5 34h-33
c-43.333 0 -77.333 -9.33301 -102 -28s-37 -53 -37 -103v-41c0 -32 7 -67.5 21 -106.5s32.333 -80.167 55 -123.5c41.333 16 76.333 30.667 105 44s51.834 28.333 69.501 45s30.5 36.5 38.5 59.5s12 52.167 12 87.5v39z" />
    <glyph glyph-name="quotesingle" unicode="'" horiz-adv-x="395" 
d="M143 918l-41 495h191l-41 -495h-109z" />
    <glyph glyph-name="parenleft" unicode="(" horiz-adv-x="514" 
d="M494 -266c-64 0 -121.5 17.4951 -172.5 52.4951s-94.167 84.833 -129.5 149.5s-62.5 142.834 -81.5 234.501s-28.5 193.834 -28.5 306.501v213c0 113.333 9.5 215.833 28.5 307.5s46.167 169.834 81.5 234.501s78.5 114.5 129.5 149.5s108.5 52.5 172.5 52.5v-148
c-36.667 0 -70.334 -13.167 -101.001 -39.5s-56.834 -65.166 -78.501 -116.499s-38.5 -114.5 -50.5 -189.5s-18 -161.167 -18 -258.5v-197c0 -97.333 6 -183.5 18 -258.5s28.833 -138.167 50.5 -189.5s47.834 -90.166 78.501 -116.499s64.334 -39.5 101.001 -39.5v-147z" />
    <glyph glyph-name="parenright" unicode=")" horiz-adv-x="514" 
d="M20 -119c37.333 0 71.166 13.1719 101.499 39.5049s56.333 65.166 78 116.499s38.5 114.5 50.5 189.5s18 161.167 18 258.5v197c0 97.333 -6 183.5 -18 258.5s-28.833 138.167 -50.5 189.5s-47.667 90.166 -78 116.499s-64.166 39.5 -101.499 39.5v148
c64 0 121.5 -17.5 172.5 -52.5s94.167 -84.833 129.5 -149.5s62.5 -142.834 81.5 -234.501s28.5 -194.167 28.5 -307.5v-213c0 -112.667 -9.5 -214.834 -28.5 -306.501s-46.167 -169.834 -81.5 -234.501s-78.5 -114.5 -129.5 -149.5s-108.5 -52.5 -172.5 -52.5v147z" />
    <glyph glyph-name="asterisk" unicode="*" horiz-adv-x="1024" 
d="M834 707l-285 219l47 -359h-170l47 357l-285 -217l-84 147l330 137l-332 137l84 148l285 -219l-45 356h170l-47 -356l287 221l86 -148l-334 -139l332 -137z" />
    <glyph glyph-name="plus" unicode="+" 
d="M594 1139v-373h371v-141h-371v-369h-141v369h-371v141h371v373h141z" />
    <glyph glyph-name="comma" unicode="," horiz-adv-x="403" 
d="M281 240v-191l-109 -264h-129l80 264v191h158z" />
    <glyph glyph-name="hyphen" unicode="-" horiz-adv-x="561" 
d="M520 602v-139h-479v139h479z" />
    <glyph glyph-name="period" unicode="." horiz-adv-x="406" 
d="M283 240v-240h-160v240h160z" />
    <glyph glyph-name="slash" unicode="/" horiz-adv-x="864" 
d="M844 1436l-666 -1456h-158l666 1456h158z" />
    <glyph glyph-name="zero" unicode="0" 
d="M543 1434c64 0 121.333 -10 172 -30s93.834 -47.667 129.501 -83s62.834 -77.166 81.501 -125.499s28 -100.833 28 -157.5v-663c0 -56 -9.33301 -108.167 -28 -156.5s-45.834 -90.166 -81.501 -125.499s-78.834 -63 -129.501 -83s-108 -30 -172 -30h-39
c-64 0 -121.5 10 -172.5 30s-94.167 47.667 -129.5 83s-62.5 77.166 -81.5 125.499s-28.5 100.5 -28.5 156.5v663c0 56.667 9.5 109.167 28.5 157.5s46.167 90.166 81.5 125.499s78.5 63 129.5 83s108.5 30 172.5 30h39zM504 1286c-36.667 0 -70.334 -6 -101.001 -18
s-56.834 -29.667 -78.501 -53s-38.5 -52.166 -50.5 -86.499s-18 -73.833 -18 -118.5v-607c0 -44.667 6 -84.167 18 -118.5s28.833 -63.166 50.5 -86.499s47.834 -41 78.501 -53s64.334 -18 101.001 -18h39c36.667 0 70.167 6 100.5 18s56.5 29.667 78.5 53
s39 52.166 51 86.499s18 73.833 18 118.5v607c0 44.667 -6 84.167 -18 118.5s-29 63.166 -51 86.499s-48.167 41 -78.5 53s-63.833 18 -100.5 18h-39z" />
    <glyph glyph-name="one" unicode="1" 
d="M567 0v1229l-354 -207v152l412 239h102v-1413h-160z" />
    <glyph glyph-name="two" unicode="2" 
d="M954 147l-0.00195312 -146.993h-858v174c0 75.333 8.33301 139.666 25 192.999s41.5 100 74.5 140s73.833 76 122.5 108s105 64 169 96c50 25.333 94 48.833 132 70.5s69.833 45.5 95.5 71.5s44.834 56.333 57.501 91s19 77 19 127c0 38.667 -5 71.667 -15 99
s-24.667 49.833 -44 67.5s-43.166 30.5 -71.499 38.5s-60.833 12 -97.5 12h-49c-30 0 -58.833 -2.16699 -86.5 -6.5s-53 -13 -76 -26s-42.833 -31.333 -59.5 -55s-28.667 -54.5 -36 -92.5l-158 37c23.333 99.333 69.666 172.333 138.999 219s161.666 70 276.999 70h49
c126 0 222 -31.167 288 -93.5s99 -149.5 99 -261.5c0 -49.333 -4.83301 -93.333 -14.5 -132s-23 -73.334 -40 -104.001s-37.333 -57.834 -61 -81.501s-49.5 -45.334 -77.5 -65.001s-58 -38 -90 -55l-98 -51.5c-55.333 -28 -102.666 -54.333 -141.999 -79
s-71.666 -51.834 -96.999 -81.501s-44 -64.334 -56 -104.001s-18 -88.834 -18 -147.501v-31h698z" />
    <glyph glyph-name="three" unicode="3" 
d="M537 127c34 0 65.999 4.49609 95.999 13.4961s56.167 23.333 78.5 43s40 44.834 53 75.501s19.5 67.334 19.5 110.001v47c0 46 -9.33301 84.833 -28 116.5s-44.334 57.167 -77.001 76.5s-71.5 33.333 -116.5 42s-93.833 13 -146.5 13v147c54 0 102.5 3.83301 145.5 11.5
s79.5 20.834 109.5 39.501s53 44 69 76s24 72.333 24 121v12c0 39.333 -5.66699 72.666 -17 99.999s-27.5 49.5 -48.5 66.5s-46.333 29.333 -76 37s-63.167 11.5 -100.5 11.5h-37c-29.333 0 -57.833 -3.66699 -85.5 -11s-52.834 -18.5 -75.501 -33.5s-42 -33.5 -58 -55.5
s-27 -48 -33 -78l-157 37c10 41.333 26.333 79.5 49 114.5s51.167 65.5 85.5 91.5s74.166 46.333 119.499 61s95 22 149 22h51c64 0 120.667 -7.83301 170 -23.5s91 -38 125 -67s59.667 -64.167 77 -105.5s26 -87.333 26 -138v-56c0 -27.333 -4.33301 -56.666 -13 -87.999
s-23.5 -61.166 -44.5 -89.499s-49.333 -53.5 -85 -75.5s-80.5 -37.333 -134.5 -46c54.667 -9.33301 100.834 -23.666 138.501 -42.999s68.334 -42.5 92.001 -69.5s40.667 -57.333 51 -91s15.5 -69.5 15.5 -107.5v-67c0 -62 -9.33301 -117 -28 -165
s-45.834 -88.5 -81.501 -121.5s-78.834 -58 -129.501 -75s-108 -25.5 -172 -25.5h-76c-49.333 0 -95.166 4.66699 -137.499 14s-80 21 -113 35s-61.167 29.5 -84.5 46.5s-40.666 32.833 -51.999 47.5v184c10.667 -15.333 28.834 -33.333 54.501 -54s56 -40.334 91 -59.001
s73.333 -34.5 115 -47.5s83.834 -19.5 126.501 -19.5h76z" />
    <glyph glyph-name="four" unicode="4" 
d="M1004 526v-147h-173v-379h-159v379h-647v151l643 883h163v-887h173zM193 526h479v662z" />
    <glyph glyph-name="five" unicode="5" 
d="M303 862c24.667 3.33301 54.1641 6.16602 88.4971 8.49902s73.166 3.5 116.499 3.5c75.333 0 139.833 -7.5 193.5 -22.5s97.834 -36.667 132.501 -65s60 -63.333 76 -105s24 -89.167 24 -142.5v-172c0 -62 -9.5 -117 -28.5 -165s-46.167 -88.5 -81.5 -121.5
s-78.5 -58 -129.5 -75s-108.5 -25.5 -172.5 -25.5h-55c-49.333 0 -94 4.66699 -134 14s-75.5 21 -106.5 35s-57 29.5 -78 46.5s-37.167 32.833 -48.5 47.5v184c10.667 -15.333 27.667 -33.333 51 -54s51.333 -40.334 84 -59.001s68.834 -34.5 108.501 -47.5
s80.834 -19.5 123.501 -19.5h55c34 0 66.167 4.5 96.5 13.5s56.666 23.333 78.999 43s40 44.834 53 75.501s19.5 67.334 19.5 110.001v108c0 88 -21.667 151.667 -65 191s-111.666 59 -204.999 59c-43.333 0 -86.166 -1.83301 -128.499 -5.5s-80.5 -7.83398 -114.5 -12.501
c-40 -5.33301 -78 -11.666 -114 -18.999v139v584h740v-147h-580v-404z" />
    <glyph glyph-name="six" unicode="6" 
d="M965 401c0 -68 -9.50195 -128.164 -28.502 -180.497s-46.167 -96.333 -81.5 -132s-78.5 -62.667 -129.5 -81s-108.5 -27.5 -172.5 -27.5h-39c-64 0 -121.5 8.5 -172.5 25.5s-94.167 42.333 -129.5 76s-62.5 75 -81.5 124s-28.5 105.5 -28.5 169.5v663
c0 56.667 9.5 109.167 28.5 157.5s46.167 90.166 81.5 125.499s78.5 63 129.5 83s108.5 30 172.5 30h37c54 0 103.667 -7.33301 149 -22s85.166 -35 119.499 -61s62.833 -56.5 85.5 -91.5s39 -73.167 49 -114.5l-157 -37c-6 30 -16.667 56 -32 78s-33.833 40.5 -55.5 55.5
s-46 26.167 -73 33.5s-55.5 11 -85.5 11h-37c-36.667 0 -70.167 -6.33301 -100.5 -19s-56.5 -30.5 -78.5 -53.5s-39 -50.333 -51 -82s-18 -66.834 -18 -105.501v-152c18.667 6.66699 38.834 13 60.501 19s43.5 11.167 65.5 15.5s43.833 7.66602 65.5 9.99902
s41.834 3.5 60.501 3.5h33c142.667 0 247.334 -33.833 314.001 -101.5s100 -165.167 100 -292.5v-127zM552.998 127.003c36.667 0 70.167 4.83496 100.5 14.502s56.5 25.334 78.5 47.001s39 49.834 51 84.501s18 76.667 18 126v99c0 53.333 -5.5 97.666 -16.5 132.999
s-27.167 63.666 -48.5 84.999s-47.5 36.333 -78.5 45s-66.5 13 -106.5 13h-33c-41.333 0 -84.333 -4 -129 -12s-85.667 -20.333 -123 -37v-326c0 -49.333 6 -91.333 18 -126s29 -62.834 51 -84.501s48.167 -37.334 78.5 -47.001s63.833 -14.5 100.5 -14.5h39z" />
    <glyph glyph-name="seven" unicode="7" 
d="M225 0l551 1262h-688v151h858v-145l-538 -1268h-183z" />
    <glyph glyph-name="eight" unicode="8" 
d="M481 -20c-64 0 -121.329 8.5 -171.996 25.5s-93.834 42 -129.501 75s-62.834 73.5 -81.501 121.5s-28 103 -28 165v67c0 38 4.5 73.833 13.5 107.5s23.5 64 43.5 91s46.333 50.167 79 69.5s72.667 33.666 120 42.999c-46 8.66699 -84.167 24 -114.5 46
s-54.5 47.167 -72.5 75.5s-30.667 58.166 -38 89.499s-11 60.666 -11 87.999v56c0 50.667 8.66699 96.667 26 138s42.833 76.5 76.5 105.5s75.167 51.333 124.5 67s106 23.5 170 23.5h68c64 0 120.667 -7.83301 170 -23.5s90.833 -38 124.5 -67s59.167 -64.167 76.5 -105.5
s26 -87.333 26 -138v-56c0 -27.333 -3.66699 -56.666 -11 -87.999s-19.833 -61.166 -37.5 -89.499s-41.667 -53.5 -72 -75.5s-68.5 -37.333 -114.5 -46c47.333 -9.33301 87.166 -23.666 119.499 -42.999s58.666 -42.5 78.999 -69.5s35 -57.333 44 -91
s13.5 -69.5 13.5 -107.5v-67c0 -62 -9.5 -117 -28.5 -165s-46.167 -88.5 -81.5 -121.5s-78.5 -58 -129.5 -75s-108.5 -25.5 -172.5 -25.5h-80zM561.004 127c34 0 66.1689 4.5 96.502 13.5s56.666 23.333 78.999 43s40 44.834 53 75.501s19.5 67.334 19.5 110.001v47
c0 80 -24.333 140.5 -73 181.5s-120.667 61.5 -216 61.5c-94.667 0 -166.167 -20.5 -214.5 -61.5s-72.5 -101.5 -72.5 -181.5v-47c0 -42.667 6.5 -79.334 19.5 -110.001s30.667 -55.834 53 -75.501s48.666 -34 78.999 -43s62.5 -13.5 96.5 -13.5h80zM788.006 1071
c0 39.333 -5.66602 72.666 -16.999 99.999s-27.5 49.5 -48.5 66.5s-46.333 29.333 -76 37s-62.834 11.5 -99.501 11.5h-51c-36.667 0 -70 -3.83301 -100 -11.5s-55.5 -20 -76.5 -37s-37.167 -39.167 -48.5 -66.5s-17 -60.666 -17 -99.999v-12c0 -42.667 6 -79.5 18 -110.5
s29.5 -56.5 52.5 -76.5s51 -34.833 84 -44.5s70.167 -14.5 111.5 -14.5s78.5 4.83301 111.5 14.5s61 24.5 84 44.5s40.833 45.5 53.5 76.5s19 67.833 19 110.5v12z" />
    <glyph glyph-name="nine" unicode="9" 
d="M475 -20c-48.667 0 -93.168 4.66895 -133.501 14.002s-75.833 21 -106.5 35s-56.5 29.5 -77.5 46.5s-37.167 32.833 -48.5 47.5v184c10.667 -15.333 27.667 -33.333 51 -54s51.166 -40.334 83.499 -59.001s68.333 -34.5 108 -47.5s80.834 -19.5 123.501 -19.5h37
c36.667 0 71.334 6 104.001 18s61.167 29.667 85.5 53s43.5 52.166 57.5 86.499s21 73.833 21 118.5v197c-18 -6.66699 -38 -12.834 -60 -18.501s-44.167 -10.667 -66.5 -15s-44.5 -7.66602 -66.5 -9.99902s-42.333 -3.5 -61 -3.5h-32c-64 0 -121.5 10 -172.5 30
s-94.167 47.667 -129.5 83s-62.5 77.166 -81.5 125.499s-28.5 100.5 -28.5 156.5v111c0 56 9.5 107.167 28.5 153.5s46.167 85.833 81.5 118.5s78.5 58 129.5 76s108.5 27 172.5 27h38c64 0 121.5 -9 172.5 -27s94.167 -43.333 129.5 -76s62.5 -72.167 81.5 -118.5
s28.5 -97.5 28.5 -153.5v-684c0 -56 -10.5 -108.167 -31.5 -156.5s-50.5 -90.166 -88.5 -125.499s-83.5 -63 -136.5 -83s-111.5 -30 -175.5 -30h-37zM493.999 1286c-36.667 0 -70.3359 -4.50195 -101.003 -13.502s-56.834 -23.167 -78.501 -42.5
s-38.5 -44.666 -50.5 -75.999s-18 -69.333 -18 -114v-63c0 -44.667 6 -84.167 18 -118.5s28.833 -63.166 50.5 -86.499s47.834 -41.166 78.501 -53.499s64.334 -18.5 101.001 -18.5h32c41.333 0 84.833 4.66699 130.5 14s86.834 21.333 123.501 36v290
c0 44.667 -6 82.667 -18 114s-28.833 56.666 -50.5 75.999s-47.667 33.5 -78 42.5s-64.166 13.5 -101.499 13.5h-38z" />
    <glyph glyph-name="colon" unicode=":" horiz-adv-x="406" 
d="M283 240v-240h-160v240h160zM283 1055v-240h-160v240h160z" />
    <glyph glyph-name="semicolon" unicode=";" horiz-adv-x="406" 
d="M283 1055v-240h-160v240h160zM281 240v-191l-109 -264h-129l80 264v191h158z" />
    <glyph glyph-name="less" unicode="&#x3c;" 
d="M205 696l760 -321v-150l-883 391v160l883 391v-149z" />
    <glyph glyph-name="equal" unicode="=" 
d="M82 442v142h883v-142h-883zM82 807v141h883v-141h-883z" />
    <glyph glyph-name="greater" unicode="&#x3e;" 
d="M82 1018v149l883 -391v-160l-883 -391v150l760 321z" />
    <glyph glyph-name="question" unicode="?" horiz-adv-x="1024" 
d="M578 240v-240h-199v240h199zM752 1071c0 38.667 -5.33301 71.667 -16 99s-26 49.833 -46 67.5s-44.5 30.5 -73.5 38.5s-61.833 12 -98.5 12h-29c-29.333 0 -57.666 -2.16699 -84.999 -6.5s-52.166 -13 -74.499 -26s-41.333 -31.333 -57 -55s-27.167 -54.5 -34.5 -92.5
l-158 37c23.333 99.333 68.5 172.333 135.5 219s158.167 70 273.5 70h29c63.333 0 119.333 -8 168 -24s89.667 -39.167 123 -69.5s58.666 -67.5 75.999 -111.5s26 -94 26 -150c0 -42.667 -5.16699 -81 -15.5 -115s-24 -64.667 -41 -92s-36.333 -52.5 -58 -75.5
s-43.834 -45.333 -66.501 -67l-66.5 -65.5c-21.667 -22 -41 -45.667 -58 -71s-30.667 -53.166 -41 -83.499s-15.5 -64.833 -15.5 -103.5h-158c0 47.333 5.16699 89.166 15.5 125.499s24 69 41 98s36.333 55.167 58 78.5s43.667 45.333 66 66l66 61.5
c21.667 20.333 41 42 58 65s30.667 48.333 41 76s15.5 59.167 15.5 94.5z" />
    <glyph glyph-name="at" unicode="@" horiz-adv-x="1718" 
d="M1114 188c-20.667 -8.66699 -42.6689 -16.8359 -66.002 -24.5029s-47.5 -14.334 -72.5 -20.001s-50.333 -10.167 -76 -13.5s-50.5 -5 -74.5 -5c-121.333 0 -211.333 28 -270 84s-88 142.667 -88 260v252c0 45.333 7.33301 88.833 22 130.5s37.667 78.5 69 110.5
s71.833 57.5 121.5 76.5s109.834 28.5 180.501 28.5c30.667 0 60.334 -0.833008 89.001 -2.5s57.5 -4.16699 86.5 -7.5s58.5 -7.16602 88.5 -11.499s61.667 -9.5 95 -15.5v-733c13.333 -8 29.333 -15.5 48 -22.5s41.334 -10.5 68.001 -10.5c21.333 0 40.666 3.5 57.999 10.5
s32 20 44 39s21.333 45.333 28 79s10 76.834 10 129.501v307c0 157.333 -41.5 272.833 -124.5 346.5s-209.5 110.5 -379.5 110.5h-115c-94.667 0 -179.334 -11.167 -254.001 -33.5s-137.667 -57 -189 -104s-90.666 -107.167 -117.999 -180.5s-41 -161 -41 -263v-299
c0 -94 10.833 -173.667 32.5 -239s54.167 -118.5 97.5 -159.5s97.833 -70.667 163.5 -89s142.5 -27.5 230.5 -27.5h213c44 0 86.333 4 127 12s78.167 18.333 112.5 31s65.166 26.834 92.499 42.501s49.333 31.167 66 46.5v-140c-14.667 -14 -35 -28 -61 -42
s-55.833 -26.667 -89.5 -38s-70.667 -20.666 -111 -27.999s-82.5 -11 -126.5 -11h-229c-100 0 -190.167 12 -270.5 36s-148.5 61.333 -204.5 112s-99 115.5 -129 194.5s-45 173.833 -45 284.5v324c0 111.333 16.167 210.166 48.5 296.499s79.333 159.333 141 219
s137.334 105 227.001 136s191.834 46.5 306.501 46.5h129c92.667 0 177.667 -11 255 -33s143.833 -56.333 199.5 -103s99 -105.834 130 -177.501s46.5 -157.5 46.5 -257.5v-324c0 -68 -5 -126.667 -15 -176s-25.667 -90.166 -47 -122.499s-48.833 -56.166 -82.5 -71.499
s-74.5 -23 -122.5 -23c-50 0 -92.833 6 -128.5 18s-67.834 27 -96.501 45zM839.998 265.998c39.333 0 77.501 4.16797 114.501 12.501s72.5 18.5 106.5 30.5v588c-32 8 -63.333 14.833 -94 20.5s-63.667 8.5 -99 8.5c-43.333 0 -80.333 -5 -111 -15s-55.834 -24 -75.501 -42
s-34 -39.667 -43 -65s-13.5 -53 -13.5 -83v-234c0 -40.667 4.5 -75 13.5 -103s22.333 -50.833 40 -68.5s40 -30.334 67 -38.001s58.5 -11.5 94.5 -11.5z" />
    <glyph glyph-name="A" unicode="A" horiz-adv-x="1163" 
d="M805 567l-131 377l-34 102l-30 93c-10.667 32.667 -20 62.667 -28 90c-7.33301 -27.333 -16.5 -57.5 -27.5 -90.5l-30.5 -93.5l-35 -103l-131 -375h447zM852 420h-539l-149 -420h-164l502 1413h160l501 -1413h-164z" />
    <glyph glyph-name="B" unicode="B" horiz-adv-x="1186" 
d="M659 799c28.667 0 54.999 4.16895 78.999 12.502s44.833 21.666 62.5 39.999s31.334 42.666 41.001 72.999s14.5 67.5 14.5 111.5c0 79.333 -18.5 137.5 -55.5 174.5s-90.833 55.5 -161.5 55.5h-326v-467h346zM697.999 147.002c69.333 0 124.333 21.333 165 64
s61 107.667 61 195c0 83.333 -20.333 145 -61 185s-95.667 60 -165 60h-385v-504h385zM810.999 741.002c32 -4 64.1689 -13.502 96.502 -28.502s61.5 -36.167 87.5 -63.5s47.167 -61.166 63.5 -101.499s24.5 -87.5 24.5 -141.5c0 -68 -9.16699 -127.333 -27.5 -178
s-44.333 -92.834 -78 -126.501s-73.834 -59 -120.501 -76s-98.334 -25.5 -155.001 -25.5h-548v1413h491c52 0 100.667 -7.16699 146 -21.5s85 -36.666 119 -66.999s60.833 -68.666 80.5 -114.999s29.5 -101.5 29.5 -165.5c0 -84.667 -19.167 -151.667 -57.5 -201
s-88.833 -83.333 -151.5 -102z" />
    <glyph glyph-name="C" unicode="C" horiz-adv-x="1102" 
d="M614 127c43.333 0 85.665 7.33496 126.998 22.002s79.5 32.167 114.5 52.5s65.333 41.666 91 63.999s43.834 41.166 54.501 56.499v-185c-11.333 -14.667 -28.666 -31.167 -51.999 -49.5s-51.5 -35.5 -84.5 -51.5s-70.667 -29.333 -113 -40s-88.166 -16 -137.499 -16h-75
c-64 0 -121.5 10 -172.5 30s-94.167 47.667 -129.5 83s-62.5 77.166 -81.5 125.499s-28.5 100.5 -28.5 156.5v663c0 56.667 9.5 109.167 28.5 157.5s46.167 90.166 81.5 125.499s78.5 63 129.5 83s108.5 30 172.5 30h57c54 0 103.667 -7.33301 149 -22
s85.166 -35 119.499 -61s63 -56.5 86 -91.5s39.167 -73.167 48.5 -114.5l-157 -37c-6 30 -16.667 56 -32 78s-33.833 40.5 -55.5 55.5s-46 26.167 -73 33.5s-55.5 11 -85.5 11h-57c-36.667 0 -70.334 -6 -101.001 -18s-56.834 -29.667 -78.501 -53
s-38.5 -52.166 -50.5 -86.499s-18 -73.833 -18 -118.5v-607c0 -44.667 6 -84.167 18 -118.5s28.833 -63.166 50.5 -86.499s47.834 -41 78.501 -53s64.334 -18 101.001 -18h75z" />
    <glyph glyph-name="D" unicode="D" horiz-adv-x="1272" 
d="M1010 748c0 100.667 -9.83105 184.334 -29.498 251.001s-47.834 119.667 -84.501 159s-81.334 67.166 -134.001 83.499s-112 24.5 -178 24.5h-271v-1119h273c65.333 0 124.166 9.83301 176.499 29.5s96.833 52.667 133.5 99s64.834 108 84.501 185
s29.5 172.833 29.5 287.5zM1174 745c0 -130 -12.833 -242 -38.5 -336s-63.334 -171.167 -113.001 -231.5s-111.167 -105 -184.5 -134s-158 -43.5 -254 -43.5h-430v1413h436c94 0 177.333 -11.5 250 -34.5s133.834 -60.667 183.501 -113s87.167 -121 112.5 -206
s38 -189.833 38 -314.5z" />
    <glyph glyph-name="E" unicode="E" horiz-adv-x="991" 
d="M889 0h-735v1413h735v-147h-576v-455h533v-147h-533v-517h576v-147z" />
    <glyph glyph-name="F" unicode="F" horiz-adv-x="971" 
d="M154 0v1413h735v-147h-576v-496h533v-147h-533v-623h-159z" />
    <glyph glyph-name="G" unicode="G" horiz-adv-x="1190" 
d="M647 127c54 0 102.833 6.83398 146.5 20.501s80.834 30.167 111.501 49.5v372h-237v146h399v-600c-26.667 -18.667 -54.667 -36.334 -84 -53.001s-60.833 -31 -94.5 -43s-69.834 -21.5 -108.501 -28.5s-81 -10.5 -127 -10.5h-114c-64 0 -121.5 10 -172.5 30
s-94.167 47.667 -129.5 83s-62.5 77.166 -81.5 125.499s-28.5 100.5 -28.5 156.5v663c0 56.667 9.5 109.167 28.5 157.5s46.167 90.166 81.5 125.499s78.5 63 129.5 83s108.5 30 172.5 30h127c56 0 105.833 -7.33301 149.5 -22s81.667 -35 114 -61s58.833 -56.5 79.5 -91.5
s36 -73.167 46 -114.5l-158 -37c-6 30 -16.667 56 -32 78s-33.833 40.5 -55.5 55.5s-46 26.167 -73 33.5s-55.5 11 -85.5 11h-112c-36.667 0 -70.334 -6 -101.001 -18s-56.834 -29.667 -78.501 -53s-38.5 -52.166 -50.5 -86.499s-18 -73.833 -18 -118.5v-607
c0 -44.667 6 -84.167 18 -118.5s28.833 -63.166 50.5 -86.499s47.834 -41 78.501 -53s64.334 -18 101.001 -18h108z" />
    <glyph glyph-name="H" unicode="H" horiz-adv-x="1239" 
d="M926 655h-613v-655h-159v1413h159v-610h613v610h159v-1413h-159v655z" />
    <glyph glyph-name="I" unicode="I" horiz-adv-x="467" 
d="M154 0v1413h159v-1413h-159z" />
    <glyph glyph-name="J" unicode="J" horiz-adv-x="844" 
d="M541 1266h-259.995v147h419v-1038c0 -60 -9 -114.333 -27 -163s-43.167 -90.167 -75.5 -124.5s-71.166 -60.833 -116.499 -79.5s-95 -28 -149 -28h-19c-58.667 0 -110.334 8.33301 -155.001 25s-80.334 37.667 -107.001 63v180
c13.333 -12.667 29.666 -26.167 48.999 -40.5s40.666 -27.5 63.999 -39.5s48 -21.833 74 -29.5s52.333 -11.5 79 -11.5h13c29.333 0 56.666 5.66699 81.999 17s47.666 27.5 66.999 48.5s34.5 47 45.5 78s16.5 65.833 16.5 104.5v891z" />
    <glyph glyph-name="K" unicode="K" horiz-adv-x="1110" 
d="M154 0v1413h159v-659l568 659h194l-586 -670l603 -743h-199l-580 717v-717h-159z" />
    <glyph glyph-name="L" unicode="L" horiz-adv-x="942" 
d="M154 1413h159v-1266h578v-147h-737v1413z" />
    <glyph glyph-name="M" unicode="M" horiz-adv-x="1688" 
d="M1380 883c0 25.333 0.166992 49.502 0.5 72.502l1 70c0.333008 23.667 1 48 2 73s1.83301 51.5 2.5 79.5c-6.66699 -22 -15.5 -48.333 -26.5 -79l-34 -94l-34 -92l-27.5 -73l-338 -840h-170l-340 852c-8 20 -17.167 44.167 -27.5 72.5l-31.5 87.5l-30.5 89l-25.5 77
c4 -118.667 6 -216.334 6 -293.001v-885h-153v1413h198l393 -979c5.33301 -12.667 12.333 -30.334 21 -53.001l27 -72.5l28 -75.5c9.33301 -24.667 17 -45.667 23 -63l22.5 64l28 76l27.5 72l20 52l393 979h199v-1413h-154v883z" />
    <glyph glyph-name="N" unicode="N" horiz-adv-x="1368" 
d="M1055 1413l159 -0.000976562v-1413h-176l-733 1174l4 -123c1.33301 -34.667 2.33301 -70.667 3 -108s1 -69.666 1 -96.999v-846h-159v1413h180l729 -1173l-4 104c-1.33301 30 -2.33301 62.667 -3 98s-1 69 -1 101v870z" />
    <glyph glyph-name="O" unicode="O" horiz-adv-x="1239" 
d="M700 1434c64 0 121.5 -10 172.5 -30s94.167 -47.667 129.5 -83s62.5 -77.166 81.5 -125.499s28.5 -100.833 28.5 -157.5v-663c0 -56 -9.5 -108.167 -28.5 -156.5s-46.167 -90.166 -81.5 -125.499s-78.5 -63 -129.5 -83s-108.5 -30 -172.5 -30h-161
c-64 0 -121.5 10 -172.5 30s-94.167 47.667 -129.5 83s-62.5 77.166 -81.5 125.499s-28.5 100.5 -28.5 156.5v663c0 56.667 9.5 109.167 28.5 157.5s46.167 90.166 81.5 125.499s78.5 63 129.5 83s108.5 30 172.5 30h161zM539 1286c-36.667 0 -70.334 -6 -101.001 -18
s-56.834 -29.667 -78.501 -53s-38.5 -52.166 -50.5 -86.499s-18 -73.833 -18 -118.5v-607c0 -44.667 6 -84.167 18 -118.5s28.833 -63.166 50.5 -86.499s47.834 -41 78.501 -53s64.334 -18 101.001 -18h161c37.333 0 71.166 6 101.499 18s56.333 29.667 78 53
s38.5 52.166 50.5 86.499s18 73.833 18 118.5v607c0 44.667 -6 84.167 -18 118.5s-28.833 63.166 -50.5 86.499s-47.667 41 -78 53s-64.166 18 -101.499 18h-161z" />
    <glyph glyph-name="P" unicode="P" horiz-adv-x="1085" 
d="M610 741c35.333 0 67.666 5.5 96.999 16.5s54.5 27.667 75.5 50s37.167 50.5 48.5 84.5s17 74 17 120c0 43.333 -5.66699 80.833 -17 112.5s-27.5 58 -48.5 79s-46.167 36.667 -75.5 47s-61.666 15.5 -96.999 15.5h-297v-525h297zM313 594l-0.00195312 -593.999h-159
v1413h458c64.667 0 121.834 -9.33301 171.501 -28s91.5 -45.334 125.5 -80.001s59.667 -76.167 77 -124.5s26 -102.5 26 -162.5c0 -60.667 -8.5 -117 -25.5 -169s-42.167 -96.833 -75.5 -134.5s-74.666 -67.167 -123.999 -88.5s-106.333 -32 -171 -32h-303z" />
    <glyph glyph-name="Q" unicode="Q" horiz-adv-x="1239" 
d="M700 1434c64 0 121.499 -9.99805 172.499 -29.998s94.167 -47.667 129.5 -83s62.5 -77.166 81.5 -125.499s28.5 -100.833 28.5 -157.5v-663c0 -42.667 -5.66699 -83.334 -17 -122.001s-27.666 -74 -48.999 -106s-47.5 -60 -78.5 -84s-66.167 -43 -105.5 -57l258 -311
h-196l-228 285h-157c-64 0 -121.5 10 -172.5 30s-94.167 47.667 -129.5 83s-62.5 77.166 -81.5 125.499s-28.5 100.5 -28.5 156.5v663c0 56.667 9.5 109.167 28.5 157.5s46.167 90.166 81.5 125.499s78.5 63 129.5 83s108.5 30 172.5 30h161zM538.999 1286
c-36.667 0 -70.334 -6 -101.001 -18s-56.834 -29.667 -78.501 -53s-38.5 -52.166 -50.5 -86.499s-18 -73.833 -18 -118.5v-607c0 -44.667 6 -84.167 18 -118.5s28.833 -63.166 50.5 -86.499s47.834 -41 78.501 -53s64.334 -18 101.001 -18h161c37.333 0 71.166 6 101.499 18
s56.333 29.667 78 53s38.5 52.166 50.5 86.499s18 73.833 18 118.5v607c0 44.667 -6 84.167 -18 118.5s-28.833 63.166 -50.5 86.499s-47.667 41 -78 53s-64.166 18 -101.499 18h-161z" />
    <glyph glyph-name="R" unicode="R" horiz-adv-x="1143" 
d="M610 741c30.667 0 61.332 5.16699 91.999 15.5s58.167 26.5 82.5 48.5s44 50.333 59 85s22.5 76 22.5 124c0 46 -7.66699 85 -23 117s-35.166 58 -59.499 78s-51.833 34.5 -82.5 43.5s-61 13.5 -91 13.5h-297v-525h297zM871.998 0l-314.999 593.998h-244v-594h-159v1413
h458c59.333 0 114.5 -9.16699 165.5 -27.5s95.167 -44.666 132.5 -78.999s66.666 -75.666 87.999 -123.999s32 -102.5 32 -162.5c0 -56.667 -7.5 -107.667 -22.5 -153s-36.167 -85 -63.5 -119s-60 -62.333 -98 -85s-80.333 -39.667 -127 -51l332 -612h-179z" />
    <glyph glyph-name="S" unicode="S" horiz-adv-x="1063" 
d="M106 1079c0 51.333 9 98.6641 27 141.997s44.167 80.833 78.5 112.5s76.333 56.334 126 74.001s105.834 26.5 168.501 26.5h49c112 0 201.333 -23.333 268 -70s111.667 -119.667 135 -219l-157 -37c-7.33301 38 -19 68.833 -35 92.5s-35 42 -57 55
s-46.167 21.667 -72.5 26s-53.5 6.5 -81.5 6.5h-49c-34 0 -65.5 -4 -94.5 -12s-54.333 -20.833 -76 -38.5s-38.667 -40.167 -51 -67.5s-18.5 -60.333 -18.5 -99v-31c0 -32 6.5 -59.833 19.5 -83.5s29.333 -43.834 49 -60.501s41 -30.334 64 -41.001
s44.5 -19.334 64.5 -26.001l223 -71c44 -14.667 83.833 -32.167 119.5 -52.5s66 -44 91 -71s44.333 -57.667 58 -92s20.5 -73.166 20.5 -116.499v-82c0 -51.333 -9.5 -99.166 -28.5 -143.499s-46.333 -82.833 -82 -115.5s-78.667 -58.334 -129 -77.001
s-107.166 -28 -170.499 -28h-59c-40 0 -79.833 2.83301 -119.5 8.5s-77.5 14.667 -113.5 27s-69.833 27.833 -101.5 46.5s-59.5 41 -83.5 67v195c25.333 -32 54 -60.333 86 -85s66.333 -45.334 103 -62.001s75.167 -29.167 115.5 -37.5s80.833 -12.5 121.5 -12.5h39
c80 0 143.333 18.333 190 55s70 93.334 70 170.001v45c0 29.333 -3.33301 55 -10 77s-17.167 41.333 -31.5 58s-32.5 31 -54.5 43s-48 23 -78 33l-209 66c-48 14.667 -91.833 32.334 -131.5 53.001s-73.834 45.334 -102.501 74.001s-50.834 61.834 -66.501 99.501
s-23.5 80.834 -23.5 129.501v49z" />
    <glyph glyph-name="T" unicode="T" horiz-adv-x="1024" 
d="M432 1266h-407v147h974v-147h-407v-1266h-160v1266z" />
    <glyph glyph-name="U" unicode="U" horiz-adv-x="1282" 
d="M1135 408c0 -62 -9.66992 -119.167 -29.0029 -171.5s-49.166 -97.5 -89.499 -135.5s-91.666 -67.667 -153.999 -89s-136.833 -32 -223.5 -32c-84.667 0 -158 10.667 -220 32s-113.167 51 -153.5 89s-70.166 83.167 -89.499 135.5s-29 109.5 -29 171.5v1005h162v-1005
c0 -41.333 6.33301 -78.833 19 -112.5s32.5 -62.334 59.5 -86.001s61.5 -42 103.5 -55s92.667 -19.5 152 -19.5c65.333 0 119.333 6.33301 162 19s76.5 30.667 101.5 54s42.333 51.833 52 85.5s14.5 71.834 14.5 114.501v1005h162v-1005z" />
    <glyph glyph-name="V" unicode="V" horiz-adv-x="1106" 
d="M553 225l383 1188h170l-479 -1413h-148l-479 1413h170z" />
    <glyph glyph-name="W" unicode="W" horiz-adv-x="1806" 
d="M1325 225l301 1188h160l-367 -1413h-168l-348 1202l-348 -1202h-168l-367 1413h160l301 -1188l342 1188h160z" />
    <glyph glyph-name="X" unicode="X" horiz-adv-x="1204" 
d="M602 852l365 561h188l-463 -686l492 -727h-187l-395 604l-395 -604h-187l490 727l-461 686h189z" />
    <glyph glyph-name="Y" unicode="Y" horiz-adv-x="1028" 
d="M516 737l334 676h168l-424 -821v-592h-160v592l-424 821h168z" />
    <glyph glyph-name="Z" unicode="Z" horiz-adv-x="1061" 
d="M51 133l735 1133h-694v147h877v-131l-736 -1135h777v-147h-959v133z" />
    <glyph glyph-name="bracketleft" unicode="[" horiz-adv-x="567" 
d="M526 -143v-142h-393v1719h393v-142h-235v-1435h235z" />
    <glyph glyph-name="backslash" unicode="\" horiz-adv-x="864" 
d="M178 1436l666 -1456h-158l-666 1456h158z" />
    <glyph glyph-name="bracketright" unicode="]" horiz-adv-x="567" 
d="M276 -143v1435h-235v142h393v-1719h-393v142h235z" />
    <glyph glyph-name="asciicircum" unicode="^" horiz-adv-x="1049" 
d="M524 1288l-321 -760l-150 2l391 881h160l391 -881l-149 -2z" />
    <glyph glyph-name="underscore" unicode="_" horiz-adv-x="1024" 
d="M1034 -143v-123h-1044v123h1044z" />
    <glyph glyph-name="grave" unicode="`" horiz-adv-x="494" 
d="M457 1149v-10h-117l-299 280v15h192z" />
    <glyph glyph-name="a" unicode="a" horiz-adv-x="1010" 
d="M244 307c0 -26.667 4.49902 -51.165 13.499 -73.498s23.333 -41.5 43 -57.5s45.334 -28.5 77.001 -37.5s70.5 -13.5 116.5 -13.5c18.667 0 38.667 1 60 3s42.333 4.66699 63 8s39.834 6.83301 57.501 10.5s32.5 7.5 44.5 11.5v327h-283c-33.333 0 -62 -4.33301 -86 -13
s-43.833 -20.334 -59.5 -35.001s-27.334 -31.834 -35.001 -51.501s-11.5 -40.167 -11.5 -61.5v-17zM507.999 909.002c-48 0 -92 -11.3369 -132 -34.0039s-71.667 -51.667 -95 -87l-129 84c30.667 54 75.5 97.333 134.5 130s132.167 49 219.5 49c64 0 119.333 -7 166 -21
s85.167 -35.833 115.5 -65.5s52.833 -67.5 67.5 -113.5s22 -101 22 -165v-649c-56.667 -15.333 -116.667 -28.666 -180 -39.999s-131 -17 -203 -17c-74.667 0 -138 8.33301 -190 25s-94.167 39.334 -126.5 68.001s-55.666 62.334 -69.999 101.001
s-21.5 80.334 -21.5 125.001v31c0 48.667 8.66699 91.5 26 128.5s42 68 74 93s70.667 43.833 116 56.5s95.666 19 150.999 19h266v41c0 41.333 -3.5 77.166 -10.5 107.499s-18.333 55.333 -34 75s-36.167 34.334 -61.5 44.001s-56.333 14.5 -93 14.5h-12z" />
    <glyph glyph-name="b" unicode="b" horiz-adv-x="1053" 
d="M301 1413l0.000976562 -405.001c15.333 5.33301 33.166 10.5 53.499 15.5s42 9.5 65 13.5s46.833 7.33301 71.5 10s48.667 4 72 4c50 0 97.667 -5.33301 143 -16s85 -29 119 -55s61 -61.167 81 -105.5s30 -100.166 30 -167.499v-381
c0 -45.333 -7.66699 -88.833 -23 -130.5s-39.166 -78.5 -71.499 -110.5s-73.833 -57.5 -124.5 -76.5s-111.334 -28.5 -182.001 -28.5c-66.667 0 -131.5 4.66699 -194.5 14s-128.833 22.333 -197.5 39v1380h158zM563.001 908.999c-22 0 -45.333 -1.5 -70 -4.5
s-48.667 -6.66699 -72 -11s-45.5 -9.33301 -66.5 -15s-38.833 -11.167 -53.5 -16.5v-712c16 -4 33.833 -7.83301 53.5 -11.5s40 -6.83398 61 -9.50098s41.833 -4.66699 62.5 -6s39.667 -2 57 -2c40 0 75 5 105 15s55.333 24 76 42s36.167 39.667 46.5 65s15.5 53 15.5 83
v362c0 38.667 -5 71.834 -15 99.501s-24.167 50.5 -42.5 68.5s-40.833 31.333 -67.5 40s-56.667 13 -90 13z" />
    <glyph glyph-name="c" unicode="c" horiz-adv-x="938" 
d="M721 782c-10 17.333 -21.3311 33.6719 -33.998 49.0049s-27.167 28.666 -43.5 39.999s-34.5 20.5 -54.5 27.5s-41.667 10.5 -65 10.5h-20c-37.333 0 -70.333 -5 -99 -15s-52.667 -26.333 -72 -49s-34 -52.334 -44 -89.001s-15 -81.667 -15 -135v-205
c0 -52 5.5 -96.667 16.5 -134s26.667 -68 47 -92s45.166 -41.5 74.499 -52.5s62 -16.5 98 -16.5c34.667 0 68.667 4.83301 102 14.5s65 22 95 37s57.667 31.667 83 50s47.333 36.166 66 53.499v-163c-18.667 -18 -40 -35 -64 -51s-50.5 -30.167 -79.5 -42.5
s-60.5 -22 -94.5 -29s-70 -10.5 -108 -10.5c-62.667 0 -118.334 7.5 -167.001 22.5s-89.667 39.167 -123 72.5s-58.833 76.333 -76.5 129s-26.5 117 -26.5 193v240c0 73.333 8.83301 136.166 26.5 188.499s43.167 95.166 76.5 128.499s74.333 57.833 123 73.5
s104.334 23.5 167.001 23.5h6c42.667 0 81.5 -4.33301 116.5 -13s66.5 -21 94.5 -37s52.667 -35.167 74 -57.5s39.666 -46.833 54.999 -73.5z" />
    <glyph glyph-name="d" unicode="d" horiz-adv-x="1053" 
d="M752 1413h157.002v-1356c-76 -24.667 -148.833 -43.667 -218.5 -57s-136.834 -20 -201.501 -20c-50 0 -97.5 5.16699 -142.5 15.5s-84.5 28.5 -118.5 54.5s-61 61.167 -81 105.5s-30 100.5 -30 168.5v381c0 45.333 7.66699 88.833 23 130.5s39.333 78.5 72 110.5
s74.167 57.5 124.5 76.5s110.833 28.5 181.5 28.5c41.333 0 82.666 -2.33301 123.999 -7s78 -10 110 -16v385zM489.002 121c22 0 45.332 1.5 69.999 4.5s48.834 6.66699 72.501 11s46 9.33301 67 15s38.833 11.167 53.5 16.5v713c-16 4 -33.833 7.66699 -53.5 11
s-40 6.33301 -61 9s-41.833 4.66699 -62.5 6s-39.667 2 -57 2c-40 0 -75.167 -5 -105.5 -15s-55.833 -24 -76.5 -42s-36.167 -39.5 -46.5 -64.5s-15.5 -52.5 -15.5 -82.5v-363c0 -76.667 19.167 -132.667 57.5 -168s90.833 -53 157.5 -53z" />
    <glyph glyph-name="e" unicode="e" horiz-adv-x="1034" 
d="M928 492l-654 -0.000976562v-76c0 -56 6 -102.833 18 -140.5s28.833 -68 50.5 -91s47.834 -39.333 78.501 -49s65 -14.5 103 -14.5s75.167 4.5 111.5 13.5s70.5 20.333 102.5 34s61.167 28.834 87.5 45.501s48.166 32.667 65.499 48v-158
c-17.333 -18 -39 -34.5 -65 -49.5s-54.833 -28 -86.5 -39s-65.667 -19.667 -102 -26s-73.5 -9.5 -111.5 -9.5c-64 0 -121.333 7.16699 -172 21.5s-93.5 38 -128.5 71s-61.833 76 -80.5 129s-28 118.167 -28 195.5v226c0 69.333 9.16699 130.5 27.5 183.5
s44.5 97.667 78.5 134s75.5 63.833 124.5 82.5s103.833 28 164.5 28h16c58 0 111.5 -8.16699 160.5 -24.5s91.167 -41.5 126.5 -75.5s63 -77.167 83 -129.5s30 -114.5 30 -186.5v-143zM520 908.999c-36 0 -68.832 -5.16895 -98.499 -15.502s-55.334 -26.666 -77.001 -48.999
s-38.5 -51.166 -50.5 -86.499s-18.667 -77.666 -20 -126.999h496c0 51.333 -6.5 94.666 -19.5 129.999s-30.5 64 -52.5 86s-47.667 37.833 -77 47.5s-60.333 14.5 -93 14.5h-8v0z" />
    <glyph glyph-name="f" unicode="f" horiz-adv-x="606" 
d="M35 1024h130.999v61c0 49.333 3.83301 94.833 11.5 136.5s21.667 77.5 42 107.5s48.166 53.5 83.499 70.5s80.333 25.5 135 25.5c37.333 0 69.333 -1.33301 96 -4s51.334 -6 74.001 -10v-143c-20.667 4 -42 7.66699 -64 11s-46.333 5 -73 5
c-24.667 0 -46.167 -3.16699 -64.5 -9.5s-33.666 -17 -45.999 -32s-21.5 -34.833 -27.5 -59.5s-9 -55.667 -9 -93v-66h272v-139h-272v-885h-158v885h-131v139z" />
    <glyph glyph-name="g" unicode="g" horiz-adv-x="1053" 
d="M909 -29c0 -74 -9.99902 -135.333 -29.999 -184s-48.167 -87.667 -84.5 -117s-80 -50 -131 -62s-107.5 -18 -169.5 -18c-58.667 0 -114.167 5.83301 -166.5 17.5s-99.5 31.834 -141.5 60.501v158c20 -14.667 42.333 -27.834 67 -39.501s50.5 -21.5 77.5 -29.5
s55 -14.167 84 -18.5s57.5 -6.5 85.5 -6.5c49.333 0 90.166 5.16699 122.499 15.5s58 25.5 77 45.5s32.5 45 40.5 75s12 65 12 105v64c-14.667 -4.66699 -32 -9.66699 -52 -15s-41.333 -10.166 -64 -14.499s-46.5 -8 -71.5 -11s-50.167 -4.5 -75.5 -4.5
c-50 0 -97.5 5.33301 -142.5 16s-84.5 29 -118.5 55s-61 61.167 -81 105.5s-30 100.166 -30 167.499v369c0 45.333 7.66699 88.833 23 130.5s39.333 78.5 72 110.5s74.167 57.5 124.5 76.5s110.833 28.5 181.5 28.5c62 0 126 -3.33301 192 -10s132.333 -15.667 199 -27
v-1043zM489.001 133c22 0 45.332 1.49805 69.999 4.49805s48.834 6.83301 72.501 11.5s46 9.83398 67 15.501s38.833 10.834 53.5 15.501v701c-16 4 -33.833 7.66699 -53.5 11s-40 6.33301 -61 9s-41.833 4.66699 -62.5 6s-39.667 2 -57 2c-40 0 -75.167 -5 -105.5 -15
s-55.833 -24 -76.5 -42s-36.167 -39.5 -46.5 -64.5s-15.5 -52.5 -15.5 -82.5v-351c0 -76.667 19.167 -132.667 57.5 -168s90.833 -53 157.5 -53z" />
    <glyph glyph-name="h" unicode="h" horiz-adv-x="1059" 
d="M301 0l-157.998 -0.000976562v1413h158v-385c37.333 6 75.166 11.333 113.499 16s74.833 7 109.5 7c70.667 0 131.334 -8.16699 182.001 -24.5s92.334 -39 125.001 -68s56.667 -63.667 72 -104s23 -84.166 23 -131.499v-723h-158v715c0 62.667 -20.5 110.667 -61.5 144
s-101.833 50 -182.5 50c-18.667 0 -38.834 -0.833008 -60.501 -2.5s-42.834 -4 -63.501 -7s-39.834 -6 -57.501 -9s-31.5 -6.16699 -41.5 -9.5v-881z" />
    <glyph glyph-name="i" unicode="i" horiz-adv-x="444" 
d="M301 1024v-1024h-158v1024h158zM301 1413v-199h-158v199h158z" />
    <glyph glyph-name="j" unicode="j" horiz-adv-x="444" 
d="M301 1413v-199h-158v199h158zM301 -76c0 -47.333 -2.33301 -91.333 -7 -132s-14.5 -76 -29.5 -106s-36.5 -53.5 -64.5 -70.5s-65.333 -25.5 -112 -25.5c-30.667 0 -56.5 1.33301 -77.5 4s-38.833 5.66699 -53.5 9v143c14.667 -4 29.167 -7.33301 43.5 -10
s31.833 -4 52.5 -4s37 4 49 12s21 20 27 36s9.83301 35.833 11.5 59.5s2.5 51.167 2.5 82.5v1102h158v-1100z" />
    <glyph glyph-name="k" unicode="k" horiz-adv-x="920" 
d="M721 1024h184l-438 -446l446 -578h-180l-432 557v-557h-158v1413h158v-825z" />
    <glyph glyph-name="l" unicode="l" horiz-adv-x="543" 
d="M133 1413l158 0.000976562v-1139c0 -54 8.66699 -93 26 -117s45.333 -36 84 -36c22.667 0 45.667 1.16699 69 3.5s46.333 5.16602 69 8.49902v-139c-23.333 -4 -48.833 -7.33301 -76.5 -10s-58.834 -4 -93.501 -4c-45.333 0 -83.166 6.33301 -113.499 19
s-54.5 31.667 -72.5 57s-30.833 57 -38.5 95s-11.5 82 -11.5 132v1130z" />
    <glyph glyph-name="m" unicode="m" horiz-adv-x="1602" 
d="M301 0l-158.005 0.000976562v997c22 6 47 12.167 75 18.5s57.5 12.166 88.5 17.499s62.5 9.66602 94.5 12.999s63 5 93 5c53.333 0 104.333 -4.5 153 -13.5s88.334 -21.833 119.001 -38.5c19.333 6 41.166 12 65.499 18s50.333 11.5 78 16.5s55.834 9.16699 84.501 12.5
s56.334 5 83.001 5c69.333 0 128.666 -8.16699 177.999 -24.5s89.833 -39 121.5 -68s54.834 -62.833 69.501 -101.5s22 -80.667 22 -126v-731h-157v731c0 60.667 -19.667 104.834 -59 132.501s-97.666 41.5 -174.999 41.5c-16 0 -33 -0.666992 -51 -2
s-35.5 -3.33301 -52.5 -6s-33.167 -5.66699 -48.5 -9s-28.666 -7 -39.999 -11v-877h-158v854c-10.667 8 -24.5 15 -41.5 21s-35.833 11.333 -56.5 16s-42.5 8.16699 -65.5 10.5s-46.167 3.5 -69.5 3.5c-16.667 0 -34 -0.666992 -52 -2s-35.5 -3.33301 -52.5 -6
s-33.167 -5.66699 -48.5 -9s-28.666 -7 -39.999 -11v-877z" />
    <glyph glyph-name="n" unicode="n" horiz-adv-x="1059" 
d="M301 0l-157.998 -0.00195312v997c26 6 54.833 12.333 86.5 19s64.167 12.5 97.5 17.5s66.833 9.16699 100.5 12.5s65.834 5 96.501 5c67.333 0 126.166 -7.5 176.499 -22.5s92.166 -36.667 125.499 -65s58.333 -62.666 75 -102.999s25 -85.5 25 -135.5v-725h-158v717
c0 60.667 -20.333 107.834 -61 141.501s-97.334 50.5 -170.001 50.5c-18.667 0 -39.667 -0.833008 -63 -2.5s-46 -4 -68 -7s-42.5 -6 -61.5 -9s-33.5 -6.16699 -43.5 -9.5v-881z" />
    <glyph glyph-name="o" unicode="o" horiz-adv-x="1053" 
d="M117 641c0 76 8.66699 140 26 192s42.666 94.167 75.999 126.5s74.166 55.666 122.499 69.999s103.833 21.5 166.5 21.5h35c62.667 0 118.334 -7.16699 167.001 -21.5s89.834 -37.666 123.501 -69.999s59.167 -74.5 76.5 -126.5s26 -116 26 -192v-252
c0 -76 -8.66699 -140 -26 -192s-42.833 -94 -76.5 -126s-74.834 -55.167 -123.501 -69.5s-104.334 -21.5 -167.001 -21.5h-35c-62.667 0 -118.167 7.16699 -166.5 21.5s-89.166 37.5 -122.499 69.5s-58.666 74 -75.999 126s-26 116 -26 192v252zM274 408
c0 -54 5 -99.167 15 -135.5s24.667 -65.833 44 -88.5s43.166 -38.834 71.499 -48.501s60.833 -14.5 97.5 -14.5h51c36 0 68 4.83301 96 14.5s51.5 25.834 70.5 48.501s33.5 52.167 43.5 88.5s15 81.5 15 135.5v215c0 54 -5 99.167 -15 135.5s-24.5 65.666 -43.5 87.999
s-42.5 38.333 -70.5 48s-60 14.5 -96 14.5h-51c-36.667 0 -69.167 -4.83301 -97.5 -14.5s-52.166 -25.667 -71.499 -48s-34 -51.666 -44 -87.999s-15 -81.5 -15 -135.5v-215z" />
    <glyph glyph-name="p" unicode="p" horiz-adv-x="1053" 
d="M535 -20c-40 0 -79.167 1.83301 -117.5 5.5s-77.166 8.5 -116.499 14.5v-410h-158v1399c32 10 66.667 18.833 104 26.5s74.833 14.167 112.5 19.5s74 9.33301 109 12s66.5 4 94.5 4c57.333 0 109 -6.66699 155 -20s85.167 -34 117.5 -62s57.166 -63.667 74.499 -107
s26 -95 26 -155v-381c0 -45.333 -7.33301 -88.833 -22 -130.5s-38.167 -78.5 -70.5 -110.5s-73.833 -57.5 -124.5 -76.5s-112 -28.5 -184 -28.5zM563 909c-23.333 0 -47.333 -1 -72 -3s-48.5 -4.66699 -71.5 -8s-44.667 -7.16602 -65 -11.499s-38.166 -8.5 -53.499 -12.5
v-724c16 -4 33.833 -7.83301 53.5 -11.5s40 -6.83398 61 -9.50098s41.833 -4.66699 62.5 -6s39.667 -2 57 -2c43.333 0 80.333 5 111 15s55.667 24 75 42s33.666 39.667 42.999 65s14 53 14 83v362c0 147.333 -71.667 221 -215 221z" />
    <glyph glyph-name="q" unicode="q" horiz-adv-x="1053" 
d="M909 -410h-157.002v428c-45.333 -12 -90.166 -21.333 -134.499 -28s-87.166 -10 -128.499 -10c-50 0 -97.5 5.16699 -142.5 15.5s-84.5 28.5 -118.5 54.5s-61 61.167 -81 105.5s-30 100.5 -30 168.5v374c0 45.333 7.66699 89.166 23 131.499s39.333 80 72 113
s74.167 59.333 124.5 79s110.833 29.5 181.5 29.5c62 0 126.667 -5.16699 194 -15.5s133 -23.166 197 -38.499v-1407zM488.998 121c22 0 45.332 1.33398 69.999 4.00098s48.834 6 72.501 10s46 8.5 67 13.5s38.833 10.167 53.5 15.5v717c-16 4 -33.5 7.66699 -52.5 11
s-38.667 6.33301 -59 9s-41 4.66699 -62 6s-41.167 2 -60.5 2c-40 0 -75.167 -5.33301 -105.5 -16s-55.833 -25.334 -76.5 -44.001s-36.167 -41 -46.5 -67s-15.5 -54 -15.5 -84v-356c0 -76.667 19.167 -132.667 57.5 -168s90.833 -53 157.5 -53z" />
    <glyph glyph-name="r" unicode="r" horiz-adv-x="700" 
d="M473 905c-30.667 0 -61.3301 -2.66699 -91.9971 -8s-57.334 -12 -80.001 -20v-877h-158v997c21.333 7.33301 45.5 14.166 72.5 20.499s55.167 12 84.5 17s58.833 9 88.5 12s57.834 4.5 84.501 4.5c12.667 0 27 -0.5 43 -1.5s32.333 -2.66699 49 -5
s33.167 -5.16602 49.5 -8.49902s31.166 -7.33301 44.499 -12v-164c-12 6 -25.833 11.667 -41.5 17s-31.834 10 -48.501 14s-33.334 7.33301 -50.001 10s-32 4 -46 4z" />
    <glyph glyph-name="s" unicode="s" horiz-adv-x="887" 
d="M813 283c0 -50 -6.83496 -93.8359 -20.502 -131.503s-35.834 -69.167 -66.501 -94.5s-71 -44.5 -121 -57.5s-111 -19.5 -183 -19.5c-74.667 0 -140.667 8.66699 -198 26s-104.666 44 -141.999 80v170c18.667 -18.667 40 -36.167 64 -52.5s50.333 -30.666 79 -42.999
s59.5 -22 92.5 -29s67.833 -10.5 104.5 -10.5c44 0 80.833 3 110.5 9s53.667 15.5 72 28.5s31.333 29.667 39 50s11.5 45.166 11.5 74.499c0 31.333 -8 56.833 -24 76.5s-37 36 -63 49s-55.667 24.167 -89 33.5l-102.5 29c-35 10 -69.167 22 -102.5 36s-63 32.167 -89 54.5
s-47 50.333 -63 84s-24 75.167 -24 124.5c0 50 7.66699 92.667 23 128s37 64.333 65 87s62 39.334 102 50.001s84.667 16 134 16h51c41.333 0 78.833 -4.33301 112.5 -13s63.834 -20.834 90.501 -36.501s50.334 -34.5 71.001 -56.5s38.667 -46.333 54 -73l-133 -86
c-10 16 -21.333 31.333 -34 46s-27 27.834 -43 39.501s-33.667 20.834 -53 27.501s-41 10 -65 10h-51c-56.667 0 -98.5 -11.167 -125.5 -33.5s-40.5 -57.5 -40.5 -105.5c0 -32.667 8 -59.167 24 -79.5s37 -37.166 63 -50.499s55.667 -24.5 89 -33.5l102.5 -28
c35 -9.66699 69.167 -21.167 102.5 -34.5s63 -31 89 -53s47 -49.667 63 -83s24 -75 24 -125z" />
    <glyph glyph-name="t" unicode="t" horiz-adv-x="647" 
d="M53 1024l110.997 -0.000976562v254l158 20v-274h253v-139h-253v-590c0 -28 2.16699 -52.667 6.5 -74s12 -39.5 23 -54.5s25.5 -26.333 43.5 -34s40.667 -11.5 68 -11.5c26.667 0 51.334 1.83301 74.001 5.5s45.667 9.16699 69 16.5v-141
c-23.333 -7.33301 -48.166 -12.833 -74.499 -16.5s-58.166 -5.5 -95.499 -5.5c-56 0 -101.667 8.33301 -137 25s-63 39.334 -83 68.001s-33.667 61.667 -41 99s-11 76.333 -11 117v596h-111v139z" />
    <glyph glyph-name="u" unicode="u" horiz-adv-x="1059" 
d="M758 1024l156.997 0.000976562v-991c-26 -6 -54.667 -12.167 -86 -18.5s-63.666 -12 -96.999 -17s-66.833 -9.16699 -100.5 -12.5s-65.834 -5 -96.501 -5c-69.333 0 -129.166 8 -179.499 24s-92 38.333 -125 67s-57.5 63 -73.5 103s-24 83.667 -24 131v719h158v-709
c0 -36.667 6.66699 -67.5 20 -92.5s31.166 -45 53.499 -60s48.333 -25.667 78 -32s60.5 -9.5 92.5 -9.5c18.667 0 38.834 0.833008 60.501 2.5s42.834 4 63.501 7s39.834 6.16699 57.501 9.5s31.5 6.66602 41.5 9.99902v874z" />
    <glyph glyph-name="v" unicode="v" horiz-adv-x="942" 
d="M471 184l301 840h170l-391 -1024h-160l-391 1024h170z" />
    <glyph glyph-name="w" unicode="w" horiz-adv-x="1509" 
d="M1079 205l240 819h170l-328 -1024h-155l-252 846l-250 -846h-156l-328 1024h170l240 -819l240 819h170z" />
    <glyph glyph-name="x" unicode="x" horiz-adv-x="877" 
d="M18 1024h185l235 -358l236 358h184l-334 -489l363 -535h-182l-267 403l-266 -403h-182l362 535z" />
    <glyph glyph-name="y" unicode="y" horiz-adv-x="963" 
d="M487 209l306 815h170l-572 -1434h-172l193 428l-412 1006h176z" />
    <glyph glyph-name="z" unicode="z" horiz-adv-x="899" 
d="M61 131l553 754h-512v139h695v-131l-553 -754h594v-139h-777v131z" />
    <glyph glyph-name="braceleft" unicode="{" horiz-adv-x="707" 
d="M430 27c0 -32.667 2.66797 -60 8.00098 -82s14.666 -39.5 27.999 -52.5s31.333 -22.167 54 -27.5s51.334 -8 86.001 -8h60v-142h-58c-60.667 0 -112.334 5.66699 -155.001 17s-77.334 29.5 -104.001 54.5s-46.167 57.167 -58.5 96.5s-18.5 87.333 -18.5 144v258
c0 42 -6.33301 77.167 -19 105.5s-30.334 51 -53.001 68s-49.334 29.167 -80.001 36.5s-64 11 -100 11v139c36.667 0 70.334 3.66699 101.001 11s57.167 19.5 79.5 36.5s39.833 39.667 52.5 68s19 63.5 19 105.5v256c0 56.667 6.16699 104.667 18.5 144
s31.833 71.5 58.5 96.5s61.334 43.167 104.001 54.5s94.334 17 155.001 17h58v-142h-60c-34.667 0 -63.334 -2.66699 -86.001 -8s-40.667 -14.5 -54 -27.5s-22.666 -30.5 -27.999 -52.5s-8 -49.333 -8 -82v-293c0 -68.667 -15.5 -124.667 -46.5 -168s-75.5 -71 -133.5 -83
v-7c58 -13.333 102.5 -41.5 133.5 -84.5s46.5 -97.833 46.5 -164.5v-295z" />
    <glyph glyph-name="bar" unicode="|" horiz-adv-x="492" 
d="M317 -410h-141v1035v1013h141v-1013v-1035z" />
    <glyph glyph-name="braceright" unicode="}" horiz-adv-x="707" 
d="M276 322c0 66.667 15.667 121.5 47 164.5s76 71.167 134 84.5v7c-58 12 -102.667 39.667 -134 83s-47 99.333 -47 168v293c0 32.667 -2.66699 60 -8 82s-14.5 39.5 -27.5 52.5s-30.833 22.167 -53.5 27.5s-51.667 8 -87 8h-59v142h57
c61.333 0 113.166 -5.66699 155.499 -17s77 -29.5 104 -54.5s46.5 -57.167 58.5 -96.5s18 -87.333 18 -144v-256c0 -42 6.33301 -77.167 19 -105.5s30.167 -51 52.5 -68s49 -29.167 80 -36.5s64.5 -11 100.5 -11v-139c-36 0 -69.333 -3.66699 -100 -11
s-57.167 -19.5 -79.5 -36.5s-40 -39.667 -53 -68s-19.5 -63.5 -19.5 -105.5v-258c0 -56.667 -6 -104.667 -18 -144s-31.5 -71.5 -58.5 -96.5s-61.667 -43.167 -104 -54.5s-94.166 -17 -155.499 -17h-57v142h59c35.333 0 64.333 2.66699 87 8s40.5 14.5 53.5 27.5
s22.167 30.5 27.5 52.5s8 49.333 8 82v295z" />
    <glyph glyph-name="asciitilde" unicode="~" 
d="M965 653c-18.667 -14.667 -36.665 -27.166 -53.998 -37.499s-35 -18.666 -53 -24.999s-36.833 -10.833 -56.5 -13.5s-41.167 -4 -64.5 -4c-18 0 -37.333 2 -58 6s-41.667 9.33301 -63 16s-42.833 14.167 -64.5 22.5l-64.5 25.5
c-36.667 15.333 -70.834 26.666 -102.501 33.999s-60.834 11 -87.501 11c-44 0 -82.333 -7.66699 -115 -23s-66 -37 -100 -65v139c28 26 61.333 46.5 100 61.5s81.667 22.5 129 22.5s93 -7.5 137 -22.5s87.333 -31.167 130 -48.5c25.333 -10.667 54 -20.834 86 -30.501
s62 -14.5 90 -14.5c38 0 75.167 8.33301 111.5 25s69.5 39 99.5 67v-146v0z" />
    <glyph glyph-name="uni00A0" unicode="&#xa0;" horiz-adv-x="492" 
 />
    <glyph glyph-name="exclamdown" unicode="&#xa1;" horiz-adv-x="559" 
d="M346 649l33 -1007h-195l33 1007h129zM178 815v240h199v-240h-199z" />
    <glyph glyph-name="cent" unicode="&#xa2;" horiz-adv-x="944" 
d="M561 1241c70 -7.33301 128.334 -27.002 175.001 -59.002s84 -71.667 112 -119l-135 -88c-16.667 27.333 -37.334 52.5 -62.001 75.5s-54.667 38.167 -90 45.5v-772c28 5.33301 55.667 13.166 83 23.499s53.5 22.333 78.5 36s48.167 28.334 69.5 44.001s40 31.5 56 47.5
v-158c-33.333 -34 -75.5 -63.333 -126.5 -88s-104.5 -40.334 -160.5 -47.001v-162h-123v162c-52 4.66699 -98.5 16 -139.5 34s-75.5 43.833 -103.5 77.5s-49.333 75.334 -64 125.001s-22 108.834 -22 177.501v233c0 133.333 28.5 232.833 85.5 298.5
s138.167 102.834 243.5 111.501v154h123v-152zM266.001 613.998c0 -88.667 15.167 -156.001 45.5 -202.001s72.5 -74.667 126.5 -86v770c-55.333 -10.667 -97.833 -38.167 -127.5 -82.5s-44.5 -111.166 -44.5 -200.499v-199v0z" />
    <glyph glyph-name="sterling" unicode="&#xa3;" 
d="M72 0l-0.000976562 147.001c28 16.667 50.833 36 68.5 58s31.667 46 42 72s17.333 53.667 21 83s5.5 59.666 5.5 90.999v174h-158v141h158v272c0 56.667 8.5 109.167 25.5 157.5s41.5 90.166 73.5 125.499s71 63 117 83s97.667 30 155 30h14
c49.333 0 94.5 -7.33301 135.5 -22s77 -35 108 -61s56.667 -56.5 77 -91.5s34.833 -73.167 43.5 -114.5l-157 -37c-5.33301 30 -14.333 56 -27 78s-28.167 40.5 -46.5 55.5s-38.833 26.167 -61.5 33.5s-46.667 11 -72 11h-12c-31.333 0 -59.833 -6 -85.5 -18
s-47.667 -29.667 -66 -53s-32.5 -52.166 -42.5 -86.499s-15 -73.833 -15 -118.5v-244h409v-141h-409v-170c0 -26.667 -1.16699 -54.667 -3.5 -84s-7.66602 -57.833 -15.999 -85.5s-20.5 -53.5 -36.5 -77.5s-37.667 -44.333 -65 -61h727v-147h-907z" />
    <glyph glyph-name="currency" unicode="&#xa4;" horiz-adv-x="2030" 
d="M1898 471c-25.333 -98 -65.835 -188.333 -121.502 -271s-122.334 -154.167 -200.001 -214.5s-164.5 -107.5 -260.5 -141.5s-197.333 -51 -304 -51c-106 0 -206.667 17 -302 51s-181.666 81.167 -258.999 141.5s-143.666 131.833 -198.999 214.5s-95.666 173 -120.999 271
h74c33.333 0 64.5 6.16699 93.5 18.5s54.333 29.166 76 50.499s38.667 46.5 51 75.5s18.5 60.167 18.5 93.5s-6.16699 64.5 -18.5 93.5s-29.333 54.333 -51 76s-47 38.667 -76 51s-60.167 18.5 -93.5 18.5h-72c26 98 66.667 188 122 270s121.5 152.667 198.5 212
s163 105.5 258 138.5s195.167 49.5 300.5 49.5s205.666 -16.833 300.999 -50.5s181.5 -80.167 258.5 -139.5s143.333 -130 199 -212s96.834 -171.333 123.501 -268h-819c-33.333 0 -64.5 -6.16699 -93.5 -18.5s-54.333 -29.333 -76 -51s-38.667 -47 -51 -76
s-18.5 -60.167 -18.5 -93.5s6.16699 -64.5 18.5 -93.5s29.333 -54.167 51 -75.5s47 -38.166 76 -50.499s60.167 -18.5 93.5 -18.5h823z" />
    <glyph glyph-name="yen" unicode="&#xa5;" 
d="M111 436h331v156h-331v141h258l-351 680h168l338 -676l334 676h168l-352 -680h278v-141h-350v-156h350v-141h-350v-295h-160v295h-331v141z" />
    <glyph glyph-name="brokenbar" unicode="&#xa6;" horiz-adv-x="492" 
d="M317 379v-789h-141v789h141zM317 1638v-788h-141v788h141z" />
    <glyph glyph-name="section" unicode="&#xa7;" horiz-adv-x="905" 
d="M813 84c0 -54 -7.50098 -101.5 -22.501 -142.5s-38.833 -75.333 -71.5 -103s-75.167 -48.667 -127.5 -63s-115.833 -21.5 -190.5 -21.5c-36.667 0 -72.667 2.16699 -108 6.5s-68.5 11 -99.5 20s-59.5 20.167 -85.5 33.5s-48.333 29 -67 47v170
c18.667 -18.667 41 -36.167 67 -52.5s54.667 -30.666 86 -42.999s64.666 -22 99.999 -29s71 -10.5 107 -10.5c48 0 88.167 3.16699 120.5 9.5s58.333 16.5 78 30.5s33.834 32.167 42.501 54.5s13 49.5 13 81.5c0 35.333 -8 64 -24 86s-37 40.167 -63 54.5
s-55.667 26.5 -89 36.5l-102.5 31c-35 10.667 -69.167 23.167 -102.5 37.5s-63 33.333 -89 57s-47 53.334 -63 89.001s-24 79.834 -24 132.501c0 68 11.833 122.167 35.5 162.5s57.834 70.166 102.501 89.499c-20 12 -38.5 25.833 -55.5 41.5s-31.5 34 -43.5 55
s-21.5 45 -28.5 72s-10.5 57.5 -10.5 91.5c0 54 7.66699 100.167 23 138.5s37 69.833 65 94.5s62 42.834 102 54.501s84.667 17.5 134 17.5h51c41.333 0 78.833 -4.33301 112.5 -13s63.834 -20.834 90.501 -36.501s50.334 -34.334 71.001 -56.001s38.667 -45.834 54 -72.501
l-133 -86c-10 16 -21.333 31.333 -34 46s-27 27.667 -43 39s-33.667 20.5 -53 27.5s-41 10.5 -65 10.5h-51c-56.667 0 -98.5 -12.167 -125.5 -36.5s-40.5 -62.833 -40.5 -115.5c0 -36.667 8 -66.334 24 -89.001s37 -41.334 63 -56.001s55.667 -26.667 89 -36l102.5 -29.5
c35 -10.333 69.167 -22.333 102.5 -36s63 -32.167 89 -55.5s47 -52.666 63 -87.999s24 -80 24 -134c0 -64.667 -9.66699 -118.667 -29 -162s-52 -76.666 -98 -99.999c18.667 -11.333 35.667 -24.5 51 -39.5s28.666 -32.5 39.999 -52.5s20.166 -43 26.499 -69
s9.5 -55.667 9.5 -89zM654.999 584c0 26 -4.5 48.166 -13.5 66.499s-21.5 34.333 -37.5 48s-34.667 25.334 -56 35.001s-44.333 18.5 -69 26.5h-57c-56.667 0 -98.5 -12.167 -125.5 -36.5s-40.5 -62.833 -40.5 -115.5c0 -32.667 6.33301 -59.834 19 -81.501
s29.834 -39.667 51.501 -54s46.334 -26.166 74.001 -35.499s56.5 -18.333 86.5 -27c31.333 3.33301 57.666 9 78.999 17s38.666 19 51.999 33s22.833 31.167 28.5 51.5s8.5 44.5 8.5 72.5z" />
    <glyph glyph-name="dieresis" unicode="&#xa8;" horiz-adv-x="543" 
d="M166 1358v-199h-158v199h158zM535 1358v-199h-158v199h158z" />
    <glyph glyph-name="copyright" unicode="&#xa9;" horiz-adv-x="1538" 
d="M41 707c0 67.333 8.66699 132 26 194s41.666 120 72.999 174s69.166 103.167 113.499 147.5s93.333 82.333 147 114s111.5 56.167 173.5 73.5s126.667 26 194 26s132 -8.66699 194 -26s120 -41.833 174 -73.5s103.167 -69.667 147.5 -114s82.333 -93.5 114 -147.5
s56.167 -112 73.5 -174s26 -126.667 26 -194s-8.66699 -132 -26 -194s-41.833 -120 -73.5 -174s-69.667 -103 -114 -147s-93.5 -81.667 -147.5 -113s-112 -55.666 -174 -72.999s-126.667 -26 -194 -26s-132 8.66699 -194 26s-119.833 41.666 -173.5 72.999
s-102.667 69 -147 113s-82.166 93 -113.499 147s-55.666 112 -72.999 174s-26 126.667 -26 194zM147 707c0 -86 16.168 -166.833 48.501 -242.5s76.666 -141.5 132.999 -197.5s122.166 -100.167 197.499 -132.5s156 -48.5 242 -48.5c57.333 0 112.5 7.33301 165.5 22
s102.667 35.5 149 62.5s88.666 59.333 126.999 97s71 79.5 98 125.5s48 95.5 63 148.5s22.5 108.167 22.5 165.5c0 86 -16.5 166.833 -49.5 242.5s-77.667 141.834 -134 198.501s-122.5 101.334 -198.5 134.001s-157 49 -243 49s-166.667 -16.333 -242 -49
s-141.166 -77.334 -197.499 -134.001s-100.666 -122.834 -132.999 -198.501s-48.5 -156.5 -48.5 -242.5zM803.001 346c30 0 59.5 5.00195 88.5 15.002s55.667 22.167 80 36.5s45.333 29.166 63 44.499s30.5 28.333 38.5 39v-143c-8 -10 -20 -21.333 -36 -34
s-35.667 -24.5 -59 -35.5s-49.833 -20.333 -79.5 -28s-61.5 -11.5 -95.5 -11.5h-53c-45.333 0 -86.333 7 -123 21s-68 33.333 -94 58s-46.167 54 -60.5 88s-21.5 70.667 -21.5 110v401c0 39.333 7.16699 76 21.5 110s34.5 63.333 60.5 88s57.333 44 94 58s77.667 21 123 21
h41c38 0 72.667 -5.83301 104 -17.5s58.833 -27.334 82.5 -47.001s43.5 -42.5 59.5 -68.5s27.333 -53.333 34 -82l-129 -27c-18 83.333 -68.333 125 -151 125h-41c-52 0 -92.333 -16.5 -121 -49.5s-43 -80.833 -43 -143.5v-335c0 -62.667 14.333 -110.5 43 -143.5
s69 -49.5 121 -49.5h53z" />
    <glyph glyph-name="ordfeminine" unicode="&#xaa;" horiz-adv-x="700" 
d="M182 979c0 -28 10.001 -50 30.001 -66s55 -24 105 -24c11.333 0 24.666 0.5 39.999 1.5s30.833 2.5 46.5 4.5s30.167 4 43.5 6s23.333 4 30 6v162h-192c-38 0 -64.667 -8 -80 -24s-23 -35.333 -23 -58v-8zM326.001 1315c-10 0 -20.501 -0.827148 -31.501 -2.49414
s-22 -4.83398 -33 -9.50098s-21.667 -10.834 -32 -18.501s-19.166 -17.5 -26.499 -29.5l-107 54c20.667 34.667 52.5 61.667 95.5 81s95.833 29 158.5 29c38.667 0 73.834 -4.16699 105.501 -12.5s58.834 -21.333 81.501 -39s40.167 -40.334 52.5 -68.001
s18.5 -60.834 18.5 -99.501v-381c-16.667 -4.66699 -37.167 -9.33398 -61.5 -14.001s-50 -8.83398 -77 -12.501s-53.833 -6.66699 -80.5 -9s-50.667 -3.5 -72 -3.5c-50.667 0 -93 5 -127 15s-61.333 23.667 -82 41s-35.334 37.833 -44.001 61.5s-13 49.5 -13 77.5v16
c0 29.333 6.16699 55.5 18.5 78.5s29.166 42.333 50.499 58s46.5 27.667 75.5 36s60.167 12.5 93.5 12.5h188v14c0 46 -11 78.333 -33 97s-52.667 28 -92 28h-26z" />
    <glyph glyph-name="guillemotleft" unicode="&#xab;" horiz-adv-x="893" 
d="M416 913h10v-157l-209 -242l209 -244v-159h-10l-334 329v146zM801 913h10v-157l-209 -242l209 -244v-159h-10l-334 329v146z" />
    <glyph glyph-name="logicalnot" unicode="&#xac;" 
d="M965 766v-510h-142v369h-741v141h883z" />
    <glyph glyph-name="uni00AD" unicode="&#xad;" horiz-adv-x="561" 
d="M520 602v-139h-479v139h479z" />
    <glyph glyph-name="registered" unicode="&#xae;" horiz-adv-x="1538" 
d="M41 707c0 67.333 8.66699 132 26 194s41.666 120 72.999 174s69.166 103.167 113.499 147.5s93.333 82.333 147 114s111.5 56.167 173.5 73.5s126.667 26 194 26s132 -8.66699 194 -26s120 -41.833 174 -73.5s103.167 -69.667 147.5 -114s82.333 -93.5 114 -147.5
s56.167 -112 73.5 -174s26 -126.667 26 -194s-8.66699 -132 -26 -194s-41.833 -120 -73.5 -174s-69.667 -103 -114 -147s-93.5 -81.667 -147.5 -113s-112 -55.666 -174 -72.999s-126.667 -26 -194 -26s-132 8.66699 -194 26s-119.833 41.666 -173.5 72.999
s-102.667 69 -147 113s-82.166 93 -113.499 147s-55.666 112 -72.999 174s-26 126.667 -26 194zM147 707c0 -86 16.168 -166.833 48.501 -242.5s76.666 -141.5 132.999 -197.5s122.166 -100.167 197.499 -132.5s156 -48.5 242 -48.5c57.333 0 112.5 7.33301 165.5 22
s102.667 35.5 149 62.5s88.666 59.333 126.999 97s71 79.5 98 125.5s48 95.5 63 148.5s22.5 108.167 22.5 165.5c0 86 -16.5 166.833 -49.5 242.5s-77.667 141.834 -134 198.501s-122.5 101.334 -198.5 134.001s-157 49 -243 49s-166.667 -16.333 -242 -49
s-141.166 -77.334 -197.499 -134.001s-100.666 -122.834 -132.999 -198.501s-48.5 -156.5 -48.5 -242.5zM786.001 768c21.333 0 42.667 2.16602 64 6.49902s40.5 12.5 57.5 24.5s30.833 28.667 41.5 50s16 49 16 83c0 32 -5.33301 58 -16 78s-24.667 35.333 -42 46
s-36.5 17.834 -57.5 21.501s-42.167 5.5 -63.5 5.5h-168v-315h168zM969.002 273.999l-207 375.001h-144v-375h-131v926h322c43.333 0 83 -5.83301 119 -17.5s66.667 -28.834 92 -51.501s45 -50.334 59 -83.001s21 -70 21 -112c0 -40 -6.16699 -75.333 -18.5 -106
s-28.5 -57 -48.5 -79s-42.667 -39.667 -68 -53s-51.333 -22.666 -78 -27.999l227 -396h-145z" />
    <glyph glyph-name="overscore" unicode="&#xaf;" horiz-adv-x="1024" 
d="M1034 1638v-122h-1044v122h1044z" />
    <glyph glyph-name="degree" unicode="&#xb0;" horiz-adv-x="856" 
d="M418 1434c40.667 0 78.834 -7.83203 114.501 -23.499s66.834 -36.834 93.501 -63.501s47.834 -58 63.501 -94s23.5 -74 23.5 -114c0 -40.667 -7.83301 -78.834 -23.5 -114.501s-36.834 -66.834 -63.501 -93.501s-57.834 -47.834 -93.501 -63.501
s-73.834 -23.5 -114.501 -23.5s-78.834 7.83301 -114.501 23.5s-66.834 36.834 -93.501 63.501s-47.834 57.834 -63.501 93.501s-23.5 73.834 -23.5 114.501c0 44 7.83301 84.167 23.5 120.5s36.834 67.333 63.501 93s57.834 45.667 93.501 60s73.834 21.5 114.501 21.5z
M418 1317c-24.667 0 -47.834 -4.33105 -69.501 -12.998s-40.5 -20.834 -56.5 -36.501s-28.667 -34.334 -38 -56.001s-14 -45.834 -14 -72.501c0 -24.667 4.66699 -47.834 14 -69.501s22 -40.5 38 -56.5s34.833 -28.667 56.5 -38s44.834 -14 69.501 -14
s47.834 4.66699 69.501 14s40.5 22 56.5 38s28.667 34.833 38 56.5s14 44.834 14 69.501s-4.66699 47.834 -14 69.501s-22 40.5 -38 56.5s-34.833 28.667 -56.5 38s-44.834 14 -69.501 14z" />
    <glyph glyph-name="plusminus" unicode="&#xb1;" 
d="M594 1094v-328h371v-141h-371v-308h-141v308h-371v141h371v328h141zM965 252v-141h-371h-512v141h512h371z" />
    <glyph glyph-name="uni00B2" unicode="&#xb2;" horiz-adv-x="825" 
d="M741 694l-0.00195312 -120.997h-632v93c0 41.333 4.66699 79.166 14 113.499s24.833 65.5 46.5 93.5s50.334 53 86.001 75s79.5 41.333 131.5 58c46 14.667 82.5 28.667 109.5 42s47.667 27.333 62 42s23.5 30.667 27.5 48s6 37.333 6 60c0 39.333 -12.667 68.333 -38 87
s-67.333 28 -126 28h-4c-22.667 0 -43.667 -1.33301 -63 -4s-36.5 -7.83398 -51.5 -15.501s-27.833 -18.5 -38.5 -32.5s-19 -32.333 -25 -55l-135 25c10 35.333 22.833 65.833 38.5 91.5s35.667 46.667 60 63s54 28.5 89 36.5s76.833 12 125.5 12h4
c55.333 0 102.333 -5.33301 141 -16s70.167 -25.834 94.5 -45.501s42 -43.5 53 -71.5s16.5 -59.667 16.5 -95c0 -38.667 -4.83301 -72.667 -14.5 -102s-25.5 -55.5 -47.5 -78.5s-50.333 -43.5 -85 -61.5s-77 -35.667 -127 -53c-42.667 -14 -77.5 -28.333 -104.5 -43
s-48.167 -30.5 -63.5 -47.5s-25.666 -35.833 -30.999 -56.5s-8 -44 -8 -70h489z" />
    <glyph glyph-name="uni00B3" unicode="&#xb3;" horiz-adv-x="825" 
d="M397 682c60.667 0 108.669 10.6641 144.002 31.9971s53 53 53 95v14c0 24.667 -4.83301 44.834 -14.5 60.501s-24.5 28 -44.5 37s-45 15.167 -75 18.5s-65.333 5 -106 5v123c42 0 77.333 2.5 106 7.5s51.667 12.833 69 23.5s29.833 24.5 37.5 41.5s11.5 37.167 11.5 60.5
v8c0 19.333 -3.83301 35.666 -11.5 48.999s-18.667 24.166 -33 32.499s-31.5 14.333 -51.5 18s-42.667 5.5 -68 5.5h-11c-47.333 0 -85.166 -8 -113.499 -24s-47.833 -43.667 -58.5 -83l-137 21c8 29.333 20.333 56.5 37 81.5s38 46.833 64 65.5s56.333 33.334 91 44.001
s73.667 16 117 16h9c98.667 0 174.167 -18.667 226.5 -56s78.5 -88.333 78.5 -153v-29c0 -16.667 -3 -34.667 -9 -54s-16.5 -37.833 -31.5 -55.5s-35 -33.5 -60 -47.5s-56.5 -23.667 -94.5 -29c39.333 -6 72.333 -14.167 99 -24.5s48.334 -22.833 65.001 -37.5
s28.667 -31.5 36 -50.5s11 -40.167 11 -63.5v-41c0 -36.667 -7.5 -69.5 -22.5 -98.5s-36.833 -53.333 -65.5 -73s-63.334 -34.667 -104.001 -45s-86.667 -15.5 -138 -15.5c-40 0 -76.833 2.83301 -110.5 8.5s-63.834 12.834 -90.501 21.501s-49.334 18 -68.001 28
s-32.667 19.333 -42 28v144c8.66699 -9.33301 23.167 -20.166 43.5 -32.499s44.166 -24.166 71.499 -35.499s57.333 -21 90 -29s66 -12 100 -12z" />
    <glyph glyph-name="acute" unicode="&#xb4;" horiz-adv-x="494" 
d="M262 1434h193v-15l-299 -280h-117v10z" />
    <glyph glyph-name="uni00B5" unicode="&#xb5;" horiz-adv-x="1069" 
d="M768 1024l158.001 0.000976562v-991c-26 -6 -54.833 -12.167 -86.5 -18.5s-64.167 -12 -97.5 -17s-66.833 -9.16699 -100.5 -12.5s-65.834 -5 -96.501 -5c-58 0 -108 5.66699 -150 17s-73.333 25.333 -94 42v-449h-158v1434h158v-717
c0 -60.667 22.167 -106.167 66.5 -136.5s103.5 -45.5 177.5 -45.5c19.333 0 39.833 0.833008 61.5 2.5s42.667 4 63 7s39.333 6.16699 57 9.5s31.5 6.66602 41.5 9.99902v870z" />
    <glyph glyph-name="paragraph" unicode="&#xb6;" horiz-adv-x="1081" 
d="M891 1286v-1485h-146v1485h-178v-1485h-145v897c-54 0 -103.167 7.5 -147.5 22.5s-82.5 37.167 -114.5 66.5s-56.833 66.333 -74.5 111s-26.5 96.334 -26.5 155.001c0 56 8.33301 106.167 25 150.5s41 82 73 113s71 54.833 117 71.5s98 25 156 25h590v-127h-129z" />
    <glyph glyph-name="periodcentered" unicode="&#xb7;" horiz-adv-x="406" 
d="M283 854v-240h-160v240h160z" />
    <glyph glyph-name="cedilla" unicode="&#xb8;" horiz-adv-x="584" 
d="M143 -295c33.333 -4 62.001 -5.99902 86.001 -5.99902c44 0 75.167 6.66699 93.5 20s27.5 30.666 27.5 51.999c0 24.667 -13.833 43.667 -41.5 57s-69.834 20 -126.501 20l70 152h96l-33 -70c17.333 -2 35 -6.5 53 -13.5s34.333 -16.833 49 -29.5s26.667 -28.5 36 -47.5
s14 -41.833 14 -68.5c0 -56.667 -19.167 -101 -57.5 -133s-100.5 -48 -186.5 -48c-12 0 -24.667 0.333008 -38 1s-27.333 1.66699 -42 3v111z" />
    <glyph glyph-name="uni00B9" unicode="&#xb9;" horiz-adv-x="825" 
d="M553 565h-137v703l-250 -144v136l283 153h104v-848z" />
    <glyph glyph-name="ordmasculine" unicode="&#xba;" horiz-adv-x="750" 
d="M88 1174c0 45.333 7.16699 83.666 21.5 114.999s33.666 56.666 57.999 75.999s53 33.166 86 41.499s68.5 12.5 106.5 12.5h46c37.333 0 71.666 -4.16699 102.999 -12.5s58.333 -22.166 81 -41.499s40.334 -44.666 53.001 -75.999s19 -69.666 19 -114.999v-148
c0 -45.333 -6.33301 -83.666 -19 -114.999s-30.334 -56.666 -53.001 -75.999s-49.667 -33.333 -81 -42s-65.666 -13 -102.999 -13h-46c-38 0 -73.5 4.33301 -106.5 13s-61.667 22.667 -86 42s-43.666 44.666 -57.999 75.999s-21.5 69.666 -21.5 114.999v148zM219 1036
c0 -21.333 2.50098 -41.001 7.50098 -59.001s13 -33.5 24 -46.5s25.167 -23.167 42.5 -30.5s38.333 -11 63 -11h39c15.333 0 30.833 1.83301 46.5 5.5s30.167 10.834 43.5 21.501s24.166 25.667 32.499 45s12.5 44.333 12.5 75v127c0 28 -3.33301 51.5 -10 70.5
s-16 34.333 -28 46s-26.333 19.834 -43 24.501s-34.667 7 -54 7h-39c-19.333 0 -37.333 -2.66699 -54 -8s-31.167 -14 -43.5 -26s-22 -27.333 -29 -46s-10.5 -41.334 -10.5 -68.001v-127z" />
    <glyph glyph-name="guillemotright" unicode="&#xbb;" horiz-adv-x="893" 
d="M811 586v-146l-334 -329h-10v159l209 244l-209 242v157h10zM426 586v-146l-334 -329h-10v159l209 244l-209 242v157h10z" />
    <glyph glyph-name="onequarter" unicode="&#xbc;" horiz-adv-x="1700" 
d="M1567 349v-120h-145v-228h-138v228h-446v110l424 510h160v-500h145zM994 349h290v351zM1358 1436l-1028 -1456h-158l1028 1456h158zM472 565h-137v703l-250 -144v136l283 153h104v-848z" />
    <glyph glyph-name="onehalf" unicode="&#xbd;" horiz-adv-x="1700" 
d="M472 565h-137v703l-250 -144v136l283 153h104v-848zM1358 1436l-1028 -1456h-158l1028 1456h158zM1609 122l-0.00195312 -120.997h-632v93c0 41.333 4.66699 79.166 14 113.499s24.833 65.5 46.5 93.5s50.334 53 86.001 75s79.5 41.333 131.5 58
c46 14.667 82.5 28.667 109.5 42s47.667 27.333 62 42s23.5 30.667 27.5 48s6 37.333 6 60c0 39.333 -12.667 68.333 -38 87s-67.333 28 -126 28h-4c-22.667 0 -43.667 -1.33301 -63 -4s-36.5 -7.83398 -51.5 -15.501s-27.833 -18.5 -38.5 -32.5s-19 -32.333 -25 -55
l-135 25c10 35.333 22.833 65.833 38.5 91.5s35.667 46.667 60 63s54 28.5 89 36.5s76.833 12 125.5 12h4c55.333 0 102.333 -5.33301 141 -16s70.167 -25.834 94.5 -45.501s42 -43.5 53 -71.5s16.5 -59.667 16.5 -95c0 -38.667 -4.83301 -72.667 -14.5 -102
s-25.5 -55.5 -47.5 -78.5s-50.333 -43.5 -85 -61.5s-77 -35.667 -127 -53c-42.667 -14 -77.5 -28.333 -104.5 -43s-48.167 -30.5 -63.5 -47.5s-25.666 -35.833 -30.999 -56.5s-8 -44 -8 -70h489z" />
    <glyph glyph-name="threequarters" unicode="&#xbe;" horiz-adv-x="1843" 
d="M1521 1436l-1028 -1456h-158l1028 1456h158zM1731 349v-120h-145v-228h-138v228h-446v110l424 510h160v-500h145zM1158 349h290v351zM371 682c60.667 0 108.669 10.6641 144.002 31.9971s53 53 53 95v14c0 24.667 -4.83301 44.834 -14.5 60.501s-24.5 28 -44.5 37
s-45 15.167 -75 18.5s-65.333 5 -106 5v123c42 0 77.333 2.5 106 7.5s51.667 12.833 69 23.5s29.833 24.5 37.5 41.5s11.5 37.167 11.5 60.5v8c0 19.333 -3.83301 35.666 -11.5 48.999s-18.667 24.166 -33 32.499s-31.5 14.333 -51.5 18s-42.667 5.5 -68 5.5h-11
c-47.333 0 -85.166 -8 -113.499 -24s-47.833 -43.667 -58.5 -83l-137 21c8 29.333 20.333 56.5 37 81.5s38 46.833 64 65.5s56.333 33.334 91 44.001s73.667 16 117 16h9c98.667 0 174.167 -18.667 226.5 -56s78.5 -88.333 78.5 -153v-29c0 -16.667 -3 -34.667 -9 -54
s-16.5 -37.833 -31.5 -55.5s-35 -33.5 -60 -47.5s-56.5 -23.667 -94.5 -29c39.333 -6 72.333 -14.167 99 -24.5s48.334 -22.833 65.001 -37.5s28.667 -31.5 36 -50.5s11 -40.167 11 -63.5v-41c0 -36.667 -7.5 -69.5 -22.5 -98.5s-36.833 -53.333 -65.5 -73
s-63.334 -34.667 -104.001 -45s-86.667 -15.5 -138 -15.5c-40 0 -76.833 2.83301 -110.5 8.5s-63.834 12.834 -90.501 21.501s-49.334 18 -68.001 28s-32.667 19.333 -42 28v144c8.66699 -9.33301 23.167 -20.166 43.5 -32.499s44.166 -24.166 71.499 -35.499
s57.333 -21 90 -29s66 -12 100 -12z" />
    <glyph glyph-name="questiondown" unicode="&#xbf;" horiz-adv-x="1024" 
d="M446 815v240h199v-240h-199zM272 -16c0 -38.667 5.33301 -71.666 16 -98.999s26 -49.833 46 -67.5s44.5 -30.5 73.5 -38.5s61.833 -12 98.5 -12h29c29.333 0 57.666 2.16699 84.999 6.5s52.166 13 74.499 26s41.5 31.333 57.5 55s27.333 54.5 34 92.5l158 -37
c-23.333 -100 -68.5 -173.167 -135.5 -219.5s-158.167 -69.5 -273.5 -69.5h-29c-62.667 0 -118.5 8 -167.5 24s-90.167 39.167 -123.5 69.5s-58.666 67.333 -75.999 111s-26 93.5 -26 149.5c0 43.333 5.16699 81.833 15.5 115.5s24 64.167 41 91.5s36.333 52.666 58 75.999
s43.834 45.833 66.501 67.5l66.5 65.5c21.667 22 41 45.667 58 71s30.667 53.166 41 83.499s15.5 64.833 15.5 103.5h158c0 -47.333 -5.16699 -89.333 -15.5 -126s-24 -69.5 -41 -98.5s-36.333 -55.167 -58 -78.5s-43.667 -45.333 -66 -66l-66 -61.5
c-21.667 -20.333 -41 -42 -58 -65s-30.667 -48.167 -41 -75.5s-15.5 -58.666 -15.5 -93.999z" />
    <glyph glyph-name="Agrave" unicode="&#xc0;" horiz-adv-x="1163" 
d="M805 567l-131 377l-34 102l-30 93c-10.667 32.667 -20 62.667 -28 90c-7.33301 -27.333 -16.5 -57.5 -27.5 -90.5l-30.5 -93.5l-35 -103l-131 -375h447zM852 420h-539l-149 -420h-164l502 1413h160l501 -1413h-164zM733 1534v-10h-117l-299 280v15h192z" />
    <glyph glyph-name="Aacute" unicode="&#xc1;" horiz-adv-x="1163" 
d="M805 567l-131 377l-34 102l-30 93c-10.667 32.667 -20 62.667 -28 90c-7.33301 -27.333 -16.5 -57.5 -27.5 -90.5l-30.5 -93.5l-35 -103l-131 -375h447zM852 420h-539l-149 -420h-164l502 1413h160l501 -1413h-164zM672 1819h193v-15l-299 -280h-117v10z" />
    <glyph glyph-name="Acircumflex" unicode="&#xc2;" horiz-adv-x="1163" 
d="M805 567l-131 377l-34 102l-30 93c-10.667 32.667 -20 62.667 -28 90c-7.33301 -27.333 -16.5 -57.5 -27.5 -90.5l-30.5 -93.5l-35 -103l-131 -375h447zM852 420h-539l-149 -420h-164l502 1413h160l501 -1413h-164zM467 1819h232l202 -285v-10h-116l-203 188l-201 -188
h-117v10z" />
    <glyph glyph-name="Atilde" unicode="&#xc3;" horiz-adv-x="1163" 
d="M805 567l-131 377l-34 102l-30 93c-10.667 32.667 -20 62.667 -28 90c-7.33301 -27.333 -16.5 -57.5 -27.5 -90.5l-30.5 -93.5l-35 -103l-131 -375h447zM852 420h-539l-149 -420h-164l502 1413h160l501 -1413h-164zM889 1604
c-25.333 -30 -49.999 -50.834 -73.999 -62.501s-52 -17.5 -84 -17.5c-20.667 0 -43.834 4.66699 -69.501 14s-51.834 19.5 -78.501 30.5s-53.5 21 -80.5 30s-52.5 13.5 -76.5 13.5c-30.667 0 -57.334 -7.66699 -80.001 -23s-46 -37 -70 -65v139
c19.333 25.333 42.666 45.666 69.999 60.999s57.333 23 90 23c28 0 54.833 -4.66699 80.5 -14s50.834 -19.666 75.501 -30.999s49.334 -21.666 74.001 -30.999s50.334 -14 77.001 -14c26 0 51.667 8.33301 77 25s48.333 39 69 67v-145v0z" />
    <glyph glyph-name="Adieresis" unicode="&#xc4;" horiz-adv-x="1163" 
d="M805 567l-131 377l-34 102l-30 93c-10.667 32.667 -20 62.667 -28 90c-7.33301 -27.333 -16.5 -57.5 -27.5 -90.5l-30.5 -93.5l-35 -103l-131 -375h447zM852 420h-539l-149 -420h-164l502 1413h160l501 -1413h-164zM477 1722v-198h-158v198h158zM846 1722v-198h-158v198
h158z" />
    <glyph glyph-name="Aring" unicode="&#xc5;" horiz-adv-x="1163" 
d="M354 1538c0 31.333 5.99805 60.833 17.998 88.5s28.333 51.667 49 72s44.834 36.5 72.501 48.5s57.167 18 88.5 18c32 0 61.667 -6 89 -18s51.333 -28.167 72 -48.5s36.834 -44.333 48.501 -72s17.5 -57.167 17.5 -88.5c0 -44 -11.167 -84 -33.5 -120
s-51.5 -63.667 -87.5 -83l475 -1335h-164l-147 420h-539l-149 -420h-164l473 1335c-36 19.333 -64.833 47 -86.5 83s-32.5 76 -32.5 120zM804.998 567l-131 377l-34 102l-30 93c-10.667 32.667 -20 62.667 -28 90c-7.33301 -27.333 -16.5 -57.5 -27.5 -90.5l-30.5 -93.5
l-35 -103l-131 -375h447zM456.998 1538c0 -16.667 2.83008 -32.4971 8.49707 -47.4971s13.667 -28 24 -39s22.5 -19.833 36.5 -26.5s29 -10.667 45 -12h11c17.333 0 33.5 3.16699 48.5 9.5s28.167 15.166 39.5 26.499s20.333 24.666 27 39.999s10 31.666 10 48.999
s-3.33301 33.666 -10 48.999s-15.667 28.666 -27 39.999s-24.5 20.166 -39.5 26.499s-31.167 9.5 -48.5 9.5s-33.666 -3.16699 -48.999 -9.5s-28.666 -15.166 -39.999 -26.499s-20.166 -24.666 -26.499 -39.999s-9.5 -31.666 -9.5 -48.999z" />
    <glyph glyph-name="AE" unicode="&#xc6;" horiz-adv-x="1741" 
d="M1638 0h-735v461h-491l-242 -461h-190l768 1413h890v-147h-575v-455h532v-147h-532v-517h575v-147zM489 608h414v658h-74l-20.5 -43l-24.5 -49.5l-26.5 -52l-25.5 -50.5l-60 -117z" />
    <glyph glyph-name="Ccedilla" unicode="&#xc7;" horiz-adv-x="1102" 
d="M430 -295c33.333 -4 62.0029 -5.99902 86.0029 -5.99902c44 0 75.167 6.66699 93.5 20s27.5 30.666 27.5 51.999c0 24.667 -13.833 43.667 -41.5 57s-69.834 20 -126.501 20l59 132c-62 0.666992 -117.833 11.334 -167.5 32.001s-91.834 48.5 -126.501 83.5
s-61.167 76.333 -79.5 124s-27.5 99.5 -27.5 155.5v663c0 56.667 9.5 109.167 28.5 157.5s46.167 90.166 81.5 125.499s78.5 63 129.5 83s108.5 30 172.5 30h57c54 0 103.667 -7.33301 149 -22s85.166 -35 119.499 -61s63 -56.5 86 -91.5s39.167 -73.167 48.5 -114.5
l-157 -37c-6 30 -16.667 56 -32 78s-33.833 40.5 -55.5 55.5s-46 26.167 -73 33.5s-55.5 11 -85.5 11h-57c-36.667 0 -70.334 -6 -101.001 -18s-56.834 -29.667 -78.501 -53s-38.5 -52.166 -50.5 -86.499s-18 -73.833 -18 -118.5v-607c0 -44.667 6 -84.167 18 -118.5
s28.833 -63.166 50.5 -86.499s47.834 -41 78.501 -53s64.334 -18 101.001 -18h75c43.333 0 85.666 7.33301 126.999 22s79.5 32.167 114.5 52.5s65.333 41.666 91 63.999s43.834 41.166 54.501 56.499v-185c-11.333 -14.667 -28.333 -31 -51 -49
s-50.167 -34.833 -82.5 -50.5s-69 -29 -110 -40s-85.167 -16.833 -132.5 -17.5l-23 -50c17.333 -2 35 -6.5 53 -13.5s34.333 -16.833 49 -29.5s26.667 -28.5 36 -47.5s14 -41.833 14 -68.5c0 -56.667 -19.167 -101 -57.5 -133s-100.5 -48 -186.5 -48
c-12.667 0 -25.5 0.333008 -38.5 1s-26.833 1.66699 -41.5 3v111z" />
    <glyph glyph-name="Egrave" unicode="&#xc8;" horiz-adv-x="991" 
d="M889 0h-735v1413h735v-147h-576v-455h533v-147h-533v-517h576v-147zM682 1534v-10h-117l-299 280v15h192z" />
    <glyph glyph-name="Eacute" unicode="&#xc9;" horiz-adv-x="991" 
d="M889 0h-735v1413h735v-147h-576v-455h533v-147h-533v-517h576v-147zM579 1819h193v-15l-299 -280h-117v10z" />
    <glyph glyph-name="Ecircumflex" unicode="&#xca;" horiz-adv-x="991" 
d="M889 0h-735v1413h735v-147h-576v-455h533v-147h-533v-517h576v-147zM418 1819h232l202 -285v-10h-116l-203 188l-201 -188h-117v10z" />
    <glyph glyph-name="Edieresis" unicode="&#xcb;" horiz-adv-x="991" 
d="M889 0h-735v1413h735v-147h-576v-455h533v-147h-533v-517h576v-147zM422 1722v-198h-158v198h158zM791 1722v-198h-158v198h158z" />
    <glyph glyph-name="Igrave" unicode="&#xcc;" horiz-adv-x="467" 
d="M154 0v1413h159v-1413h-159zM366 1534v-10h-117l-299 280v15h192z" />
    <glyph glyph-name="Iacute" unicode="&#xcd;" horiz-adv-x="467" 
d="M154 0v1413h159v-1413h-159zM332 1821h193v-15l-299 -280h-117v10z" />
    <glyph glyph-name="Icircumflex" unicode="&#xce;" horiz-adv-x="467" 
d="M154 0v1413h159v-1413h-159zM124 1819h232l202 -285v-10h-116l-203 188l-201 -188h-117v10z" />
    <glyph glyph-name="Idieresis" unicode="&#xcf;" horiz-adv-x="467" 
d="M154 0v1413h159v-1413h-159zM132 1722v-198h-158v198h158zM501 1722v-198h-158v198h158z" />
    <glyph glyph-name="Eth" unicode="&#xd0;" horiz-adv-x="1262" 
d="M143 774l0.000976562 639h437c94 0 177.167 -11.5 249.5 -34.5s133.333 -60.667 183 -113s87.167 -121 112.5 -206s38 -189.833 38 -314.5c0 -130 -12.833 -242 -38.5 -336s-63.334 -171.167 -113.001 -231.5s-111.167 -105 -184.5 -134s-158 -43.5 -254 -43.5h-430v627
h-123v147h123zM999.001 748c0 100.667 -9.83008 184.334 -29.4971 251.001s-47.834 119.667 -84.501 159s-81.334 67.166 -134.001 83.499s-112 24.5 -178 24.5h-270v-492h289v-147h-289v-480h272c66 0 125.167 9.83301 177.5 29.5s96.666 52.667 132.999 99
s64.333 108 84 185s29.5 172.833 29.5 287.5z" />
    <glyph glyph-name="Ntilde" unicode="&#xd1;" horiz-adv-x="1368" 
d="M1055 1413l159 -0.000976562v-1413h-176l-733 1174l4 -123c1.33301 -34.667 2.33301 -70.667 3 -108s1 -69.666 1 -96.999v-846h-159v1413h180l729 -1173l-4 104c-1.33301 30 -2.33301 62.667 -3 98s-1 69 -1 101v870zM1002 1604
c-25.333 -30 -49.999 -50.834 -73.999 -62.501s-52 -17.5 -84 -17.5c-20.667 0 -43.834 4.66699 -69.501 14s-51.834 19.5 -78.501 30.5s-53.5 21 -80.5 30s-52.5 13.5 -76.5 13.5c-30.667 0 -57.334 -7.66699 -80.001 -23s-46 -37 -70 -65v139
c19.333 25.333 42.666 45.666 69.999 60.999s57.333 23 90 23c28 0 54.833 -4.66699 80.5 -14s50.834 -19.666 75.501 -30.999s49.334 -21.666 74.001 -30.999s50.334 -14 77.001 -14c26 0 51.667 8.33301 77 25s48.333 39 69 67v-145v0z" />
    <glyph glyph-name="Ograve" unicode="&#xd2;" horiz-adv-x="1239" 
d="M700 1434c64 0 121.5 -10 172.5 -30s94.167 -47.667 129.5 -83s62.5 -77.166 81.5 -125.499s28.5 -100.833 28.5 -157.5v-663c0 -56 -9.5 -108.167 -28.5 -156.5s-46.167 -90.166 -81.5 -125.499s-78.5 -63 -129.5 -83s-108.5 -30 -172.5 -30h-161
c-64 0 -121.5 10 -172.5 30s-94.167 47.667 -129.5 83s-62.5 77.166 -81.5 125.499s-28.5 100.5 -28.5 156.5v663c0 56.667 9.5 109.167 28.5 157.5s46.167 90.166 81.5 125.499s78.5 63 129.5 83s108.5 30 172.5 30h161zM539 1286c-36.667 0 -70.334 -6 -101.001 -18
s-56.834 -29.667 -78.501 -53s-38.5 -52.166 -50.5 -86.499s-18 -73.833 -18 -118.5v-607c0 -44.667 6 -84.167 18 -118.5s28.833 -63.166 50.5 -86.499s47.834 -41 78.501 -53s64.334 -18 101.001 -18h161c37.333 0 71.166 6 101.499 18s56.333 29.667 78 53
s38.5 52.166 50.5 86.499s18 73.833 18 118.5v607c0 44.667 -6 84.167 -18 118.5s-28.833 63.166 -50.5 86.499s-47.667 41 -78 53s-64.166 18 -101.499 18h-161zM785 1534v-10h-117l-299 280v15h192z" />
    <glyph glyph-name="Oacute" unicode="&#xd3;" horiz-adv-x="1239" 
d="M700 1434c64 0 121.5 -10 172.5 -30s94.167 -47.667 129.5 -83s62.5 -77.166 81.5 -125.499s28.5 -100.833 28.5 -157.5v-663c0 -56 -9.5 -108.167 -28.5 -156.5s-46.167 -90.166 -81.5 -125.499s-78.5 -63 -129.5 -83s-108.5 -30 -172.5 -30h-161
c-64 0 -121.5 10 -172.5 30s-94.167 47.667 -129.5 83s-62.5 77.166 -81.5 125.499s-28.5 100.5 -28.5 156.5v663c0 56.667 9.5 109.167 28.5 157.5s46.167 90.166 81.5 125.499s78.5 63 129.5 83s108.5 30 172.5 30h161zM539 1286c-36.667 0 -70.334 -6 -101.001 -18
s-56.834 -29.667 -78.501 -53s-38.5 -52.166 -50.5 -86.499s-18 -73.833 -18 -118.5v-607c0 -44.667 6 -84.167 18 -118.5s28.833 -63.166 50.5 -86.499s47.834 -41 78.501 -53s64.334 -18 101.001 -18h161c37.333 0 71.166 6 101.499 18s56.333 29.667 78 53
s38.5 52.166 50.5 86.499s18 73.833 18 118.5v607c0 44.667 -6 84.167 -18 118.5s-28.833 63.166 -50.5 86.499s-47.667 41 -78 53s-64.166 18 -101.499 18h-161zM706 1819h193v-15l-299 -280h-117v10z" />
    <glyph glyph-name="Ocircumflex" unicode="&#xd4;" horiz-adv-x="1239" 
d="M700 1434c64 0 121.5 -10 172.5 -30s94.167 -47.667 129.5 -83s62.5 -77.166 81.5 -125.499s28.5 -100.833 28.5 -157.5v-663c0 -56 -9.5 -108.167 -28.5 -156.5s-46.167 -90.166 -81.5 -125.499s-78.5 -63 -129.5 -83s-108.5 -30 -172.5 -30h-161
c-64 0 -121.5 10 -172.5 30s-94.167 47.667 -129.5 83s-62.5 77.166 -81.5 125.499s-28.5 100.5 -28.5 156.5v663c0 56.667 9.5 109.167 28.5 157.5s46.167 90.166 81.5 125.499s78.5 63 129.5 83s108.5 30 172.5 30h161zM539 1286c-36.667 0 -70.334 -6 -101.001 -18
s-56.834 -29.667 -78.501 -53s-38.5 -52.166 -50.5 -86.499s-18 -73.833 -18 -118.5v-607c0 -44.667 6 -84.167 18 -118.5s28.833 -63.166 50.5 -86.499s47.834 -41 78.501 -53s64.334 -18 101.001 -18h161c37.333 0 71.166 6 101.499 18s56.333 29.667 78 53
s38.5 52.166 50.5 86.499s18 73.833 18 118.5v607c0 44.667 -6 84.167 -18 118.5s-28.833 63.166 -50.5 86.499s-47.667 41 -78 53s-64.166 18 -101.499 18h-161zM504 1819h232l202 -285v-10h-116l-203 188l-201 -188h-117v10z" />
    <glyph glyph-name="Otilde" unicode="&#xd5;" horiz-adv-x="1239" 
d="M700 1434c64 0 121.5 -10 172.5 -30s94.167 -47.667 129.5 -83s62.5 -77.166 81.5 -125.499s28.5 -100.833 28.5 -157.5v-663c0 -56 -9.5 -108.167 -28.5 -156.5s-46.167 -90.166 -81.5 -125.499s-78.5 -63 -129.5 -83s-108.5 -30 -172.5 -30h-161
c-64 0 -121.5 10 -172.5 30s-94.167 47.667 -129.5 83s-62.5 77.166 -81.5 125.499s-28.5 100.5 -28.5 156.5v663c0 56.667 9.5 109.167 28.5 157.5s46.167 90.166 81.5 125.499s78.5 63 129.5 83s108.5 30 172.5 30h161zM539 1286c-36.667 0 -70.334 -6 -101.001 -18
s-56.834 -29.667 -78.501 -53s-38.5 -52.166 -50.5 -86.499s-18 -73.833 -18 -118.5v-607c0 -44.667 6 -84.167 18 -118.5s28.833 -63.166 50.5 -86.499s47.834 -41 78.501 -53s64.334 -18 101.001 -18h161c37.333 0 71.166 6 101.499 18s56.333 29.667 78 53
s38.5 52.166 50.5 86.499s18 73.833 18 118.5v607c0 44.667 -6 84.167 -18 118.5s-28.833 63.166 -50.5 86.499s-47.667 41 -78 53s-64.166 18 -101.499 18h-161zM920 1604c-25.333 -30 -49.999 -50.834 -73.999 -62.501s-52 -17.5 -84 -17.5
c-20.667 0 -43.834 4.66699 -69.501 14s-51.834 19.5 -78.501 30.5s-53.5 21 -80.5 30s-52.5 13.5 -76.5 13.5c-30.667 0 -57.334 -7.66699 -80.001 -23s-46 -37 -70 -65v139c19.333 25.333 42.666 45.666 69.999 60.999s57.333 23 90 23c28 0 54.833 -4.66699 80.5 -14
s50.834 -19.666 75.501 -30.999s49.334 -21.666 74.001 -30.999s50.334 -14 77.001 -14c26 0 51.667 8.33301 77 25s48.333 39 69 67v-145v0z" />
    <glyph glyph-name="Odieresis" unicode="&#xd6;" horiz-adv-x="1239" 
d="M700 1434c64 0 121.5 -10 172.5 -30s94.167 -47.667 129.5 -83s62.5 -77.166 81.5 -125.499s28.5 -100.833 28.5 -157.5v-663c0 -56 -9.5 -108.167 -28.5 -156.5s-46.167 -90.166 -81.5 -125.499s-78.5 -63 -129.5 -83s-108.5 -30 -172.5 -30h-161
c-64 0 -121.5 10 -172.5 30s-94.167 47.667 -129.5 83s-62.5 77.166 -81.5 125.499s-28.5 100.5 -28.5 156.5v663c0 56.667 9.5 109.167 28.5 157.5s46.167 90.166 81.5 125.499s78.5 63 129.5 83s108.5 30 172.5 30h161zM539 1286c-36.667 0 -70.334 -6 -101.001 -18
s-56.834 -29.667 -78.501 -53s-38.5 -52.166 -50.5 -86.499s-18 -73.833 -18 -118.5v-607c0 -44.667 6 -84.167 18 -118.5s28.833 -63.166 50.5 -86.499s47.834 -41 78.501 -53s64.334 -18 101.001 -18h161c37.333 0 71.166 6 101.499 18s56.333 29.667 78 53
s38.5 52.166 50.5 86.499s18 73.833 18 118.5v607c0 44.667 -6 84.167 -18 118.5s-28.833 63.166 -50.5 86.499s-47.667 41 -78 53s-64.166 18 -101.499 18h-161zM514 1722v-198h-158v198h158zM883 1722v-198h-158v198h158z" />
    <glyph glyph-name="multiply" unicode="&#xd7;" 
d="M217 1100l307 -307l305 305l101 -101l-307 -305l305 -303l-101 -100l-303 305l-307 -307l-98 100l305 305l-307 307z" />
    <glyph glyph-name="Oslash" unicode="&#xd8;" horiz-adv-x="1239" 
d="M1073 1434l-65 -120.998c34 -35.333 59.833 -76.333 77.5 -123s26.5 -97.334 26.5 -152.001v-663c0 -56 -9.5 -108.167 -28.5 -156.5s-46.167 -90.166 -81.5 -125.499s-78.5 -63 -129.5 -83s-108.5 -30 -172.5 -30h-161c-42 0 -80.833 4.33301 -116.5 13
s-68.5 20.667 -98.5 36l-27 -49h-137l65 122c-32 35.333 -56.333 76 -73 122s-25 96.333 -25 151v663c0 56.667 9.5 109.167 28.5 157.5s46.167 90.166 81.5 125.499s78.5 63 129.5 83s108.5 30 172.5 30h161c40 0 77.333 -4.33301 112 -13s67 -20.334 97 -35.001l27 48h137
zM700 127.002c37.333 0 71.167 6.00293 101.5 18.0029s56.333 29.667 78 53s38.5 52.166 50.5 86.499s18 73.833 18 118.5v607c0 26.667 -2.33301 51.667 -7 75s-11 44.666 -19 63.999l-525 -983c19.333 -12.667 40.833 -22.334 64.5 -29.001s49.5 -10 77.5 -10h161z
M539.001 1286c-36.667 0 -70.332 -6.00098 -100.999 -18.001s-56.834 -29.667 -78.501 -53s-38.5 -52.166 -50.5 -86.499s-18 -73.833 -18 -118.5v-607c0 -49.333 7.33301 -94.333 22 -135l525 981c-38.667 24.667 -84.667 37 -138 37h-161z" />
    <glyph glyph-name="Ugrave" unicode="&#xd9;" horiz-adv-x="1282" 
d="M1135 408c0 -62 -9.66992 -119.167 -29.0029 -171.5s-49.166 -97.5 -89.499 -135.5s-91.666 -67.667 -153.999 -89s-136.833 -32 -223.5 -32c-84.667 0 -158 10.667 -220 32s-113.167 51 -153.5 89s-70.166 83.167 -89.499 135.5s-29 109.5 -29 171.5v1005h162v-1005
c0 -41.333 6.33301 -78.833 19 -112.5s32.5 -62.334 59.5 -86.001s61.5 -42 103.5 -55s92.667 -19.5 152 -19.5c65.333 0 119.333 6.33301 162 19s76.5 30.667 101.5 54s42.333 51.833 52 85.5s14.5 71.834 14.5 114.501v1005h162v-1005zM804.997 1534v-10h-117l-299 280v15
h192z" />
    <glyph glyph-name="Uacute" unicode="&#xda;" horiz-adv-x="1282" 
d="M1135 408c0 -62 -9.66992 -119.167 -29.0029 -171.5s-49.166 -97.5 -89.499 -135.5s-91.666 -67.667 -153.999 -89s-136.833 -32 -223.5 -32c-84.667 0 -158 10.667 -220 32s-113.167 51 -153.5 89s-70.166 83.167 -89.499 135.5s-29 109.5 -29 171.5v1005h162v-1005
c0 -41.333 6.33301 -78.833 19 -112.5s32.5 -62.334 59.5 -86.001s61.5 -42 103.5 -55s92.667 -19.5 152 -19.5c65.333 0 119.333 6.33301 162 19s76.5 30.667 101.5 54s42.333 51.833 52 85.5s14.5 71.834 14.5 114.501v1005h162v-1005zM732.997 1819h193v-15l-299 -280
h-117v10z" />
    <glyph glyph-name="Ucircumflex" unicode="&#xdb;" horiz-adv-x="1282" 
d="M1135 408c0 -62 -9.66992 -119.167 -29.0029 -171.5s-49.166 -97.5 -89.499 -135.5s-91.666 -67.667 -153.999 -89s-136.833 -32 -223.5 -32c-84.667 0 -158 10.667 -220 32s-113.167 51 -153.5 89s-70.166 83.167 -89.499 135.5s-29 109.5 -29 171.5v1005h162v-1005
c0 -41.333 6.33301 -78.833 19 -112.5s32.5 -62.334 59.5 -86.001s61.5 -42 103.5 -55s92.667 -19.5 152 -19.5c65.333 0 119.333 6.33301 162 19s76.5 30.667 101.5 54s42.333 51.833 52 85.5s14.5 71.834 14.5 114.501v1005h162v-1005zM529.997 1819h232l202 -285v-10
h-116l-203 188l-201 -188h-117v10z" />
    <glyph glyph-name="Udieresis" unicode="&#xdc;" horiz-adv-x="1282" 
d="M1135 408c0 -62 -9.66992 -119.167 -29.0029 -171.5s-49.166 -97.5 -89.499 -135.5s-91.666 -67.667 -153.999 -89s-136.833 -32 -223.5 -32c-84.667 0 -158 10.667 -220 32s-113.167 51 -153.5 89s-70.166 83.167 -89.499 135.5s-29 109.5 -29 171.5v1005h162v-1005
c0 -41.333 6.33301 -78.833 19 -112.5s32.5 -62.334 59.5 -86.001s61.5 -42 103.5 -55s92.667 -19.5 152 -19.5c65.333 0 119.333 6.33301 162 19s76.5 30.667 101.5 54s42.333 51.833 52 85.5s14.5 71.834 14.5 114.501v1005h162v-1005zM534.997 1722v-198h-158v198h158z
M903.997 1722v-198h-158v198h158z" />
    <glyph glyph-name="Yacute" unicode="&#xdd;" horiz-adv-x="1028" 
d="M516 737l334 676h168l-424 -821v-592h-160v592l-424 821h168zM579 1819h193v-15l-299 -280h-117v10z" />
    <glyph glyph-name="Thorn" unicode="&#xde;" horiz-adv-x="1085" 
d="M610 465c35.333 0 67.666 5.5 96.999 16.5s54.5 27.5 75.5 49.5s37.167 50 48.5 84s17 74 17 120c0 43.333 -5.66699 80.833 -17 112.5s-27.5 58 -48.5 79s-46.167 36.667 -75.5 47s-61.666 15.5 -96.999 15.5h-297v-524h297zM313 317l-0.00195312 -316.997h-159v1413
h159v-276h299c64.667 0 121.834 -9.33301 171.501 -28s91.5 -45.334 125.5 -80.001s59.667 -76.334 77 -125.001s26 -103 26 -163c0 -60.667 -8.5 -116.834 -25.5 -168.501s-42.167 -96.5 -75.5 -134.5s-74.666 -67.667 -123.999 -89s-106.333 -32 -171 -32h-303z" />
    <glyph glyph-name="germandbls" unicode="&#xdf;" horiz-adv-x="1055" 
d="M856 1120c0 -37.333 -6.33203 -69.168 -18.999 -95.501s-28.5 -49.333 -47.5 -69s-39.5 -37 -61.5 -52s-42.5 -30 -61.5 -45s-34.833 -30.833 -47.5 -47.5s-19 -36.334 -19 -59.001c0 -26 5.66699 -47.667 17 -65s26.166 -32.5 44.499 -45.5s39.333 -24.833 63 -35.5
l72 -33.5c24.333 -11.667 48.333 -25 72 -40s44.667 -33.667 63 -56s33.166 -49.166 44.499 -80.499s17 -69 17 -113c0 -94.667 -27.667 -168.834 -83 -222.501s-137.333 -80.5 -246 -80.5c-24 0 -48.833 1.83301 -74.5 5.5s-50.334 8.66699 -74.001 15
s-45 14.166 -64 23.499s-34.167 19.666 -45.5 30.999v170c11.333 -12.667 26.333 -25.167 45 -37.5s39.334 -23.5 62.001 -33.5s46.5 -18 71.5 -24s49.167 -9 72.5 -9c25.333 0 48.833 3.16699 70.5 9.5s40.5 16 56.5 29s28.667 29.833 38 50.5s14 45 14 73
c0 38 -9.66699 68.5 -29 91.5s-43.666 42.833 -72.999 59.5s-61 32.334 -95 47.001s-65.667 33 -95 55s-53.666 49.667 -72.999 83s-29 77 -29 131c0 35.333 6.5 65.5 19.5 90.5s29 47 48 66s39.833 36 62.5 51s43.5 30.333 62.5 46s35 32.334 48 50.001
s19.5 38.5 19.5 62.5v6c0 30 -5.33301 55.333 -16 76s-25 37.334 -43 50.001s-38.833 21.834 -62.5 27.501s-48.5 8.5 -74.5 8.5c-28 0 -54.333 -3.16699 -79 -9.5s-46.334 -17.666 -65.001 -33.999s-33.5 -38.333 -44.5 -66s-16.5 -62.834 -16.5 -105.501v-1069h-158v1075
c0 110.667 29.333 196.667 88 258s150.334 92 275.001 92c47.333 0 92.166 -5.83301 134.499 -17.5s79.5 -29.167 111.5 -52.5s57.333 -52.333 76 -87s28 -75 28 -121v-27z" />
    <glyph glyph-name="agrave" unicode="&#xe0;" horiz-adv-x="1010" 
d="M244 307c0 -26.667 4.49902 -51.165 13.499 -73.498s23.333 -41.5 43 -57.5s45.334 -28.5 77.001 -37.5s70.5 -13.5 116.5 -13.5c18.667 0 38.667 1 60 3s42.333 4.66699 63 8s39.834 6.83301 57.501 10.5s32.5 7.5 44.5 11.5v327h-283c-33.333 0 -62 -4.33301 -86 -13
s-43.833 -20.334 -59.5 -35.001s-27.334 -31.834 -35.001 -51.501s-11.5 -40.167 -11.5 -61.5v-17zM507.999 909.002c-48 0 -92 -11.3369 -132 -34.0039s-71.667 -51.667 -95 -87l-129 84c30.667 54 75.5 97.333 134.5 130s132.167 49 219.5 49c64 0 119.333 -7 166 -21
s85.167 -35.833 115.5 -65.5s52.833 -67.5 67.5 -113.5s22 -101 22 -165v-649c-56.667 -15.333 -116.667 -28.666 -180 -39.999s-131 -17 -203 -17c-74.667 0 -138 8.33301 -190 25s-94.167 39.334 -126.5 68.001s-55.666 62.334 -69.999 101.001
s-21.5 80.334 -21.5 125.001v31c0 48.667 8.66699 91.5 26 128.5s42 68 74 93s70.667 43.833 116 56.5s95.666 19 150.999 19h266v41c0 41.333 -3.5 77.166 -10.5 107.499s-18.333 55.333 -34 75s-36.167 34.334 -61.5 44.001s-56.333 14.5 -93 14.5h-12zM694.999 1149v-10
h-117l-299 280v15h192z" />
    <glyph glyph-name="aacute" unicode="&#xe1;" horiz-adv-x="1010" 
d="M244 307c0 -26.667 4.49902 -51.165 13.499 -73.498s23.333 -41.5 43 -57.5s45.334 -28.5 77.001 -37.5s70.5 -13.5 116.5 -13.5c18.667 0 38.667 1 60 3s42.333 4.66699 63 8s39.834 6.83301 57.501 10.5s32.5 7.5 44.5 11.5v327h-283c-33.333 0 -62 -4.33301 -86 -13
s-43.833 -20.334 -59.5 -35.001s-27.334 -31.834 -35.001 -51.501s-11.5 -40.167 -11.5 -61.5v-17zM507.999 909.002c-48 0 -92 -11.3369 -132 -34.0039s-71.667 -51.667 -95 -87l-129 84c30.667 54 75.5 97.333 134.5 130s132.167 49 219.5 49c64 0 119.333 -7 166 -21
s85.167 -35.833 115.5 -65.5s52.833 -67.5 67.5 -113.5s22 -101 22 -165v-649c-56.667 -15.333 -116.667 -28.666 -180 -39.999s-131 -17 -203 -17c-74.667 0 -138 8.33301 -190 25s-94.167 39.334 -126.5 68.001s-55.666 62.334 -69.999 101.001
s-21.5 80.334 -21.5 125.001v31c0 48.667 8.66699 91.5 26 128.5s42 68 74 93s70.667 43.833 116 56.5s95.666 19 150.999 19h266v41c0 41.333 -3.5 77.166 -10.5 107.499s-18.333 55.333 -34 75s-36.167 34.334 -61.5 44.001s-56.333 14.5 -93 14.5h-12zM601.999 1434h193
v-15l-299 -280h-117v10z" />
    <glyph glyph-name="acircumflex" unicode="&#xe2;" horiz-adv-x="1010" 
d="M244 307c0 -26.667 4.49902 -51.165 13.499 -73.498s23.333 -41.5 43 -57.5s45.334 -28.5 77.001 -37.5s70.5 -13.5 116.5 -13.5c18.667 0 38.667 1 60 3s42.333 4.66699 63 8s39.834 6.83301 57.501 10.5s32.5 7.5 44.5 11.5v327h-283c-33.333 0 -62 -4.33301 -86 -13
s-43.833 -20.334 -59.5 -35.001s-27.334 -31.834 -35.001 -51.501s-11.5 -40.167 -11.5 -61.5v-17zM507.999 909.002c-48 0 -92 -11.3369 -132 -34.0039s-71.667 -51.667 -95 -87l-129 84c30.667 54 75.5 97.333 134.5 130s132.167 49 219.5 49c64 0 119.333 -7 166 -21
s85.167 -35.833 115.5 -65.5s52.833 -67.5 67.5 -113.5s22 -101 22 -165v-649c-56.667 -15.333 -116.667 -28.666 -180 -39.999s-131 -17 -203 -17c-74.667 0 -138 8.33301 -190 25s-94.167 39.334 -126.5 68.001s-55.666 62.334 -69.999 101.001
s-21.5 80.334 -21.5 125.001v31c0 48.667 8.66699 91.5 26 128.5s42 68 74 93s70.667 43.833 116 56.5s95.666 19 150.999 19h266v41c0 41.333 -3.5 77.166 -10.5 107.499s-18.333 55.333 -34 75s-36.167 34.334 -61.5 44.001s-56.333 14.5 -93 14.5h-12zM398.999 1434h232
l202 -285v-10h-116l-203 188l-201 -188h-117v10z" />
    <glyph glyph-name="atilde" unicode="&#xe3;" horiz-adv-x="1010" 
d="M244 307c0 -26.667 4.49902 -51.165 13.499 -73.498s23.333 -41.5 43 -57.5s45.334 -28.5 77.001 -37.5s70.5 -13.5 116.5 -13.5c18.667 0 38.667 1 60 3s42.333 4.66699 63 8s39.834 6.83301 57.501 10.5s32.5 7.5 44.5 11.5v327h-283c-33.333 0 -62 -4.33301 -86 -13
s-43.833 -20.334 -59.5 -35.001s-27.334 -31.834 -35.001 -51.501s-11.5 -40.167 -11.5 -61.5v-17zM507.999 909.002c-48 0 -92 -11.3369 -132 -34.0039s-71.667 -51.667 -95 -87l-129 84c30.667 54 75.5 97.333 134.5 130s132.167 49 219.5 49c64 0 119.333 -7 166 -21
s85.167 -35.833 115.5 -65.5s52.833 -67.5 67.5 -113.5s22 -101 22 -165v-649c-56.667 -15.333 -116.667 -28.666 -180 -39.999s-131 -17 -203 -17c-74.667 0 -138 8.33301 -190 25s-94.167 39.334 -126.5 68.001s-55.666 62.334 -69.999 101.001
s-21.5 80.334 -21.5 125.001v31c0 48.667 8.66699 91.5 26 128.5s42 68 74 93s70.667 43.833 116 56.5s95.666 19 150.999 19h266v41c0 41.333 -3.5 77.166 -10.5 107.499s-18.333 55.333 -34 75s-36.167 34.334 -61.5 44.001s-56.333 14.5 -93 14.5h-12zM818.999 1231
c-25.333 -30 -49.999 -50.834 -73.999 -62.501s-52 -17.5 -84 -17.5c-20.667 0 -43.834 4.66699 -69.501 14s-51.834 19.5 -78.501 30.5s-53.5 21 -80.5 30s-52.5 13.5 -76.5 13.5c-30.667 0 -57.334 -7.66699 -80.001 -23s-46 -37 -70 -65v139
c19.333 25.333 42.666 45.666 69.999 60.999s57.333 23 90 23c28 0 54.833 -4.66699 80.5 -14s50.834 -19.666 75.501 -30.999s49.334 -21.666 74.001 -30.999s50.334 -14 77.001 -14c26 0 51.667 8.33301 77 25s48.333 39 69 67v-145v0z" />
    <glyph glyph-name="adieresis" unicode="&#xe4;" horiz-adv-x="1010" 
d="M244 307c0 -26.667 4.49902 -51.165 13.499 -73.498s23.333 -41.5 43 -57.5s45.334 -28.5 77.001 -37.5s70.5 -13.5 116.5 -13.5c18.667 0 38.667 1 60 3s42.333 4.66699 63 8s39.834 6.83301 57.501 10.5s32.5 7.5 44.5 11.5v327h-283c-33.333 0 -62 -4.33301 -86 -13
s-43.833 -20.334 -59.5 -35.001s-27.334 -31.834 -35.001 -51.501s-11.5 -40.167 -11.5 -61.5v-17zM507.999 909.002c-48 0 -92 -11.3369 -132 -34.0039s-71.667 -51.667 -95 -87l-129 84c30.667 54 75.5 97.333 134.5 130s132.167 49 219.5 49c64 0 119.333 -7 166 -21
s85.167 -35.833 115.5 -65.5s52.833 -67.5 67.5 -113.5s22 -101 22 -165v-649c-56.667 -15.333 -116.667 -28.666 -180 -39.999s-131 -17 -203 -17c-74.667 0 -138 8.33301 -190 25s-94.167 39.334 -126.5 68.001s-55.666 62.334 -69.999 101.001
s-21.5 80.334 -21.5 125.001v31c0 48.667 8.66699 91.5 26 128.5s42 68 74 93s70.667 43.833 116 56.5s95.666 19 150.999 19h266v41c0 41.333 -3.5 77.166 -10.5 107.499s-18.333 55.333 -34 75s-36.167 34.334 -61.5 44.001s-56.333 14.5 -93 14.5h-12zM409.999 1358v-199
h-158v199h158zM778.999 1358v-199h-158v199h158z" />
    <glyph glyph-name="aring" unicode="&#xe5;" horiz-adv-x="1010" 
d="M244 307c0 -26.667 4.49902 -51.165 13.499 -73.498s23.333 -41.5 43 -57.5s45.334 -28.5 77.001 -37.5s70.5 -13.5 116.5 -13.5c18.667 0 38.667 1 60 3s42.333 4.66699 63 8s39.834 6.83301 57.501 10.5s32.5 7.5 44.5 11.5v327h-283c-33.333 0 -62 -4.33301 -86 -13
s-43.833 -20.334 -59.5 -35.001s-27.334 -31.834 -35.001 -51.501s-11.5 -40.167 -11.5 -61.5v-17zM507.999 909.002c-48 0 -92 -11.3369 -132 -34.0039s-71.667 -51.667 -95 -87l-129 84c30.667 54 75.5 97.333 134.5 130s132.167 49 219.5 49c64 0 119.333 -7 166 -21
s85.167 -35.833 115.5 -65.5s52.833 -67.5 67.5 -113.5s22 -101 22 -165v-649c-56.667 -15.333 -116.667 -28.666 -180 -39.999s-131 -17 -203 -17c-74.667 0 -138 8.33301 -190 25s-94.167 39.334 -126.5 68.001s-55.666 62.334 -69.999 101.001
s-21.5 80.334 -21.5 125.001v31c0 48.667 8.66699 91.5 26 128.5s42 68 74 93s70.667 43.833 116 56.5s95.666 19 150.999 19h266v41c0 41.333 -3.5 77.166 -10.5 107.499s-18.333 55.333 -34 75s-36.167 34.334 -61.5 44.001s-56.333 14.5 -93 14.5h-12zM301.999 1350
c0 31.333 6 60.833 18 88.5s28.167 51.667 48.5 72s44.333 36.5 72 48.5s57.167 18 88.5 18c32 0 61.667 -6 89 -18s51.333 -28.167 72 -48.5s36.834 -44.333 48.501 -72s17.5 -57.167 17.5 -88.5c0 -32 -5.83301 -61.833 -17.5 -89.5s-27.834 -52 -48.501 -73
s-44.667 -37.5 -72 -49.5s-57 -18 -89 -18c-31.333 0 -60.833 6 -88.5 18s-51.667 28.5 -72 49.5s-36.5 45.333 -48.5 73s-18 57.5 -18 89.5zM403.999 1350c0 -17.333 3.16699 -33.666 9.5 -48.999s15.166 -28.666 26.499 -39.999s24.666 -20.166 39.999 -26.499
s31.666 -9.5 48.999 -9.5s33.5 3.16699 48.5 9.5s28.167 15.166 39.5 26.499s20.333 24.666 27 39.999s10 31.666 10 48.999s-3.33301 33.5 -10 48.5s-15.667 28.167 -27 39.5s-24.5 20.333 -39.5 27s-31.167 10 -48.5 10s-33.666 -3.33301 -48.999 -10
s-28.666 -15.667 -39.999 -27s-20.166 -24.5 -26.499 -39.5s-9.5 -31.167 -9.5 -48.5z" />
    <glyph glyph-name="ae" unicode="&#xe6;" horiz-adv-x="1636" 
d="M1530 492h-653.002v-76c0 -56 5.83301 -102.833 17.5 -140.5s28.334 -68 50.001 -91s47.834 -39.333 78.501 -49s65 -14.5 103 -14.5s75.167 4.5 111.5 13.5s70.5 20.333 102.5 34s61.167 28.834 87.5 45.501s48.166 32.667 65.499 48v-158
c-17.333 -18 -39 -34.5 -65 -49.5s-54.833 -28 -86.5 -39s-65.667 -19.667 -102 -26s-73.5 -9.5 -111.5 -9.5c-53.333 0 -103.666 5.5 -150.999 16.5s-89 29.833 -125 56.5c-54.667 -20.667 -110.667 -38 -168 -52s-120.666 -21 -189.999 -21
c-74.667 0 -138 8.66699 -190 26s-94.167 40.666 -126.5 69.999s-55.666 63.666 -69.999 102.999s-21.5 81.333 -21.5 126v25c0 48.667 8.33301 91.5 25 128.5s40.667 68 72 93s69.166 43.833 113.499 56.5s94.166 19 149.499 19h273v41c0 41.333 -3.5 77.166 -10.5 107.499
s-18.333 55.333 -34 75s-36.167 34.334 -61.5 44.001s-56.333 14.5 -93 14.5h-12c-48 0 -91.333 -11.667 -130 -35s-69.667 -52.666 -93 -87.999l-133 86c30.667 54 75.5 97.333 134.5 130s132.167 49 219.5 49c74.667 0 137.667 -11.5 189 -34.5s91.333 -58.833 120 -107.5
c35.333 45.333 78 80.333 128 105s107 37 171 37h16c58 0 111.5 -8.16699 160.5 -24.5s91.167 -41.5 126.5 -75.5s63 -77.167 83 -129.5s30 -114.5 30 -186.5v-143zM243.998 311c0 -26.667 4.5 -51.498 13.5 -74.498s23.333 -42.667 43 -59s45.334 -29.166 77.001 -38.499
s70.5 -14 116.5 -14c23.333 0 47 1.16699 71 3.5s47.5 5.5 70.5 9.5s45.167 8.83301 66.5 14.5s40.666 11.5 57.999 17.5c-13.333 28.667 -23.5 62.167 -30.5 100.5s-10.5 77.166 -10.5 116.499v98h-279c-34 0 -63.333 -4.33301 -88 -13s-45 -20.334 -61 -35.001
s-27.833 -31.834 -35.5 -51.501s-11.5 -40.167 -11.5 -61.5v-13zM1122 909.002c-35.333 0 -67.501 -4.83398 -96.501 -14.501s-54.167 -25.167 -75.5 -46.5s-38.333 -48.666 -51 -81.999s-20 -73.666 -22 -120.999v-14h495c0 51.333 -6.33301 94.666 -19 129.999
s-30 64 -52 86s-47.667 37.833 -77 47.5s-60.666 14.5 -93.999 14.5h-8v0z" />
    <glyph glyph-name="ccedilla" unicode="&#xe7;" horiz-adv-x="938" 
d="M348 -295c33.333 -4 62.001 -5.99902 86.001 -5.99902c44 0 75.167 6.66699 93.5 20s27.5 30.666 27.5 51.999c0 24.667 -13.833 43.667 -41.5 57s-69.834 20 -126.501 20l62 136c-52 4.66699 -98.667 15.834 -140 33.501s-76.166 43.334 -104.499 77.001
s-50 75.334 -65 125.001s-22.5 108.834 -22.5 177.501v240c0 73.333 8.83301 136.166 26.5 188.499s43.167 95.166 76.5 128.499s74.333 57.833 123 73.5s104.334 23.5 167.001 23.5h6c42.667 0 81.5 -4.33301 116.5 -13s66.5 -21 94.5 -37s52.667 -35.167 74 -57.5
s39.666 -46.833 54.999 -73.5l-135 -88c-10 17.333 -21.333 33.666 -34 48.999s-27.167 28.666 -43.5 39.999s-34.5 20.5 -54.5 27.5s-41.667 10.5 -65 10.5h-20c-36.667 0 -69.167 -5.33301 -97.5 -16s-52.333 -27.5 -72 -50.5s-34.667 -52.833 -45 -89.5
s-15.5 -80.667 -15.5 -132v-205c0 -52 5.5 -96.667 16.5 -134s26.667 -68 47 -92s45.166 -41.5 74.499 -52.5s62 -16.5 98 -16.5c32 0 64.5 4.66699 97.5 14s64.833 21.333 95.5 36s59.167 31.334 85.5 50.001s48.833 37 67.5 55v-157
c-18 -18.667 -38.833 -35.834 -62.5 -51.501s-49 -29.5 -76 -41.5s-55.333 -21.833 -85 -29.5s-59.5 -12.5 -89.5 -14.5l-23 -52c17.333 -2 35 -6.5 53 -13.5s34.333 -16.833 49 -29.5s26.667 -28.5 36 -47.5s14 -41.833 14 -68.5c0 -56.667 -19.167 -101 -57.5 -133
s-100.5 -48 -186.5 -48c-12.667 0 -25.5 0.333008 -38.5 1s-26.833 1.66699 -41.5 3v111z" />
    <glyph glyph-name="egrave" unicode="&#xe8;" horiz-adv-x="1034" 
d="M928 492l-654 -0.000976562v-76c0 -56 6 -102.833 18 -140.5s28.833 -68 50.5 -91s47.834 -39.333 78.501 -49s65 -14.5 103 -14.5s75.167 4.5 111.5 13.5s70.5 20.333 102.5 34s61.167 28.834 87.5 45.501s48.166 32.667 65.499 48v-158
c-17.333 -18 -39 -34.5 -65 -49.5s-54.833 -28 -86.5 -39s-65.667 -19.667 -102 -26s-73.5 -9.5 -111.5 -9.5c-64 0 -121.333 7.16699 -172 21.5s-93.5 38 -128.5 71s-61.833 76 -80.5 129s-28 118.167 -28 195.5v226c0 69.333 9.16699 130.5 27.5 183.5
s44.5 97.667 78.5 134s75.5 63.833 124.5 82.5s103.833 28 164.5 28h16c58 0 111.5 -8.16699 160.5 -24.5s91.167 -41.5 126.5 -75.5s63 -77.167 83 -129.5s30 -114.5 30 -186.5v-143zM520 908.999c-36 0 -68.832 -5.16895 -98.499 -15.502s-55.334 -26.666 -77.001 -48.999
s-38.5 -51.166 -50.5 -86.499s-18.667 -77.666 -20 -126.999h496c0 51.333 -6.5 94.666 -19.5 129.999s-30.5 64 -52.5 86s-47.667 37.833 -77 47.5s-60.333 14.5 -93 14.5h-8v0zM707.001 1149v-10h-117l-299 280v15h192z" />
    <glyph glyph-name="eacute" unicode="&#xe9;" horiz-adv-x="1034" 
d="M928 492l-654 -0.000976562v-76c0 -56 6 -102.833 18 -140.5s28.833 -68 50.5 -91s47.834 -39.333 78.501 -49s65 -14.5 103 -14.5s75.167 4.5 111.5 13.5s70.5 20.333 102.5 34s61.167 28.834 87.5 45.501s48.166 32.667 65.499 48v-158
c-17.333 -18 -39 -34.5 -65 -49.5s-54.833 -28 -86.5 -39s-65.667 -19.667 -102 -26s-73.5 -9.5 -111.5 -9.5c-64 0 -121.333 7.16699 -172 21.5s-93.5 38 -128.5 71s-61.833 76 -80.5 129s-28 118.167 -28 195.5v226c0 69.333 9.16699 130.5 27.5 183.5
s44.5 97.667 78.5 134s75.5 63.833 124.5 82.5s103.833 28 164.5 28h16c58 0 111.5 -8.16699 160.5 -24.5s91.167 -41.5 126.5 -75.5s63 -77.167 83 -129.5s30 -114.5 30 -186.5v-143zM520 908.999c-36 0 -68.832 -5.16895 -98.499 -15.502s-55.334 -26.666 -77.001 -48.999
s-38.5 -51.166 -50.5 -86.499s-18.667 -77.666 -20 -126.999h496c0 51.333 -6.5 94.666 -19.5 129.999s-30.5 64 -52.5 86s-47.667 37.833 -77 47.5s-60.333 14.5 -93 14.5h-8v0zM623.61 1434.02h201.553v-14.8955l-312.25 -278.052h-122.184v9.92969z" />
    <glyph glyph-name="ecircumflex" unicode="&#xea;" horiz-adv-x="1034" 
d="M928 492l-654 -0.000976562v-76c0 -56 6 -102.833 18 -140.5s28.833 -68 50.5 -91s47.834 -39.333 78.501 -49s65 -14.5 103 -14.5s75.167 4.5 111.5 13.5s70.5 20.333 102.5 34s61.167 28.834 87.5 45.501s48.166 32.667 65.499 48v-158
c-17.333 -18 -39 -34.5 -65 -49.5s-54.833 -28 -86.5 -39s-65.667 -19.667 -102 -26s-73.5 -9.5 -111.5 -9.5c-64 0 -121.333 7.16699 -172 21.5s-93.5 38 -128.5 71s-61.833 76 -80.5 129s-28 118.167 -28 195.5v226c0 69.333 9.16699 130.5 27.5 183.5
s44.5 97.667 78.5 134s75.5 63.833 124.5 82.5s103.833 28 164.5 28h16c58 0 111.5 -8.16699 160.5 -24.5s91.167 -41.5 126.5 -75.5s63 -77.167 83 -129.5s30 -114.5 30 -186.5v-143zM520 908.999c-36 0 -68.832 -5.16895 -98.499 -15.502s-55.334 -26.666 -77.001 -48.999
s-38.5 -51.166 -50.5 -86.499s-18.667 -77.666 -20 -126.999h496c0 51.333 -6.5 94.666 -19.5 129.999s-30.5 64 -52.5 86s-47.667 37.833 -77 47.5s-60.333 14.5 -93 14.5h-8v0zM420.001 1434h232l202 -285v-10h-116l-203 188l-201 -188h-117v10z" />
    <glyph glyph-name="edieresis" unicode="&#xeb;" horiz-adv-x="1034" 
d="M928 492l-654 -0.000976562v-76c0 -56 6 -102.833 18 -140.5s28.833 -68 50.5 -91s47.834 -39.333 78.501 -49s65 -14.5 103 -14.5s75.167 4.5 111.5 13.5s70.5 20.333 102.5 34s61.167 28.834 87.5 45.501s48.166 32.667 65.499 48v-158
c-17.333 -18 -39 -34.5 -65 -49.5s-54.833 -28 -86.5 -39s-65.667 -19.667 -102 -26s-73.5 -9.5 -111.5 -9.5c-64 0 -121.333 7.16699 -172 21.5s-93.5 38 -128.5 71s-61.833 76 -80.5 129s-28 118.167 -28 195.5v226c0 69.333 9.16699 130.5 27.5 183.5
s44.5 97.667 78.5 134s75.5 63.833 124.5 82.5s103.833 28 164.5 28h16c58 0 111.5 -8.16699 160.5 -24.5s91.167 -41.5 126.5 -75.5s63 -77.167 83 -129.5s30 -114.5 30 -186.5v-143zM520 908.999c-36 0 -68.832 -5.16895 -98.499 -15.502s-55.334 -26.666 -77.001 -48.999
s-38.5 -51.166 -50.5 -86.499s-18.667 -77.666 -20 -126.999h496c0 51.333 -6.5 94.666 -19.5 129.999s-30.5 64 -52.5 86s-47.667 37.833 -77 47.5s-60.333 14.5 -93 14.5h-8v0zM420.001 1358v-199h-158v199h158zM789.001 1358v-199h-158v199h158z" />
    <glyph glyph-name="igrave" unicode="&#xec;" horiz-adv-x="444" 
d="M301 1024v-1024h-158v1024h158zM354 1149v-10h-117l-299 280v15h192z" />
    <glyph glyph-name="iacute" unicode="&#xed;" horiz-adv-x="444" 
d="M301 1024v-1024h-158v1024h158zM317 1434h193v-15l-299 -280h-117v10z" />
    <glyph glyph-name="icircumflex" unicode="&#xee;" horiz-adv-x="444" 
d="M301 1024v-1024h-158v1024h158zM111 1434h232l202 -285v-10h-116l-203 188l-201 -188h-117v10z" />
    <glyph glyph-name="idieresis" unicode="&#xef;" horiz-adv-x="444" 
d="M301 1024v-1024h-158v1024h158zM120 1358v-199h-158v199h158zM489 1358v-199h-158v199h158z" />
    <glyph glyph-name="eth" unicode="&#xf0;" horiz-adv-x="1059" 
d="M354 1176l195.001 92.0029c-25.333 23.333 -54.666 48.166 -87.999 74.499s-67.666 49.833 -102.999 70.5h185c21.333 -12 42.5 -26.5 63.5 -43.5l57.5 -48.5l254 121v-137l-156 -74c35.333 -40.667 64.166 -85 86.499 -133s40 -101 53 -159s22 -121.833 27 -191.5
s7.5 -146.834 7.5 -231.501v-127c0 -76 -8.66699 -140 -26 -192s-42.833 -94 -76.5 -126s-74.834 -55.167 -123.501 -69.5s-104.334 -21.5 -167.001 -21.5h-35c-62.667 0 -118.167 7.16699 -166.5 21.5s-89.166 37.5 -122.499 69.5s-58.666 74 -75.999 126s-26 116 -26 192
v143c0 76 8.66699 140.167 26 192.5s42.666 94.5 75.999 126.5s74.166 55.167 122.499 69.5s103.833 21.5 166.5 21.5h33c48 0 91.833 -7.33301 131.5 -22s72.167 -35.334 97.5 -62.001c-9.33301 64 -24.333 122.333 -45 175s-48 99.667 -82 141l-289 -138v140z
M274.001 408.003c0 -54 5 -99.167 15 -135.5s24.667 -65.833 44 -88.5s43.166 -38.834 71.499 -48.501s60.833 -14.5 97.5 -14.5h51c36 0 68 4.83301 96 14.5s51.5 25.834 70.5 48.501s33.5 52.167 43.5 88.5s15 81.5 15 135.5v106c0 54 -5 99.167 -15 135.5
s-24.5 65.833 -43.5 88.5s-42.5 38.834 -70.5 48.501s-60 14.5 -96 14.5h-51c-36.667 0 -69.167 -4.83301 -97.5 -14.5s-52.166 -25.834 -71.499 -48.501s-34 -52.167 -44 -88.5s-15 -81.5 -15 -135.5v-106z" />
    <glyph glyph-name="ntilde" unicode="&#xf1;" horiz-adv-x="1059" 
d="M301 0l-157.998 -0.00195312v997c26 6 54.833 12.333 86.5 19s64.167 12.5 97.5 17.5s66.833 9.16699 100.5 12.5s65.834 5 96.501 5c67.333 0 126.166 -7.5 176.499 -22.5s92.166 -36.667 125.499 -65s58.333 -62.666 75 -102.999s25 -85.5 25 -135.5v-725h-158v717
c0 60.667 -20.333 107.834 -61 141.501s-97.334 50.5 -170.001 50.5c-18.667 0 -39.667 -0.833008 -63 -2.5s-46 -4 -68 -7s-42.5 -6 -61.5 -9s-33.5 -6.16699 -43.5 -9.5v-881zM836.002 1231c-25.333 -30 -49.999 -50.834 -73.999 -62.501s-52 -17.5 -84 -17.5
c-20.667 0 -43.834 4.66699 -69.501 14s-51.834 19.5 -78.501 30.5s-53.5 21 -80.5 30s-52.5 13.5 -76.5 13.5c-30.667 0 -57.334 -7.66699 -80.001 -23s-46 -37 -70 -65v139c19.333 25.333 42.666 45.666 69.999 60.999s57.333 23 90 23c28 0 54.833 -4.66699 80.5 -14
s50.834 -19.666 75.501 -30.999s49.334 -21.666 74.001 -30.999s50.334 -14 77.001 -14c26 0 51.667 8.33301 77 25s48.333 39 69 67v-145v0z" />
    <glyph glyph-name="ograve" unicode="&#xf2;" horiz-adv-x="1053" 
d="M117 641c0 76 8.66699 140 26 192s42.666 94.167 75.999 126.5s74.166 55.666 122.499 69.999s103.833 21.5 166.5 21.5h35c62.667 0 118.334 -7.16699 167.001 -21.5s89.834 -37.666 123.501 -69.999s59.167 -74.5 76.5 -126.5s26 -116 26 -192v-252
c0 -76 -8.66699 -140 -26 -192s-42.833 -94 -76.5 -126s-74.834 -55.167 -123.501 -69.5s-104.334 -21.5 -167.001 -21.5h-35c-62.667 0 -118.167 7.16699 -166.5 21.5s-89.166 37.5 -122.499 69.5s-58.666 74 -75.999 126s-26 116 -26 192v252zM274 408
c0 -54 5 -99.167 15 -135.5s24.667 -65.833 44 -88.5s43.166 -38.834 71.499 -48.501s60.833 -14.5 97.5 -14.5h51c36 0 68 4.83301 96 14.5s51.5 25.834 70.5 48.501s33.5 52.167 43.5 88.5s15 81.5 15 135.5v215c0 54 -5 99.167 -15 135.5s-24.5 65.666 -43.5 87.999
s-42.5 38.333 -70.5 48s-60 14.5 -96 14.5h-51c-36.667 0 -69.167 -4.83301 -97.5 -14.5s-52.166 -25.667 -71.499 -48s-34 -51.666 -44 -87.999s-15 -81.5 -15 -135.5v-215zM697 1149v-10h-117l-299 280v15h192z" />
    <glyph glyph-name="oacute" unicode="&#xf3;" horiz-adv-x="1053" 
d="M117 641c0 76 8.66699 140 26 192s42.666 94.167 75.999 126.5s74.166 55.666 122.499 69.999s103.833 21.5 166.5 21.5h35c62.667 0 118.334 -7.16699 167.001 -21.5s89.834 -37.666 123.501 -69.999s59.167 -74.5 76.5 -126.5s26 -116 26 -192v-252
c0 -76 -8.66699 -140 -26 -192s-42.833 -94 -76.5 -126s-74.834 -55.167 -123.501 -69.5s-104.334 -21.5 -167.001 -21.5h-35c-62.667 0 -118.167 7.16699 -166.5 21.5s-89.166 37.5 -122.499 69.5s-58.666 74 -75.999 126s-26 116 -26 192v252zM274 408
c0 -54 5 -99.167 15 -135.5s24.667 -65.833 44 -88.5s43.166 -38.834 71.499 -48.501s60.833 -14.5 97.5 -14.5h51c36 0 68 4.83301 96 14.5s51.5 25.834 70.5 48.501s33.5 52.167 43.5 88.5s15 81.5 15 135.5v215c0 54 -5 99.167 -15 135.5s-24.5 65.666 -43.5 87.999
s-42.5 38.333 -70.5 48s-60 14.5 -96 14.5h-51c-36.667 0 -69.167 -4.83301 -97.5 -14.5s-52.166 -25.667 -71.499 -48s-34 -51.666 -44 -87.999s-15 -81.5 -15 -135.5v-215zM600 1434h193v-15l-299 -280h-117v10z" />
    <glyph glyph-name="ocircumflex" unicode="&#xf4;" horiz-adv-x="1053" 
d="M117 641c0 76 8.66699 140 26 192s42.666 94.167 75.999 126.5s74.166 55.666 122.499 69.999s103.833 21.5 166.5 21.5h35c62.667 0 118.334 -7.16699 167.001 -21.5s89.834 -37.666 123.501 -69.999s59.167 -74.5 76.5 -126.5s26 -116 26 -192v-252
c0 -76 -8.66699 -140 -26 -192s-42.833 -94 -76.5 -126s-74.834 -55.167 -123.501 -69.5s-104.334 -21.5 -167.001 -21.5h-35c-62.667 0 -118.167 7.16699 -166.5 21.5s-89.166 37.5 -122.499 69.5s-58.666 74 -75.999 126s-26 116 -26 192v252zM274 408
c0 -54 5 -99.167 15 -135.5s24.667 -65.833 44 -88.5s43.166 -38.834 71.499 -48.501s60.833 -14.5 97.5 -14.5h51c36 0 68 4.83301 96 14.5s51.5 25.834 70.5 48.501s33.5 52.167 43.5 88.5s15 81.5 15 135.5v215c0 54 -5 99.167 -15 135.5s-24.5 65.666 -43.5 87.999
s-42.5 38.333 -70.5 48s-60 14.5 -96 14.5h-51c-36.667 0 -69.167 -4.83301 -97.5 -14.5s-52.166 -25.667 -71.499 -48s-34 -51.666 -44 -87.999s-15 -81.5 -15 -135.5v-215zM411 1434h232l202 -285v-10h-116l-203 188l-201 -188h-117v10z" />
    <glyph glyph-name="otilde" unicode="&#xf5;" horiz-adv-x="1053" 
d="M117 641c0 76 8.66699 140 26 192s42.666 94.167 75.999 126.5s74.166 55.666 122.499 69.999s103.833 21.5 166.5 21.5h35c62.667 0 118.334 -7.16699 167.001 -21.5s89.834 -37.666 123.501 -69.999s59.167 -74.5 76.5 -126.5s26 -116 26 -192v-252
c0 -76 -8.66699 -140 -26 -192s-42.833 -94 -76.5 -126s-74.834 -55.167 -123.501 -69.5s-104.334 -21.5 -167.001 -21.5h-35c-62.667 0 -118.167 7.16699 -166.5 21.5s-89.166 37.5 -122.499 69.5s-58.666 74 -75.999 126s-26 116 -26 192v252zM274 408
c0 -54 5 -99.167 15 -135.5s24.667 -65.833 44 -88.5s43.166 -38.834 71.499 -48.501s60.833 -14.5 97.5 -14.5h51c36 0 68 4.83301 96 14.5s51.5 25.834 70.5 48.501s33.5 52.167 43.5 88.5s15 81.5 15 135.5v215c0 54 -5 99.167 -15 135.5s-24.5 65.666 -43.5 87.999
s-42.5 38.333 -70.5 48s-60 14.5 -96 14.5h-51c-36.667 0 -69.167 -4.83301 -97.5 -14.5s-52.166 -25.667 -71.499 -48s-34 -51.666 -44 -87.999s-15 -81.5 -15 -135.5v-215zM832 1231c-25.333 -30 -49.999 -50.834 -73.999 -62.501s-52 -17.5 -84 -17.5
c-20.667 0 -43.834 4.66699 -69.501 14s-51.834 19.5 -78.501 30.5s-53.5 21 -80.5 30s-52.5 13.5 -76.5 13.5c-30.667 0 -57.334 -7.66699 -80.001 -23s-46 -37 -70 -65v139c19.333 25.333 42.666 45.666 69.999 60.999s57.333 23 90 23c28 0 54.833 -4.66699 80.5 -14
s50.834 -19.666 75.501 -30.999s49.334 -21.666 74.001 -30.999s50.334 -14 77.001 -14c26 0 51.667 8.33301 77 25s48.333 39 69 67v-145v0z" />
    <glyph glyph-name="odieresis" unicode="&#xf6;" horiz-adv-x="1053" 
d="M117 641c0 76 8.66699 140 26 192s42.666 94.167 75.999 126.5s74.166 55.666 122.499 69.999s103.833 21.5 166.5 21.5h35c62.667 0 118.334 -7.16699 167.001 -21.5s89.834 -37.666 123.501 -69.999s59.167 -74.5 76.5 -126.5s26 -116 26 -192v-252
c0 -76 -8.66699 -140 -26 -192s-42.833 -94 -76.5 -126s-74.834 -55.167 -123.501 -69.5s-104.334 -21.5 -167.001 -21.5h-35c-62.667 0 -118.167 7.16699 -166.5 21.5s-89.166 37.5 -122.499 69.5s-58.666 74 -75.999 126s-26 116 -26 192v252zM274 408
c0 -54 5 -99.167 15 -135.5s24.667 -65.833 44 -88.5s43.166 -38.834 71.499 -48.501s60.833 -14.5 97.5 -14.5h51c36 0 68 4.83301 96 14.5s51.5 25.834 70.5 48.501s33.5 52.167 43.5 88.5s15 81.5 15 135.5v215c0 54 -5 99.167 -15 135.5s-24.5 65.666 -43.5 87.999
s-42.5 38.333 -70.5 48s-60 14.5 -96 14.5h-51c-36.667 0 -69.167 -4.83301 -97.5 -14.5s-52.166 -25.667 -71.499 -48s-34 -51.666 -44 -87.999s-15 -81.5 -15 -135.5v-215zM422 1358v-199h-158v199h158zM791 1358v-199h-158v199h158z" />
    <glyph glyph-name="divide" unicode="&#xf7;" 
d="M965 766v-141h-883v141h883zM602 475v-219h-160v219h160zM602 1139v-219h-160v219h160z" />
    <glyph glyph-name="oslash" unicode="&#xf8;" horiz-adv-x="1053" 
d="M299 -31l-136.997 0.000976562l55 103c-32.667 32 -57.5 73.833 -74.5 125.5s-25.5 115.5 -25.5 191.5v252c0 76 8.66699 140 26 192s42.666 94.167 75.999 126.5s74.166 55.666 122.499 69.999s103.833 21.5 166.5 21.5h35c36.667 0 71.167 -2.33301 103.5 -7
s61.833 -12.667 88.5 -24l23 41h137l-57 -107c32 -32 56.333 -73.667 73 -125s25 -114 25 -188v-252c0 -76 -8.66699 -140 -26 -192s-42.833 -94 -76.5 -126s-74.834 -55.167 -123.501 -69.5s-104.334 -21.5 -167.001 -21.5h-35c-36 0 -69.667 2 -101 6
s-60.666 10.667 -87.999 20zM274.003 408.001c0 -39.333 2.66602 -73.6689 7.99902 -103.002s13 -54.666 23 -75.999l359 660c-29.333 13.333 -66.333 20 -111 20h-51c-36.667 0 -69.167 -4.83301 -97.5 -14.5s-52.166 -25.667 -71.499 -48s-34 -51.666 -44 -87.999
s-15 -81.5 -15 -135.5v-215zM553.002 120.998c36 0 68.001 4.83105 96.001 14.498s51.5 25.834 70.5 48.501s33.5 52.167 43.5 88.5s15 81.5 15 135.5v215c0 71.333 -9.33301 129.333 -28 174l-357 -658c15.333 -7.33301 32.166 -12.166 50.499 -14.499
s37.833 -3.5 58.5 -3.5h51z" />
    <glyph glyph-name="ugrave" unicode="&#xf9;" horiz-adv-x="1059" 
d="M758 1024l156.997 0.000976562v-991c-26 -6 -54.667 -12.167 -86 -18.5s-63.666 -12 -96.999 -17s-66.833 -9.16699 -100.5 -12.5s-65.834 -5 -96.501 -5c-69.333 0 -129.166 8 -179.499 24s-92 38.333 -125 67s-57.5 63 -73.5 103s-24 83.667 -24 131v719h158v-709
c0 -36.667 6.66699 -67.5 20 -92.5s31.166 -45 53.499 -60s48.333 -25.667 78 -32s60.5 -9.5 92.5 -9.5c18.667 0 38.834 0.833008 60.501 2.5s42.834 4 63.501 7s39.834 6.16699 57.501 9.5s31.5 6.66602 41.5 9.99902v874zM687.997 1149v-10h-117l-299 280v15h192z" />
    <glyph glyph-name="uacute" unicode="&#xfa;" horiz-adv-x="1059" 
d="M758 1024l156.997 0.000976562v-991c-26 -6 -54.667 -12.167 -86 -18.5s-63.666 -12 -96.999 -17s-66.833 -9.16699 -100.5 -12.5s-65.834 -5 -96.501 -5c-69.333 0 -129.166 8 -179.499 24s-92 38.333 -125 67s-57.5 63 -73.5 103s-24 83.667 -24 131v719h158v-709
c0 -36.667 6.66699 -67.5 20 -92.5s31.166 -45 53.499 -60s48.333 -25.667 78 -32s60.5 -9.5 92.5 -9.5c18.667 0 38.834 0.833008 60.501 2.5s42.834 4 63.501 7s39.834 6.16699 57.501 9.5s31.5 6.66602 41.5 9.99902v874zM599.997 1434h193v-15l-299 -280h-117v10z" />
    <glyph glyph-name="ucircumflex" unicode="&#xfb;" horiz-adv-x="1059" 
d="M758 1024l156.997 0.000976562v-991c-26 -6 -54.667 -12.167 -86 -18.5s-63.666 -12 -96.999 -17s-66.833 -9.16699 -100.5 -12.5s-65.834 -5 -96.501 -5c-69.333 0 -129.166 8 -179.499 24s-92 38.333 -125 67s-57.5 63 -73.5 103s-24 83.667 -24 131v719h158v-709
c0 -36.667 6.66699 -67.5 20 -92.5s31.166 -45 53.499 -60s48.333 -25.667 78 -32s60.5 -9.5 92.5 -9.5c18.667 0 38.834 0.833008 60.501 2.5s42.834 4 63.501 7s39.834 6.16699 57.501 9.5s31.5 6.66602 41.5 9.99902v874zM408.997 1434h232l202 -285v-10h-116l-203 188
l-201 -188h-117v10z" />
    <glyph glyph-name="udieresis" unicode="&#xfc;" horiz-adv-x="1059" 
d="M758 1024l156.997 0.000976562v-991c-26 -6 -54.667 -12.167 -86 -18.5s-63.666 -12 -96.999 -17s-66.833 -9.16699 -100.5 -12.5s-65.834 -5 -96.501 -5c-69.333 0 -129.166 8 -179.499 24s-92 38.333 -125 67s-57.5 63 -73.5 103s-24 83.667 -24 131v719h158v-709
c0 -36.667 6.66699 -67.5 20 -92.5s31.166 -45 53.499 -60s48.333 -25.667 78 -32s60.5 -9.5 92.5 -9.5c18.667 0 38.834 0.833008 60.501 2.5s42.834 4 63.501 7s39.834 6.16699 57.501 9.5s31.5 6.66602 41.5 9.99902v874zM427.997 1358v-199h-158v199h158zM796.997 1358
v-199h-158v199h158z" />
    <glyph glyph-name="yacute" unicode="&#xfd;" horiz-adv-x="963" 
d="M487 209l306 815h170l-572 -1434h-172l193 428l-412 1006h176zM545 1434h193v-15l-299 -280h-117v10z" />
    <glyph glyph-name="thorn" unicode="&#xfe;" horiz-adv-x="1053" 
d="M535 -20c-40 0 -79.167 1.83301 -117.5 5.5s-77.166 8.5 -116.499 14.5v-410h-158v1823h158v-387c47.333 8 93.833 14.167 139.5 18.5s86.5 6.5 122.5 6.5c57.333 0 109 -6.66699 155 -20s85.167 -34 117.5 -62s57.166 -63.667 74.499 -107s26 -95 26 -155v-381
c0 -45.333 -7.33301 -88.833 -22 -130.5s-38.167 -78.5 -70.5 -110.5s-73.833 -57.5 -124.5 -76.5s-112 -28.5 -184 -28.5zM563 909c-23.333 0 -47.333 -1 -72 -3s-48.5 -4.66699 -71.5 -8s-44.667 -7.16602 -65 -11.499s-38.166 -8.5 -53.499 -12.5v-724
c16 -4 33.833 -7.83301 53.5 -11.5s40 -6.83398 61 -9.50098s41.833 -4.66699 62.5 -6s39.667 -2 57 -2c43.333 0 80.333 5 111 15s55.667 24 75 42s33.666 39.667 42.999 65s14 53 14 83v362c0 147.333 -71.667 221 -215 221z" />
    <glyph glyph-name="ydieresis" unicode="&#xff;" horiz-adv-x="963" 
d="M487 209l306 815h170l-572 -1434h-172l193 428l-412 1006h176zM383 1358v-199h-158v199h158zM752 1358v-199h-158v199h158z" />
    <glyph glyph-name="dotlessi" unicode="&#x131;" horiz-adv-x="444" 
d="M301 1024v-1024h-158v1024h158z" />
    <glyph glyph-name="Lslash" unicode="&#x141;" horiz-adv-x="942" 
d="M10 614l144 68v731h159v-653l283 135v-147l-283 -136v-465h578v-147h-737v535l-144 -68v147z" />
    <glyph glyph-name="lslash" unicode="&#x142;" horiz-adv-x="543" 
d="M133 1413l158 0.000976562v-674l194 92v-139l-194 -92v-326c0 -54 8.66699 -93 26 -117s45.333 -36 84 -36c22.667 0 45.667 1.16699 69 3.5s46.333 5.16602 69 8.49902v-139c-23.333 -4 -48.833 -7.33301 -76.5 -10s-58.834 -4 -93.501 -4
c-45.333 0 -83.166 6.33301 -113.499 19s-54.5 31.667 -72.5 57s-30.833 57 -38.5 95s-11.5 82 -11.5 132v241l-123 -57v139l123 58v749z" />
    <glyph glyph-name="OE" unicode="&#x152;" horiz-adv-x="1681" 
d="M1579 0l-735 0.00195312c-21.333 -6 -44.166 -10.833 -68.499 -14.5s-49.5 -5.5 -75.5 -5.5h-161c-64 0 -121.5 10 -172.5 30s-94.167 47.667 -129.5 83s-62.5 77.166 -81.5 125.499s-28.5 100.5 -28.5 156.5v663c0 56.667 9.5 109.167 28.5 157.5
s46.167 90.166 81.5 125.499s78.5 63 129.5 83s108.5 30 172.5 30h161c26 0 51.167 -2 75.5 -6s47.166 -9 68.499 -15h735v-147h-575v-455h532v-147h-532v-517h575v-147zM539 1286c-36.667 0 -70.334 -6.00195 -101.001 -18.002s-56.834 -29.667 -78.501 -53
s-38.5 -52.166 -50.5 -86.499s-18 -73.833 -18 -118.5v-607c0 -44.667 6 -84.167 18 -118.5s28.833 -63.166 50.5 -86.499s47.834 -41 78.501 -53s64.334 -18 101.001 -18h161c56.667 0 104.667 13.667 144 41v1077c-39.333 27.333 -87.333 41 -144 41h-161z" />
    <glyph glyph-name="oe" unicode="&#x153;" horiz-adv-x="1696" 
d="M1589 492h-653.001v-93c1.33301 -52.667 8 -96.834 20 -132.501s29 -64.167 51 -85.5s48.167 -36.666 78.5 -45.999s63.833 -14 100.5 -14c38 0 75.167 4.5 111.5 13.5s70.5 20.333 102.5 34s61 28.834 87 45.501s47.667 32.667 65 48v-158
c-17.333 -18 -39 -34.5 -65 -49.5s-54.833 -28 -86.5 -39s-65.5 -19.667 -101.5 -26s-73 -9.5 -111 -9.5c-44.667 0 -83.834 3.33301 -117.501 10s-63.5 16.167 -89.5 28.5s-48.833 27.166 -68.5 44.499s-37.167 36.666 -52.5 57.999c-16.667 -22 -34.667 -41.667 -54 -59
s-41.5 -32.166 -66.5 -44.499s-53.5 -21.666 -85.5 -27.999s-69 -9.5 -111 -9.5h-35c-62.667 0 -118.167 7.16699 -166.5 21.5s-89.166 37.5 -122.499 69.5s-58.666 74 -75.999 126s-26 116 -26 192v252c0 76 8.66699 140 26 192s42.666 94.167 75.999 126.5
s74.166 55.666 122.499 69.999s103.833 21.5 166.5 21.5h35c41.333 0 78 -3.16699 110 -9.5s60.667 -15.833 86 -28.5s48 -28.5 68 -47.5s38.333 -41.167 55 -66.5c17.333 22.667 36.333 43.334 57 62.001s43.834 34.667 69.501 48s54.334 23.666 86.001 30.999
s67.5 11 107.5 11h8c58 0 111.333 -8.16699 160 -24.5s90.667 -41.5 126 -75.5s63 -77.167 83 -129.5s30 -114.5 30 -186.5v-143zM273.999 408c0 -54 5 -99.166 15 -135.499s24.667 -65.833 44 -88.5s43.166 -38.834 71.499 -48.501s60.833 -14.5 97.5 -14.5h51
c36 0 67.667 4.66699 95 14s50.5 24.833 69.5 46.5s33.667 50 44 85s15.833 78.5 16.5 130.5v226c0 54 -5 99.167 -15 135.5s-24.5 65.666 -43.5 87.999s-42.5 38.333 -70.5 48s-60 14.5 -96 14.5h-51c-36.667 0 -69.167 -4.83301 -97.5 -14.5s-52.166 -25.667 -71.499 -48
s-34 -51.666 -44 -87.999s-15 -81.5 -15 -135.5v-215zM1182 909.001c-36 0 -68.835 -4.99902 -98.502 -14.999s-55.167 -25.833 -76.5 -47.5s-38.166 -49.5 -50.499 -83.5s-19.166 -74.667 -20.499 -122v-10h496c0 51.333 -6.5 94.666 -19.5 129.999s-30.5 64 -52.5 86
s-47.667 37.833 -77 47.5s-60.333 14.5 -93 14.5h-8z" />
    <glyph glyph-name="Scaron" unicode="&#x160;" horiz-adv-x="1063" 
d="M106 1079c0 51.333 9 98.6641 27 141.997s44.167 80.833 78.5 112.5s76.333 56.334 126 74.001s105.834 26.5 168.501 26.5h49c112 0 201.333 -23.333 268 -70s111.667 -119.667 135 -219l-157 -37c-7.33301 38 -19 68.833 -35 92.5s-35 42 -57 55
s-46.167 21.667 -72.5 26s-53.5 6.5 -81.5 6.5h-49c-34 0 -65.5 -4 -94.5 -12s-54.333 -20.833 -76 -38.5s-38.667 -40.167 -51 -67.5s-18.5 -60.333 -18.5 -99v-31c0 -32 6.5 -59.833 19.5 -83.5s29.333 -43.834 49 -60.501s41 -30.334 64 -41.001
s44.5 -19.334 64.5 -26.001l223 -71c44 -14.667 83.833 -32.167 119.5 -52.5s66 -44 91 -71s44.333 -57.667 58 -92s20.5 -73.166 20.5 -116.499v-82c0 -51.333 -9.5 -99.166 -28.5 -143.499s-46.333 -82.833 -82 -115.5s-78.667 -58.334 -129 -77.001
s-107.166 -28 -170.499 -28h-59c-40 0 -79.833 2.83301 -119.5 8.5s-77.5 14.667 -113.5 27s-69.833 27.833 -101.5 46.5s-59.5 41 -83.5 67v195c25.333 -32 54 -60.333 86 -85s66.333 -45.334 103 -62.001s75.167 -29.167 115.5 -37.5s80.833 -12.5 121.5 -12.5h39
c80 0 143.333 18.333 190 55s70 93.334 70 170.001v45c0 29.333 -3.33301 55 -10 77s-17.167 41.333 -31.5 58s-32.5 31 -54.5 43s-48 23 -78 33l-209 66c-48 14.667 -91.833 32.334 -131.5 53.001s-73.834 45.334 -102.501 74.001s-50.834 61.834 -66.501 99.501
s-23.5 80.834 -23.5 129.501v49zM217 1808v11h117l201 -189l203 189h116v-11l-202 -284h-232z" />
    <glyph glyph-name="scaron" unicode="&#x161;" horiz-adv-x="887" 
d="M813 283c0 -50 -6.83496 -93.8359 -20.502 -131.503s-35.834 -69.167 -66.501 -94.5s-71 -44.5 -121 -57.5s-111 -19.5 -183 -19.5c-74.667 0 -140.667 8.66699 -198 26s-104.666 44 -141.999 80v170c18.667 -18.667 40 -36.167 64 -52.5s50.333 -30.666 79 -42.999
s59.5 -22 92.5 -29s67.833 -10.5 104.5 -10.5c44 0 80.833 3 110.5 9s53.667 15.5 72 28.5s31.333 29.667 39 50s11.5 45.166 11.5 74.499c0 31.333 -8 56.833 -24 76.5s-37 36 -63 49s-55.667 24.167 -89 33.5l-102.5 29c-35 10 -69.167 22 -102.5 36s-63 32.167 -89 54.5
s-47 50.333 -63 84s-24 75.167 -24 124.5c0 50 7.66699 92.667 23 128s37 64.333 65 87s62 39.334 102 50.001s84.667 16 134 16h51c41.333 0 78.833 -4.33301 112.5 -13s63.834 -20.834 90.501 -36.501s50.334 -34.5 71.001 -56.5s38.667 -46.333 54 -73l-133 -86
c-10 16 -21.333 31.333 -34 46s-27 27.834 -43 39.501s-33.667 20.834 -53 27.501s-41 10 -65 10h-51c-56.667 0 -98.5 -11.167 -125.5 -33.5s-40.5 -57.5 -40.5 -105.5c0 -32.667 8 -59.167 24 -79.5s37 -37.166 63 -50.499s55.667 -24.5 89 -33.5l102.5 -28
c35 -9.66699 69.167 -21.167 102.5 -34.5s63 -31 89 -53s47 -49.667 63 -83s24 -75 24 -125zM134.998 1423v11h117l201 -189l203 189h116v-11l-202 -284h-232z" />
    <glyph glyph-name="Ydieresis" unicode="&#x178;" horiz-adv-x="1028" 
d="M516 737l334 676h168l-424 -821v-592h-160v592l-424 821h168zM412 1722v-198h-158v198h158zM781 1722v-198h-158v198h158z" />
    <glyph glyph-name="Zcaron" unicode="&#x17d;" horiz-adv-x="1061" 
d="M51 133l735 1133h-694v147h877v-131l-736 -1135h777v-147h-959v133zM207 1808v11h117l201 -189l203 189h116v-11l-202 -284h-232z" />
    <glyph glyph-name="zcaron" unicode="&#x17e;" horiz-adv-x="899" 
d="M61 131l553 754h-512v139h695v-131l-553 -754h594v-139h-777v131zM139 1423v11h117l201 -189l203 189h116v-11l-202 -284h-232z" />
    <glyph glyph-name="florin" unicode="&#x192;" horiz-adv-x="606" 
d="M35 1024h130.999v61c0 49.333 3.83301 94.833 11.5 136.5s21.667 77.5 42 107.5s48.166 53.5 83.499 70.5s80.333 25.5 135 25.5c37.333 0 69.333 -1.33301 96 -4s51.334 -6 74.001 -10v-143c-20.667 4 -42 7.66699 -64 11s-46.333 5 -73 5
c-24.667 0 -46.167 -3.16699 -64.5 -9.5s-33.666 -17 -45.999 -32s-21.5 -34.833 -27.5 -59.5s-9 -55.667 -9 -93v-66h272v-139h-272v-1295h-158v1295h-131v139z" />
    <glyph glyph-name="circumflex" unicode="&#x2c6;" horiz-adv-x="678" 
d="M223 1434h232l202 -285v-10h-116l-203 188l-201 -188h-117v10z" />
    <glyph glyph-name="caron" unicode="&#x2c7;" horiz-adv-x="584" 
d="M-29 1423v11h117l201 -189l203 189h116v-11l-202 -284h-232z" />
    <glyph glyph-name="macron" unicode="&#x2c9;" horiz-adv-x="606" 
d="M586 1139h-566v127h566v-127z" />
    <glyph glyph-name="breve" unicode="&#x2d8;" horiz-adv-x="584" 
d="M291 1139c-50 0 -92.999 8.33301 -128.999 25s-65.833 38.834 -89.5 66.501s-41.334 59.167 -53.001 94.5s-18.167 71.666 -19.5 108.999h119c6 -108 63.333 -162 172 -162c53.333 0 94.5 13.5 123.5 40.5s45.167 67.5 48.5 121.5h119
c-2 -37.333 -8.83301 -73.666 -20.5 -108.999s-29.167 -66.833 -52.5 -94.5s-53 -49.834 -89 -66.501s-79 -25 -129 -25z" />
    <glyph glyph-name="dotaccent" unicode="&#x2d9;" horiz-adv-x="174" 
d="M166 1337v-198h-158v198h158z" />
    <glyph glyph-name="ring" unicode="&#x2da;" horiz-adv-x="584" 
d="M66 1350c0 31.333 6 60.833 18 88.5s28.167 51.667 48.5 72s44.333 36.5 72 48.5s57.167 18 88.5 18c32 0 61.667 -6 89 -18s51.333 -28.167 72 -48.5s36.834 -44.333 48.501 -72s17.5 -57.167 17.5 -88.5c0 -32 -5.83301 -61.833 -17.5 -89.5s-27.834 -52 -48.501 -73
s-44.667 -37.5 -72 -49.5s-57 -18 -89 -18c-31.333 0 -60.833 6 -88.5 18s-51.667 28.5 -72 49.5s-36.5 45.333 -48.5 73s-18 57.5 -18 89.5zM168 1350c0 -17.333 3.16699 -33.666 9.5 -48.999s15.166 -28.666 26.499 -39.999s24.666 -20.166 39.999 -26.499
s31.666 -9.5 48.999 -9.5s33.5 3.16699 48.5 9.5s28.167 15.166 39.5 26.499s20.333 24.666 27 39.999s10 31.666 10 48.999s-3.33301 33.5 -10 48.5s-15.667 28.167 -27 39.5s-24.5 20.333 -39.5 27s-31.167 10 -48.5 10s-33.666 -3.33301 -48.999 -10
s-28.666 -15.667 -39.999 -27s-20.166 -24.5 -26.499 -39.5s-9.5 -31.167 -9.5 -48.5z" />
    <glyph glyph-name="ogonek" unicode="&#x2db;" horiz-adv-x="508" 
d="M399 20c-23.333 -11.333 -45 -24.1641 -65 -38.4971s-37.167 -29.833 -51.5 -46.5s-25.666 -34.334 -33.999 -53.001s-12.5 -37.334 -12.5 -56.001c0 -28.667 9 -51.5 27 -68.5s45.667 -25.5 83 -25.5c8 0 17.667 0.333008 29 1s21.666 1.66699 30.999 3v-111
c-10.667 -2 -21.5 -3.5 -32.5 -4.5s-24.167 -1.5 -39.5 -1.5c-41.333 0 -76 5.16699 -104 15.5s-50.5 24.166 -67.5 41.499s-29.167 37.333 -36.5 60s-11 46.334 -11 71.001c0 50 13.167 92.667 39.5 128s59.5 63.666 99.5 84.999h145z" />
    <glyph glyph-name="tilde" unicode="&#x2dc;" horiz-adv-x="653" 
d="M633 1231c-25.333 -30 -49.999 -50.834 -73.999 -62.501s-52 -17.5 -84 -17.5c-20.667 0 -43.834 4.66699 -69.501 14s-51.834 19.5 -78.501 30.5s-53.5 21 -80.5 30s-52.5 13.5 -76.5 13.5c-30.667 0 -57.334 -7.66699 -80.001 -23s-46 -37 -70 -65v139
c19.333 25.333 42.666 45.666 69.999 60.999s57.333 23 90 23c28 0 54.833 -4.66699 80.5 -14s50.834 -19.666 75.501 -30.999s49.334 -21.666 74.001 -30.999s50.334 -14 77.001 -14c26 0 51.667 8.33301 77 25s48.333 39 69 67v-145v0z" />
    <glyph glyph-name="hungarumlaut" unicode="&#x2dd;" horiz-adv-x="711" 
d="M203 1434h192v-15l-258 -280h-117v10zM498 1434h192v-15l-258 -280h-117v10z" />
    <glyph glyph-name="tonos" unicode="&#x384;" horiz-adv-x="416" 
d="M182 1434h193v-15l-217 -280h-117v10z" />
    <glyph glyph-name="dieresistonos" unicode="&#x385;" horiz-adv-x="686" 
d="M207 1358v-178h-158v178h158zM637 1358v-178h-158v178h158zM358 1556h193v-14l-197 -280h-116v10z" />
    <glyph glyph-name="Alphatonos" unicode="&#x386;" horiz-adv-x="1163" 
d="M805 567l-131 377l-34 102l-30 93c-10.667 32.667 -20 62.667 -28 90c-7.33301 -27.333 -16.5 -57.5 -27.5 -90.5l-30.5 -93.5l-35 -103l-131 -375h447zM852 420h-539l-149 -420h-164l502 1413h160l501 -1413h-164zM144 1415h193v-15l-217 -280h-117v10z" />
    <glyph glyph-name="Epsilontonos" unicode="&#x388;" horiz-adv-x="1171" 
d="M83 1415h193v-15l-217 -280h-117v10zM1069 0h-735v1413h735v-147h-576v-455h533v-147h-533v-517h576v-147z" />
    <glyph glyph-name="Etatonos" unicode="&#x389;" horiz-adv-x="1419" 
d="M1106 655h-613v-655h-159v1413h159v-610h613v610h159v-1413h-159v655zM83 1415h193v-15l-217 -280h-117v10z" />
    <glyph glyph-name="Iotatonos" unicode="&#x38a;" horiz-adv-x="647" 
d="M83 1415h193v-15l-217 -280h-117v10zM334 0v1413h159v-1413h-159z" />
    <glyph glyph-name="Omicrontonos" unicode="&#x38c;" horiz-adv-x="1362" 
d="M823 1434c64 0 121.5 -10 172.5 -30s94.167 -47.667 129.5 -83s62.5 -77.166 81.5 -125.499s28.5 -100.833 28.5 -157.5v-663c0 -56 -9.5 -108.167 -28.5 -156.5s-46.167 -90.166 -81.5 -125.499s-78.5 -63 -129.5 -83s-108.5 -30 -172.5 -30h-161
c-64 0 -121.5 10 -172.5 30s-94.167 47.667 -129.5 83s-62.5 77.166 -81.5 125.499s-28.5 100.5 -28.5 156.5v663c0 56.667 9.5 109.167 28.5 157.5s46.167 90.166 81.5 125.499s78.5 63 129.5 83s108.5 30 172.5 30h161zM662 1286c-36.667 0 -70.334 -6 -101.001 -18
s-56.834 -29.667 -78.501 -53s-38.5 -52.166 -50.5 -86.499s-18 -73.833 -18 -118.5v-607c0 -44.667 6 -84.167 18 -118.5s28.833 -63.166 50.5 -86.499s47.834 -41 78.501 -53s64.334 -18 101.001 -18h161c37.333 0 71.166 6 101.499 18s56.333 29.667 78 53
s38.5 52.166 50.5 86.499s18 73.833 18 118.5v607c0 44.667 -6 84.167 -18 118.5s-28.833 63.166 -50.5 86.499s-47.667 41 -78 53s-64.166 18 -101.499 18h-161zM83 1434h193v-15l-217 -280h-117v10z" />
    <glyph glyph-name="Upsilontonos" unicode="&#x38e;" horiz-adv-x="1341" 
d="M829 737l334 676h168l-424 -821v-592h-160v592l-424 821h168zM83 1415h193v-15l-217 -280h-117v10z" />
    <glyph glyph-name="Omegatonos" unicode="&#x38f;" horiz-adv-x="1370" 
d="M1214 561c0 -116.667 -22.6631 -208.834 -67.9961 -276.501s-116 -116.167 -212 -145.5v-8l47 5c19.333 2 38.833 3.83301 58.5 5.5s38 3 55 4s29.5 1.5 37.5 1.5h117v-147h-426v215c75.333 23.333 131.666 62.5 168.999 117.5s56 130.5 56 226.5v479
c0 41.333 -6.33301 77.5 -19 108.5s-30.334 56.833 -53.001 77.5s-49.834 36.167 -81.501 46.5s-66.5 15.5 -104.5 15.5h-149c-35.333 0 -68.166 -5.16699 -98.499 -15.5s-56.5 -25.833 -78.5 -46.5s-39.333 -46.5 -52 -77.5s-19 -67.167 -19 -108.5v-479
c0 -96 19.167 -171.5 57.5 -226.5s94.833 -94.167 169.5 -117.5v-215h-426v147h117c8 0 20.5 -0.5 37.5 -1.5s35 -2.33301 54 -4s37.667 -3.5 56 -5.5l45.5 -5v8c-93.333 29.333 -162.5 77.833 -207.5 145.5s-67.5 159.834 -67.5 276.501v467c0 58 9 111.833 27 161.5
s43.667 92.5 77 128.5s74.166 64.333 122.499 85s102.5 31 162.5 31h197c62.667 0 118.667 -10.333 168 -31s91.166 -49 125.499 -85s60.5 -78.833 78.5 -128.5s27 -103.5 27 -161.5v-467zM83.0039 1434h193v-15l-217 -280h-117v10z" />
    <glyph glyph-name="iotadieresistonos" unicode="&#x390;" horiz-adv-x="543" 
d="M133 1024l158 0.000976562v-750c0 -54 8.66699 -93 26 -117s45.333 -36 84 -36c22.667 0 45.667 1.16699 69 3.5s46.333 5.16602 69 8.49902v-139c-23.333 -4 -48.833 -7.33301 -76.5 -10s-58.834 -4 -93.501 -4c-45.333 0 -83.166 6.33301 -113.499 19
s-54.5 31.667 -72.5 57s-30.833 57 -38.5 95s-11.5 82 -11.5 132v741zM120 1358v-178h-158v178h158zM550 1358v-178h-158v178h158zM271 1556h193v-14l-197 -280h-116v10z" />
    <glyph glyph-name="Alpha" unicode="&#x391;" horiz-adv-x="1163" 
d="M805 567l-131 377l-34 102l-30 93c-10.667 32.667 -20 62.667 -28 90c-7.33301 -27.333 -16.5 -57.5 -27.5 -90.5l-30.5 -93.5l-35 -103l-131 -375h447zM852 420h-539l-149 -420h-164l502 1413h160l501 -1413h-164z" />
    <glyph glyph-name="Beta" unicode="&#x392;" horiz-adv-x="1186" 
d="M659 799c28.667 0 54.999 4.16895 78.999 12.502s44.833 21.666 62.5 39.999s31.334 42.666 41.001 72.999s14.5 67.5 14.5 111.5c0 79.333 -18.5 137.5 -55.5 174.5s-90.833 55.5 -161.5 55.5h-326v-467h346zM697.999 147.002c69.333 0 124.333 21.333 165 64
s61 107.667 61 195c0 83.333 -20.333 145 -61 185s-95.667 60 -165 60h-385v-504h385zM810.999 741.002c32 -4 64.1689 -13.502 96.502 -28.502s61.5 -36.167 87.5 -63.5s47.167 -61.166 63.5 -101.499s24.5 -87.5 24.5 -141.5c0 -68 -9.16699 -127.333 -27.5 -178
s-44.333 -92.834 -78 -126.501s-73.834 -59 -120.501 -76s-98.334 -25.5 -155.001 -25.5h-548v1413h491c52 0 100.667 -7.16699 146 -21.5s85 -36.666 119 -66.999s60.833 -68.666 80.5 -114.999s29.5 -101.5 29.5 -165.5c0 -84.667 -19.167 -151.667 -57.5 -201
s-88.833 -83.333 -151.5 -102z" />
    <glyph glyph-name="Gamma" unicode="&#x393;" horiz-adv-x="915" 
d="M154 1413h737v-147h-578v-1266h-159v1413z" />
    <glyph glyph-name="Delta" unicode="&#x394;" horiz-adv-x="1204" 
d="M68 139l454 1274h160l457 -1274v-139h-1071v139zM236 147h733l-275 797l-34 102l-29.5 93l-28.5 90c-7.33301 -27.333 -16.5 -57.5 -27.5 -90.5l-30.5 -93.5l-34 -103z" />
    <glyph glyph-name="Epsilon" unicode="&#x395;" horiz-adv-x="991" 
d="M889 0h-735v1413h735v-147h-576v-455h533v-147h-533v-517h576v-147z" />
    <glyph glyph-name="Zeta" unicode="&#x396;" horiz-adv-x="1061" 
d="M51 133l735 1133h-694v147h877v-131l-736 -1135h777v-147h-959v133z" />
    <glyph glyph-name="Eta" unicode="&#x397;" horiz-adv-x="1239" 
d="M926 655h-613v-655h-159v1413h159v-610h613v610h159v-1413h-159v655z" />
    <glyph glyph-name="Theta" unicode="&#x398;" horiz-adv-x="1239" 
d="M821 655h-407v148h407v-148zM700 1434c64 0 121.5 -10 172.5 -30s94.167 -47.667 129.5 -83s62.5 -77.166 81.5 -125.499s28.5 -100.833 28.5 -157.5v-663c0 -56 -9.5 -108.167 -28.5 -156.5s-46.167 -90.166 -81.5 -125.499s-78.5 -63 -129.5 -83s-108.5 -30 -172.5 -30
h-161c-64 0 -121.5 10 -172.5 30s-94.167 47.667 -129.5 83s-62.5 77.166 -81.5 125.499s-28.5 100.5 -28.5 156.5v663c0 56.667 9.5 109.167 28.5 157.5s46.167 90.166 81.5 125.499s78.5 63 129.5 83s108.5 30 172.5 30h161zM539 1286c-36.667 0 -70.334 -6 -101.001 -18
s-56.834 -29.667 -78.501 -53s-38.5 -52.166 -50.5 -86.499s-18 -73.833 -18 -118.5v-607c0 -44.667 6 -84.167 18 -118.5s28.833 -63.166 50.5 -86.499s47.834 -41 78.501 -53s64.334 -18 101.001 -18h161c37.333 0 71.166 6 101.499 18s56.333 29.667 78 53
s38.5 52.166 50.5 86.499s18 73.833 18 118.5v607c0 44.667 -6 84.167 -18 118.5s-28.833 63.166 -50.5 86.499s-47.667 41 -78 53s-64.166 18 -101.499 18h-161z" />
    <glyph glyph-name="Iota" unicode="&#x399;" horiz-adv-x="467" 
d="M154 0v1413h159v-1413h-159z" />
    <glyph glyph-name="Kappa" unicode="&#x39a;" horiz-adv-x="1110" 
d="M154 0v1413h159v-659l568 659h194l-586 -670l603 -743h-199l-580 717v-717h-159z" />
    <glyph glyph-name="Lambda" unicode="&#x39b;" horiz-adv-x="1106" 
d="M170 0h-170l479 1413h148l479 -1413h-170l-383 1188z" />
    <glyph glyph-name="Mu" unicode="&#x39c;" horiz-adv-x="1688" 
d="M1380 883c0 25.333 0.166992 49.502 0.5 72.502l1 70c0.333008 23.667 1 48 2 73s1.83301 51.5 2.5 79.5c-6.66699 -22 -15.5 -48.333 -26.5 -79l-34 -94l-34 -92l-27.5 -73l-338 -840h-170l-340 852c-8 20 -17.167 44.167 -27.5 72.5l-31.5 87.5l-30.5 89l-25.5 77
c4 -118.667 6 -216.334 6 -293.001v-885h-153v1413h198l393 -979c5.33301 -12.667 12.333 -30.334 21 -53.001l27 -72.5l28 -75.5c9.33301 -24.667 17 -45.667 23 -63l22.5 64l28 76l27.5 72l20 52l393 979h199v-1413h-154v883z" />
    <glyph glyph-name="Nu" unicode="&#x39d;" horiz-adv-x="1368" 
d="M1055 1413l159 -0.000976562v-1413h-176l-733 1174l4 -123c1.33301 -34.667 2.33301 -70.667 3 -108s1 -69.666 1 -96.999v-846h-159v1413h180l729 -1173l-4 104c-1.33301 30 -2.33301 62.667 -3 98s-1 69 -1 101v870z" />
    <glyph glyph-name="Xi" unicode="&#x39e;" horiz-adv-x="983" 
d="M131 811h725v-147h-725v147zM942 147v-147h-901v147h901zM901 1413v-149h-819v149h819z" />
    <glyph glyph-name="Omicron" unicode="&#x39f;" horiz-adv-x="1239" 
d="M700 1434c64 0 121.5 -10 172.5 -30s94.167 -47.667 129.5 -83s62.5 -77.166 81.5 -125.499s28.5 -100.833 28.5 -157.5v-663c0 -56 -9.5 -108.167 -28.5 -156.5s-46.167 -90.166 -81.5 -125.499s-78.5 -63 -129.5 -83s-108.5 -30 -172.5 -30h-161
c-64 0 -121.5 10 -172.5 30s-94.167 47.667 -129.5 83s-62.5 77.166 -81.5 125.499s-28.5 100.5 -28.5 156.5v663c0 56.667 9.5 109.167 28.5 157.5s46.167 90.166 81.5 125.499s78.5 63 129.5 83s108.5 30 172.5 30h161zM539 1286c-36.667 0 -70.334 -6 -101.001 -18
s-56.834 -29.667 -78.501 -53s-38.5 -52.166 -50.5 -86.499s-18 -73.833 -18 -118.5v-607c0 -44.667 6 -84.167 18 -118.5s28.833 -63.166 50.5 -86.499s47.834 -41 78.501 -53s64.334 -18 101.001 -18h161c37.333 0 71.166 6 101.499 18s56.333 29.667 78 53
s38.5 52.166 50.5 86.499s18 73.833 18 118.5v607c0 44.667 -6 84.167 -18 118.5s-28.833 63.166 -50.5 86.499s-47.667 41 -78 53s-64.166 18 -101.499 18h-161z" />
    <glyph glyph-name="Pi" unicode="&#x3a0;" horiz-adv-x="1239" 
d="M926 1268h-613v-1268h-159v1413h931v-1413h-159v1268z" />
    <glyph glyph-name="Rho" unicode="&#x3a1;" horiz-adv-x="1085" 
d="M610 741c35.333 0 67.666 5.5 96.999 16.5s54.5 27.667 75.5 50s37.167 50.5 48.5 84.5s17 74 17 120c0 43.333 -5.66699 80.833 -17 112.5s-27.5 58 -48.5 79s-46.167 36.667 -75.5 47s-61.666 15.5 -96.999 15.5h-297v-525h297zM313 594l-0.00195312 -593.999h-159
v1413h458c64.667 0 121.834 -9.33301 171.501 -28s91.5 -45.334 125.5 -80.001s59.667 -76.167 77 -124.5s26 -102.5 26 -162.5c0 -60.667 -8.5 -117 -25.5 -169s-42.167 -96.833 -75.5 -134.5s-74.666 -67.167 -123.999 -88.5s-106.333 -32 -171 -32h-303z" />
    <glyph glyph-name="Sigma" unicode="&#x3a3;" horiz-adv-x="987" 
d="M930 0h-858v135l440 596l-412 557v125h779v-147h-588l373 -502v-64l-408 -553h674v-147z" />
    <glyph glyph-name="Tau" unicode="&#x3a4;" horiz-adv-x="1024" 
d="M432 1266h-407v147h974v-147h-407v-1266h-160v1266z" />
    <glyph glyph-name="Upsilon" unicode="&#x3a5;" horiz-adv-x="1028" 
d="M516 737l334 676h168l-424 -821v-592h-160v592l-424 821h168z" />
    <glyph glyph-name="Phi" unicode="&#x3a6;" horiz-adv-x="1538" 
d="M942 358c40.667 0 78.9971 6.33203 114.997 18.999s67.667 33.834 95 63.501s49 68.334 65 116.001s24 106.5 24 176.5c0 65.333 -8.16699 120.666 -24.5 165.999s-38.166 82.333 -65.499 111s-59.166 49.5 -95.499 62.5s-74.166 19.5 -113.499 19.5h-113v-734h113z
M669.997 357.999v734.001h-113c-39.333 0 -77 -6.5 -113 -19.5s-67.833 -33.833 -95.5 -62.5s-49.667 -65.667 -66 -111s-24.5 -100.666 -24.5 -165.999c0 -70 8 -128.833 24 -176.5s37.667 -86.334 65 -116.001s59 -50.834 95 -63.501s74.333 -19 115 -19h113zM669.997 215
h-119c-70 0 -133.167 10.833 -189.5 32.5s-104.333 54 -144 97s-70.167 96.833 -91.5 161.5s-32 139.667 -32 225c0 84 11 157.5 33 220.5s53 115.5 93 157.5s88.333 73.5 145 94.5s120 31.5 190 31.5h115v188h159v-188h115c70 0 133.333 -10.5 190 -31.5
s105 -52.5 145 -94.5s71 -94.5 93 -157.5s33 -136.5 33 -220.5c0 -85.333 -10.667 -160.333 -32 -225s-51.833 -118.5 -91.5 -161.5s-87.667 -75.333 -144 -97s-119.5 -32.5 -189.5 -32.5h-119v-225h-161z" />
    <glyph glyph-name="Chi" unicode="&#x3a7;" horiz-adv-x="1204" 
d="M602 852l365 561h188l-463 -686l492 -727h-187l-395 604l-395 -604h-187l490 727l-461 686h189z" />
    <glyph glyph-name="Psi" unicode="&#x3a8;" horiz-adv-x="1540" 
d="M850 492l-0.000976562 -492h-160v492h-139c-70 0 -132 9 -186 27s-99.5 46.167 -136.5 84.5s-65.167 87.833 -84.5 148.5s-29 133.667 -29 219v442h164v-440c0 -70 6.83301 -126.833 20.5 -170.5s32.834 -77.667 57.501 -102s54 -40.666 88 -48.999
s71.333 -12.5 112 -12.5h133v774h160v-774h133c40.667 0 78 4.16699 112 12.5s63.333 24.666 88 48.999s44 58.333 58 102s21 100.5 21 170.5v440h163v-442c0 -85.333 -9.66699 -158.333 -29 -219s-47.5 -110.167 -84.5 -148.5s-82.5 -66.5 -136.5 -84.5s-116 -27 -186 -27
h-139z" />
    <glyph glyph-name="Omega" unicode="&#x3a9;" horiz-adv-x="1264" 
d="M1124 561c0 -116.667 -22.6631 -208.834 -67.9961 -276.501s-116 -116.167 -212 -145.5v-8l47 5c19.333 2 38.833 3.83301 58.5 5.5s38 3 55 4s29.5 1.5 37.5 1.5h117v-147h-426v215c75.333 23.333 131.666 62.5 168.999 117.5s56 130.5 56 226.5v479
c0 41.333 -6.33301 77.5 -19 108.5s-30.334 56.833 -53.001 77.5s-49.834 36.167 -81.501 46.5s-66.5 15.5 -104.5 15.5h-149c-35.333 0 -68.166 -5.16699 -98.499 -15.5s-56.5 -25.833 -78.5 -46.5s-39.333 -46.5 -52 -77.5s-19 -67.167 -19 -108.5v-479
c0 -96 19.167 -171.5 57.5 -226.5s94.833 -94.167 169.5 -117.5v-215h-426v147h117c8 0 20.5 -0.5 37.5 -1.5s35 -2.33301 54 -4s37.667 -3.5 56 -5.5l45.5 -5v8c-93.333 29.333 -162.5 77.833 -207.5 145.5s-67.5 159.834 -67.5 276.501v467c0 58 9 111.833 27 161.5
s43.667 92.5 77 128.5s74.166 64.333 122.499 85s102.5 31 162.5 31h197c62.667 0 118.667 -10.333 168 -31s91.166 -49 125.499 -85s60.5 -78.833 78.5 -128.5s27 -103.5 27 -161.5v-467z" />
    <glyph glyph-name="Iotadieresis" unicode="&#x3aa;" horiz-adv-x="467" 
d="M154 0v1413h159v-1413h-159zM132 1722v-198h-158v198h158zM501 1722v-198h-158v198h158z" />
    <glyph glyph-name="Upsilondieresis" unicode="&#x3ab;" horiz-adv-x="1028" 
d="M516 737l334 676h168l-424 -821v-592h-160v592l-424 821h168zM412 1722v-198h-158v198h158zM781 1722v-198h-158v198h158z" />
    <glyph glyph-name="alphatonos" unicode="&#x3ac;" horiz-adv-x="1174" 
d="M1010 -20c-27.333 0 -52.501 4.49414 -75.501 13.4941s-43.667 24 -62 45s-34.166 48.833 -47.499 83.5s-24 77.334 -32 128.001c-14 -34 -30.833 -67.333 -50.5 -100s-43.5 -61.5 -71.5 -86.5s-61.167 -45.167 -99.5 -60.5s-83.5 -23 -135.5 -23
s-97.833 7.33301 -137.5 22s-73 38.834 -100 72.501s-47.333 77.834 -61 132.501s-20.5 122.334 -20.5 203.001v221c0 140 31.5 245 94.5 315s159.833 105 290.5 105c58 0 107 -8.16699 147 -24.5s73.333 -39.166 100 -68.499s47.834 -64.5 63.501 -105.5
s28.167 -86.167 37.5 -135.5l102 307h158l-217 -563l33 -172c11.333 -59.333 27 -102.166 47 -128.499s48 -39.5 84 -39.5c11.333 0 23.166 0.833008 35.499 2.5s23.5 3.5 33.5 5.5v-135c-20.667 -5.33301 -40 -9 -58 -11s-37.333 -3 -58 -3zM499.999 908.994
c-37.333 0 -70.167 -5.33203 -98.5 -15.999s-52 -27.834 -71 -51.501s-33.167 -54.667 -42.5 -93s-14 -85.166 -14 -140.499v-180c0 -52.667 2.66699 -98.334 8 -137.001s15 -70.5 29 -95.5s33 -43.667 57 -56s54.333 -18.5 91 -18.5c44.667 0 83.167 10.5 115.5 31.5
s59.5 46.5 81.5 76.5s39.667 61 53 93s23.333 59 30 81l27 84l-14 103c-8.66699 61.333 -19.5 112.5 -32.5 153.5s-29.333 73.833 -49 98.5s-43.5 42 -71.5 52s-61 15 -99 15zM595.998 1434h193v-15l-217 -280h-117v10z" />
    <glyph glyph-name="epsilontonos" unicode="&#x3ad;" horiz-adv-x="940" 
d="M117 317c0 34 5.33105 63.0029 15.998 87.0029s25 44.167 43 60.5s38.333 29.5 61 39.5s46 18 70 24c-22.667 6.66699 -43.834 15.667 -63.501 27s-36.667 26.166 -51 44.499s-25.5 41 -33.5 68s-12 59.833 -12 98.5c0 98.667 29 170.834 87 216.501
s139.667 68.5 245 68.5h51c47.333 0 88 -4 122 -12s63.333 -19 88 -33s46 -30.667 64 -50s34.667 -40.333 50 -63l-147 -86c-19.333 34 -43.166 59.5 -71.499 76.5s-66.166 25.5 -113.499 25.5h-33c-25.333 0 -49.166 -2.33301 -71.499 -7s-41.833 -12.667 -58.5 -24
s-29.834 -27 -39.501 -47s-14.5 -45 -14.5 -75c0 -30.667 3.83301 -56.334 11.5 -77.001s17.5 -37.334 29.5 -50.001s25.5 -21.667 40.5 -27s30.167 -8 45.5 -8h234v-141h-242c-20.667 0 -40 -2.66699 -58 -8s-33.833 -13.666 -47.5 -24.999s-24.5 -26.333 -32.5 -45
s-12 -41.334 -12 -68.001c0 -60.667 19.333 -106.834 58 -138.501s100.667 -47.5 186 -47.5c39.333 0 76.166 3.16699 110.499 9.5s65.833 14.5 94.5 24.5s54.334 21.167 77.001 33.5s42 24.5 58 36.5v-159c-14.667 -10 -32.834 -20.167 -54.501 -30.5
s-46.667 -19.666 -75 -27.999s-60.166 -15 -95.499 -20s-74.333 -7.5 -117 -7.5c-62.667 0 -118.667 5.66699 -168 17s-91.166 29.166 -125.499 53.499s-60.5 56 -78.5 95s-27 86.167 -27 141.5v30zM546.998 1434h193v-15l-217 -280h-117v10z" />
    <glyph glyph-name="etatonos" unicode="&#x3ae;" horiz-adv-x="1059" 
d="M301 0l-157.998 -0.00195312v997c26 6 54.833 12.333 86.5 19s64.167 12.5 97.5 17.5s66.833 9.16699 100.5 12.5s65.834 5 96.501 5c67.333 0 126.166 -7.5 176.499 -22.5s92.166 -36.667 125.499 -65s58.333 -62.666 75 -102.999s25 -85.5 25 -135.5v-1135h-158v1127
c0 60.667 -20.333 107.834 -61 141.501s-97.334 50.5 -170.001 50.5c-18.667 0 -39.667 -0.833008 -63 -2.5s-46 -4 -68 -7s-42.5 -6 -61.5 -9s-33.5 -6.16699 -43.5 -9.5v-881zM585.002 1434h193v-15l-217 -280h-117v10z" />
    <glyph glyph-name="iotatonos" unicode="&#x3af;" horiz-adv-x="543" 
d="M133 1024l158 0.000976562v-750c0 -54 8.66699 -93 26 -117s45.333 -36 84 -36c22.667 0 45.667 1.16699 69 3.5s46.333 5.16602 69 8.49902v-139c-23.333 -4 -48.833 -7.33301 -76.5 -10s-58.834 -4 -93.501 -4c-45.333 0 -83.166 6.33301 -113.499 19
s-54.5 31.667 -72.5 57s-30.833 57 -38.5 95s-11.5 82 -11.5 132v741zM301 1434h193v-15l-217 -280h-117v10z" />
    <glyph glyph-name="upsilondieresistonos" unicode="&#x3b0;" horiz-adv-x="1092" 
d="M539 121c50.667 0 93.332 5.66504 127.999 16.998s62.667 28.333 84 51s36.666 51 45.999 85s14 73.667 14 119v230c0 32 -1.5 65.667 -4.5 101s-7.16699 70.5 -12.5 105.5s-11.666 69.167 -18.999 102.5s-15.666 64 -24.999 92h163c10 -20.667 18.5 -46.5 25.5 -77.5
s12.667 -64.167 17 -99.5s7.66602 -71.666 9.99902 -108.999s3.5 -72.333 3.5 -105v-234c0 -76 -10 -140.5 -30 -193.5s-48.5 -96.167 -85.5 -129.5s-81.5 -57.666 -133.5 -72.999s-110.333 -23 -175 -23c-135.333 0 -237.833 29.833 -307.5 89.5s-104.5 152.5 -104.5 278.5
v676h158v-670c0 -32 4.16699 -62.167 12.5 -90.5s22.333 -53 42 -74s45.334 -37.667 77.001 -50s70.5 -18.5 116.5 -18.5zM409.998 1358v-178h-158v178h158zM839.998 1358v-178h-158v178h158zM560.998 1556h193v-14l-197 -280h-116v10z" />
    <glyph glyph-name="alpha" unicode="&#x3b1;" horiz-adv-x="1174" 
d="M1010 -20c-27.333 0 -52.501 4.49414 -75.501 13.4941s-43.667 24 -62 45s-34.166 48.833 -47.499 83.5s-24 77.334 -32 128.001c-14 -34 -30.833 -67.333 -50.5 -100s-43.5 -61.5 -71.5 -86.5s-61.167 -45.167 -99.5 -60.5s-83.5 -23 -135.5 -23
s-97.833 7.33301 -137.5 22s-73 38.834 -100 72.501s-47.333 77.834 -61 132.501s-20.5 122.334 -20.5 203.001v221c0 140 31.5 245 94.5 315s159.833 105 290.5 105c58 0 107 -8.16699 147 -24.5s73.333 -39.166 100 -68.499s47.834 -64.5 63.501 -105.5
s28.167 -86.167 37.5 -135.5l102 307h158l-217 -563l33 -172c11.333 -59.333 27 -102.166 47 -128.499s48 -39.5 84 -39.5c11.333 0 23.166 0.833008 35.499 2.5s23.5 3.5 33.5 5.5v-135c-20.667 -5.33301 -40 -9 -58 -11s-37.333 -3 -58 -3zM499.999 908.994
c-37.333 0 -70.167 -5.33203 -98.5 -15.999s-52 -27.834 -71 -51.501s-33.167 -54.667 -42.5 -93s-14 -85.166 -14 -140.499v-180c0 -52.667 2.66699 -98.334 8 -137.001s15 -70.5 29 -95.5s33 -43.667 57 -56s54.333 -18.5 91 -18.5c44.667 0 83.167 10.5 115.5 31.5
s59.5 46.5 81.5 76.5s39.667 61 53 93s23.333 59 30 81l27 84l-14 103c-8.66699 61.333 -19.5 112.5 -32.5 153.5s-29.333 73.833 -49 98.5s-43.5 42 -71.5 52s-61 15 -99 15z" />
    <glyph glyph-name="beta" unicode="&#x3b2;" horiz-adv-x="1053" 
d="M451 676l-0.00195312 141h63c37.333 0 68 5.16699 92 15.5s43 25.666 57 45.999s23.667 46 29 77s8 66.833 8 107.5c0 45.333 -4.5 82.5 -13.5 111.5s-22.167 52.167 -39.5 69.5s-38.833 29.333 -64.5 36s-55.167 10 -88.5 10c-66.667 0 -115.5 -13.667 -146.5 -41
s-46.5 -67 -46.5 -119v-980c34 -7.33301 70.5 -14 109.5 -20s76.833 -9 113.5 -9c87.333 0 151.5 18.333 192.5 55s61.5 88 61.5 154v123c0 36 -4.33301 68 -13 96s-22.667 51.333 -42 70s-44.666 32.834 -75.999 42.501s-69.666 14.5 -114.999 14.5h-81zM683.998 754
c85.333 -16.667 148.67 -47.5 190.003 -92.5s62 -108.5 62 -190.5v-145c0 -50 -8.16699 -96 -24.5 -138s-41.5 -78.5 -75.5 -109.5s-76.833 -55.167 -128.5 -72.5s-112.834 -26 -183.501 -26c-45.333 0 -85.333 2 -120 6s-69 8.66699 -103 14v-410h-158v1545
c0 55.333 9.5 102 28.5 140s44.5 68.833 76.5 92.5s69.167 40.667 111.5 51s87.166 15.5 134.499 15.5c46.667 0 91.834 -5.33301 135.501 -16s82.5 -29 116.5 -55s61.167 -61.167 81.5 -105.5s30.5 -100.166 30.5 -167.499v-46c0 -43.333 -3.83301 -80.833 -11.5 -112.5
s-18.834 -58.834 -33.501 -81.501s-32.834 -41.667 -54.501 -57s-46.5 -28.333 -74.5 -39z" />
    <glyph glyph-name="gamma" unicode="&#x3b3;" horiz-adv-x="985" 
d="M492 164c38.667 50.667 74.6699 105.003 108.003 163.003s62.333 121.667 87 191s44 145.666 58 228.999s21 175.666 21 276.999h170c0 -73.333 -5.83301 -144.5 -17.5 -213.5s-27.334 -135.5 -47.001 -199.5s-42.834 -125.333 -69.501 -184s-54.667 -113.667 -84 -165
s-59.333 -99 -90 -143s-60.334 -83.667 -89.001 -119v-410h-179c0 24 1 53.167 3 87.5s4.66699 70.666 8 108.999s7.5 76.833 12.5 115.5s10.833 74 17.5 106l-401 1016h174z" />
    <glyph glyph-name="delta" unicode="&#x3b4;" horiz-adv-x="1059" 
d="M117 465c0 63.333 6.8291 118.666 20.4961 165.999s33.167 87.666 58.5 120.999s56 59.833 92 79.5s76 33.834 120 42.501c-26 14 -51.667 30.167 -77 48.5s-48 39.333 -68 63s-36.333 50.334 -49 80.001s-19 62.834 -19 99.501c0 91.333 26.5 159.333 79.5 204
s130.167 67 231.5 67h102c43.333 0 81.333 -4.5 114 -13.5s61.834 -21.167 87.501 -36.5s48.334 -33.333 68.001 -54s37.834 -42.667 54.501 -66l-133 -90c-10 14.667 -21 29.167 -33 43.5s-25.667 27 -41 38s-33 19.833 -53 26.5s-43.333 10 -70 10h-98
c-49.333 0 -87.666 -10.667 -114.999 -32s-41 -53 -41 -95c0 -21.333 3.66699 -40.333 11 -57s17.833 -31.834 31.5 -45.501s30.167 -26.5 49.5 -38.5s40.666 -24.333 63.999 -37l215 -119c24 -13.333 48.833 -29.166 74.5 -47.499s49 -40.833 70 -67.5
s38.333 -58.334 52 -95.001s20.5 -80 20.5 -130v-135c0 -75.333 -9.33301 -139.333 -28 -192s-45.167 -95.5 -79.5 -128.5s-75.666 -57 -123.999 -72s-102.166 -22.5 -161.499 -22.5h-54c-59.333 0 -112 7.66699 -158 23s-84.833 40 -116.5 74s-55.834 77.833 -72.501 131.5
s-25 118.5 -25 194.5v62v0zM566.996 788c-52 -1.33301 -96.667 -8.33203 -134 -20.999s-67.666 -32.5 -90.999 -59.5s-40.5 -62 -51.5 -105s-16.5 -95.167 -16.5 -156.5v-49c0 -42.667 3.16699 -81 9.5 -115s17.333 -63 33 -87s36.5 -42.333 62.5 -55s58.667 -19 98 -19h78
c39.333 0 73.166 6.16699 101.499 18.5s51.5 30.333 69.5 54s31.167 52.667 39.5 87s12.5 73.166 12.5 116.499v111c0 36.667 -4.66699 69 -14 97s-23 52.833 -41 74.5s-40 41.167 -66 58.5s-56 34 -90 50z" />
    <glyph glyph-name="epsilon" unicode="&#x3b5;" horiz-adv-x="940" 
d="M117 317c0 34 5.33105 63.0029 15.998 87.0029s25 44.167 43 60.5s38.333 29.5 61 39.5s46 18 70 24c-22.667 6.66699 -43.834 15.667 -63.501 27s-36.667 26.166 -51 44.499s-25.5 41 -33.5 68s-12 59.833 -12 98.5c0 98.667 29 170.834 87 216.501
s139.667 68.5 245 68.5h51c47.333 0 88 -4 122 -12s63.333 -19 88 -33s46 -30.667 64 -50s34.667 -40.333 50 -63l-147 -86c-19.333 34 -43.166 59.5 -71.499 76.5s-66.166 25.5 -113.499 25.5h-33c-25.333 0 -49.166 -2.33301 -71.499 -7s-41.833 -12.667 -58.5 -24
s-29.834 -27 -39.501 -47s-14.5 -45 -14.5 -75c0 -30.667 3.83301 -56.334 11.5 -77.001s17.5 -37.334 29.5 -50.001s25.5 -21.667 40.5 -27s30.167 -8 45.5 -8h234v-141h-242c-20.667 0 -40 -2.66699 -58 -8s-33.833 -13.666 -47.5 -24.999s-24.5 -26.333 -32.5 -45
s-12 -41.334 -12 -68.001c0 -60.667 19.333 -106.834 58 -138.501s100.667 -47.5 186 -47.5c39.333 0 76.166 3.16699 110.499 9.5s65.833 14.5 94.5 24.5s54.334 21.167 77.001 33.5s42 24.5 58 36.5v-159c-14.667 -10 -32.834 -20.167 -54.501 -30.5
s-46.667 -19.666 -75 -27.999s-60.166 -15 -95.499 -20s-74.333 -7.5 -117 -7.5c-62.667 0 -118.667 5.66699 -168 17s-91.166 29.166 -125.499 53.499s-60.5 56 -78.5 95s-27 86.167 -27 141.5v30z" />
    <glyph glyph-name="zeta" unicode="&#x3b6;" horiz-adv-x="891" 
d="M821 1251c-27.333 -6 -50.3359 -11.9951 -69.0029 -17.9951s-38.667 -13.667 -60 -23c-63.333 -46 -120.833 -91.667 -172.5 -137s-95.667 -94 -132 -146s-64.333 -109 -84 -171s-29.5 -133 -29.5 -213v-176c0 -37.333 4.5 -70.5 13.5 -99.5s23.833 -53.333 44.5 -73
s47.834 -34.5 81.501 -44.5s75.5 -15 125.5 -15c49.333 0 94 -3.5 134 -10.5s74 -19.167 102 -36.5s49.5 -40.5 64.5 -69.5s22.5 -65.167 22.5 -108.5c0 -14 -0.5 -29.167 -1.5 -45.5s-2.16699 -32.333 -3.5 -48s-2.83301 -30.834 -4.5 -45.501l-4.5 -39h-154
c3.33301 22.667 6 44.834 8 66.501s3 43.834 3 66.501c0 20 -2.83301 38 -8.5 54s-15.667 29.5 -30 40.5s-33.666 19.5 -57.999 25.5s-55.166 9 -92.499 9c-74 0 -136.5 7.33301 -187.5 22s-92.167 37.667 -123.5 69s-53.833 71.666 -67.5 120.999s-20.5 109 -20.5 179v154
c0 79.333 7.83301 150.166 23.5 212.499s39 119.166 70 170.499s69.667 99.166 116 143.499s100.5 87.833 162.5 130.5c-26.667 1.33301 -54.667 3.66602 -84 6.99902s-58.166 8.33301 -86.499 15s-56 15.167 -83 25.5s-52.167 23.166 -75.5 38.499v158
c47.333 -36 101.666 -62.5 162.999 -79.5s126.333 -25.5 195 -25.5c23.333 0 48.333 1.5 75 4.5s53.167 7.16699 79.5 12.5s52.333 11.5 78 18.5s49.167 14.5 70.5 22.5v-142v0z" />
    <glyph glyph-name="eta" unicode="&#x3b7;" horiz-adv-x="1059" 
d="M301 0l-157.998 -0.00195312v997c26 6 54.833 12.333 86.5 19s64.167 12.5 97.5 17.5s66.833 9.16699 100.5 12.5s65.834 5 96.501 5c67.333 0 126.166 -7.5 176.499 -22.5s92.166 -36.667 125.499 -65s58.333 -62.666 75 -102.999s25 -85.5 25 -135.5v-1135h-158v1127
c0 60.667 -20.333 107.834 -61 141.501s-97.334 50.5 -170.001 50.5c-18.667 0 -39.667 -0.833008 -63 -2.5s-46 -4 -68 -7s-42.5 -6 -61.5 -9s-33.5 -6.16699 -43.5 -9.5v-881z" />
    <glyph glyph-name="theta" unicode="&#x3b8;" horiz-adv-x="1073" 
d="M285 381c0 -80 17.3301 -143.333 51.9971 -190s88.334 -70 161.001 -70h77c36.667 0 68.334 6 95.001 18s48.834 29.333 66.501 52s30.667 50 39 82s12.5 68 12.5 108v270h-503v-270zM497.997 1292c-72.667 0 -126.331 -23.333 -160.998 -70s-52 -110 -52 -190v-239h503
v239c0 40 -4.16699 76 -12.5 108s-21.333 59.333 -39 82s-39.834 40 -66.501 52s-58.334 18 -95.001 18h-77zM127 1014c0 76 8.16699 140.5 24.5 193.5s40.5 96.333 72.5 130s71.667 58.167 119 73.5s102.333 23 165 23h57c62.667 0 117.667 -7.66699 165 -23
s87 -39.833 119 -73.5s56.167 -77 72.5 -130s24.5 -117.5 24.5 -193.5v-615c0 -76 -8.16699 -140.5 -24.5 -193.5s-40.5 -96.167 -72.5 -129.5s-71.667 -57.666 -119 -72.999s-102.333 -23 -165 -23h-57c-62.667 0 -117.667 7.66699 -165 23s-87 39.666 -119 72.999
s-56.167 76.5 -72.5 129.5s-24.5 117.5 -24.5 193.5v615z" />
    <glyph glyph-name="iota" unicode="&#x3b9;" horiz-adv-x="543" 
d="M133 1024l158 0.000976562v-750c0 -54 8.66699 -93 26 -117s45.333 -36 84 -36c22.667 0 45.667 1.16699 69 3.5s46.333 5.16602 69 8.49902v-139c-23.333 -4 -48.833 -7.33301 -76.5 -10s-58.834 -4 -93.501 -4c-45.333 0 -83.166 6.33301 -113.499 19
s-54.5 31.667 -72.5 57s-30.833 57 -38.5 95s-11.5 82 -11.5 132v741z" />
    <glyph glyph-name="kappa" unicode="&#x3ba;" horiz-adv-x="954" 
d="M301 0h-158v1024h158v-498l418 498h184l-385 -428l430 -596h-184l-344 485l-119 -110v-375z" />
    <glyph glyph-name="lambda" unicode="&#x3bb;" horiz-adv-x="1053" 
d="M414 1133c-8 21.333 -16.332 41.667 -24.999 61s-18.834 36.333 -30.501 51s-25.334 26.167 -41.001 34.5s-34.167 12.5 -55.5 12.5c-14.667 0 -30.667 -0.833008 -48 -2.5s-32.666 -4.16699 -45.999 -7.5v135c6.66699 2.66699 14.5 5 23.5 7s18 3.83301 27 5.5
s17.833 2.83398 26.5 3.50098s16.334 1 23.001 1c41.333 0 76.666 -5.5 105.999 -16.5s55.333 -27.667 78 -50s42.667 -50.833 60 -85.5s34.333 -75.667 51 -123l311 -870c10 -28.667 19.5 -53.334 28.5 -74.001s18 -37.5 27 -50.5s18.5 -22.5 28.5 -28.5s21.667 -9 35 -9
c9.33301 0 18.333 0.333008 27 1s16 1.66699 22 3v-135c-12 -3.33301 -24.5 -5.83301 -37.5 -7.5s-29.167 -2.5 -48.5 -2.5c-32.667 0 -60.167 5.33301 -82.5 16s-42 27.167 -59 49.5s-32.5 50.833 -46.5 85.5s-29 75.667 -45 123l-174 510l-318 -770h-170l414 958z" />
    <glyph glyph-name="mu" unicode="&#x3bc;" horiz-adv-x="1069" 
d="M768 1024l158.001 0.000976562v-991c-26 -6 -54.833 -12.167 -86.5 -18.5s-64.167 -12 -97.5 -17s-66.833 -9.16699 -100.5 -12.5s-65.834 -5 -96.501 -5c-58 0 -108 5.66699 -150 17s-73.333 25.333 -94 42v-449h-158v1434h158v-717
c0 -60.667 22.167 -106.167 66.5 -136.5s103.5 -45.5 177.5 -45.5c19.333 0 39.833 0.833008 61.5 2.5s42.667 4 63 7s39.333 6.16699 57 9.5s31.5 6.66602 41.5 9.99902v870z" />
    <glyph glyph-name="nu" unicode="&#x3bd;" horiz-adv-x="1018" 
d="M20 1024l169.999 0.000976562l220 -598l20 -57l24 -70.5l23.5 -72c7.66699 -23.667 13.834 -43.834 18.501 -60.501c31.333 52 62.833 107.833 94.5 167.5s60.167 124.667 85.5 195s46 146.5 62 228.5s24 171 24 267h162c0 -109.333 -12.5 -212 -37.5 -308
s-56.5 -186.167 -94.5 -270.5s-79.333 -163.333 -124 -237l-127 -208.5h-121z" />
    <glyph glyph-name="xi" unicode="&#x3be;" horiz-adv-x="899" 
d="M711 834l0.00292969 -143.999c-62 0 -119.667 -3.66699 -173 -11s-99.5 -21.166 -138.5 -41.499s-69.667 -49 -92 -86s-33.5 -85.5 -33.5 -145.5v-41c0 -38.667 4.83301 -72.5 14.5 -101.5s25.167 -53 46.5 -72s48.666 -33.167 81.999 -42.5s74 -14 122 -14
c43.333 0 84.666 -2.83301 123.999 -8.5s73.666 -16.834 102.999 -33.501s52.666 -39.667 69.999 -69s26 -67.333 26 -114c0 -30 -1.5 -61.333 -4.5 -94s-6.16699 -60.667 -9.5 -84h-154c3.33301 21.333 6 43.166 8 65.499s3 44.833 3 67.5
c0 43.333 -14.167 75.666 -42.5 96.999s-74.5 32 -138.5 32c-73.333 0 -135.833 6.83301 -187.5 20.5s-93.667 35.334 -126 65.001s-56 67.834 -71 114.501s-22.5 102.667 -22.5 168v44c0 53.333 8.16699 100.166 24.5 140.499s39 75.166 68 104.499s63.333 53.333 103 72
s82.834 33 129.501 43c-67.333 15.333 -121 43 -161 83s-60 94.333 -60 163c0 49.333 13.333 94.333 40 135s70.667 73.334 132 98.001c-15.333 -0.666992 -33 -0.166992 -53 1.5s-40.667 4.16699 -62 7.5s-42.333 7.5 -63 12.5s-39 10.167 -55 15.5v158
c66 -27.333 131.167 -48.166 195.5 -62.499s130.833 -21.5 199.5 -21.5c39.333 10 79.833 18.5 121.5 25.5s77.5 12.167 107.5 15.5v-146c-27.333 0 -56.5 -1 -87.5 -3s-61.667 -5.83301 -92 -11.5s-59.333 -13.5 -87 -23.5s-52 -23.333 -73 -40s-37.833 -37 -50.5 -61
s-19 -52.667 -19 -86c0 -68.667 22.5 -117.834 67.5 -147.501s116.5 -44.5 214.5 -44.5h54z" />
    <glyph glyph-name="omicron" unicode="&#x3bf;" horiz-adv-x="1053" 
d="M117 641c0 76 8.66699 140 26 192s42.666 94.167 75.999 126.5s74.166 55.666 122.499 69.999s103.833 21.5 166.5 21.5h35c62.667 0 118.334 -7.16699 167.001 -21.5s89.834 -37.666 123.501 -69.999s59.167 -74.5 76.5 -126.5s26 -116 26 -192v-252
c0 -76 -8.66699 -140 -26 -192s-42.833 -94 -76.5 -126s-74.834 -55.167 -123.501 -69.5s-104.334 -21.5 -167.001 -21.5h-35c-62.667 0 -118.167 7.16699 -166.5 21.5s-89.166 37.5 -122.499 69.5s-58.666 74 -75.999 126s-26 116 -26 192v252zM274 408
c0 -54 5 -99.167 15 -135.5s24.667 -65.833 44 -88.5s43.166 -38.834 71.499 -48.501s60.833 -14.5 97.5 -14.5h51c36 0 68 4.83301 96 14.5s51.5 25.834 70.5 48.501s33.5 52.167 43.5 88.5s15 81.5 15 135.5v215c0 54 -5 99.167 -15 135.5s-24.5 65.666 -43.5 87.999
s-42.5 38.333 -70.5 48s-60 14.5 -96 14.5h-51c-36.667 0 -69.167 -4.83301 -97.5 -14.5s-52.166 -25.667 -71.499 -48s-34 -51.666 -44 -87.999s-15 -81.5 -15 -135.5v-215z" />
    <glyph glyph-name="pi" unicode="&#x3c0;" horiz-adv-x="1188" 
d="M31 1024l1091 0.00195312v-139h-202v-635c0 -48.667 7.5 -82.334 22.5 -101.001s36.833 -28 65.5 -28c13.333 0 26 0.5 38 1.5s25 2.5 39 4.5v-133c-13.333 -5.33301 -28.166 -9 -44.499 -11s-34.166 -3 -53.499 -3c-40.667 0 -75.167 4.66699 -103.5 14
s-51.5 24.666 -69.5 45.999s-31.167 49.5 -39.5 84.5s-12.5 78.167 -12.5 129.5v631h-369v-885h-157v885h-205v139z" />
    <glyph glyph-name="rho" unicode="&#x3c1;" horiz-adv-x="1042" 
d="M291 -410l-157.999 -0.000976562v1065c0 53.333 8.5 104 25.5 152s42.667 90 77 126s77.333 64.667 129 86s112.5 32 182.5 32c46 0 91.667 -5.33301 137 -16s85.833 -29 121.5 -55s64.667 -61.167 87 -105.5s33.5 -100.166 33.5 -167.499v-381
c0 -50 -7.5 -96 -22.5 -138s-38.333 -78.5 -70 -109.5s-72.334 -55.167 -122.001 -72.5s-109.5 -26 -179.5 -26c-42 0 -83.667 3.83301 -125 11.5s-80 18.167 -116 31.5v-433zM543.001 908.999c-31.333 0 -61.999 -4.83691 -91.999 -14.5039s-56.833 -25.167 -80.5 -46.5
s-42.834 -48.666 -57.501 -81.999s-22 -73.666 -22 -120.999v-475c36 -12.667 76.333 -24 121 -34s87.667 -15 129 -15c78.667 0 136.167 17.833 172.5 53.5s54.5 88.834 54.5 159.501v358c0 41.333 -5.83301 75.833 -17.5 103.5s-27.5 49.834 -47.5 66.501
s-43.667 28.667 -71 36s-57 11 -89 11z" />
    <glyph glyph-name="sigma1" unicode="&#x3c2;" horiz-adv-x="944" 
d="M274 430c0 -51.333 4.50195 -95.501 13.502 -132.501s23.5 -67.5 43.5 -91.5s46 -41.833 78 -53.5s71 -17.5 117 -17.5c50 0 95.5 -3.33301 136.5 -10s76.333 -18.5 106 -35.5s52.667 -40 69 -69s24.5 -65.833 24.5 -110.5c0 -37.333 -1.33301 -70.5 -4 -99.5
s-6 -55.167 -10 -78.5h-156c3.33301 22.667 6.33301 44.834 9 66.501s4 43.834 4 66.501c0 43.333 -14.5 75.666 -43.5 96.999s-77.5 32 -145.5 32c-80 0 -145.667 10 -197 30s-92 48.667 -122 86s-50.833 82.5 -62.5 135.5s-17.5 112.5 -17.5 178.5v156
c0 71.333 5.5 132.5 16.5 183.5s26.167 94 45.5 129s41.666 62.833 66.999 83.5s52.166 36.667 80.499 48s57.5 18.666 87.5 21.999s59.333 5 88 5h28c43.333 0 81.5 -4 114.5 -12s62.167 -19.167 87.5 -33.5s47.166 -31.5 65.499 -51.5s34.5 -42.333 48.5 -67l-141 -86
c-17.333 30.667 -40.666 56.334 -69.999 77.001s-67 31 -113 31h-28c-26.667 0 -53.167 -4 -79.5 -12s-49.833 -24.167 -70.5 -48.5s-37.5 -58.833 -50.5 -103.5s-19.5 -104 -19.5 -178v-137z" />
    <glyph glyph-name="sigma" unicode="&#x3c3;" horiz-adv-x="1155" 
d="M956 410c0 -78 -9.66895 -144.332 -29.002 -198.999s-46.666 -99 -81.999 -133s-77.333 -58.833 -126 -74.5s-102.667 -23.5 -162 -23.5h-35c-58.667 0 -111.667 7.66699 -159 23s-87.833 39.666 -121.5 72.999s-59.5 76.5 -77.5 129.5s-27 117.5 -27 193.5v158
c0 156.667 33.833 273.667 101.5 351s175.167 116 322.5 116h569v-139h-282c20.667 -19.333 37.834 -40.5 51.501 -63.5s24.667 -47.167 33 -72.5s14.333 -51.5 18 -78.5s5.5 -54.5 5.5 -82.5v-178zM294.998 399.001c0 -42.667 4.16992 -81.165 12.5029 -115.498
s21.166 -63.5 38.499 -87.5s39.666 -42.5 66.999 -55.5s60.333 -19.5 99 -19.5h57c78 0 135.833 24.833 173.5 74.5s56.5 117.5 56.5 203.5v172c0 26.667 -1.66699 54 -5 82s-9.33301 55.667 -18 83s-19.834 53.666 -33.501 78.999s-31.167 48.666 -52.5 69.999h-115
c-60 0 -108.333 -7.5 -145 -22.5s-65 -37 -85 -66s-33.333 -64.667 -40 -107s-10 -90.5 -10 -144.5v-146z" />
    <glyph glyph-name="tau" unicode="&#x3c4;" horiz-adv-x="852" 
d="M805 1024l-0.00195312 -139.002h-332v-590c0 -55.333 9.33301 -98.166 28 -128.499s52.334 -45.5 101.001 -45.5c24.667 0 47.334 1.83301 68.001 5.5s41.667 9.16699 63 16.5v-141c-22.667 -7.33301 -46.167 -12.833 -70.5 -16.5s-54.166 -5.5 -89.499 -5.5
c-52.667 0 -95.834 8.33301 -129.501 25s-60 39.334 -79 68.001s-32 61.667 -39 99s-10.5 76.333 -10.5 117v596h-288v139h778z" />
    <glyph glyph-name="upsilon" unicode="&#x3c5;" horiz-adv-x="1092" 
d="M539 121c50.667 0 93.332 5.66504 127.999 16.998s62.667 28.333 84 51s36.666 51 45.999 85s14 73.667 14 119v230c0 32 -1.5 65.667 -4.5 101s-7.16699 70.5 -12.5 105.5s-11.666 69.167 -18.999 102.5s-15.666 64 -24.999 92h163c10 -20.667 18.5 -46.5 25.5 -77.5
s12.667 -64.167 17 -99.5s7.66602 -71.666 9.99902 -108.999s3.5 -72.333 3.5 -105v-234c0 -76 -10 -140.5 -30 -193.5s-48.5 -96.167 -85.5 -129.5s-81.5 -57.666 -133.5 -72.999s-110.333 -23 -175 -23c-135.333 0 -237.833 29.833 -307.5 89.5s-104.5 152.5 -104.5 278.5
v676h158v-670c0 -32 4.16699 -62.167 12.5 -90.5s22.333 -53 42 -74s45.334 -37.667 77.001 -50s70.5 -18.5 116.5 -18.5z" />
    <glyph glyph-name="phi" unicode="&#x3c6;" horiz-adv-x="1475" 
d="M117 633c0 76 6.00195 140.498 18.002 193.498s31.667 96.167 59 129.5s63.333 57.5 108 72.5s99.667 22.5 165 22.5v-140c-44.667 0 -79.834 -6.33301 -105.501 -19s-45 -31 -58 -55s-21.167 -53 -24.5 -87s-5 -72.333 -5 -115v-234c0 -42.667 6.5 -81.167 19.5 -115.5
s32.5 -63.666 58.5 -87.999s58.5 -43.166 97.5 -56.499s84.5 -20 136.5 -20h76v905c48 8 94 14.167 138 18.5s86.667 6.5 128 6.5c68.667 0 129.667 -7.5 183 -22.5s98.333 -39.167 135 -72.5s64.5 -76.5 83.5 -129.5s28.5 -117.5 28.5 -193.5v-234
c0 -76 -12 -140.5 -36 -193.5s-56.667 -96.167 -98 -129.5s-89.5 -57.666 -144.5 -72.999s-113.833 -23 -176.5 -23h-84v-390h-157v390h-60c-72 0 -137.833 7.66699 -197.5 23s-110.834 39.666 -153.501 72.999s-75.667 76.5 -99 129.5s-35 117.5 -35 193.5v234z
M924.002 120.998c41.333 0 79 6.49707 113 19.4971s63 31.667 87 56s42.667 53.833 56 88.5s20 73.334 20 116.001v232c0 43.333 -4.5 82 -13.5 116s-24.333 62.833 -46 86.5s-50.167 41.834 -85.5 54.501s-79 19 -131 19c-8 0 -16.833 -0.166992 -26.5 -0.5
s-19.5 -1 -29.5 -2s-19.333 -2.16699 -28 -3.5s-15.667 -2.66602 -21 -3.99902v-778h105z" />
    <glyph glyph-name="chi" unicode="&#x3c7;" horiz-adv-x="1065" 
d="M889 -156c8 -15.333 16.001 -29.834 24.001 -43.501s16.5 -25.5 25.5 -35.5s19 -18 30 -24s22.833 -9 35.5 -9c8.66699 0 16 0.166992 22 0.5s11.5 1 16.5 2s9.83301 1.83301 14.5 2.5s10 1.66699 16 3v-135c-15.333 -4 -31 -7.5 -47 -10.5s-34.333 -4.5 -55 -4.5
c-26.667 0 -49.834 2.5 -69.501 7.5s-37.167 13.333 -52.5 25s-29.5 26.834 -42.5 45.501s-26.5 42 -40.5 70l-234 475l-333 -623h-183l447 772l-227 431c-19.333 38 -37.833 66.833 -55.5 86.5s-38.167 29.5 -61.5 29.5c-8.66699 0 -18 -0.833008 -28 -2.5
s-21.333 -4.16699 -34 -7.5v139c30 8.66699 65 13 105 13c25.333 0 47 -2.83301 65 -8.5s34.167 -14.834 48.5 -27.501s27.5 -28.667 39.5 -48s25 -42.666 39 -69.999l199 -393l276 520h185l-381 -674z" />
    <glyph glyph-name="psi" unicode="&#x3c8;" horiz-adv-x="1427" 
d="M1311 399c0 -76 -12.6719 -140.503 -38.0049 -193.503s-59.666 -96.167 -102.999 -129.5s-93.833 -57.666 -151.5 -72.999s-119.167 -23 -184.5 -23h-41v-390h-158v390h-57c-65.333 0 -126 7.66699 -182 23s-104.667 39.666 -146 72.999s-73.833 76.5 -97.5 129.5
s-35.5 117.5 -35.5 193.5v244c0 34 0.5 68.333 1.5 103s3.33301 68.334 7 101.001s9 64 16 94s16.5 57.667 28.5 83h162c-25.333 -66 -41.333 -132.833 -48 -200.5s-10 -134.5 -10 -200.5v-234c0 -41.333 6 -78.666 18 -111.999s30 -61.5 54 -84.5s54.333 -40.667 91 -53
s79.334 -18.5 128.001 -18.5h70v1093h158v-1093h57c48.667 0 91.834 6.5 129.501 19.5s69.334 31.333 95.001 55s45.167 52.334 58.5 86.001s20 70.834 20 111.501v230c0 66 -3.16699 132.833 -9.5 200.5s-22.166 134.5 -47.499 200.5h161c12 -25.333 21.5 -53 28.5 -83
s12.5 -61.333 16.5 -94s6.5 -66.334 7.5 -101.001s1.5 -69 1.5 -103v-244z" />
    <glyph glyph-name="omega" unicode="&#x3c9;" horiz-adv-x="1454" 
d="M805 606l0.000976562 -266c0 -42 4.16699 -77 12.5 -105s20.333 -50.5 36 -67.5s34.5 -29 56.5 -36s47 -10.5 75 -10.5c37.333 0 68.5 7 93.5 21s45 33.333 60 58s25.667 54 32 88s9.5 71 9.5 111v224c0 42.667 -4.33301 81.5 -13 116.5s-22.5 65 -41.5 90
s-43.333 44.5 -73 58.5s-65.167 21 -106.5 21v144c61.333 0 116.166 -8.16699 164.499 -24.5s89.166 -41.666 122.499 -75.999s59 -78.5 77 -132.5s27 -119 27 -195v-226c0 -76 -7.83301 -140.5 -23.5 -193.5s-37.667 -96.167 -66 -129.5s-61.833 -57.666 -100.5 -72.999
s-81 -23 -127 -23c-40.667 0 -76 3.5 -106 10.5s-56.333 16.833 -79 29.5s-42.667 28 -60 46s-33.333 38.333 -48 61c-14.667 -22.667 -30.667 -43 -48 -61s-37.333 -33.333 -60 -46s-49 -22.5 -79 -29.5s-65.333 -10.5 -106 -10.5c-51.333 0 -96.666 7.66699 -135.999 23
s-72.5 39.666 -99.5 72.999s-47.333 76.5 -61 129.5s-20.5 117.5 -20.5 193.5v226c0 76 9 141 27 195s43.667 98.167 77 132.5s74.333 59.666 123 75.999s103.334 24.5 164.001 24.5v-144c-41.333 0 -76.833 -7 -106.5 -21s-54 -33.5 -73 -58.5s-32.833 -55 -41.5 -90
s-13 -73.833 -13 -116.5v-224c0 -40 2.16699 -77 6.5 -111s13.166 -63.333 26.499 -88s33 -44 59 -58s60.333 -21 103 -21c22 0 43.833 3.5 65.5 10.5s41 19 58 36s30.667 39.5 41 67.5s15.5 63 15.5 105v266h156z" />
    <glyph glyph-name="iotadieresis" unicode="&#x3ca;" horiz-adv-x="543" 
d="M133 1024l158 0.000976562v-750c0 -54 8.66699 -93 26 -117s45.333 -36 84 -36c22.667 0 45.667 1.16699 69 3.5s46.333 5.16602 69 8.49902v-139c-23.333 -4 -48.833 -7.33301 -76.5 -10s-58.834 -4 -93.501 -4c-45.333 0 -83.166 6.33301 -113.499 19
s-54.5 31.667 -72.5 57s-30.833 57 -38.5 95s-11.5 82 -11.5 132v741zM132 1358v-199h-158v199h158zM501 1358v-199h-158v199h158z" />
    <glyph glyph-name="upsilondieresis" unicode="&#x3cb;" horiz-adv-x="1092" 
d="M539 121c50.667 0 93.332 5.66504 127.999 16.998s62.667 28.333 84 51s36.666 51 45.999 85s14 73.667 14 119v230c0 32 -1.5 65.667 -4.5 101s-7.16699 70.5 -12.5 105.5s-11.666 69.167 -18.999 102.5s-15.666 64 -24.999 92h163c10 -20.667 18.5 -46.5 25.5 -77.5
s12.667 -64.167 17 -99.5s7.66602 -71.666 9.99902 -108.999s3.5 -72.333 3.5 -105v-234c0 -76 -10 -140.5 -30 -193.5s-48.5 -96.167 -85.5 -129.5s-81.5 -57.666 -133.5 -72.999s-110.333 -23 -175 -23c-135.333 0 -237.833 29.833 -307.5 89.5s-104.5 152.5 -104.5 278.5
v676h158v-670c0 -32 4.16699 -62.167 12.5 -90.5s22.333 -53 42 -74s45.334 -37.667 77.001 -50s70.5 -18.5 116.5 -18.5zM437.998 1358v-199h-158v199h158zM806.998 1358v-199h-158v199h158z" />
    <glyph glyph-name="omicrontonos" unicode="&#x3cc;" horiz-adv-x="1053" 
d="M117 641c0 76 8.66699 140 26 192s42.666 94.167 75.999 126.5s74.166 55.666 122.499 69.999s103.833 21.5 166.5 21.5h35c62.667 0 118.334 -7.16699 167.001 -21.5s89.834 -37.666 123.501 -69.999s59.167 -74.5 76.5 -126.5s26 -116 26 -192v-252
c0 -76 -8.66699 -140 -26 -192s-42.833 -94 -76.5 -126s-74.834 -55.167 -123.501 -69.5s-104.334 -21.5 -167.001 -21.5h-35c-62.667 0 -118.167 7.16699 -166.5 21.5s-89.166 37.5 -122.499 69.5s-58.666 74 -75.999 126s-26 116 -26 192v252zM274 408
c0 -54 5 -99.167 15 -135.5s24.667 -65.833 44 -88.5s43.166 -38.834 71.499 -48.501s60.833 -14.5 97.5 -14.5h51c36 0 68 4.83301 96 14.5s51.5 25.834 70.5 48.501s33.5 52.167 43.5 88.5s15 81.5 15 135.5v215c0 54 -5 99.167 -15 135.5s-24.5 65.666 -43.5 87.999
s-42.5 38.333 -70.5 48s-60 14.5 -96 14.5h-51c-36.667 0 -69.167 -4.83301 -97.5 -14.5s-52.166 -25.667 -71.499 -48s-34 -51.666 -44 -87.999s-15 -81.5 -15 -135.5v-215zM592 1434h193v-15l-217 -280h-117v10z" />
    <glyph glyph-name="upsilontonos" unicode="&#x3cd;" horiz-adv-x="1133" 
d="M539 121c50.667 0 93.332 5.66504 127.999 16.998s62.667 28.333 84 51s36.666 51 45.999 85s14 73.667 14 119v230c0 32 -1.5 65.667 -4.5 101s-7.16699 70.5 -12.5 105.5s-11.666 69.167 -18.999 102.5s-15.666 64 -24.999 92h163c10 -20.667 18.5 -46.5 25.5 -77.5
s12.667 -64.167 17 -99.5s7.66602 -71.666 9.99902 -108.999s3.5 -72.333 3.5 -105v-234c0 -76 -10 -140.5 -30 -193.5s-48.5 -96.167 -85.5 -129.5s-81.5 -57.666 -133.5 -72.999s-110.333 -23 -175 -23c-135.333 0 -237.833 29.833 -307.5 89.5s-104.5 152.5 -104.5 278.5
v676h158v-670c0 -32 4.16699 -62.167 12.5 -90.5s22.333 -53 42 -74s45.334 -37.667 77.001 -50s70.5 -18.5 116.5 -18.5zM572.998 1434h193v-15l-217 -280h-117v10z" />
    <glyph glyph-name="omegatonos" unicode="&#x3ce;" horiz-adv-x="1454" 
d="M805 606l0.000976562 -266c0 -42 4.16699 -77 12.5 -105s20.333 -50.5 36 -67.5s34.5 -29 56.5 -36s47 -10.5 75 -10.5c37.333 0 68.5 7 93.5 21s45 33.333 60 58s25.667 54 32 88s9.5 71 9.5 111v224c0 42.667 -4.33301 81.5 -13 116.5s-22.5 65 -41.5 90
s-43.333 44.5 -73 58.5s-65.167 21 -106.5 21v144c61.333 0 116.166 -8.16699 164.499 -24.5s89.166 -41.666 122.499 -75.999s59 -78.5 77 -132.5s27 -119 27 -195v-226c0 -76 -7.83301 -140.5 -23.5 -193.5s-37.667 -96.167 -66 -129.5s-61.833 -57.666 -100.5 -72.999
s-81 -23 -127 -23c-40.667 0 -76 3.5 -106 10.5s-56.333 16.833 -79 29.5s-42.667 28 -60 46s-33.333 38.333 -48 61c-14.667 -22.667 -30.667 -43 -48 -61s-37.333 -33.333 -60 -46s-49 -22.5 -79 -29.5s-65.333 -10.5 -106 -10.5c-51.333 0 -96.666 7.66699 -135.999 23
s-72.5 39.666 -99.5 72.999s-47.333 76.5 -61 129.5s-20.5 117.5 -20.5 193.5v226c0 76 9 141 27 195s43.667 98.167 77 132.5s74.333 59.666 123 75.999s103.334 24.5 164.001 24.5v-144c-41.333 0 -76.833 -7 -106.5 -21s-54 -33.5 -73 -58.5s-32.833 -55 -41.5 -90
s-13 -73.833 -13 -116.5v-224c0 -40 2.16699 -77 6.5 -111s13.166 -63.333 26.499 -88s33 -44 59 -58s60.333 -21 103 -21c22 0 43.833 3.5 65.5 10.5s41 19 58 36s30.667 39.5 41 67.5s15.5 63 15.5 105v266h156zM788.001 1434h193v-15l-217 -280h-117v10z" />
    <glyph glyph-name="endash" unicode="&#x2013;" horiz-adv-x="1024" 
d="M1034 602v-123h-1044v123h1044z" />
    <glyph glyph-name="emdash" unicode="&#x2014;" horiz-adv-x="2048" 
d="M2058 602v-123h-2068v123h2068z" />
    <glyph glyph-name="afii00208" unicode="&#x2015;" horiz-adv-x="2048" 
d="M2058 602v-123h-2068v123h2068z" />
    <glyph glyph-name="quoteleft" unicode="&#x2018;" horiz-adv-x="403" 
d="M125 938v211l129 264h129l-100 -264v-211h-158z" />
    <glyph glyph-name="quoteright" unicode="&#x2019;" horiz-adv-x="403" 
d="M281 1413v-211l-129 -264h-129l100 264v211h158z" />
    <glyph glyph-name="quotesinglbase" unicode="&#x201a;" horiz-adv-x="403" 
d="M281 242v-211l-129 -264h-129l100 264v211h158z" />
    <glyph glyph-name="quotedblleft" unicode="&#x201c;" horiz-adv-x="723" 
d="M125 938v211l129 264h129l-100 -264v-211h-158zM444 938v211l129 264h129l-100 -264v-211h-158z" />
    <glyph glyph-name="quotedblright" unicode="&#x201d;" horiz-adv-x="723" 
d="M600 1413v-211l-129 -264h-129l100 264v211h158zM281 1413v-211l-129 -264h-129l100 264v211h158z" />
    <glyph glyph-name="quotedblbase" unicode="&#x201e;" horiz-adv-x="723" 
d="M600 242v-211l-129 -264h-129l100 264v211h158zM281 242v-211l-129 -264h-129l100 264v211h158z" />
    <glyph glyph-name="dagger" unicode="&#x2020;" horiz-adv-x="893" 
d="M391 -207l-24 1071l-326 -30v190l324 -35l-15 424h191l-15 -424l326 35v-190l-330 30l-22 -1071h-109z" />
    <glyph glyph-name="daggerdbl" unicode="&#x2021;" horiz-adv-x="893" 
d="M494 606l20 -266l334 33v-191l-326 35l25 -424h-201l25 424l-324 -35v191l330 -33l18 264l-18 262l-330 -32v190l324 -35l-25 424h201l-25 -424l326 35v-190l-334 32z" />
    <glyph glyph-name="bullet" unicode="&#x2022;" horiz-adv-x="758" 
d="M379 967c32 0 62.333 -6.16602 91 -18.499s53.667 -29.333 75 -51s38.166 -46.834 50.499 -75.501s18.5 -59 18.5 -91s-6.16699 -62.333 -18.5 -91s-29.166 -53.667 -50.499 -75s-46.333 -38.166 -75 -50.499s-59 -18.5 -91 -18.5s-62.333 6.16699 -91 18.5
s-53.834 29.166 -75.501 50.499s-38.667 46.333 -51 75s-18.5 59 -18.5 91c0 35.333 6.16699 67.5 18.5 96.5s29.333 53.833 51 74.5s46.834 36.667 75.501 48s59 17 91 17z" />
    <glyph glyph-name="ellipsis" unicode="&#x2026;" horiz-adv-x="1217" 
d="M283 240v-240h-160v240h160zM688 240v-240h-160v240h160zM1094 240v-240h-160v240h160z" />
    <glyph glyph-name="perthousand" unicode="&#x2030;" horiz-adv-x="2515" 
d="M92 1104c0 61.333 7 113 21 155s34.5 76.167 61.5 102.5s60.333 45.333 100 57s84.834 17.5 135.501 17.5h6c50.667 0 95.667 -5.83301 135 -17.5s72.666 -30.667 99.999 -57s48.166 -60.5 62.499 -102.5s21.5 -93.667 21.5 -155v-160
c0 -60.667 -7.16699 -112.167 -21.5 -154.5s-35.166 -76.666 -62.499 -102.999s-60.666 -45.333 -99.999 -57s-84.333 -17.5 -135 -17.5h-6c-50.667 0 -95.834 5.83301 -135.501 17.5s-73 30.667 -100 57s-47.5 60.666 -61.5 102.999s-21 93.833 -21 154.5v160zM240 961
c0 -77.333 12.333 -133.666 37 -168.999s66.667 -53 126 -53h23c58.667 0 100.334 17.667 125.001 53s37 91.666 37 168.999v126c0 77.333 -12.333 133.666 -37 168.999s-66.334 53 -125.001 53h-23c-59.333 0 -101.333 -17.667 -126 -53s-37 -91.666 -37 -168.999v-126z
M1329 1436l-747 -1436h-158l747 1436h158zM1024 492c0 60.667 7 112 21 154s34.5 76.167 61.5 102.5s60.167 45.333 99.5 57s84.333 17.5 135 17.5h7c50.667 0 95.667 -5.83301 135 -17.5s72.666 -30.667 99.999 -57s48.166 -60.5 62.499 -102.5s21.5 -93.333 21.5 -154
v-160c0 -60.667 -7.16699 -112.167 -21.5 -154.5s-35.166 -76.666 -62.499 -102.999s-60.666 -45.333 -99.999 -57s-84.333 -17.5 -135 -17.5h-7c-50.667 0 -95.667 5.83301 -135 17.5s-72.5 30.667 -99.5 57s-47.5 60.666 -61.5 102.999s-21 93.833 -21 154.5v160z
M1171 348c0 -76.667 12.5 -132.667 37.5 -168s67.167 -53 126.5 -53h23c58.667 0 100.334 17.667 125.001 53s37 91.333 37 168v127c0 77.333 -12.333 133.5 -37 168.5s-66.334 52.5 -125.001 52.5h-23c-59.333 0 -101.5 -17.5 -126.5 -52.5s-37.5 -91.167 -37.5 -168.5
v-127zM1780 492c0 60.667 7 112 21 154s34.5 76.167 61.5 102.5s60.167 45.333 99.5 57s84.333 17.5 135 17.5h6c50.667 0 95.834 -5.83301 135.5 -17.5c39.667 -11.667 73.167 -30.667 100.5 -57s48.166 -60.5 62.5 -102.5c14.333 -42 21.5 -93.333 21.5 -154v-160
c0 -60.667 -7.16699 -112.167 -21.5 -154.5s-35.166 -76.666 -62.5 -102.999c-27.333 -26.333 -60.833 -45.333 -100.5 -57s-84.834 -17.5 -135.5 -17.5h-6c-50.667 0 -95.667 5.83301 -135 17.5s-72.5 30.667 -99.5 57s-47.5 60.666 -61.5 102.999s-21 93.833 -21 154.5
v160zM1927 348c0 -76.667 12.5 -132.667 37.5 -168s67.167 -53 126.5 -53h23c58 0 99.333 17.667 124 53s37 91.333 37 168v127c0 77.333 -12.333 133.5 -37 168.5s-66 52.5 -124 52.5h-23c-59.333 0 -101.5 -17.5 -126.5 -52.5s-37.5 -91.167 -37.5 -168.5v-127z" />
    <glyph glyph-name="guilsinglleft" unicode="&#x2039;" horiz-adv-x="508" 
d="M416 913h10v-157l-209 -242l209 -244v-159h-10l-334 329v146z" />
    <glyph glyph-name="guilsinglright" unicode="&#x203a;" horiz-adv-x="508" 
d="M426 586v-146l-334 -329h-10v159l209 244l-209 242v157h10z" />
    <glyph glyph-name="fraction" unicode="&#x2044;" horiz-adv-x="367" 
d="M776 1436l-1028 -1456h-158l1028 1456h158z" />
    <glyph glyph-name="Won" unicode="&#x20a9;" horiz-adv-x="1806" 
d="M102 920h113l-113 493h160l109 -493h331l129 493h144l127 -493h334l108 493h160l-115 -493h115v-121h-143l-45 -197h188v-121h-215l-111 -481h-168l-123 481h-368l-123 -481h-168l-113 481h-213v121h187l-45 197h-142v121zM750 602h307l-51 197h-207zM1186 602h180
l43 197h-274zM440 602h181l51 197h-275zM829 920h146l-72 282zM1284 225l55 256h-122zM522 225l66 256h-121z" />
    <glyph glyph-name="Euro" unicode="&#x20ac;" 
d="M782 920l-0.000976562 -142.001h-409v-155h409v-142h-409v-78c0 -44.667 5.33301 -84.167 16 -118.5s25.5 -63.166 44.5 -86.499s41.833 -41 68.5 -53s56 -18 88 -18h31c25.333 0 50.333 3.33301 75 10s48.667 15.5 72 26.5s45.333 23.5 66 37.5s39.334 28.333 56.001 43
s31.167 28.834 43.5 42.501s21.5 25.5 27.5 35.5v-185c-10 -14.667 -25.667 -31.167 -47 -49.5s-47 -35.5 -77 -51.5s-64 -29.333 -102 -40s-79 -16 -123 -16h-32c-57.333 0 -109 10 -155 30s-85 47.667 -117 83s-56.5 77.166 -73.5 125.499s-25.5 100.5 -25.5 156.5v106
h-117v142h117v155h-117v142h117v118c0 56.667 8.5 109.167 25.5 157.5s41.5 90.166 73.5 125.499s71 63 117 83s97.667 30 155 30h14c49.333 0 94.5 -7.33301 135.5 -22s77 -35 108 -61s56.667 -56.5 77 -91.5s34.833 -73.167 43.5 -114.5l-157 -37
c-5.33301 30 -14.333 56 -27 78s-28.167 40.5 -46.5 55.5s-38.833 26.167 -61.5 33.5s-46.667 11 -72 11h-12c-31.333 0 -59.833 -6 -85.5 -18s-47.667 -29.667 -66 -53s-32.5 -52.166 -42.5 -86.499s-15 -73.833 -15 -118.5v-90h409z" />
    <glyph glyph-name="trademark" unicode="&#x2122;" horiz-adv-x="1442" 
d="M1020 911l-86.001 -0.000976562l-139 230c-2 2 -4.83301 6.33301 -8.5 13l-12.5 22.5c-4.66699 8.33301 -9 16.666 -13 24.999s-7 15.5 -9 21.5c1.33301 -14.667 2.33301 -29.167 3 -43.5s1 -28.5 1 -42.5v-455h-117v731h119l186 -307c4 -6 9.5 -16.167 16.5 -30.5
s12.5 -26.833 16.5 -37.5c4 10.667 9.33301 23.167 16 37.5s12.334 24.5 17.001 30.5l186 307h119v-731h-117v457c0 14 0.333008 27.833 1 41.5s1.66699 27.834 3 42.501c-2 -6 -5 -13.167 -9 -21.5s-8.33301 -16.666 -13 -24.999l-13 -22.5
c-4 -6.66699 -6.66699 -11 -8 -13zM255.999 1313h-205v100h529v-100h-203v-631h-121v631z" />
    <glyph glyph-name="minus" unicode="&#x2212;" 
d="M965 766v-141h-883v141h883z" />
    <glyph glyph-name="notequal" unicode="&#x2260;" 
d="M639 807l-90 -223h416v-142h-476l-100 -245h-141l100 245h-266v142h326l90 223h-416v141h475l100 246h142l-101 -246h267v-141h-326z" />
    <glyph glyph-name="lessequal" unicode="&#x2264;" horiz-adv-x="1049" 
d="M455 252h512v-141h-512h-371v141h371zM205 778l760 -321l-2 -150l-881 391v160l881 391l2 -149z" />
    <glyph glyph-name="greaterequal" unicode="&#x2265;" horiz-adv-x="1049" 
d="M965 252v-141h-371h-512v141h512h371zM84 1100l2 149l881 -391v-160l-881 -391l-2 150l760 321z" />
    <glyph glyph-name="uniFB01" unicode="&#xfb01;" horiz-adv-x="1051" 
d="M35 1024h130.999v61c0 49.333 3.83301 94.833 11.5 136.5s21.667 77.5 42 107.5s48.166 53.5 83.499 70.5s80.333 25.5 135 25.5c37.333 0 69.333 -1.33301 96 -4s51.334 -6 74.001 -10v-143c-20.667 4 -42 7.66699 -64 11s-46.333 5 -73 5
c-24.667 0 -46.167 -3.16699 -64.5 -9.5s-33.666 -17 -45.999 -32s-21.5 -34.833 -27.5 -59.5s-9 -55.667 -9 -93v-66h272v-139h-272v-885h-158v885h-131v139zM906.999 1024v-1024h-158v1024h158zM906.999 1413v-199h-158v199h158z" />
    <glyph glyph-name="uniFB02" unicode="&#xfb02;" horiz-adv-x="1161" 
d="M35 1024h130.999v61c0 49.333 3.83301 94.833 11.5 136.5s21.667 77.5 42 107.5s48.166 53.5 83.499 70.5s80.333 25.5 135 25.5c37.333 0 69.333 -1.33301 96 -4s51.334 -6 74.001 -10v-143c-20.667 4 -42 7.66699 -64 11s-46.333 5 -73 5
c-24.667 0 -46.167 -3.16699 -64.5 -9.5s-33.666 -17 -45.999 -32s-21.5 -34.833 -27.5 -59.5s-9 -55.667 -9 -93v-66h272v-139h-272v-885h-158v885h-131v139zM750.999 1413l158 0.000976562v-1139c0 -54 8.66699 -93 26 -117s45.333 -36 84 -36
c22.667 0 45.667 1.16699 69 3.5s46.333 5.16602 69 8.49902v-139c-23.333 -4 -48.833 -7.33301 -76.5 -10s-58.834 -4 -93.501 -4c-45.333 0 -83.166 6.33301 -113.499 19s-54.5 31.667 -72.5 57s-30.833 57 -38.5 95s-11.5 82 -11.5 132v1130z" />
    <glyph glyph-name="acute.uc" horiz-adv-x="494" 
d="M262 1819h193v-15l-299 -280h-117v10z" />
    <glyph glyph-name="grave.uc" horiz-adv-x="494" 
d="M457 1534v-10h-117l-299 280v15h192z" />
    <glyph glyph-name="dieresis.uc" horiz-adv-x="543" 
d="M166 1722v-198h-158v198h158zM535 1722v-198h-158v198h158z" />
    <glyph glyph-name="circumflex.uc" horiz-adv-x="678" 
d="M223 1819h232l202 -285v-10h-116l-203 188l-201 -188h-117v10z" />
    <glyph glyph-name="tilde.uc" horiz-adv-x="653" 
d="M633 1604c-25.333 -30 -49.999 -50.834 -73.999 -62.501s-52 -17.5 -84 -17.5c-20.667 0 -43.834 4.66699 -69.501 14s-51.834 19.5 -78.501 30.5s-53.5 21 -80.5 30s-52.5 13.5 -76.5 13.5c-30.667 0 -57.334 -7.66699 -80.001 -23s-46 -37 -70 -65v139
c19.333 25.333 42.666 45.666 69.999 60.999s57.333 23 90 23c28 0 54.833 -4.66699 80.5 -14s50.834 -19.666 75.501 -30.999s49.334 -21.666 74.001 -30.999s50.334 -14 77.001 -14c26 0 51.667 8.33301 77 25s48.333 39 69 67v-145v0z" />
    <glyph glyph-name="breve.uc" horiz-adv-x="584" 
d="M291 1524c-50 0 -92.999 8.33301 -128.999 25s-65.833 38.834 -89.5 66.501s-41.334 59.167 -53.001 94.5s-18.167 71.666 -19.5 108.999h119c6 -108 63.333 -162 172 -162c53.333 0 94.5 13.5 123.5 40.5s45.167 67.5 48.5 121.5h119
c-2 -37.333 -8.83301 -73.666 -20.5 -108.999s-29.167 -66.833 -52.5 -94.5s-53 -49.834 -89 -66.501s-79 -25 -129 -25z" />
    <glyph glyph-name="macron.uc" horiz-adv-x="606" 
d="M586 1524h-566v127h566v-127z" />
    <glyph glyph-name="dotaccent.uc" horiz-adv-x="174" 
d="M166 1722v-198h-158v198h158z" />
    <glyph glyph-name="ring.uc" horiz-adv-x="584" 
d="M66 1753c0 31.333 6 60.833 18 88.5s28.167 51.667 48.5 72s44.333 36.5 72 48.5s57.167 18 88.5 18c32 0 61.667 -6 89 -18s51.333 -28.167 72 -48.5s36.834 -44.333 48.501 -72s17.5 -57.167 17.5 -88.5c0 -32 -5.83301 -61.833 -17.5 -89.5
s-27.834 -51.834 -48.501 -72.501s-44.667 -37 -72 -49s-57 -18 -89 -18c-31.333 0 -60.833 6 -88.5 18s-51.667 28.333 -72 49s-36.5 44.834 -48.5 72.501s-18 57.5 -18 89.5zM168 1753c0 -17.333 3.16699 -33.666 9.5 -48.999s15.166 -28.666 26.499 -39.999
s24.666 -20.166 39.999 -26.499s31.666 -9.5 48.999 -9.5s33.5 3.16699 48.5 9.5s28.167 15.166 39.5 26.499s20.333 24.666 27 39.999s10 31.666 10 48.999s-3.33301 33.666 -10 48.999s-15.667 28.666 -27 39.999s-24.5 20.166 -39.5 26.499s-31.167 9.5 -48.5 9.5
s-33.666 -3.16699 -48.999 -9.5s-28.666 -15.166 -39.999 -26.499s-20.166 -24.666 -26.499 -39.999s-9.5 -31.666 -9.5 -48.999z" />
    <glyph glyph-name="caron.uc" horiz-adv-x="584" 
d="M-29 1808v11h117l201 -189l203 189h116v-11l-202 -284h-232z" />
    <glyph glyph-name="hungarumlaut.uc" horiz-adv-x="711" 
d="M203 1819h192v-15l-258 -280h-117v10zM498 1819h192v-15l-258 -280h-117v10z" />
    <glyph glyph-name="foursuperior" horiz-adv-x="825" 
d="M768 913v-120h-145v-228h-138v228h-446v110l424 510h160v-500h145zM195 913h290v351z" />
    </font>
</defs>
</svg>
